<svg id="Layer_1" xmlns="http://www.w3.org/2000/svg" xmlns:xlink="http://www.w3.org/1999/xlink" viewBox="0 0 111.3 49.5"><style>.st0{fill:#FFFFFF;} .st1{clip-path:url(#SVGID_2_);fill:url(#SVGID_3_);} .st2{clip-path:url(#SVGID_5_);fill:url(#SVGID_6_);} .st3{clip-path:url(#SVGID_8_);fill:url(#SVGID_9_);} .st4{clip-path:url(#SVGID_11_);fill:url(#SVGID_12_);} .st5{clip-path:url(#SVGID_14_);fill:url(#SVGID_15_);} .st6{clip-path:url(#SVGID_17_);fill:url(#SVGID_18_);} .st7{fill:#8B1409;} .st8{fill:none;}</style><path class="st0" d="M67.5 9.9H54.9v1.2c.6.1 1.1.1 1.5.2.5.1.8.3 1.1.5.8.6.7 1.8.7 4v14.6c0 3 .3 7.2-3.9 7.1-1.8 0-3.7-1.3-4.2-3.7h-1.4c.6 3.9 2.7 6.6 7.8 6.6 4.3 0 8.2-2 8.1-8.7V15.8c0-2.2 0-3.3.7-4 .5-.4.9-.6 2.2-.7V9.9zM81.9 9.9H69.3V11.1c1.3.1 1.7.3 2.2.7.6.5.7 1.4.7 2.8V35c0 1.4-.1 2.3-.7 2.8-.5.4-.9.6-2.2.7V39.7h19.1l2-5.8h-1.5c-1.5 3.2-3.7 3.6-5.8 3.6-1.7 0-2.8-.1-3.6-.6-.6-.4-.9-1.5-.9-3.3V15.8c0-2.2 0-3.4.7-4 .5-.4 1.3-.6 2.6-.7V9.9z"/><path class="st0" d="M102.9 9.9H90.3V11.1c1.3.1 1.7.3 2.2.7.6.5.7 1.4.7 2.8V35c0 1.4-.1 2.3-.7 2.8-.5.4-.9.6-2.2.7V39.7h19.1l2-5.8h-1.5c-1.5 3.2-3.7 3.6-5.8 3.6-1.7 0-2.8-.1-3.6-.6-.6-.4-.9-1.5-.9-3.3V15.8c0-2.2 0-3.4.7-4 .5-.4 1.3-.6 2.6-.7V9.9z"/><defs><path id="SVGID_1_" d="M23.1 12.299999999999997c1 3 1.6 6.1 1.8 9.2.1 1.1.1 2.1.1 3.2s0 2.1-.1 3.2c-.3 3.8-1.1 7.6-2.5 11.2-.6 1.4-1.2 2.7-2 4l-.6.9c-.4.6-.8 1.2-1.3 1.7-.5.6-1.1 1.3-1.7 1.9-.6.6-1.3 1.2-2 1.7-.1 0-.1.1-.2.1v.1c1.3 0 2.7-.4 3.9-.9.6-.3 1.1-.6 1.7-1 .1-.1.2-.2.3-.2.7-.5 1.3-1.1 1.9-1.7.8-.8 1.4-1.7 2-2.6.5-.7.9-1.5 1.3-2.3 1.5-3 2.5-6.4 3-9.7.3-2.1.5-4.3.5-6.4 0-2.1-.1-4.3-.5-6.4-.5-3.3-1.5-6.7-3-9.7-.2-.4-.4-.7-.6-1-.8 1.5-1.5 3.1-2 4.7"/></defs><clipPath id="SVGID_2_"><use xlink:href="#SVGID_1_" overflow="visible"/></clipPath><linearGradient id="SVGID_3_" gradientUnits="userSpaceOnUse" x1="317" y1="791.26" x2="318" y2="791.26" gradientTransform="matrix(0 -103.6083 -103.6083 0 82002.984 32930.12)"><stop offset="0" stop-color="#D82C25"/><stop offset=".254" stop-color="#D62C24"/><stop offset=".443" stop-color="#CF2A23"/><stop offset=".61" stop-color="#C32720"/><stop offset=".765" stop-color="#B1221A"/><stop offset=".91" stop-color="#9B1B12"/><stop offset="1" stop-color="#8B1409"/></linearGradient><path class="st1" d="M14.6 7.6h14.6v41.9H14.6z"/><defs><path id="SVGID_4_" d="M26.9 4.7c.2.3.4.5.6.8 3.2 4.7 4.7 10.4 5.1 16.1.1 1.1.1 2.1.1 3.2s0 2.1-.1 3.2c-.4 5.7-1.9 11.3-5.1 16.1-.4.6-.8 1.2-1.3 1.7-.5.6-1.1 1.3-1.7 1.9-.6.6-1.3 1.2-2 1.7-.1 0-.1.1-.2.1v.1c1.3 0 2.7-.4 3.9-.9.6-.3 1.1-.6 1.7-1 .1-.1.2-.2.3-.2 2.2-1.7 3.9-4 5.2-6.5 1.5-3 2.5-6.4 3-9.7.3-2.1.5-4.3.5-6.4 0-2.1-.2-4.3-.5-6.4-.5-3.3-1.5-6.7-3-9.7-1.2-2.3-2.7-4.5-4.7-6.1-.6.5-1.2 1.3-1.8 2"/></defs><clipPath id="SVGID_5_"><use xlink:href="#SVGID_4_" overflow="visible"/></clipPath><linearGradient id="SVGID_6_" gradientUnits="userSpaceOnUse" x1="317.556" y1="795.299" x2="318.556" y2="795.299" gradientTransform="matrix(0 -66.5737 -66.5737 0 52975.656 21200.223)"><stop offset="0" stop-color="#D82C25"/><stop offset=".254" stop-color="#D62C24"/><stop offset=".443" stop-color="#CF2A23"/><stop offset=".61" stop-color="#C32720"/><stop offset=".765" stop-color="#B1221A"/><stop offset=".91" stop-color="#9B1B12"/><stop offset="1" stop-color="#8B1409"/></linearGradient><path class="st2" d="M22.3 2.5h14.6v47H22.3z"/><g><defs><path id="SVGID_7_" d="M30.1.1c2 1.4 3.8 3.4 5.2 5.4 3.2 4.7 4.7 10.4 5.1 16.1.1 1.1.1 2.1.1 3.2s0 2.1-.1 3.2c-.4 5.7-1.9 11.3-5.1 16.1-1.4 2-3.1 4-5.2 5.4v.1c2.1-.1 4.2-.9 5.9-2.1 2.2-1.7 3.9-4 5.2-6.5 1.5-3 2.5-6.4 3-9.7.3-2.1.5-4.3.5-6.4 0-2.1-.1-4.3-.5-6.4-.5-3.3-1.5-6.7-3-9.7-1.3-2.5-3-4.8-5.2-6.5C34.3.9 32.2.1 30.1.1z"/></defs><clipPath id="SVGID_8_"><use xlink:href="#SVGID_7_" overflow="visible"/></clipPath><linearGradient id="SVGID_9_" gradientUnits="userSpaceOnUse" x1="317.103" y1="792.01" x2="318.103" y2="792.01" gradientTransform="matrix(0 -93.9075 -93.9075 0 74413.03 29850.287)"><stop offset="0" stop-color="#D82C25"/><stop offset=".254" stop-color="#D62C24"/><stop offset=".443" stop-color="#CF2A23"/><stop offset=".61" stop-color="#C32720"/><stop offset=".765" stop-color="#B1221A"/><stop offset=".91" stop-color="#9B1B12"/><stop offset="1" stop-color="#8B1409"/></linearGradient><path class="st3" d="M30.1 0h14.6v49.5H30.1z"/></g><g><defs><path id="SVGID_10_" d="M30.1 0c-1.3 0-2.7.4-3.9.9-.6.3-1.1.6-1.7 1-.1.1-.2.2-.3.2-.7.5-1.3 1.1-1.9 1.7-.8.8-1.4 1.7-2 2.6-.5.7-.9 1.5-1.3 2.3-1.5 3-2.5 6.4-3 9.7-.3 2.1-.5 4.3-.5 6.4 0 2.1.1 4.3.5 6.4.5 3.3 1.5 6.7 3 9.7.2.4.4.7.6 1 .8-1.5 1.5-3.1 2-4.7-1-3-1.6-6.1-1.8-9.2-.1-1.1-.1-2.1-.1-3.2s0-2.1.1-3.2c.3-3.8 1.1-7.6 2.5-11.2.6-1.4 1.2-2.7 2-4l.6-.9c.4-.6.8-1.2 1.3-1.7.5-.6 1.1-1.3 1.7-1.9.6-.6 1.3-1.2 2-1.7.1 0 .1-.1.2-.2z"/></defs><clipPath id="SVGID_11_"><use xlink:href="#SVGID_10_" overflow="visible"/></clipPath><linearGradient id="SVGID_12_" gradientUnits="userSpaceOnUse" x1="315" y1="776.74" x2="316" y2="776.74" gradientTransform="matrix(0 103.6083 103.6083 0 -80453.898 -32673.394)"><stop offset="0" stop-color="#D82C25"/><stop offset=".254" stop-color="#D62C24"/><stop offset=".443" stop-color="#CF2A23"/><stop offset=".61" stop-color="#C32720"/><stop offset=".765" stop-color="#B1221A"/><stop offset=".91" stop-color="#9B1B12"/><stop offset="1" stop-color="#8B1409"/></linearGradient><path class="st4" d="M15.5 0h14.6v41.9H15.5z"/></g><g><defs><path id="SVGID_13_" d="M22.3 0c-1.3 0-2.7.4-3.9.9-.6.3-1.1.6-1.7 1-.1.1-.2.2-.3.2-2.2 1.7-3.9 4-5.2 6.5-1.5 3-2.5 6.4-3 9.7-.3 2.1-.5 4.3-.5 6.4 0 2.1.1 4.3.5 6.4.5 3.3 1.5 6.7 3 9.7 1.2 2.3 2.7 4.5 4.7 6.1.6-.7 1.2-1.4 1.8-2.2-.2-.3-.4-.5-.6-.8-3.1-4.6-4.6-10.3-5-15.9-.1-1.1-.1-2.2-.1-3.2 0-1.1 0-2.1.1-3.2.4-5.7 1.9-11.3 5.1-16.1.4-.6.8-1.2 1.3-1.7.5-.6 1.1-1.3 1.7-1.9.6-.6 1.3-1.2 2-1.7 0 0 .1-.1.1-.2z"/></defs><clipPath id="SVGID_14_"><use xlink:href="#SVGID_13_" overflow="visible"/></clipPath><linearGradient id="SVGID_15_" gradientUnits="userSpaceOnUse" x1="314.444" y1="772.701" x2="315.444" y2="772.701" gradientTransform="matrix(0 66.5743 66.5743 0 -51426.98 -20943.662)"><stop offset="0" stop-color="#D82C25"/><stop offset=".254" stop-color="#D62C24"/><stop offset=".443" stop-color="#CF2A23"/><stop offset=".61" stop-color="#C32720"/><stop offset=".765" stop-color="#B1221A"/><stop offset=".91" stop-color="#9B1B12"/><stop offset="1" stop-color="#8B1409"/></linearGradient><path class="st5" d="M7.7 0h14.6v47H7.7z"/></g><g><defs><path id="SVGID_16_" d="M14.6 0c-2.1.1-4.2.9-5.9 2.1-2.2 1.7-3.9 4-5.2 6.5-1.5 3-2.5 6.4-3 9.7C.2 20.2 0 22 0 23.8v1.9c0 1.8.2 3.6.5 5.4.5 3.3 1.5 6.7 3 9.7 1.3 2.5 3 4.8 5.2 6.5 1.7 1.3 3.8 2.1 5.9 2.1v-.1c-2-1.4-3.8-3.4-5.2-5.4C6.2 39.3 4.7 33.6 4.3 28c-.1-1.1-.1-2.1-.1-3.2s0-2.1.1-3.2c.4-5.7 1.9-11.3 5.1-16.1 1.4-2 3.1-4 5.2-5.5z"/></defs><clipPath id="SVGID_17_"><use xlink:href="#SVGID_16_" overflow="visible"/></clipPath><linearGradient id="SVGID_18_" gradientUnits="userSpaceOnUse" x1="314.897" y1="775.99" x2="315.897" y2="775.99" gradientTransform="matrix(0 93.9078 93.9078 0 -72864.22 -29593.672)"><stop offset="0" stop-color="#D82C25"/><stop offset=".254" stop-color="#D62C24"/><stop offset=".443" stop-color="#CF2A23"/><stop offset=".61" stop-color="#C32720"/><stop offset=".765" stop-color="#B1221A"/><stop offset=".91" stop-color="#9B1B12"/><stop offset="1" stop-color="#8B1409"/></linearGradient><path class="st6" d="M0 0h14.6v49.5H0z"/></g><g><path class="st7" d="M23.7 47c.6-.7 1.2-1.4 1.8-2.2-.2-.3-.4-.5-.6-.8l-.6-.9c-.6.9-1.3 1.8-2 2.6.5.5.9.9 1.4 1.3M27.9 47.6c-.5.4-1.1.7-1.7 1 1.2.6 2.5.9 3.9.9v-.1c-.8-.5-1.5-1.1-2.2-1.8M21.6 49.5c.2 0 .4-.1.6-.1-.2-.2-.4-.3-.6-.5-.5-.4-1-.8-1.5-1.3-.5.4-1.1.7-1.7 1 .8.4 1.6.6 2.5.8.3 0 .5.1.7.1m.7 0c0-.1-.1-.1-.1-.1-.2 0-.4.1-.6.1h.7zM21 2.5c-.6.7-1.2 1.4-1.8 2.2.2.3.4.5.6.8l.6.9c.6-.9 1.3-1.8 2-2.6-.5-.4-.9-.9-1.4-1.3M16.8 1.9c.5-.4 1.1-.7 1.7-1-1.3-.5-2.6-.9-3.9-.9v.1c.8.5 1.5 1.1 2.2 1.8M26.2.9c-.8-.4-1.6-.6-2.5-.8-.2 0-.4-.1-.6-.1-.2 0-.5 0-.7-.1V0l.1.1c.2.2.4.3.6.5.5.4 1 .8 1.5 1.3.5-.4 1-.7 1.6-1"/></g><path class="st8" d="M0 0h111.3v49.5H0z"/></svg>