<svg xmlns="http://www.w3.org/2000/svg" width="100" height="70.749" viewBox="0 0 841.89 595.28"><g stroke="#000" stroke-width=".284"><path d="M227.194 187.145l.142-1.35 5.967-2.912v-.64l-1.704-.425v-1.634l1.774-3.552 2.627-.142 4.973-1.49 1.42-4.12 6.037-3.125 4.334-.143 7.385-1.918h1.208l5.895 3.34 8.31 1.633 8.665-.213 5.113 4.19 2.06.142 2.132-.78 1.704-.072 7.458 2.913 4.332-1.563.072-.853-.782-1.917 1.918-1.278 1.137-.07.427.567.212 2.627 4.12.924.284-.995 1.065-.215 1.064 1.21-.142 1.064-2.06 2.272-6.18.426-3.905 2.7-5.824 1.632-1.847 2.557-1.918 3.338-.425 2.486 2.627 1.777 2.273 2.273 1.847.212v1.492l-1.137 2.416-.07 1.775 2.556-.285 2.698-5.043 3.054-1.918.355-2.485 4.76-6.536 3.976-.142 2.13 3.338-.283.994-.355 1.065 2.77.356 1.917-2.485h.782l.496 5.114 2.63 5.966.283 1.56-.924 1.706-5.54 2.628-2.132.142-.64-.64-4.33.072-6.11 3.693v.923h.64l3.978-2.202 3.41-.213-.285.64-1.065 1.137.142 2.13 2.486 1.137-.142 1.347-3.55.782-.994.71v.71l-.782-.142-.142-.853 1.635-.923.07-1.49-3.055.78-4.332 2.486-1.562 2.556-3.196.427-3.126 4.405-1.065 1.632-1.135.213.497-2.06h-.923l-1.634 4.973-4.19 3.124-3.056 3.34-.497 3.692-.71 4.332-.285 1.633-.923.07-1.136-2.98-.143-4.547-1.776-.853-2.768-.14-1.99.496-.14 1.634-1.92.142-2.13-.923-3.978-.07-3.55 3.408-2.415 4.334-.712 5.043 1.137 3.124.994 1.707 4.403.07 1.988-3.195 4.69-.782v1.704l-3.48 6.11-.214 1.135 6.463.14-.782 5.825v2.77l1.207.568.71 1.35 1.42.852 1.35-.568 1.137-.64.994.426.782.994.07.498h1.208l1.35-3.693 1.917-.568 2.13-1.208 1.493-1.066.71.214-.07.923-.854.64-.213 1.065-.498.568-.107 1.35.817.746 1.172-.427v-2.664l.89-1.918 1.1.142 3.23 2.664 2.487.46 1.563-.638 1.172-.178.604.213 1.1 1.848 1.846 1.812 1.42 1.17 2.025 2.24 4.795 1.028 1.705 1.812 1.492 1.846.85 2.593-.53 1.88-.818 1.244-.817 1.172.072.675.814.036v-.745l1.812-.96.675-.39 1.173.108.142.568.07.64-.425.85-.853.32-.78.037v1.064l1.633-.07 1.1-.96.498-1.562 1.1-.25 1.21 1.422 1.348.78 3.8 1.564 2.912.32 4.154 2.487 1.67.035.887 5.646-5.008 6.89.675 3.09-.036 3.62-1.632 5.33-.817 3.586-4.438 1.704-3.658 2.308-.532 5.682-1.35 4.085-1.456 3.8-1.598 2.165-1.208.107-3.054-1.847-1.278-.107 3.374 4.227-1.28 2.025-1.17 1.597-1.954.14-1.42.57v.817l.674.39-.568 1.492-1.705.64-.355.176v.995l1.384 1.385-.533 2.948-1.386 2.308 3.057 2.167-.037 1.28-.745 1.42-.036 2.91.85 2.132-1.135 1.633v1.03l-.96.106-1.633-1.315-.354-1.563-1.244-.248-4.26-7.28-.782-.39-.568-.107.07-.887 1.03-.854.107-1.172-1.74-5.042-2.59-1.492-.214-1.384-.285-1.954-.567-1.527.32-3.658.32-.213-.036-4.58-1.03-1.634-.036-4.83-.354-2.238-.32-2.344-.32-2.77-.248-2.77-.213-2.343-.674-2.415-.603-1.065-2.913-2.557-1.633-1.35-3.16-3.445-1.775-2.45-1.172-2.13-1.492-2.842-.673-1.382-.71-1.955-2.486-1.563-.106-3.443 1.42-1.457.036-.923h-1.065l-.036-2.13.85-3.765 3.375-3.48.07-4.723-.07-1.955-.497-1.456-.532-.533-.605-.072-.71.533-.176 1.49-1.527.144-2.557-2.415-2.343-1.598-.995-1.244-.178-1.598-.96-1.74-.78-1.528-1.634.072-2.485-1.812-1.03-.675-1.066-.78-.995-1.386-1.03-.746-.746.53-1.35.64-5.114-2.804-2.628-1.67-2.06-1.668-1.03-1.776.32-1.42-.213-3.765-2.202-4.65-1.527-3.73-.746-2.983-.035-4.083-.07-2.095h-.498l-.533 1.525-.746 2.842-.213 1.882.57 1.88 1.348 4.297.994 3.907.036.994-1.243-.07-.746-2.31-1.172-2.023-1.207-2.308-.213-1.635.852-2.307-.604-1.492-.32-2.38-.284-1.348-.106-2.167-2.024-1.988-.07-3.162.496-3.48 1.35-3.515 3.764-6.322 2.38-4.154 1.81-2.38h1.243l.283.888.64.108.035-1.243.533-3.127-.745-1.917.036-2.274 1.315-4.154 1.313-3.41.676-1.74-.036-.96-.64.108-.78.427H252.3l-.427-.675-.248-.888-.426-1.137-1.42-.32-1.81-1.24-.818-.712h-.78l-.818.854-1.384.71-.89.354-.922.106-1.243-.07-.248-.497.78-.78.924-.392.995-.817.924-.568.07-.64h-.817l-2.272 1.03-8.63 4.403-3.55 1.812-1.314.64zM222.65 187.783v-1.136l1.632-.426 1.136.57.072.71-.924.283z"/><path d="M248.786 199.646l-.142-1.35 1.49.142.285.923.852 1.066v2.06l-.497.07-1.136-1.207v-1.493zM292.04 214.56l.852.07 1.137-2.13.567-.07.71.78.64-.07v-1.35l-1.208-1.847-1.99-.213-.497-.71-.213-2.202-1.35-1.42-2.273.498-3.337 1.632.07.783 1.137.355 1.99-.427 1.633.57 1.49.497.072 1.064-3.196.213-1.278.923-.782 1.848-1.065 2.272.285 1.137 1.918-1.492.426-1.775 1.49-1.42 1.42-.427 1.208.498zM289.91 217.543v-.923l1.988-.355 1.776-.355 1.847-.498 2.06-.426 1.066-.71 1.35-.142-.143.78-1.563.925-2.84.212-.853.923-2.912.71zM321.8 207.386l4.687-3.338 1.066-.355.213.71-.71 1.918.71.924.284 2.273-.356 1.99-1.845-.995-1.35-.782h-2.13l-.57-1.633zM346.304 155.04l.14.782-3.48 2.202-3.55.142-3.764 1.278-3.836 3.907-1.775.214-2.63.213-1.064-1.207-.143-.995 1.918-1.704 3.27-1.35 2.84-.922.07-.71-2.486-.427-3.41.356-1.703-.283v-.924l2.628-.57 2.77-.923h3.34l1.632 1.066H342.184l3.125-.212zM307.595 183.31l-.924-.924v-.782l2.63-1.704h1.42l.71.496v1.563l.568.71.07.994-.922.142-.64-1.136-1.135-.213-.71.355-.213.64zM286.642 169.033l2.77-.142 1.705-1.704 4.332-1.278-.07-.64-2.63-1.49-2.415.71-2.202 2.06-2.13 1.633zM299.143 163.564v1.99l4.475-.143 1.917-.426 1.278-1.49-.568-1.493-1.136-.07-1.066 1.563h-.426l-.285-.213-.994-1.136-1.28.212zM291.188 170.1v-.925l3.268-1.917 1.916-.143 3.126 1.28 1.918.638v1.066l-1.066.992.426.64.285.78-.425.356-1.492.214-.995.852-1.35-.355-1.135-.57h-2.7l-2.77.213-1.562-1.206.072-.853 2.486-.213 1.633.356.072-.782-1.42-.425M304.47 167.968l2.628-1.563 2.77.568-.285 1.136-.71 1.35-1.278 1.277-1.99-.07-1.135-1.137zM310.365 168.678l.142 1.278 1.065.07 1.776-.85 2.202-1.138v-1.065l-2.343.142-1.422.427zM310.436 163.777l.355 2.202.853-.143 1.775-1.208.072-.923-.852-.71-1.066-.285-.923.354zM316.047 163.21l.852 2.413 3.408.925h6.108l-.567-1.422-5.968-.07-1.776-2.273zM314.555 172.23l-.283-1.918 3.834-2.628 2.345.07 1.28.07.212.64-.284.64.71.995 3.054-.57 1.137 1.35 2.484 1.35 1.35 1.632-.284 1.137-.923.923v.567l3.764 2.345-.213 1.065-3.835 2.272-1.136-.64-.852-1.49-.427.142-.14 2.202-2.06 3.906-.783.284-1.35-1.064-3.053-2.985h-3.62l-.712-.71 1.776-1.775h2.983l3.835-3.906L324.57 175l-.64-1.066-3.764-.426-3.125-.498zM278.12 249.292v-.568l1.49-.854 5.398.214 6.038 4.19v.853l-.213.355H286.5l.427-1.065-.78-.57-1.422-1.065-1.066-1.42zM284.795 255.33l2.274-.073-.143 1.28h-1.42l-.782-.427zM289.838 255.542l.072.497 1.917.07 1.633.284.498.212 1.42-.71 2.7-.283v-.782l-1.492-.14-1.633-1.28-2.06.356-.995.142.284 1.28-2.2.07M300.208 255.684l1.35-.07.568.85-1.918.285-.71-.5zM305.322 258.383l.64 1.633 1.064-.285.072-.92-.57-.498-1.277-.213M305.82 260.584h1.065l.07 2.557-.85-.142-.286-1.064zM364.272 153.407l10.228.284v.783l-.994.64-2.13.425v.57l1.207.638 1.633.78 1.35.995 1.633-.425 1.633-.923 2.628.14 1.777.215.142.853-1.21.212-2.84 1.137-.426.92-2.84 1.565-2.63 2.06.072 2.06 2.273 1.277v.71l-1.564 2.132-1.207 1.207h-1.21l-.567-.568-1.207.57.07 1.206 1.35 1.207v.71l-1.42.144-.78-.57h-.57v.994l1.705.71 1.137.142-.426 1.35-3.124.213-4.9.71-5.47 2.13-4.687 1.492-6.323 7.883-1.35.71-1.916-1.918-2.2-1.278v-5.753l3.052-4.19 2.06-3.623-1.35-3.055-.852-4.19-2.486-1.92-1.988.072h-1.704l-.213-1.845 1.49-1.066.852.214h2.06l.995-.783v-1.49l11.576-4.83 1.99-.142 1.774 1.137 4.476-.213zM367.753 181.96l.995-.995 1.064-.07.853 1.42h1.065l1.42-.64 2.7-.426.923 1.277-.426 1.918-2.06 1.35-3.338-.142-2.132-.64v-.994l-.78-.356zM377.768 204.972l.568-1.208-.568-.356.497-1.42 1.278-2.13 1.634-.71h1.49l.783.213-.853 1.847-.78 1.918-1.706 2.13-.637-.07-.498-.426-.64.212z"/><path d="M386.86 193.396v.567l-.427.568 1.136.498.496.994-1.207.64.14.994.924 1.563.782 1.916.852 1.634 1.562.213-.07 1.065-.995 1.35-2.273.64-2.84.426-2.274.496.142-.852 1.634-.497v-.71l-.497-.638.71-1.634 1.634-1.137.072-1.703-1.066-.285-1.634-1.775v-2.273l.995-1.917z"/><path d="M377.484 227.132v-7.813l.213-1.634 1.634-.498h2.486l2.414.57 1.208.212 1.42-.782-.354-1.065.71-1.208-.142-2.414-1.563-.994-1.422-.71-.496-.427-.142-.995h2.556l.285-1.137-.497-.638 1.137-.072.64.924h1.348l2.7-2.84 1.065-.498.71-1.066.78-.497.286.996.496-.07-.07-2.203 1.49-.426 1.918-.57.426-1.63-.142-2.418-.14-1.28 1.135-.78 1.064-.213.356 1.28v1.56l-.71.782v1.35l.994.424 1.918.214 1.35-.07 1.632-.568 1.35-.143 1.705-.07 1.066.354.71-.14.496-1.848.78-1.917.64-.924.924.072.356.355 1.065-.426v-.922l-.428-1.633 2.557-.285h1.277l1.492-.78-.568-.925-.497-.142-1.28.072-1.064.354-1.278.64-1.705-.072-1.846-3.622v-1.136l1.564-1.492 1.207-1.42V182.1h-.71l-.993-.426-1.28 1.348-1.207 1.493-.07.995-1.42.923-1.138 2.414.71 1.775v1.35l-1.136 1.917-.78 1.918v.853l-.71.78-.854.497-.425.782-1.278.07-.357-1.49-.427-1.422-.852-.71v-1.562l-.497.14v-1.063l-1.278.71-.712.142-.497.71-1.56.07-.854-1.136v-4.046l1.918-1.35L400 186.15l3.41-3.196 2.484-2.486 3.266-3.125 5.47-3.693h2.415l2.273 1.065 1.35.64 3.692 1.42 3.196 2.202h.924l.64.994.568.286v1.206l-.57.71-1.49.072-1.704-.852-1.564-.57-1.632-.497-.073 1.422 1.066.852 1.28.71 1.917 1.988h1.28l2.413-2.486.782-.213 1.278-1.138.284.497 1.137.07v-1.35l-.71-.638v-.994l-.853-.498v-1.278h.854l1.562.994.072 1.492.64.07 2.414-.638 2.84-1.137 2.274-.71 3.55-.994 3.552-.286 1.848 1.136 1.49-.14v-.924l-1.136-1.564-.924-.213-.07-1.35 2.13-2.13.356-.64 1.776-.14.354.567-.14 1.775 3.407 4.546v1.634l-1.278.638-.426.853h1.777l1.207-1.065.072-2.06h1.845l.784-.214-.143-.78-2.626-.78-1.918-1.352-.923-1.988 4.262-2.414 1.774-1.492 2.413-1.99 6.038-1.916 2.416-.498 9.304-.07 1.42.425-.354 1.42-1.99 2.698.143.284.71.072 3.41-1.635 3.977-.212 13.566 2.343 1.56.285 3.41-.284.498-1.348.712-1.137 2.13.143 5.68 1.348 5.4-.212 3.835-.142 4.19 1.278 3.482-.07 3.904-1.777 3.41.072 8.168.923 5.61 1.562 3.126.71 1.56 1.492v.71h-1.278l-1.704-.497h-1.35l-.85.072-.782-.285-.71.213-.072 1.846 2.273.925 1.987.498.854.64-.212 1.064-2.273 3.408v.64l-3.124.284-1.564.994.782 1.35 2.7 2.627 2.484 3.907 1.138 3.552v2.27l-.854-.07-1.42-1.633-2.416-2.486-3.195-2.77-2.413-1.56.07-2.062.994-1.42-.424-2.344-1.067-1.917-.71-.072-.78 1.066h-.498l-.78-.567-1.21.212-.212 1.92.852 1.774-1.492 1.207-2.628.426-2.415.142-2.414.142-2.273.64-.57.64.073 4.97 1.846 1.99.923.07.355-.498h1.42l1.635 1.35 2.343 2.84 1.776 3.125 1.135 2.912.783 3.907.072 3.764-3.41 1.136-.64 2.984-.284 2.556 1.492 2.345 1.987 2.768.428.71v1.137l-1.35 1.066-1.208.64-.07-1.28-1.28-2.2-1.063-1.918-1.564-1.137-2.202-2.202h-.568l-1.35 1.493-1.207-.5V217.9l.356-.568-1.422-.142-2.202 2.273-.07 1.21 1.42 1.348 2.982.212 1.492.427-.214.994-.78.356.143 1.705 2.838 4.617 1.42 2.984-.852.498.924.78.923.996v5.327l-1.49 1.99-3.838 3.834-3.337 2.2-1.206 1.848h-.925l-.496-1.207-.994-.78-1.35.638-1.562 3.764.356 1.492 3.195 2.912 2.202 2.485.14 4.76-.992 1.774-1.066 1.35-1.492 1.28-.64 1.137-.923.07-.07-1.278-.57-1.067-1.064-.64-1.277-1.207-.143-1.42-1.136-.426-1.065-.71-.428-.923h-1.492l.64 3.692v2.912l1.35 2.91 1.277 1.99 1.563 2.344 1.065 2.415.853 1.563-.355 1.067-.922.07-1.278-1.35h-.64l-2.272-4.97-1.137-1.564-1.987-2.06-.072-5.115-.284-3.477-1.066-3.197-1.278-3.125-.712.214-.994 1.208-1.208.426-1.065-.498.428-3.125-2.558-2.84-1.35-1.21-.213-1.134-.07-1.988h-1.563l-1.42 1.917-1.136-.142-.498-.71-1.348.64-1.28 2.77-1.774 2.342-1.635 2.06-2.416 3.48-.922 4.688-.5 3.267-.92 4.12-.995-.143-1.065-.568-1.278-3.267-1.635-3.054-2.842-6.392-1.066-4.332-.284-4.474h-1.207l-.21 2.06-.783.283-1.278-.71-2.132-2.202-.71-1.278-.71-1.208-1.634-1.564-8.594-.07-1.563-.497-1.846-.71v-1.422l-1.064-.78-1.563.212-.852.782h-2.272l-1.066-1.066-2.486-2.344-1.35-1.42-1.56.142-.855.995.216.707 1.704 1.493.852 1.633.852.355.214 1.066.71.213 1.065-.568.64.638v1.918l.995.213 1.916.21.782-1.063.924-1.492h1.348l-.07 1.776.282 1.137 1.138.497 1.49.284.784.426.496.853-1.35 4.12-1.917 2.484-1.987 1.85-1.42.85-2.557 1.705-1.848 1.847-1.775 1.207-4.972 1.136-1.49.354-1.493-2.413-.64-1.28-.638-4.544-3.623-4.9-5.4-8.525-1.49-3.906-.71.78-.427-.14-.07-.427-1.42-.07.355 1.35.782 2.27 2.697 5.186 2.274 3.623.07 2.486 2.983 3.053.712 3.196.852.497 2.06 2.13 1.918 2.06-.07 2.983 1.207.14 2.768-.708 4.475-1.492 2.343-.355.142 1.137-4.19 10.228-3.623 4.83-4.33 4.473-3.34 4.12-.283 5.043 1.56 9.66.143 2.627-2.91 3.125-3.126 2.628-2.63 2.202.71 3.41-.07 3.55-3.268 2.13v1.138l-2.415 4.616-3.41 3.906-2.627 2.06-2.7.356-3.48.85-1.633 1.352-.994-.143-.427-.78-1.988-1.42-.284-3.624-3.338-5.967-.78-5.398-.5-2.628-2.768-6.18.07-5.752 2.557-4.972-1.137-6.96-1.987-4.19-3.622-5.47.64-2.84.85-2.416.144-1.775-1.99-.284h-2.2l-2.345-3.338-2.415.284-5.397 1.42-6.748 2.13-2.628-.496-5.896-6.32-4.26-5.258-1.422-3.124v-3.41l.923-3.48-.07-3.693.354-2.912 3.48-6.96 1.846-2.13h1.208l2.84-3.41.426-2.344.5-1.207 2.342-1.634.853-1.137 1.42-2.274h.923l1.35.71 1.633-.07 3.978-1.492 3.268-.71 1.918-.425 1.917-.5h2.77l3.197.213-.142 1.706-.78 2.057.283.854 1.35 1.207 1.562.57 2.344.283.71.213.497 1.776 1.777.993 2.77.497h1.066l.14-.994h-.496l.072-1.28 1.49-.85 2.2-.498 1.21.923 1.562 1.138 2.13 1.35h1.917l1.28-.71 2.13-.427.994.07 1.278.143.64.427.78-1.35.497-1.49.64-2.132v-2.911l.496-.355v-.638l-2.77.213-1.99-.072-2.272.285-2.415.07-.994-.993-.64-2.345-.64-2.343h1.28l.782-.78.638-.428h.994l1.634-.285.71-.64.852-.567.853-.78h1.845l1.137.71 1.705.283 1.207.285 1.35.214 2.272-.073-.07-1.42.354-.71-.78-.71h-.854l-1.064-.854-.782-.71-1.492-.852-.638-.71.212-1.135.995-.994.71-.426v-.64l-.853-.212-.64.284-2.982 1.492.853.852v.923l-1.42.853h-.925l-.923-.924-.64-2.06-.354-.568-.852.285-1.775.78-.922 2.628-.995 1.846v1.918l.567 1.065-1.634 1.492h-.993l-.922-.64-1.918.426-.356 1.064-.21 1.706V228.126l-1.636.284-1.065-.995v-1.988l.85-.213-1.207-.64-.78-1.206-.923-2.132-1.208-1.633-1.563-.995-2.202-2.06-1.35-.568-.78-.852-.427-.71h-.78l-.284 1.137.71.71.78 1.42.214.782 1.563.78 1.35.5v.992l1.633 1.065.923.923.497 1.065h-.498l-.64-.638h-.498l-.213 2.486-.356.568h-.638l-.143-1.988-.923-1.137-1.136-1.207-1.207-.924-1.492-.142-.994-.57-1.35-2.2-.496-1.137-.995-.78-.995.425-1.563 1.705-1.35.284-.71-.78-1.775.78-.355 1.42-3.622 3.056-1.42 3.053-1.635 2.7-.994-.072-1.278-.568-1.136.284-1.633.284-1.492-.71-.993-.213z"/><path d="M399.43 217.472l-.993 1.136.14 1.422v.496h1.067l.284-.426v-1.35zM398.223 222.018l.568-.497.996-.212.07.568-.355 1.064.286.215-.427.993-.57.142-.353-.354-.285-1.137zM403.62 225.996l.143.426 1.35.923 1.064.923 1.28-.142.142-1.492-.712-.78h-1.137zM416.902 230.186v-.498l1.28.498 2.485-.072.213.498-1.278.64-.782-.5-.852-.21zM428.054 230.896l.78-1.208 2.133-.638.212.78-.71.923-1.21.71-.71.072zM438.495 170.17l-.57 2.982 2.914.498.708.496 2.486-.07v-.568l-1.846-.426-.426-.57-.64-2.485zM439.418 169.388l2.2-.07 1.138-1.066h.426l1.28-.994h1.207l2.484-1.847.072-1.846-.64-.07-2.415 2.272h-1.278l-1.846-.143-.853.996-.64.992-.92.143zM541.127 193.75l.212-.71.923.07.71.71 1.277 1.847 1.42 1.49h.71l2.487 2.7 1.066.57-.142.567-.354.78.994 1.777.853.782.922.71v.995h-.64v.355h-.78l-.923-2.202-1.28-.782-.993-1.42-1.705-2.058-1.848-2.06-1.703-2.842zM551.78 208.807l.14-.71 1.138-.497.852.425h.995l1.49.286.64.284.994.852v1.207l-.853.924-.284.71-.923.143-.71-.497h-.71l-.07 1.42h-1.14l-.638-.923-.425-.853.212-.852.355-.64-.143-.497zM554.123 214.276l1.136-.07 1.277 1.135 1.42 2.274.855 2.77.638 1.846-.355 2.628-1.847.214-1.065-1.066h-1.99l-1.916 1.137-.072 1.918-1.277.57-1.28-.215-.14-.923 1.277-1.562 2.984-2.202.07-1.776h.64l1.064.427.64-2.133-.996-.85-.78-2.487zM549.15 229.618l1.067.07.14.64.357 1.278.498.782.993-.072.71-1.135-.923-1.208-.85-1.704-1.21-.142-.71.213-.213.993"/><path d="M553.058 226.705l1.42-.142.71-.426.995-.994-.783-.356-1.42.285-.71.57zM507.033 195.454l.57-.64.353.64-.07 2.984-.496 1.42-.783.923-1.066.285v-.85l1.067-.996.57-1.564zM450.854 213.636h-.71l-.215.853-.853.496-.64.497.214.64.854.64 1.704 2.342v2.203l1.207.994.995 1.49.496 1.92.71.922-.07.71-1.278.782h-.995l-2.555-1.42-1.634-.426v-2.344l.852-2.415-1.918-2.06-2.913-3.125-.07-2.06 1.988-1.632 2.84-.924 1.066-.356.995.213.496.64-.07.85zM459.163 211.08h1.634l.284.497.284 2.557-.78 1.492-1.137.354h-1.35l-.426-1.633.073-1.633.78-.853zM474.576 211.577l-.712.142.142.85.64.214.57.64.566.07.214-.923v-.71l1.988-.07 1.563-.142 1.35-.426v-.71h-1.066l-.567.355-.78-.214-.996-.354-.71-.285h-.923l-.71.568zM429.97 285.017l1.777-.64.923.072 1.137.354-.072.57-.567.922-.782 1.065v1.777l-1.42.142-1.278-1.137zM426.633 291.907l-.07 3.196 1.207 2.343.78.072v-1.492l-.994-1.847v-1.42l-.284-.995zM431.89 300.217l.85-.284.072 1.562.356 3.267.283 2.415-.71-.284-.495-.853-.142-1.775.07-2.344zM445.24 315.912l.073-1.917-.496-.213.78-2.912 2.06-1.562 1.206-.924 1.066-1.704 2.7-2.912.566-.143.072 2.13.07 4.405-2.698 7.387-1.633 6.037-2.7.924-1.49.07-1.138-2.486-.142-2.415zM459.447 317.12l.143.994.78.498h.923l.142-.64-1.065-.85zM462.927 315.7h.498l.212.853-.426.71-.71-.072zM543.043 242.473l1.138-.284.57 1.845v.853l.565 2.7h-.993l-1.28-1.137-.567-1.705zM544.605 253.27l1.99-.143 1.42 1.847-.852 2.27.853 2.7 1.988.57 1.703 1.42.285.995h-1.136l-1.706-1.706-2.27.14-1.99-2.84-.285-1.42.568-.71-.283-1.99zM494.177 269.036l1.563 2.415 1.28 1.422-.853 1.988-2.13.57-.995-1.85.284-2.13.426-1.704zM515.485 275.854l4.688 3.836 4.262 4.545 2.7 2.984 1.702 1.987-.282 2.13v1.705l-1.848.427-3.124-2.984-3.553-5.682-2.698-3.977-2.13-3.126h-.853l-.143-1.277zM526.85 295.6l.71-1.28 2.272-.71 1.705.71 3.41.427 1.99.853 2.27 1.846.57 1.846-1.422-.14-1.418-.853-1.99-.143-1.848-.71-3.41-.853-1.135-.994zM546.326 266.06l-.338 1.61-1.017 1.78h-.847l.084-1.356.848-1.018.34-1.017.846-.255M549.378 264.534l1.61.254v.763l-.762 1.103-.933.254-.254-1.27zM547.937 270.552l.68-1.016.846-.51h.594l.592-.254.51-1.017h.93l.34.933.678 1.27-1.61 2.544-1.61.084-.086-1.44-.255-.34-1.27.085zM543.867 273.604l.85.762.592.764.762 1.1-1.44 1.273-.425 2.203 1.018 1.356.593 1.866-1.525 1.525-1.356 3.052-1.188 3.052-.847.678h-1.613l-4.576-2.12-.933-2.88-.592-2.798v-1.527h.68l3.813-2.457 2.375-2.798 1.27-1.695.424-1.44zM558.787 280.64l.56.93v2.29l-.474 1.27h-.595l-.677-1.186-.083-1.356.17-1.356.762-.762zM553.786 282.42l.594-.086.083.593-.677.764-1.694.085-3.476.254-.425 2.712 1.78-.848 1.443-.763 1.188.172-.086.677-.848.084-1.695 1.272-.167 1.186 1.27 1.695.34 1.187-.677 1.187-1.61.425-.087-1.187-.17-2.627h-.933l-.34 1.526.425 2.712-.17.424h-1.185v-2.458l-.68-1.525v-2.714l1.272-3.56.762-1.102h1.95l.254.594h1.782zM541.156 299.372l.677-.933.85-.424h2.12l.17.762-.765.678zM546.497 298.44v.762l.762.594 1.865-.085 1.78-1.27.083-.932h-.676l-1.272.762zM551.498 300.39v1.355l1.187-.17 1.1-.763 1.95-1.016.595-.254v-.933h-.763l-1.78.592-1.102.34-.34.678zM558.45 289.03l1.608.17 1.357.68.083.76-1.694.17-1.27-.593zM562.433 286.488l1.355 3.305 2.034.424 2.375 2.12 2.288 1.525.594 1.018.083 2.628 2.205 1.694 2.203.51 1.357.677 1.864-2.29.934-.084 1.782 2.12.93 1.78 1.867.847 1.863.084.256-1.102-1.866-2.627-1.1-1.78-.342-.848.34-1.187-3.136-2.627-2.797-2.12-2.034-.763-2.287-1.017-3.14-.593-1.863 1.187-1.527.17.087-1.018v-1.272l-.34-.594-1.272-.592-1.103-.424-.677.17zM584.388 295.473h3.897l1.018-1.356v-2.544l-.677.085-.17 1.018-.51.93v.595h-.508l-.762-.593h-.51l-.254.51-.763.17-.594.508zM575.825 302.933h.764l.254 6.44.677 6.19 2.713 6.865 1.526 8.223-2.035 4.916-4.578 7.375-5.932 6.36-1.273.678-1.78.337-1.44 1.188-1.44.594-1.104-.256v-.93h-1.27l-.934 1.272-1.1-.85-1.443-2.203-.506-2.628-.68-2.458 1.78-1.526.086-.848h-.933l-1.865.932-.338 1.102-.847.34-.172-1.61.086-2.543-1.017-1.017-7.374.254-5.68 1.102-5.17 2.288-1.95.34-1.272.083-1.357-1.78 1.867-6.44 1.102-7.036.592-6.273 5.34-2.796 4.662-.848 6.19-5.68 3.897-3.475 1.95-.083v1.27h2.458l-.847-1.016.172-1.1 1.44-.51 2.033-2.542 1.02-1.273h1.186l1.017.933 2.63.425.423 1.017-1.528 3.9.17 1.524.934 1.018 2.627 2.628 1.526-.254 2.203-4.323.594-3.476.846-2.628zM558.787 354.98l.934-.17.763.677 1.272-.424h.763l.593.085.255 1.356-1.61 1.356-.424.848-1.1.933-1.443.17-1.27-.17v-1.78l.76-2.033.087-1.018zM596.593 347.86l.678.93.51 3.393v1.864l1.866.338v1.187l-1.697-.084-1.695 1.186-1.867 2.034-1.27 1.695-1.356-.254.17-1.61.592-2.12 1.612-.763 1.27-1.695.508-2.544.255-2.627zM589.643 358.37l1.1 1.27.085 1.442-1.863.678-3.137 1.017-2.373 1.865-1.356.933-1.02 1.44-1.1.594-2.205.084-1.017-.17-.255-1.695 1.272-.85 3.137-1.015 1.95-1.612 2.627-1.102 2.034-2.203z"/></g></svg>