<?xml version="1.0" encoding="utf-8"?>
<!-- Generator: Adobe Illustrator 19.1.0, SVG Export Plug-In . SVG Version: 6.00 Build 0)  -->
<svg version="1.1" id="Layer_1" xmlns="http://www.w3.org/2000/svg" xmlns:xlink="http://www.w3.org/1999/xlink" x="0px" y="0px"
	 viewBox="216 1009 230 59.4" style="enable-background:new 216 1009 230 59.4;" xml:space="preserve">
<g>
	<polygon points="247.8,1049.2 247.8,1049.2 247.8,1049.4 248,1049.5 248.2,1049.5 248.7,1049.3 248.7,1049.2 248.8,1049 
		248,1049.1 	"/>
	<polygon points="231.3,1045.4 231.2,1045.5 230.5,1045.4 229.9,1045.4 229.4,1045.1 229.3,1045.2 229.3,1045.2 229.3,1045.3 
		229.3,1045.4 229.3,1045.5 229.4,1045.5 230.2,1045.6 230.7,1045.7 230.8,1045.8 230.8,1045.9 230.8,1046.2 230.7,1046.3 
		230.6,1046.3 229.2,1046.1 228.8,1046.1 228.7,1046.2 228.6,1046.3 228.6,1046.4 228.8,1046.5 229.7,1046.6 230.5,1046.5 
		230.5,1046.6 230.5,1046.6 230.5,1046.6 230.7,1046.6 231.4,1045.6 231.4,1045.5 231.4,1045.5 	"/>
	<polygon points="247.3,1050 246.8,1050.1 246.6,1050.2 246.5,1050.3 246.5,1050.4 247.4,1050.3 247.4,1050.2 247.4,1050.1 
		247.4,1050.1 	"/>
	<polygon points="228.6,1045.1 228.6,1045.1 228.5,1045.1 228.3,1045.2 227.7,1045.8 227.7,1046 227.7,1046 228.4,1045.6 
		228.6,1045.3 	"/>
	<polygon points="246.6,1048.1 246.7,1048 246.8,1047.9 246.8,1047.8 246.8,1047.7 246.7,1047.7 246.7,1047.7 246.7,1047.6 
		246.7,1047.6 246.6,1047.6 246.5,1047.7 246.4,1047.7 246.3,1047.8 246.3,1047.9 246.4,1048 	"/>
	<polygon points="247.1,1049.5 247.1,1049.4 247.1,1049.3 247,1049.2 246.9,1049.2 246.7,1049.2 246.4,1049.2 246.3,1049.4 
		246.3,1049.4 246.4,1049.5 246.9,1049.5 	"/>
	<polygon points="226.9,1045.1 226.8,1044.9 226.8,1044.9 226.7,1044.9 226.6,1044.9 226.5,1045 226.4,1045.1 226.4,1045.2 
		226.6,1045.3 226.9,1045.3 226.9,1045.2 	"/>
	<polygon points="225,1041.1 224.8,1040.8 224.7,1040.9 224.7,1041 224.7,1041.2 224.8,1041.7 225,1042.1 225.1,1042.1 
		225.1,1042.1 225.2,1042.1 225.3,1042 225.3,1041.9 	"/>
	<polygon points="250.4,1049.2 250.3,1049.1 250,1049.1 249.9,1049.2 249.8,1049.3 249.8,1049.4 250,1049.5 250.3,1049.5 
		250.4,1049.4 250.4,1049.3 250.4,1049.2 	"/>
	<path d="M249.7,1037.7L249.7,1037.7l0.1,0.2l0.2,0.1h0.2v0h0v-0.1v-0.1l0-0.1l-0.1-0.1l-0.3-0.1l-0.3-0.2v0v0v-0.1l0,0l0.1-0.2h0.1
		h0l0.3,0v-0.1v-0.1l-0.1-0.2l-0.4-0.2l-0.2-1.7l0.1-0.2l-0.5-4.3l-0.2-0.6l-0.1-0.7l-0.9-2.5l-0.4-0.6l-0.2-0.4l-0.5-0.8l-0.3-0.2
		h-0.1l-0.2,0l0,0l0.1,0.1h0v0.1v0.1v0.1l-0.1,0.2l-0.2,0h-0.1l-1.8-0.1l-0.4-0.1v-0.1v-0.2h0l0,0l1.4-0.1v0l-0.1-0.1l-1.5-0.1
		l-0.1,0h0l-0.3,0.7v0.2l0.1,0l1.3,0l0,0l0.3,0l0.2,0.1l1,0.1h0.6v0l0.1,0.1l0.1,0.2v0.1l-0.1,0.2l-0.1,0.1l-0.2,0l-2.9-0.1
		l-0.4,0.1h-2.4l-0.7,0.1l-1.9,0.1l-0.2-0.3v0v-0.1l0-0.1l0.2-0.1h0.2l0.6,0l0.2-0.1l0.7-0.1l0.5,0l1.4-0.1l0.2-0.1l0-0.1l-0.7-0.7
		l-0.2-0.1l-1.3-0.1l-1.8,0.3l-0.2,0.1l0,0.1l0.7-0.1h0.7l0.4,0l0.9,0l0.2-0.1l0,0.1l0.3,0.4l-0.1,0l-2.1,0.2l-0.4,0.1l-0.7,0
		l-0.2-0.1v-0.1v-0.1v-0.1l0.1-0.1l0,0h-0.1l-0.3,0l-0.2,0.2v0.1v0l0,0.2l0.6,1.3l0.4,1.2l0.2,0.3l0.3,0.3l0.1,0.2l0,0.3l-0.1,0.2
		v0.3h0l0.1,0.1l1.7-0.1l0.6-0.1h5.1l1.8,0.1l0.2,0.1l0.1,0l0,0.1v0.3h0l0,0l-0.3,0l-0.2,0l-4.3-0.1l-1.1,0l-3,0.2l-0.3,0.1v0.1v0
		l0.1,0.3l0.2,1.6l0.2,0.3l0,0.5l0,0.2l0.2,2.4l-0.1,3.4l-0.1,0.3v0.5l-0.6,2.8l-0.2,0.6l-0.3,1l-0.1,0l-0.5,1.5l-0.2,0.3l-0.2,0.3
		l-0.2,0.7l0.1,0.2l0.2,0.1l0.9,0.2l0.2,0l1.3,0.1l0.6-0.1l0.3,0l0.1,0l0.1,0l1.2,0.1l1.9,0l0.3-0.1l0.3,0l1.1-0.2l0.2-0.1l0.9-0.1
		l0.3-0.2l0.5-0.7l0.2-0.4l0.2-0.2l0.1-0.4l0.3-0.6l0.6-2.3l0.3-2l0.1-0.1l0.1-1.5l0.1-0.3v-0.4l0.1-0.2h0.1h0.1V1037.7z
		 M244.6,1026.3l0.1-0.1l0.1,0l0.1,0h0.3l0.1,0l0.1,0.1h0l0,0.2v0.1l0,0v0.1l-0.5,0L244.6,1026.3L244.6,1026.3z M240.1,1026.5v-0.1
		l0.2-0.1h0.2h0.1l0.1,0.1v0h0v0.1v0.1l0,0v0l-0.4,0.1l-0.2-0.1L240.1,1026.5z M238.5,1026.3L238.5,1026.3l0.1,0l0.4,0l0,0h0l0,0.1
		l0,0.1v0.1v0.1l-0.2,0.1h-0.2l-0.2-0.1l-0.1-0.3L238.5,1026.3z M241.6,1028.7l-0.6,0.1h0l-0.2-0.2v-0.1v-0.1l0.2-0.1l0.3,0h0.1h0.1
		l0,0.3h0.1L241.6,1028.7L241.6,1028.7z M247.7,1027.4L247.7,1027.4l0,0.1l0,0l0,0l-0.5,0l-3.9-0.1l-2.2,0.1l-1.9,0.2l-0.1-0.1
		l-0.4,0l-0.2-0.2l0.1-0.2l0.3-0.2l1.9-0.2l2,0l0.4-0.1l1.5,0.1l0.3,0l0.7,0.1l1,0l0.7,0.1l0.2,0.1l0.1,0.2L247.7,1027.4
		L247.7,1027.4L247.7,1027.4z M248.9,1036.2L248.9,1036.2L248.9,1036.2l0,0.2l-0.1,0.1h-0.9l-0.1,0v0.1v0.1v0.1l0.6,0l0.4,0l0.1,0
		l0,0l0,0.2v0.2l0,0l-0.1,0.1l-0.4,0l-4.1,0.1l-1,0l-0.8,0l-0.2,0l-1,0l-0.7,0.1l-0.4-0.2l-0.2-0.2l0-0.1l0-0.1l0.1-0.1l0.4-0.1
		l0.7,0.1l1.7-0.1l0.6,0.1h0.6l0.3-0.1l0.4,0l0.5,0l1.6,0.1l0.1,0l0-0.2v-0.2l-4.9-0.1l-0.6,0l-0.9-0.1l-0.2-0.1l0,0l0,0v-0.1v0
		v-0.1l0.2-0.1l1.1-0.1l4.9,0.1l0.9,0l0.4,0h0.1l0,0l0.8,0L248.9,1036.2L248.9,1036.2z M240.4,1038.5l1.9,0l0.6-0.1l0.6,0l0.4-0.1
		l1.1,0l0.3-0.1l1.8,0l0.7,0l0.5,0l0.2,0h0h0.1l0.1,0l0.1,0.2v0v0.1l0,0l-0.1,0.1l-0.3,0.1l-2.4,0l-1.1,0l-0.3,0.1l-1.1,0l-0.4,0.1
		l-0.4-0.1l-0.5,0l-0.1,0l-1.4,0l-0.4-0.1l-0.2-0.1v-0.1v0L240.4,1038.5z M248.7,1034.8l-0.1,0.1l-0.7,0.1l-1.2-0.1H243l-0.7,0.1h-1
		l-0.2,0h-0.7l-0.2-0.1l-0.2-0.2l0.1-0.2l0.1,0l0.1-0.1l1.3,0l0.2,0l2.6-0.1l0.9,0.1l0.7,0l0.4,0.1l1.5,0l0.8,0.1h0v0h0v0
		L248.7,1034.8z M239.9,1032.3L239.9,1032.3l0.2-0.2l0.3-0.1h0.9l0.7-0.1l1.9-0.1l0.6,0.1l0.2,0l2.6,0.1h0.6l0.7,0.1l0.1,0.2v0.1
		v0.1v0.1l-0.4,0.1l-0.3,0l-0.7-0.1l-0.9,0l-1-0.1l-1.6,0h-1.5l-0.5,0h-1.7L239.9,1032.3L239.9,1032.3z M247,1046.2l0,0.1l-0.4,0.2
		l-1.3,0.2h-0.9l-1.1,0.1h-1.8l-0.5,0l-0.9,0.1l-0.2,0.1l-0.2-0.2l-0.2,0l0,0l-0.4,0l-1-0.1l-0.1-0.2l0-0.3l0,0v0l0,0l0,0l1.1-0.1
		l3.4,0l0.5-0.1l0.4,0l0.1,0l0,0l0.5,0l0.4-0.1l0.2,0.1l1-0.1l0.3,0l0.8-0.1l0.2,0l0,0l0,0v0.1L247,1046.2L247,1046.2z
		 M248.3,1042.7l-0.3,0.3l-0.2,0.1l-1.9,0.1l-0.2,0h-0.2l-0.2,0l-0.1,0.1v0.1l0,0v0.1l0.1,0l1.6,0h0.1l0.2-0.1l0.6,0.1l0,0h0l0,0.4
		l0,0.1l-0.2,0.1l-1.7,0.2l-1.7,0l-0.9,0.1l-0.7,0l-0.1,0l-0.1,0.2v0.1v0.1l0.4,0.1l1,0l0.4-0.1h1.5l0.2,0l0.4,0.1l0.2-0.1h0.8
		l0.1,0l0,0l0,0v0.1l-0.2,0.4l0,0.1l-0.4,0.1l0,0l-3.5,0.2l-0.3,0.1l-2,0l-0.3,0l-0.5,0l-0.4,0.1l-0.1,0l0,0l-1.7,0l-0.2-0.2
		l0.2-0.5l0.1-0.1h0l0.1,0h1.6l0.7,0.1l0.6-0.1l0.2-0.1h0l0.1-0.2v-0.1h-2l-0.1,0l0,0l-0.7,0.1l-0.2-0.1l-0.1,0l0-0.1v-0.2l0-0.2
		l0.1-0.1l0.1-0.1l0.6-0.2l2.8,0.1l0.5,0.1l1.3-0.1l0,0h0v0l0,0v-0.1l-1.4-0.1l-0.5,0.1l-0.7,0l-0.2-0.1l-0.8,0.1l-0.8-0.2l-0.3,0.1
		h-0.2l-0.2-0.1l0-0.1h0v-0.2v-0.1l0.1-0.1l0.8,0l0.7,0l0.5-0.1l2.4,0l0.6-0.1h0l0.2,0.1l0.4,0l0.7,0.1l1.9-0.2l0.9,0L248.3,1042.7
		L248.3,1042.7z M248.6,1040.2L248.6,1040.2l-0.2,0.2l-0.1,0l-1.4,0l-0.7,0.1l-1.2,0l-0.4,0.1h-1.5l-0.4,0.2v0.1l1.3,0l0.5,0l1.8,0
		l1.3-0.1l0.7,0l0.1,0.1l0.1,0.1v0l-0.1,0.1l-0.2,0.1l-0.9,0l-0.1,0v0v0.1l1.2,0.1l0,0l0.1,0v0.2l0,0.1h0l-0.1,0l-0.7,0l-0.2,0.1
		l-1.9,0.1l-0.5,0l-1.4,0l-1.3,0l-2.3-0.1l-0.2,0.1h-0.1l-0.1-0.2v-0.1l0-0.1l0.1-0.1l0.2,0l0.3,0l1.4-0.1l0.9,0.1l0.3-0.1l0,0
		l1.1,0.1l1.2-0.1l0.4,0.1l0.5,0l0.1,0h0.1v-0.1v-0.1l-0.9,0l-0.1,0l-0.3-0.1l-4.3,0.1H240l-0.5-0.1l0,0v-0.1v-0.1v-0.1l0.1-0.1
		l1.6-0.1l0-0.1h0.1l0,0v0l0.1,0l0.2,0v0h0v0v-0.1l-0.7-0.1l-0.7,0.1l-0.5-0.1l-0.2-0.1h0v0l0-0.2l0.1-0.1l0.1,0l1.3,0l0.6,0
		l0.2-0.1h2l0.3,0.1l1.5,0h1.8l0.5-0.1l0.1,0l0,0.1h0v0.1v0.1H248.6z M248.8,1039.5l-0.2,0.2l-0.5,0.2l-1.4,0l-1.6,0.1l-0.4-0.1
		l-0.4,0.1l-1.2,0l-1.6,0.1l-1.2-0.1l-0.3,0h-0.1l-0.2-0.2l0-0.1l0.1-0.1l0.2-0.1l0.5,0h0.5l0.2-0.1l1.5,0l0.2-0.1l1.2,0.1l0.8-0.1
		l1.1,0.1l1.9-0.1l0.5,0l0.1,0h0.1l0,0h0.1l0,0.1L248.8,1039.5L248.8,1039.5z M248.8,1038l-0.1,0.1l-1.3,0.1l-1.7,0l-1.8,0.2l-1.6,0
		l-0.1,0l-0.4,0l-0.6,0.1h-0.9l-0.1-0.2v-0.1v-0.1l0.2-0.1l0.4-0.1l1.7,0l0.2-0.1v0l0.5,0.1l0.3-0.1h0.6l0.3-0.1l0.4,0l0.4-0.1
		l0.6,0.1l2,0l0.2,0l0.5,0l0.1,0l0,0.1h0l0,0.1L248.8,1038z"/>
	<polygon points="224.5,1038.5 224.3,1038.5 224.3,1038.5 224.2,1038.6 224.2,1038.6 224.2,1038.6 224.1,1038.7 224.1,1039.1 
		224.4,1039.7 224.5,1039.7 224.6,1039.7 224.6,1039.6 224.7,1038.9 224.6,1038.6 	"/>
	<polygon points="225.7,1039.7 225.8,1039.9 225.9,1039.9 225.9,1039.8 225.8,1039.3 225.8,1039.2 225.7,1039.2 225.3,1039.3 
		225.3,1039.4 225.3,1039.5 225.6,1039.6 	"/>
	<polygon points="225.9,1043.4 225.7,1043.3 225.5,1043.2 225.4,1043.3 225.4,1043.4 225.4,1043.6 225.6,1044.1 225.9,1044.3 
		226,1044.3 226,1044.3 226.1,1044 226.1,1043.8 	"/>
	<path d="M232.8,1046.9l0.2,0.1l0.3,0l1.5-0.1l0.6-0.3v-0.1l0-0.1v-0.1l0.3-0.5l0.2-0.7l0.2-0.2l0.1-0.2l0.3-1l0.3-0.3l0.2-0.6
		l0.1-0.2l0-0.4l0.4-1.3l0.2-0.4v-0.5l0.2-0.3l0-0.4l0.1-1.2l0.1-0.2l0.1-0.9l-0.1-0.3l0.1-0.5l-0.2-0.4l0.1-0.9l-0.1-0.2v-1.8
		l-0.1-0.3v-0.4l-0.1-0.2l-0.1-0.9l-0.2-0.4l-0.1-0.8l-0.2-1l0-0.4l0-0.1l-0.1-0.1l-0.1-0.6l-0.2-0.4l-0.3-0.4l-0.2-0.5l-0.8-1.4
		l-0.3-0.2l-0.1-0.2l-0.4-0.3l-0.8,0.2l-0.1,0.1l0.4,0.2v0v0v0h0v0h0l0,0l-0.4,0.2h-0.3l-0.2,0.1H233l-0.3-0.1l-0.3-0.2l-0.3,0.1
		v0.1v0.2l0.1,0.4l0.2,0.2l0.1,0.3l0.2,0.5l1.1,3.2l0.4,1.3l0.2,0.4l0.4,0l0.9-0.1l0.9,0l0.2,0.1l0.1,0.1l0.1,0.2v0.1l0,0l0,0h0
		l-0.1,0.1l-1,0.1h-0.5l-0.6,0l-0.1,0l0,0.1l0,0.9l0.1,0.3l0.3,0.4l0.2,0.1l2.1,0l0,0l0.1,0.1v0.1v0.1l-0.1,0.1l-0.2,0.1h-0.1
		l-2,0.1l-0.1,0h0l-0.1,0.3l0.2,2l-0.1,0.6l-0.1,1.5l0,0.1l-0.3,0.7l-0.2,1.3l-0.1,0.2l0,0.6l-0.2,0.3l-0.4,1.5l-0.7,1.7l-0.1,0.4
		l0.1,0.2L232.8,1046.9z M233.1,1026.9L233.1,1026.9l-0.2-0.3v-0.2v-0.1l0.9-0.3l0.3,0l0.9,0h0l0,0.1l0.1,0.1v0.1l0,0.1l-0.2,0.1
		L233.1,1026.9L233.1,1026.9L233.1,1026.9z M234,1028.4l-0.5-0.2v-0.2v-0.1l0.2-0.1l1.1-0.2h0.9l0.1,0l0.1,0.2v0l0,0.2l-0.2,0.1
		L234,1028.4z M236.5,1030.1l-0.2,0.1l-0.4,0.1l-1.2,0.2l-0.6-0.2l0-0.3l0-0.1l0.2-0.1l1.5-0.2l0.4,0.1l0,0l0,0v0.2L236.5,1030.1z
		 M236.7,1041.2L236.7,1041.2l-0.4,0.2l-0.6,0.1l-0.6-0.2l-0.2-0.2v-0.2v-0.1l1.1-0.1l0.6,0.2l0.1,0.1v0L236.7,1041.2L236.7,1041.2z
		 M236.8,1040.6l-0.1,0.1l-0.3,0l-1-0.1l-0.2,0h-0.2l-0.2-0.2l0-0.2l0,0v0l0.2-0.1l0.8,0l0.7,0.2h0.1l0.1,0L236.8,1040.6
		L236.8,1040.6z M235.2,1036.4L235.2,1036.4l0.1-0.1l1.1,0l0.4,0.1l0,0h0l0,0v0.1v0.1l0,0.1l-0.4,0.1h-0.9l-0.2,0.1h-0.1l-0.2-0.2
		L235.2,1036.4z M235,1037.3L235,1037.3l0.1-0.1l1,0l0.2,0l0.4-0.1l0.3,0l0,0h0l0,0v0.1v0.1v0.1l-0.4,0.2l-0.8,0l-0.7-0.2
		L235,1037.3L235,1037.3z M235,1038.6L235,1038.6l0.1-0.1l0.1-0.1l0.9,0l0.7,0.1l0.2,0.1l0,0l0,0v0.1v0.1v0.1l-0.1,0l0,0l-0.8,0
		l-1.1-0.1L235,1038.6z M234.8,1039.4L234.8,1039.4L234.8,1039.4l0.2-0.2l1.2,0.1l0.4,0l0.3,0l0.2,0.1h0l0,0l0,0v0.1v0.1l-0.1,0.1
		l-0.4,0.1l-1.2,0l-0.5-0.2l-0.2-0.2L234.8,1039.4z M234.6,1041.9l0.1-0.1l0.1-0.1l0.4-0.1l1.1,0l0.1,0.3v0.2v0.1l-0.2,0.1l-0.6,0
		l-1-0.1l-0.2-0.1L234.6,1041.9z M234.4,1042.9l0.1-0.1h1.5l0.1,0l0,0.2v0.1v0.1l-0.2,0.2l-0.1,0l-1.4-0.2V1042.9L234.4,1042.9z
		 M234.1,1044.1l0.1-0.2l0.3-0.2l0.3,0l0.9,0.1l0,0h0.1l0,0.2l-0.1,0.5l-0.3,0.2l-0.3,0.1h-0.1l0,0l-0.8,0l-0.2-0.2L234.1,1044.1z
		 M233.5,1046.3l0.2-0.2l0.1-0.1l0.5-0.1v-0.1l-0.2-0.1l-0.1-0.2l0-0.3l0-0.1h0l0.1,0l1.2,0l0.1,0l0,0.1l0,0v0.1l-0.1,0.2l-0.1,0.1
		l-0.1,0.1l-0.5,0.1l0,0l-0.1,0l0.2,0.1l0.1,0.1l0,0.3l0,0.1l-0.1,0l-0.1,0l-0.9,0l-0.3-0.1V1046.3z"/>
	<path d="M239.3,1051.3l-0.3,0.1l-0.6,0.1v0.1v0l0.3,0.4l0.2,0.1l0.1,0.2v0.3l-0.1,0l-0.3,0l-0.5-0.3l-0.7-0.3h-0.2v0h0v0l0,0
		l0.1,0.8h0l-0.1,0.1l0.3,0.3v0.2h0l0,0H237l-0.1,0.1l-1,0.1l-0.2,0.2l0.5,0.1l0.5,0l0.4,0l0.3-0.1l0.3,0.1l1.3,0l0.3-0.1l0,0l0-0.2
		l0-1.8l-0.2-0.7L239.3,1051.3z M239.1,1053.4L239.1,1053.4l-0.2,0.2l-0.2,0l-0.3,0l-0.8-0.5l0-0.2l0.1-0.1v0h0.3l0.9,0.4l0,0h0.1
		l0,0L239.1,1053.4L239.1,1053.4L239.1,1053.4z"/>
	<polygon points="244.6,1049.3 244.6,1049.3 244.6,1049.4 244.6,1049.5 244.8,1049.6 244.9,1049.6 245.8,1049.4 245.8,1049.4 
		245.8,1049.2 245.9,1049.1 244.7,1049.2 	"/>
	<polygon points="235.1,1053.1 234.6,1052.7 234.4,1052.7 234,1052.9 234,1052.9 233.6,1052.7 232.9,1052.7 232.9,1052.8 
		233,1053.1 233.1,1053.1 234,1053 234.4,1053.1 235,1053.4 235.1,1053.6 235.2,1053.5 235.2,1053.5 	"/>
	<polygon points="227.8,1035.2 227.8,1035.1 227.7,1035 227.7,1035 227.4,1034.7 227.2,1034.6 227.1,1034.6 227,1034.7 227,1034.8 
		227.6,1035.2 	"/>
	<path d="M232.7,1039.7l0-0.3l0.2-0.5l0-0.6l0-0.5l0-1.7l0-0.1l0.4-0.2v-0.1v0v-0.1h0l-0.3-0.2l-0.2-0.3l0-0.6l-0.1-0.5l0-0.4l0-0.1
		v0l0,0v-0.2l-0.4-1.8l-0.2-0.4v-0.6l-0.2-0.3l-0.1-0.6l-0.2-0.2l-0.2,0l-0.1-0.1l-0.1-0.2l-0.1-0.1l0,0l-0.4,0.2l-0.7-0.1l-0.5,0
		l-0.1,0l0-0.5l0.1-0.1l1.4-0.4v-0.1v0l-0.4-0.4h0l-0.7,0.1l-0.5,0.2l-0.4,0v0l0,0v0v0v0.1l0.1,0.4l0.2,0.3l0.3,0.5l0.1,0.6
		l-0.1,0.2h-0.1h0h-0.1l0,0l-0.3-0.5l-0.1-0.1h0v0.1v0.1v0.1l0.3,0.6l0.1,0h0.1l0.3,0l0.2,0.1l1.1-0.1l0.2-0.1h0.3l0.2,0.1v0.1v0.1
		l-0.1,0.3l-0.2,0.1l-0.7,0l-0.7,0.2l-0.4,0l-0.2,0v0.1l0.1,0.3l0.3,1.3l0.1,0l0.1,0l0.1-0.1h0.1l0.1,0l1.1-0.1l0.3,0l0.2,0.1
		l0.1,0.1v0.1v0.2l0,0.1l-0.1,0.1h-0.1l-1.5,0.1l-0.3,0.1l-0.1,0.1l0,0.1l0.1,1.1h0.1l1.5,0l0.5,0.1l0,0.1v0.1l0,0.3l-0.1,0.1
		l-0.2,0h-0.8l-0.4,0.2l-0.6-0.2h-0.1l-0.2,0.1h-0.1h-0.1l-0.2-0.1l-0.1-0.1l-0.2-0.3v-0.9l-0.4-2.4l-0.3-0.9l-0.2-0.2l-0.4-0.9
		l-0.4-0.5l-0.2-0.2l-0.1,0l-0.4,0.7h0h-0.5v0.1v0l0.2,0.2l0.2,0.5l0,0.2l-0.3,0.8l-0.2,0.2h-0.2l-0.3-0.1h-0.2l0,0.1l0,0v0.1v0.1
		l0.4,0.3h0l0,0l0.2-0.2h0h0.1l0.2,0.1l0.5,0.7v0.1l-0.1,0.2h0h0l-0.2,0l0,0.1l0.2,0.2l0.6,0.4h0.1h0.1v0.1v0.1v0.1l0,0l0,0l1.1,0.9
		l0.4,0.4l0.2,0.4l0,0.2l-0.1,0h0h0h-0.1l-0.2-0.1l-0.6-0.5l-0.2,0v0.1v0.1l0,0.1l0.4,0.2l0.8,0.8v0.1v0.2h0l0,0h-0.2l-0.1,0
		l-0.4-0.3l-0.7-0.6l-0.8-0.7l-0.4-0.4l-0.3-0.2l-0.1,0v0.1l0,0l0,0.1l0,0.9l0,0.1v0h-0.1H226h-0.1l-0.1-0.1l-0.3-0.4h0l-0.1,0v0h0
		l0,0.1v0.1l0.2,0.3l0,0.1l-0.2,0.2v0.1v0.2l0.3,0.2h0.1l0.1-0.1l0.2-0.6h0.1l0.1,0l0.1,0.1l1.2,1.3l0.3,0.2l0.6,0.6l0.2,0h0
		l0.6,0.5v0.1l0.1,0.5l0,0.1v0l-0.1,0h-0.2l-0.2,0l-0.4-0.3l-0.2-0.2l-0.7-0.6l-0.6-0.4l-0.2-0.2l-0.4-0.3h-0.2l-0.1,0.1l-0.4,0.1
		l-0.3,0.2l0,0.1l0.1,0h0.1l0.2-0.1h0.6v0l0,0l0.1,0.4l0.1,1.6l0,0.1l-0.1,0h-0.2l-0.4-0.2l-0.2,0l-0.1,0.1l-0.1,0.4l0,0.1l0.3,0.2
		l0.2,0.4l0.2,0.1h0.1l0.1,0v-0.1v0l-0.1-0.3l0-0.2l0,0l0,0h0.1h0.1h0.1v0l0.1,0l0.4,1.3v0.3l-0.1,0.1l-0.2,0.1h-0.3l0,0l-0.1-0.1
		l0-0.2h-0.1h-0.1h-0.1v0.3l0.1,0.1l0,0.1l0.5,0.4v0.4h0.1h0h0.1v0h0l0.1-0.1l0-0.4l0.1-0.2l0-0.1h0.1h0l0.2,0.1l0.3,0.3h0.1l0-0.1
		l0.4-0.9l0.6-1.9h0.1l0.6,0.1l0.3,0.1l0.2,0.4l0,0.1l-0.1,0l-0.5,0.1l-0.1,0l0,0.1l-0.1,0.2l-0.3,0.9l-0.7,1.5v0.1h0.1h0.2l0-0.1
		l0.5-0.8h0.1h0h0.1v0h0l0.1,0.2v0.6h0.1l1.1,0.2l0.4,0.2l0-0.1l0,0l0.2-0.4v-0.3l0-0.1l-0.1,0h-0.1h0l-0.4,0.2l-0.6,0l-0.4-0.3
		v-0.1v-0.1l0-0.1l0.3-0.3l0.7,0l0.1,0l0.2,0.1l0.2,0.3h0.1l0,0v-0.1l0,0l0.3-0.6l0.2-1l0.1-0.2l0.4-1.7L232.7,1039.7z
		 M228.8,1032.8l-0.2,0.2l0,0.1h-0.1h-0.1h-0.1l-0.2-0.4l0-0.4l0.1-0.2h0v0l0.1,0l0.2,0l0.3,0.2l0,0v0.3L228.8,1032.8z
		 M227.4,1040.1L227.4,1040.1l-0.4,0l-0.2,0l-0.1-0.2l-0.1-0.4l0-0.1l0-0.1l0.1,0l0.1,0h0.1l0.5,0.4v0l0,0v0L227.4,1040.1z
		 M230.4,1043.3l-0.1,0.1l-0.4,0.2h-0.2l0-0.7l0.1-0.2l0.1-0.1l0.1-0.1h0.1h0.1h0.1l0.1,0.3L230.4,1043.3z M231.5,1036.3l0.1-0.2
		l0.2-0.1l0.3,0l0.2,0.1l0.1,0.1v0.1v0.1l-0.1,0.1l-0.4,0l-0.4-0.2V1036.3z M229.6,1036.1l0.1-0.1h0.2l0.2,0l0.1,0.2l0.1,0.5
		l0.5,0.1l0.1,0.1l0,0.2l-0.1,0.3l0,0l0,0l-0.4,0l0,0h0l-0.1,0.3v0l-0.4,0l-0.2-1.5L229.6,1036.1L229.6,1036.1z M230.3,1039.9
		l-0.3,0.6l-0.1,0h-0.2l-0.2-0.2l0.1-0.2l0,0l0-0.6l-0.1-0.2v-0.1l0.3-0.4l0.2,0h0.1h0.1l0,0.1l0,0.6l0.4,0.1l0.1,0.1l0,0.1v0.1v0.1
		l-0.1,0.1L230.3,1039.9z M231.8,1043L231.8,1043l-0.6,0.2l-0.4-0.2v-0.2l0-0.1l0.2-0.1l0.4,0l0.3,0.1l0.1,0.1h0l0,0.2L231.8,1043z
		 M232,1041.9L232,1041.9l-0.3,0.2l-0.1,0.1l-0.4,0.1l-0.3,0l-0.2-0.3l0.1-0.2l0.2-0.2l0.6,0l0.1,0l0,0h0l0,0.1L232,1041.9
		L232,1041.9L232,1041.9z M232,1041.2l-0.4,0.2l-0.2,0l-0.3-0.2v-0.1v0l0.2-0.1l0.3,0l0.1,0l0.2,0.1l0,0.1v0.1L232,1041.2z
		 M232.2,1040.5l-0.2,0.1l-0.6-0.1l-0.1-0.1v0l0-0.1l0.3-0.1l0.3,0h0.1l0.1,0.1v0l0,0V1040.5L232.2,1040.5z M232.4,1039.7
		L232.4,1039.7L232.4,1039.7l-0.7,0.2l-0.3-0.1l-0.2-0.2v-0.1v-0.1l0.1-0.1l0,0l0.8,0l0.2,0.1l0.1,0.1v0.1V1039.7z M232.4,1038.8
		L232.4,1038.8l-0.7,0.2l-0.4-0.2l0-0.2l0.1-0.1l0.6-0.1l0.2,0l0.2,0.2L232.4,1038.8L232.4,1038.8L232.4,1038.8z M232.5,1037.3
		L232.5,1037.3l-0.2,0.2l-0.6,0.1l-0.4-0.1l0-0.3l0.1-0.1l0.7-0.1l0.1,0l0.1,0.1l0,0L232.5,1037.3L232.5,1037.3L232.5,1037.3z"/>
	<polygon points="235.8,1052.9 235.9,1052.9 235.9,1052.8 235.9,1052.8 235.9,1052.6 235.9,1051.8 235.8,1051.6 235.7,1051.6 
		234.6,1050.9 234.6,1050.8 234.5,1050.7 234.4,1050.5 234.2,1050.5 234.2,1050.6 234.1,1050.6 234.1,1050.7 234.3,1050.8 
		234.5,1050.8 234.5,1050.9 234.6,1051 234.8,1051.2 235,1051.4 235.2,1051.6 235.3,1051.7 235.3,1051.9 235.2,1052 235.1,1052 
		235,1052 234.6,1051.8 234.6,1051.8 234.5,1051.9 234.6,1052 234.7,1052.2 235.4,1052.7 235.8,1052.9 	"/>
	<polygon points="245.4,1050.1 245.2,1050.1 244.5,1050.1 244.3,1050.2 244.3,1050.3 244.2,1050.4 244.3,1050.5 245.2,1050.5 
		245.3,1050.4 245.4,1050.4 245.4,1050.3 245.4,1050.2 	"/>
	<polygon points="244.1,1049.3 244,1049.3 243.9,1049.2 243.9,1049.2 243.5,1049.4 243.4,1049.5 243.1,1049.4 243.1,1049.5 
		243.1,1049.6 243.6,1049.7 244.1,1049.5 244.1,1049.5 244.1,1049.4 	"/>
	<polygon points="242.2,1049.3 242.1,1049.3 241.8,1049.3 241.1,1049.4 240.5,1049.4 240.1,1049.4 240,1049.5 240.2,1049.6 
		242.1,1049.5 242.2,1049.5 242.2,1049.5 242.2,1049.4 242.2,1049.4 	"/>
	<polygon points="243.5,1050.1 242.4,1050.3 242.3,1050.3 242.3,1050.4 242.6,1050.5 243.4,1050.5 243.6,1050.4 243.6,1050.3 
		243.6,1050.2 243.6,1050.2 	"/>
	<polygon points="241.7,1052.6 241.7,1052.6 241.6,1052.5 241.6,1052.5 241.5,1052.5 241.3,1052.1 241.1,1052 240.8,1051.9 
		240.6,1051.8 240.6,1051.6 240.6,1051.4 240.6,1051.2 240.6,1051.2 240.4,1051 240.3,1051 240.2,1051.2 240.2,1051.4 240.4,1053.8 
		240.4,1053.8 240.4,1053.8 240.5,1053.7 240.6,1053.5 240.8,1053.3 241.1,1053.1 241.5,1053.1 241.7,1052.9 241.7,1052.8 
		241.7,1052.7 	"/>
	<polygon points="239.3,1049.9 239,1049.8 239,1049.7 238.9,1049.6 238.7,1049.4 238.3,1049.2 238.2,1049 237.8,1048.7 
		237.7,1048.7 237.7,1048.8 237.7,1048.9 237.8,1048.9 237.8,1049 238.3,1049.3 238.6,1049.7 238.7,1049.7 238.8,1049.8 238.8,1050 
		238.7,1050.1 238.7,1050.1 238.7,1050.1 238.6,1050.1 238.5,1050.1 238.4,1050 238.2,1049.9 237.4,1049.2 236.9,1048.8 
		236.2,1048.1 236,1048.1 236,1048.1 235.9,1048.1 235.9,1048.1 235.9,1048.2 235.9,1048.2 235.9,1048.3 236,1048.3 236.8,1049 
		237.4,1049.7 237.7,1049.8 237.8,1050.1 237.8,1050.2 237.7,1050.2 237.7,1050.2 237.6,1050.2 237.6,1050.2 236.9,1049.7 
		236.9,1049.7 236.5,1049.2 236.2,1049.1 235.5,1048.4 235.3,1048.3 235.1,1048.3 235.1,1048.4 235.2,1048.6 235.4,1048.7 
		235.9,1049.3 236.1,1049.4 236.2,1049.6 236.3,1049.6 236.6,1049.9 236.6,1050.1 236.5,1050.1 236.4,1050.1 235.9,1049.7 
		235.8,1049.6 234.5,1048.6 234.4,1048.6 234.4,1048.6 234.6,1049 235.5,1049.7 235.5,1049.8 235.5,1049.9 235.5,1049.9 235.5,1050 
		235.4,1050 235.3,1050 235.2,1050 234.4,1049.3 233.7,1048.7 233.7,1048.6 233.5,1048.6 233.2,1048.2 232.8,1048.1 232.7,1048.1 
		232.7,1048.2 232.7,1048.3 232.9,1048.6 233.7,1049.2 233.9,1049.5 234.1,1049.5 235.4,1050.5 235.5,1050.8 235.7,1050.9 
		236.7,1050.9 236.9,1050.9 239,1050.8 239.1,1050.7 239.1,1050.2 239.2,1050.1 239.3,1050.1 239.4,1050.2 240.1,1050.8 
		240.2,1050.8 240.1,1050.7 	"/>
	<path d="M254.7,1027.8l0.1,0.5l0.2,0.2l0,0.3l0.1,0.4l0.4,0.4l0.6,0.1v0.3l0,0l0.1,0l0.2-0.2h0h0l0.1,0l0,0l0.2,0.2l-0.2,0.1v0.1
		v0.1h-0.1l-1,0v0.1v0.1l0.2,0.5l0,0.4l0,0.2l0.2,0.2l0,0.3l0.9,0l0.3,0.3v0v0.1h0l0,0.1l-1.2,0.1l0,0.1l0,0.2l0.2,0.2l0,0.2l0,0.3
		l0,0.5l1,0l0.3,0.1v0.1v0.1l0,0.3l-0.1,0h-1l-0.1,1.2l0.1,0.4h0.1h0l0.3,0l0.9,0l0.1,0.1v0.1v0.1v0.1l0,0.1h0l0,0l-0.1,0l-0.8,0
		l-0.4,0.1l0,0.1l0,1.1l0.1,0.4l0.1,0h0.1l0.2,0h1l0.1,0v0.1v0.1v0.1l0,0.1l-0.5,0.2l-0.5,0l-0.6,0v0l-0.1,0.3l-0.1,0.9l0,0h0l0,0
		h0.2l0.1-0.1l1,0.1l0.3-0.1l0-0.1l0.2-0.8l0.1-0.7l0-0.2l0.1-0.3v-0.3l0.2-0.8v-0.6l0-0.5l0-0.4l0.1-0.2l-0.1-1.6l-0.1-0.1l-0.2-1
		l-0.2-0.5v-0.3l-0.2-0.5l0-0.5l-0.2-0.8l-0.2-0.3l-0.1-0.8h-0.1l0,0l-0.1,0l-0.6-1.5l-0.7-0.8l-0.5-0.3l-0.5-0.2H254l0,0.1v0
		l0.4,0.9L254.7,1027.8z M255.1,1027.6l0.1-0.2l0,0l0.4,0.1l0.1,0l0,0.1v0.2l0,0v0l0,0h-0.3l-0.3-0.2L255.1,1027.6z"/>
	<polygon points="227.4,1027.7 227.4,1027.6 227.1,1027.6 227.1,1027.7 	"/>
	<polygon points="246,1024.3 245.9,1024.3 245.6,1024.3 245.9,1024.4 	"/>
	<polygon points="228.7,1027.4 229,1027.2 229.4,1027.1 229.8,1026.9 229.7,1026.8 229.7,1026.8 228.9,1027 228.4,1027.3 
		228.4,1027.3 228.3,1027.4 228.5,1027.4 	"/>
	<polygon points="228.4,1028.5 228.5,1028.5 228.5,1028.5 228.5,1028.5 228.6,1028.4 228.5,1028.3 228.5,1028.3 228.3,1028.1 
		228.2,1028.1 228,1028.1 228,1028.2 228,1028.3 228.3,1028.5 	"/>
	<polygon points="224.3,1037.6 224.5,1037.6 224.5,1037.5 224.5,1037.5 224.6,1037.3 224.6,1036.6 224.4,1036.2 224.3,1036.2 
		224.2,1036.2 224.1,1036.2 224.1,1036.2 224,1036.3 224,1036.3 223.9,1036.8 224,1037.3 224.1,1037.6 	"/>
	<path d="M244.8,1012.1c-14.8,0-26.8,12-26.8,26.8c0,14.8,12,26.8,26.8,26.8s26.8-12,26.8-26.8
		C271.6,1024.1,259.6,1012.1,244.8,1012.1z M265.1,1049.4L265.1,1049.4l0,0.1v0v0.1l-0.6,0.2l-1.7,0.2l-0.2,0.1l-0.3,0l-0.4-0.1
		l-0.2-0.2l0.1-0.2l0.2-0.2l1.3-0.2L265.1,1049.4L265.1,1049.4z M263.8,1048.5l0.1,0v0l0.1,0.1v0.2l0,0.1l-1.9,0.1l-0.4-0.1
		l-0.3-0.2l0-0.1l0.2-0.1l1.2-0.2L263.8,1048.5z M262.6,1047.7l0.2,0.1h0v0h0v0.1v0.2l0,0l0,0l-2,0.2h-0.1l-0.2-0.1l-0.1-0.2v-0.1v0
		l1.6-0.2L262.6,1047.7z M261.3,1046.9l0.1,0.1l0.1,0.1v0.1v0.1h0v0l-0.3,0l-1.5,0l-0.5-0.2l0-0.1l0.1-0.1l1.9-0.1L261.3,1046.9z
		 M259.5,1046.2l0.1,0.2v0.1v0.1v0.1l-0.9,0.1l-0.4-0.2v-0.1l0-0.1l0.1-0.1l0.9-0.1H259.5z M261.5,1053.3l-0.3,0.3l-0.1,0l-1.4,0.2
		l-0.6-0.1l-0.6,0.1l0,0l-1.8-0.1l-0.2-0.2l-0.6-0.2l-0.2-0.1l-0.4-0.5l-0.2-0.2l-0.6-0.6l-0.4-0.3l-0.8-1l-0.5-0.4l-0.2-0.2l-0.1,0
		l-0.3-0.1h-0.2h-0.2l-0.1,0h-1.9l-0.6,0.1l-0.6,0l-0.2,0l-0.3,0h-0.1v0.1v0l1,0.1l0.2-0.1l2.2,0l0.1,0.2v0.1v0.1l0,0v0l-0.7,0
		l-0.4,0l-1.7,0.1h-0.9l-1.5,0.1l-0.1,0l-0.6,0.1l-1.9,0.1l-0.7,0.2h-0.8h-0.1v0.1v0l1,0l5.3-0.2l0.3-0.1l1.7,0.1l0.4,0l0.2,0.1
		l0,0.1h0v0v0.1l-0.4,0.2l-2.2,0.1l-0.1,0l-3.4,0.2l-0.5,0.1l-0.8,0h-0.3h-0.1l0,0l-0.1,0l0,0l2.6,0l0.9-0.1l0.3,0.1v0v0.1l0.1,0.1
		l0.2,0v-0.1v-0.1v-0.1h0l0,0l2.1,0l0.2,0l0,0v0l-0.2,0.2l0,0v0l-0.2,0.1l-1.5,0.1l-1.1,0l-0.7,0l-2.1,0l-0.7,0.1l-0.2,0.1h-0.4
		l-0.3-0.1h-0.1h-0.1l-0.1,0.1v0.1v0.1v0.1l0.7,0l1.2-0.2l0.1,0l0.3,0.1l2.2-0.2l0.4,0.1l0.3-0.1l0.2,0l0,0h0l0,0.1v0.1l0,0.1
		l-0.2,0.1l-3.5,0.3l-0.7,0l-0.5,0l-0.2,0l-1.4,0.2v0h0l0,0.1v0l0,0.1l0.1,0l1.1,0l0.2,0.1l0.2,0l0,0.2v0.1l-0.3,0.1h0l-0.1,0.1
		l-1.8,0l0,0l-1.3,0l-0.8,0.1l-0.2,0l-0.7,0l-0.2,0h-0.9l-0.6,0.1l-0.8-0.2l-0.4-0.6l-0.4-0.4l-0.2,0H233l-0.6,0.1l-0.1,0l-1.7,0
		l-0.3-0.1l-0.1-0.1h0v0v0v0l0.3-0.1l0.7-0.1l0.9,0l0.1,0l0-0.1v0v-0.1l-0.1,0l-0.6,0.1l-0.3-0.1l-0.2,0l-1.1-0.1l-0.4,0.1l-0.7,0.1
		l-0.2,0.1l-0.3,0l-0.4-0.2l-0.4-0.1l-0.1-0.1l0-0.1v-0.1h0l0.1,0l3.6-0.2l0.7,0l0.8-0.1h1.1v-0.1v-0.1l-1.1,0l-1.2,0.1l-0.3-0.1
		l-0.6,0.1l-1,0l-0.9,0l-2,0.2l-0.5-0.2l0,0h-0.1l0-0.1v0l0-0.1l0.8-0.3l4.1-0.1h1l0.1,0v-0.1l-0.2-0.2l0,0v0l-1,0.1l-3.6,0l-0.3,0
		l-2,0l-0.2,0l0,0h-0.1v-0.1l0-0.2l0.2-0.2l0.4-0.1l5-0.1l0.6,0l0.1,0v0l-0.1-0.2v-0.1l-0.1,0l-2.6,0l-1.3,0l-0.5,0l-0.2-0.1l-1.4,0
		l-0.3-0.1h-0.1v-0.1l0-0.1l0.1-0.1l1.5-0.2l2.1,0l0.2,0l0.3,0l1-0.2h0.3h0.1v0v-0.1h0l-0.4-0.1l-1.1,0.1l-0.4-0.1l-0.7,0.1
		l-0.6-0.1h-1.3l-0.2-0.2l0-0.1v0v0l0,0l0.1-0.1l0.8-0.1l1.5,0l1.3-0.1l-0.4-0.2l-0.1-0.1l-0.3,0l-0.2,0.1l-0.1,0l-1-0.1l-0.9,0
		l-0.1,0l0,0h0v0v0l0.2-0.2l0.1-0.1l0.1-0.1l1.6-0.1l0-0.2l-0.3-0.3l-0.2-0.1l-0.2-0.2l-0.7-0.2l-0.6-0.6l-0.8-1l-0.9-1.8l-1-3.5
		l-0.2-2.3l0,0l0-2.2l0.4-2.8l0.6-1.8l0.4-0.7l0.4-1l0.3-0.4l0.1-0.2v-0.1l0.4-0.3l0.2-0.2l0.5-0.3l0-0.1l0.8-0.4l1.8-0.6l0.4,0
		l0.1,0l0.2-0.2l0.6-0.4l0.6-0.2h0.6l0.2,0l0.2-0.2l1.7-0.5l1.1-0.2l0.3-0.1l0.4,0l0.1,0l0.1,0.1h0v0h0l1.1-0.5l1.3-0.3l2.4-0.2
		l2.5,0l4.1,0.3l1.4,0.2l0.6,0l0.9,0.2l0.1,0.2l0.2,0.2l0.2,0l0.4-0.1l0.2-0.2l0.5,0l0.9,0.2l0.9,0.4l0.1,0l0,0.2l0.2,0.1l1.1,0.2
		l0.8,0.2l0.7,0.6l0.1,0.2l0,0.2h0.1l0.1,0.4l0.6,1.1v0.1l0,0l0.2,0.2v0.2l0.2,0.6l0.1,0.2l0.3,0.9l0,0l0,0l0.2,0.5l0.1,0l0.2,0.9
		l0,0.3l0.3,0.8l0,1.3l0.2,0.8l-0.1,0.3l0,2l0,0.1l-0.2,0.1l-0.1,0v0.1v0v0.1l0.2,0.2l0,0.3l-0.1,0.5l0,0.7l-0.2,0.4l-0.1,0.7
		l-0.7,2l-0.6,1.2l-0.4,0.6l-0.1,0.1l-0.1,0.1l0,0.2l-0.1,0.3v0l0.2,0.2l0.5,0.4l0.2,0.2l0.3,0.1l0.7,0.7l0.7,0.5l0.6,0.5l0.6,0.4
		l0.3,0.3l0.7,0.9v0l0.1,0.4l-0.1,0.2l-0.1,0.1l-0.3,0.1l-0.2,0.3l0,0.3l0.2,0.3l0.1,0.1l0.1,0.1v0.1l0,0.1h-0.2l-0.7-0.3l-0.2-0.2
		l-0.7-0.2l0,0l0.4,0.3l1,0.4l0.4,0.3l0.4,0.2l0.3,0.2h0l0.1,0.4L261.5,1053.3z M258.2,1045.8l-0.1,0.2l-0.1,0h-0.2l-0.4-0.3v-0.1
		l0-0.1l0.2-0.1h0.2l0.2,0.1h0.1l0.1,0.1L258.2,1045.8z M263.5,1050.9L263.5,1050.9l0.2,0.1l1,0l0.1,0l0,0l0.6,0l0.1,0l0,0v0.1v0.1
		v0.1l-0.1,0.1l-0.1,0.1l-1.3,0.2l0,0h0l0,0.1v0l0.6,0.1l0,0h0l0.1,0.4l0,0.1l-0.2,0.2l-0.9,0.5l-0.2,0.1l-0.4,0.1l-0.1,0.1h0l0,0
		l-0.6,0l-0.2-0.1l-0.2-0.2v-0.2l0.2-0.2l0.2-0.1l0.3-0.1h0l0.1-0.2v-0.1l0-0.1l-0.4-0.2h0v-0.1v-0.1v-0.1l0.1,0l0,0v-0.3l-0.1-0.2
		v-0.1l0.1-0.1l0,0l0.1,0h0.2v-0.1h-0.4l-0.1,0l-0.1-0.2v-0.1v-0.1l0.1-0.1l0.8-0.2h0.7l0.4-0.1l1.6-0.1l0.2,0.1h0v0h0v0.1v0
		l-0.1,0.2l-0.2,0.1l0,0l-0.9,0L263.5,1050.9L263.5,1050.9L263.5,1050.9z"/>
	<polygon points="260.7,1052.9 260.6,1052.9 260.4,1052.8 259.7,1052.4 258.4,1051.9 258.1,1051.9 258.1,1051.9 258,1052 
		258.1,1052 259.5,1052.8 259.6,1052.9 259.6,1052.9 259.5,1052.9 259.5,1053 259.4,1053.1 258.9,1053 258.2,1052.7 258,1052.7 
		257.7,1053 257.3,1053.1 257.2,1053.2 257.5,1053.3 258.4,1053.3 258.6,1053.3 260.1,1053.3 260.8,1053.2 260.7,1053.1 	"/>
	<path d="M258.1,1049.9l1,0l0.2,0.1h0.1l0.6-0.2l0.3-0.2v0v0v0h0l0-0.1l-0.7-0.6l-0.7-0.7l-0.2,0l-0.5-0.4l-0.2-0.3l-1.2-1l-0.3-0.2
		l-0.6-0.6h-0.1h-0.1v0.1l0,0l0.2,0.2l0.9,0.7l0.7,0.6l0.1,0.4l-0.1,0.1h0h0l-0.3-0.1l-0.2-0.2l-0.8-0.6l-1.2-1.1l-0.2,0h0v0.1v0.1
		l0,0.1l0.4,0.3l0.1,0.2l0.2,0l0.6,0.5l0.4,0.3l0.4,0.3l0.2,0.1l0.4,0.3l0.3,0.5l0.2,0l0.5,0.4l0.1,0.2v0.2l0,0.1l-0.1,0l-0.3,0
		l-0.1-0.1l-1.3-1.1l-1.4-1.1l-0.4-0.4l-0.3-0.3h0h-0.1l-0.5,0.2v0.1v0.1l0.3,0.2l0.6,0.6l0.7,0.7l0.3,0.2l0.2,0.2l0.3,0.2l0.1,0.2
		l0.5,0.5l0.2,0.1l0.2,0.2l0.2,0L258.1,1049.9z M258,1048.2L258,1048.2L258,1048.2l0-0.1l0.1-0.1h0.1l0.7,0.4l0.5,0.5l0.2,0.3l0,0
		v0.1v0.1h-0.2l-0.3-0.2L258,1048.2z"/>
	<polygon points="257.1,1050.9 257.1,1050.7 256.9,1050.5 256.3,1050 256.1,1049.7 255.8,1049.5 255.2,1049 255.1,1048.9 
		254.9,1049 254.9,1049 254.9,1049.1 255,1049.2 255,1049.2 255.5,1049.6 255.8,1049.9 256,1050 256.1,1050.1 256.3,1050.5 
		256.3,1050.6 256.2,1050.7 256.1,1050.7 255.8,1050.7 255.8,1050.6 255.4,1050.1 254.6,1049.6 254.5,1049.6 254.5,1049.7 
		254.5,1049.8 254.6,1049.9 254.8,1050.2 256.4,1051.7 256.6,1052 256.6,1052.1 256.6,1052.2 256.5,1052.3 256.5,1052.3 
		256.4,1052.3 256.3,1052.3 256.1,1052.2 255.3,1051.5 255.1,1051.3 254.9,1051.1 254.2,1050.3 253.9,1050.1 253.4,1049.4 
		253.2,1049.2 252.8,1048.8 252.4,1048.5 251.4,1047.4 251.2,1047.3 251.1,1047.4 251,1047.5 251,1047.6 252.3,1048.9 252.9,1049.3 
		253,1049.5 253.4,1050.1 253.6,1050.1 253.9,1050.3 254.1,1050.6 254.2,1050.7 254.7,1051.3 255,1051.5 255.5,1052.2 255.8,1052.3 
		256,1052.6 256.2,1052.7 256.4,1052.9 256.5,1052.9 256.6,1052.9 256.6,1052.9 257.1,1052.5 257.1,1052.3 257,1051.5 	"/>
	<path d="M251.9,1046.3l0.6-0.6l0.7-0.1l1-0.3l0.8-0.1l0.3-0.1l0.3-0.2l0.2-0.3l0-0.2h-0.2h-0.1l-0.4-0.1v-0.1v-0.1l0-0.2l0.1-0.1
		h0.1l0.2,0l0.7-0.1v0l0,0v-0.1v-0.1l-0.6,0.1l-0.2,0l-0.1-0.2l0-0.1l0-0.2l1.3-0.1l0-0.1l0-0.1l-0.9-0.1l-0.1-0.1l0-0.2v-0.1l0-0.1
		l0-0.1l0.3-0.2l0.5,0l0.2-0.1l0,0h-0.2l-0.5-0.1h0v-0.1v0l0-0.2l0.1-0.1l1.1-0.1l0-0.1l0-0.1H257l0,0h-0.8l-0.1,0l-0.1-0.1v-0.4
		l-0.1,0v0l0,0l-0.2,0.5l-0.2,0.6l0,0.1l-0.1,0.1l-0.2,0.9l-0.1,0.2l-0.2,0.9l-0.4,0.9l-0.2,0.1h-0.2l-0.1,0v0h-0.2l-0.2,0.2h0
		l-0.6,0.2l-0.3,0l-0.3-0.1l0-0.1l0-0.2l0.5-0.7l0.2-0.5l0.2-0.2l0.1-0.5l0.3-1l0-0.4l0.3-1.1l0-0.4l0.3-1.6v-0.8l0.1-0.4l0-0.4
		l0.1-1l-0.1-0.7v-0.3l0-0.9l-0.1-0.4v-0.7l-0.2-0.7l0-0.3l-0.1-0.3l-0.2-0.3l-0.2-1.1l-0.2-0.5l-0.2-0.8l-0.2-0.4v-0.3l0-0.1v0
		l-0.1-0.2l-0.2-0.6l-0.5-1l-0.2-0.2l-0.1-0.5v0l-0.3-0.4l-2.2-0.2l-0.1,0.1v0.1v0.2l0.2,0.4l0.6,1.6l0.1,0l0-0.1h0v0l0.2-0.1h0.2
		l0.4,0l0.4,0l0.5,0.1l0.3,0.2v0.1v0l0,0.2l-0.1,0l-1.9-0.1l0.2,1.1l0.3,1.1l0.2,1.4l-0.2,0.3l-0.3,0.1v0.1l0.1,0l0.4,0v0l0,0
		l0.1,0.2v0.6l0.1,0.4l0.1,1l0,0.1l-0.2,0.4h0l-0.1,0.1l-0.2,0.1l-0.2,0.2v0v0v0l0,0l0,0h0.1l0.2-0.1h0.1l0.1,0l0.3,0.3v0.1l0.1,0.8
		l-0.1,0.3l0,1.1l-0.2,0.6l0,0.8l-0.2,0.9v0.7l-0.1,0.1l-0.1,0.8l-0.1,0.2l-0.5,2.4l-0.2,0.5l-0.1,0.1l-0.3,1l-0.1,0.2v0.2l0.4,0.2
		l0.6,0l0.9-0.1L251.9,1046.3z M251.2,1026.7L251.2,1026.7l-0.2,0.2l-0.4,0l-0.2-0.1v-0.2v-0.1l0.2-0.1l0.1,0l0.4,0.1l0,0h0v0h0
		V1026.7L251.2,1026.7z M251.5,1026.2l-0.2,0.1l-1.3-0.2l-0.3-0.2v-0.2v-0.1l0.2-0.1l0.9,0l0.5,0.1l0.1,0.1L251.5,1026.2
		L251.5,1026.2z M253.4,1039.9l0,0.1l-0.2,0.1l-1.2,0.1l-0.2,0l-0.3-0.3l0-0.1l0,0l1.6-0.1h0.1l0.1,0.1h0L253.4,1039.9L253.4,1039.9
		L253.4,1039.9z M253.2,1040.6l0,0.2l0,0v0l-0.3,0l-1.1,0l-0.2-0.2v-0.1v0l0.2-0.1l0.5,0l0.8,0L253.2,1040.6L253.2,1040.6
		L253.2,1040.6z M253.6,1039.1L253.6,1039.1l-0.3,0.2l-0.4,0l-0.1,0l-0.3,0.1l-0.5,0l-0.1,0l-0.2-0.2l0.1-0.2l0.2-0.1l0.4,0l0.4,0
		l0.5-0.1h0.2l0.1,0.1v0h0V1039.1L253.6,1039.1z M251.7,1036.9v-0.1v-0.1l0.1,0l0.6,0l1.1,0.1l0.1,0.1h0l0,0.1v0v0.1l-0.2,0l0,0
		l-0.6,0l-0.5-0.1l-0.5,0l-0.2-0.1L251.7,1036.9z M251.7,1038.3l0.3-0.2l0.7-0.1l0.8,0.2v0h0v0.1v0v0.1l-0.2,0.1l-1.3,0.1l-0.4-0.1
		L251.7,1038.3L251.7,1038.3z M253.8,1037.8l-0.2,0l-1.5-0.1l-0.2-0.1v-0.2v-0.1l0.4-0.1l1.4,0l0.1,0l0.1,0v0.2L253.8,1037.8z
		 M253.9,1036.2L253.9,1036.2l-0.2,0.2l-0.7,0l-0.3-0.1l-0.4,0l-0.4-0.1l0-0.2l0-0.1l0.2-0.1l0.9,0l0.7,0.1l0,0.1L253.9,1036.2
		L253.9,1036.2z M253.8,1034.3L253.8,1034.3l0,0.1l-0.1,0.4l-0.1,0.1l-1.3,0l-0.2-0.1l-0.2-0.2v-0.1v-0.1l0.6-0.1L253.8,1034.3z
		 M251.3,1029.9l-0.1,0l-0.2-0.2v-0.1v0l0.1-0.1l0.9,0l0.7,0.2l0,0h0.1v0l0,0v0v0v0l-0.2,0.1l-0.8,0.1L251.3,1029.9z M251.4,1032.4
		v-0.2v-0.1l0.2-0.1l0,0l0.8,0l0.2,0l0.5,0l0.3,0.1l0.1,0.1h0v0l-0.1,0.2l-0.1,0l-0.1,0l-1.5,0L251.4,1032.4z M251.3,1041.5l0.3-0.2
		l0.1,0l1.2,0l0.3,0.3l0,0l-0.1,0.1l-0.3,0.1l-1.2,0.1l-0.3-0.1l-0.1-0.1V1041.5z M251.2,1042.4L251.2,1042.4L251.2,1042.4l0.3-0.2
		l0.4,0l0.7,0l0.2,0.2l0,0.1v0v0.1l-0.2,0.1l-0.9,0l-0.6-0.1l-0.1,0L251.2,1042.4z M250.9,1043.3l0.2-0.2l1.1-0.2l0.3,0l0.1,0l0,0.1
		v0.2l0,0.2l-0.2,0.2l-0.4,0.1h-0.8l-0.1,0l-0.2-0.2L250.9,1043.3z M250.5,1044.4l0.1-0.2l0.1-0.1l0.6-0.1l0-0.1h0.8l0.1,0.1
		l0.1,0.2l-0.1,0.3l-0.1,0.2l-0.3,0.1l-0.1,0.1l-0.1,0l-1,0h-0.1l-0.1-0.3L250.5,1044.4z M250.3,1045.9l-0.2-0.2l0.1-0.2l0.2-0.2
		l0.1,0l0.4,0l0.3-0.1l0.7,0v0h0v0.2l-0.1,0.2v0l-0.5,0.1L250.3,1045.9z"/>
	<polygon points="237.2,1025.7 237.2,1025.7 237.1,1025.7 237,1025.8 236.9,1025.9 237.2,1025.9 	"/>
	<polygon points="226.4,1028.4 226.5,1028.3 226.5,1028.2 226.5,1028.1 226.4,1028 226.4,1028 226.3,1028.1 226.3,1028.1 
		226.2,1028.1 226.2,1028.2 226.2,1028.4 226.3,1028.5 	"/>
	<polygon points="225.5,1030.3 225.6,1030.2 225.8,1030 225.8,1029.5 225.8,1029.2 225.7,1029.2 225.6,1029.2 225.6,1029.2 
		225.6,1029.3 225.5,1029.3 225.3,1029.8 225.1,1030.3 225.4,1030.4 	"/>
	<polygon points="225.1,1034.6 225.1,1034.7 225.5,1035 225.5,1035 225.5,1034.9 225.6,1034.9 225.6,1034.7 225.5,1034.5 
		225.4,1034.5 225.3,1034.5 225.1,1034.5 	"/>
	<polygon points="224.7,1032.4 224.7,1032.4 224.8,1032.1 224.9,1032 225,1031.9 225.1,1031.8 225.1,1031.3 225.1,1031.2 
		225,1031.1 224.9,1031.1 224.9,1031.1 224.8,1031.1 224.8,1031.2 224.7,1031.2 224.7,1031.3 224.6,1031.5 224.5,1032.5 
		224.6,1032.5 	"/>
	<polygon points="227,1029.2 227,1029.2 227,1029.2 227,1029.2 227,1029.1 227,1029.1 226.9,1029.1 226.9,1029.1 226.8,1029.1 
		226.8,1029.2 226.9,1029.2 	"/>
	<polygon points="225.3,1033.6 225.3,1033.8 225.4,1033.9 225.9,1034.1 225.9,1034 226,1033.9 226,1033.2 226,1033.2 225.8,1033 
		225.7,1032.9 225.6,1033 225.6,1033 	"/>
	<polygon points="224.3,1035.1 224.3,1035.1 224.3,1035.1 224.5,1034.6 224.5,1033.7 224.4,1033.5 224.3,1033.5 224.1,1033.5 
		224.1,1033.7 224,1034.1 224,1035.1 224.2,1035.2 	"/>
</g>
<g>
	<path d="M274.7,1021.7v-1.2h13.3v1.2h-3.2l6.8,20.3l4.3-12.9l-2.4-7.4h-2.6v-1.2h12.8v1.2h-2.8l6.6,19.8l5.6-19.8h-4.3v-1.2h8.6
		v1.2h-2.8l-8.2,28.7h-3.2l-6.5-19l-6.2,19h-3.1l-10.4-28.7H274.7z"/>
	<path d="M317.2,1050.1v-1.1h2.6v-29.6h-2.6v-1.1h9.5v15.3c1.1-2.8,3.3-4.1,6.6-4.1c4.4,0,6.5,2.4,6.5,7.1v12.4h2.6v1.1h-11.6v-1.1
		h2.1v-13.2c0-3.4-0.6-4.3-1.9-4.3c-1.2,0-2.2,0.6-3.1,1.9c-0.9,1.2-1.3,2.7-1.3,4.5v11.2h2.2v1.1H317.2z"/>
	<path d="M343.2,1031.1v-1.1h9.6v19.1h2.6v1.1h-12.1v-1.1h2.6v-18H343.2z M349,1019.5c2.4,0,3.8,1.2,3.8,3.5c0,2.2-1.3,3.6-3.9,3.6
		c-2.8,0-3.8-1.6-3.8-3.6C345.1,1021,346.4,1019.5,349,1019.5z"/>
	<path d="M356.6,1050.6v-7.5h0.9c1.2,4.5,3.5,6.1,7.2,6.1c3,0,4.4-1.1,4.4-2.8c0-0.6-0.2-1.2-0.7-1.6s-0.9-0.7-1.4-0.9
		c-0.5-0.2-1.3-0.4-2.7-0.7l-0.4-0.1c-2.2-0.5-3.2-0.9-4.8-1.9c-1.6-0.9-2.4-2.6-2.4-4.8c0-4.1,3-7,7.4-7c1.4,0,2.8,0.4,4.3,1
		c0.6,0.2,1,0.4,1.2,0.4c0.5,0,0.9-0.5,1-1.4h0.9v6.5h-0.9c-1.3-3.4-3.4-5.2-6.2-5.2c-2.7,0-4,0.8-4,2.4c0,0.7,0.4,1.4,0.9,1.8
		c0.2,0.2,0.6,0.4,1.1,0.6c1,0.4,1.5,0.5,2.8,0.8l0.5,0.1c2.1,0.5,3.2,0.9,4.8,2c1.6,1,2.3,2.7,2.3,5.1c0,4.5-2.9,7.1-7.8,7.1
		c-1.8,0-3.5-0.4-5.2-1.3c-0.4-0.2-0.6-0.4-0.7-0.4c-0.5,0-0.9,0.6-1.3,1.6L356.6,1050.6L356.6,1050.6z"/>
	<path d="M372.8,1019.4v-1.1h9.6v20.4l0.9-0.2l8.7-7.4h-3.4v-1.1h8.4v1.1h-3.1l-5.2,4.5l7.4,13.4h1.8v1.1h-11.3v-1.1h2.1l-5-9.4
		l-1.2,0.2v9.1h2.2v1.1H373v-1.1h2.6v-29.6H372.8L372.8,1019.4z"/>
	<path d="M400,1032.2c2-1.8,4.6-2.7,7.8-2.7c5.8,0,8.8,3,8.8,8.9v0.7h-12.3v1.4c0,5.6,1.3,8.4,5.2,8.4c3,0,5-1.7,6-5l1.1,0.2
		c-1,4-3.5,6.5-9,6.5c-7,0-10.5-4-10.5-10.4C397,1036.6,398,1034,400,1032.2z M409.8,1038.1c0-3-0.2-5-0.5-6c-0.3-1-1-1.5-2-1.5
		c-2.2,0-3.1,1.8-3.1,7.5H409.8z"/>
	<path d="M416.3,1031.1v-1.1H428v1.1h-2.5l4.7,13.7l4.8-13.7h-2.7v-1.1h6.3v1.1h-2.1l-8.1,22.5c-1,2.8-2,4.7-2.9,5.7
		c-0.9,1-2.2,1.5-3.9,1.5c-3.1,0-4.9-1.6-4.9-4.1c0-2.1,1.3-3.4,3.2-3.4c2.1,0,3.2,0.9,3.2,2.7c0,0.4-0.1,0.9-0.2,1.5h-1.5
		c-0.2,0.4-0.3,0.7-0.3,1c0,0.6,0.5,1,1.5,1c2,0,3.1-1.8,4.8-6.7l0.9-2.6h-2.6l-7.3-19.1L416.3,1031.1L416.3,1031.1z"/>
	<path d="M440.3,1043.5c2.2,0,3.6,1.1,3.6,3.4c0,2.2-1.3,3.6-3.5,3.6c-2.5,0-3.6-1.6-3.6-3.5C436.9,1045,438.1,1043.5,440.3,1043.5z
		"/>
</g>
<g>
	<path d="M288,1059.8l-0.4,1.1h-1.8l2.5-6.5h1.9l2.4,6.5h-1.8l-0.4-1.1H288z M289.2,1056.4L289.2,1056.4l-0.7,2.1h1.4L289.2,1056.4z
		"/>
	<path d="M294.9,1054.4h1.7l1.3,3.5l1.4-3.5h1.7l1,6.5h-1.7l-0.5-3.7l0,0l-1.6,3.7h-0.7l-1.5-3.7l0,0l-0.6,3.7h-1.7L294.9,1054.4z"
		/>
	<path d="M310.4,1057.6c0,2.1-1.5,3.6-3.6,3.6s-3.6-1.5-3.6-3.6c0-2,1.7-3.4,3.6-3.4C308.7,1054.2,310.4,1055.6,310.4,1057.6z
		 M305,1057.6c0,1.1,0.8,2,1.9,2c1,0,1.9-0.8,1.9-2c0-0.9-0.8-1.7-1.9-1.7C305.8,1055.9,305,1056.7,305,1057.6z"/>
	<path d="M312.2,1054.4h1.7l3.1,4l0,0v-4h1.7v6.5H317l-3.1-4l0,0v4h-1.7V1054.4z"/>
	<path d="M327.3,1057.3c0,0.9-0.1,1.8-0.7,2.6c-0.6,0.9-1.6,1.3-2.7,1.3c-2,0-3.5-1.4-3.5-3.5c0-2.1,1.5-3.5,3.5-3.5
		c1.3,0,2.4,0.6,3,1.8l-1.6,0.7c-0.2-0.6-0.7-1-1.4-1c-1.1,0-1.7,1.1-1.7,2c0,1,0.6,2,1.7,2c0.7,0,1.3-0.4,1.4-1.1H324v-1.3H327.3
		L327.3,1057.3z"/>
	<path d="M339.8,1057.6c0,2.1-1.5,3.6-3.6,3.6s-3.6-1.5-3.6-3.6c0-2,1.7-3.4,3.6-3.4C338.1,1054.2,339.8,1055.6,339.8,1057.6z
		 M334.4,1057.6c0,1.1,0.8,2,1.9,2c1,0,1.9-0.8,1.9-2c0-0.9-0.8-1.7-1.9-1.7C335.2,1055.9,334.4,1056.7,334.4,1057.6z"/>
	<path d="M344,1061h-1.7v-5.1h-1.4v-1.5h4.5v1.5H344L344,1061L344,1061z"/>
	<path d="M351,1057v-2.5h1.7v6.5H351v-2.7h-2.4v2.7h-1.7v-6.5h1.7v2.5H351z"/>
	<path d="M356.5,1055.9v1.1h1.9v1.5h-1.9v1.1h2v1.5h-3.7v-6.5h3.7v1.5L356.5,1055.9L356.5,1055.9z"/>
	<path d="M365.9,1061h-2.1l-1.6-2.5l0,0v2.5h-1.7v-6.5h2.5c1.3,0,2.3,0.6,2.3,2c0,0.9-0.5,1.7-1.4,1.9L365.9,1061z M362.2,1057.4
		h0.2c0.6,0,1.2-0.1,1.2-0.8s-0.6-0.8-1.2-0.8h-0.2V1057.4z"/>
	<path d="M373.9,1061h-1.7v-5.1h-1.4v-1.5h4.5v1.5h-1.4V1061z"/>
	<path d="M380.9,1057v-2.5h1.7v6.5h-1.7v-2.7h-2.4v2.7h-1.7v-6.5h1.7v2.5H380.9z"/>
	<path d="M386.3,1061h-1.7v-6.5h1.7V1061z"/>
	<path d="M388.4,1054.4h1.7l3.1,4l0,0v-4h1.7v6.5h-1.7l-3.1-4l0,0v4h-1.7V1054.4z"/>
	<path d="M403.5,1057.3c0,0.9-0.1,1.8-0.7,2.6c-0.6,0.9-1.6,1.3-2.7,1.3c-2,0-3.5-1.4-3.5-3.5c0-2.1,1.5-3.5,3.5-3.5
		c1.3,0,2.4,0.6,3,1.8l-1.6,0.7c-0.2-0.6-0.7-1-1.4-1c-1.1,0-1.7,1.1-1.7,2c0,1,0.6,2,1.7,2c0.7,0,1.3-0.4,1.4-1.1h-1.4v-1.3H403.5
		L403.5,1057.3z"/>
	<path d="M408.6,1056.1c-0.3-0.3-0.7-0.4-1.1-0.4c-0.3,0-0.7,0.2-0.7,0.6c0,0.4,0.5,0.5,0.7,0.6l0.4,0.1c0.9,0.3,1.6,0.7,1.6,1.8
		c0,0.7-0.2,1.3-0.7,1.8c-0.5,0.4-1.2,0.6-1.9,0.6c-0.8,0-1.6-0.3-2.3-0.7l0.7-1.4c0.4,0.4,0.9,0.7,1.5,0.7c0.4,0,0.8-0.2,0.8-0.7
		c0-0.5-0.7-0.6-1-0.7c-1.1-0.3-1.8-0.6-1.8-1.9c0-1.3,0.9-2.2,2.2-2.2c0.7,0,1.5,0.2,2,0.6L408.6,1056.1z"/>
</g>
</svg>
