<?xml version="1.0" encoding="utf-8"?>
<!-- Generator: Adobe Illustrator 19.1.0, SVG Export Plug-In . SVG Version: 6.00 Build 0)  -->
<svg version="1.1" id="Layer_1" xmlns="http://www.w3.org/2000/svg" xmlns:xlink="http://www.w3.org/1999/xlink" x="0px" y="0px"
	 viewBox="0 792 580 140" style="enable-background:new 0 792 580 140;" xml:space="preserve">
<g>
	<polygon points="76.7,889 76.7,889.2 76.6,889.7 77,889.9 77.5,889.9 79,889.3 79,889.1 79.1,888.7 77.1,888.8 	"/>
	<polygon points="34.7,879.6 34.4,879.7 32.8,879.5 31.3,879.4 29.9,878.8 29.7,878.9 29.7,879 29.6,879.1 29.6,879.4 29.6,879.8 
		29.9,879.8 32,879.9 33.2,880.2 33.5,880.4 33.5,880.7 33.5,881.4 33.2,881.7 33,881.8 29.3,881.3 28.5,881.3 28.2,881.5 28,881.7 
		27.9,882 28.4,882.3 30.6,882.5 32.6,882.3 32.6,882.4 32.7,882.5 32.7,882.5 33.3,882.5 34.9,879.9 34.9,879.8 34.9,879.7 	"/>
	<polygon points="75.4,891.2 74,891.3 73.5,891.6 73.4,891.9 73.3,892.1 75.6,891.9 75.7,891.7 75.7,891.5 75.7,891.3 	"/>
	<polygon points="28,878.8 27.9,878.8 27.7,878.8 27.2,878.9 25.6,880.5 25.5,880.9 25.7,881 27.3,880 27.9,879.3 	"/>
	<polygon points="73.5,886.2 73.8,886 74,885.7 74,885.5 74,885.3 73.9,885.3 73.9,885.2 73.8,885.1 73.7,885.1 73.5,885 
		73.2,885.2 73,885.4 72.9,885.6 72.9,885.9 73.1,886.1 	"/>
	<polygon points="74.7,889.8 74.7,889.5 74.7,889.3 74.6,889.1 74.3,889 73.9,889 73,889.2 72.8,889.6 72.8,889.7 73,889.9 
		74.4,889.9 	"/>
	<polygon points="23.6,878.7 23.4,878.3 23.2,878.3 23,878.3 22.8,878.3 22.5,878.5 22.4,878.7 22.4,878.9 22.7,879.1 23.7,879.3 
		23.7,878.9 	"/>
	<polygon points="18.7,868.5 18.2,867.9 18,868 17.9,868.3 17.9,868.8 18.3,870 18.8,871.2 19,871.2 19.1,871.2 19.3,871.2 
		19.4,870.8 19.4,870.6 	"/>
	<polygon points="83.2,889 82.9,888.9 82.2,888.9 81.8,889.1 81.6,889.3 81.6,889.6 82.1,889.8 82.9,889.8 83.3,889.6 83.3,889.4 
		83.3,889.2 	"/>
	<path d="M81.4,860h0.2l0.1,0.4l0.4,0.2h0.6v-0.1h0.1v-0.3V860l-0.1-0.3l-0.2-0.2l-0.7-0.2l-0.7-0.5v-0.1v-0.1v-0.2l0.1-0.1l0.3-0.4
		h0.2h0.1l0.7,0.1v-0.3v-0.3l-0.3-0.5l-1-0.5l-0.6-4.3l0.2-0.6l-1.3-10.9l-0.6-1.6l-0.2-1.9l-2.2-6.4l-0.9-1.4l-0.6-1.1l-1.3-2
		l-0.7-0.4h-0.3l-0.4,0.1l0,0l0.3,0.2h0.1v0.2v0.2v0.3l-0.2,0.4l-0.4,0.1h-0.2l-4.6-0.2l-1-0.3v-0.3V826h0.1l0.1-0.1l3.6-0.2v-0.1
		l-0.2-0.2l-3.8-0.2l-0.3,0.1h-0.1l-0.8,1.8v0.6l0.3,0.1l3.4-0.1l0.1-0.1l0.7-0.1l0.6,0.3l2.6,0.2H74v0.1l0.2,0.2l0.2,0.4v0.2
		l-0.2,0.5l-0.3,0.2l-0.6,0.1l-7.3-0.3l-1.1,0.3h-6.2L57,830l-4.7,0.3l-0.6-0.8v-0.1v-0.2l0.1-0.2l0.6-0.2h0.5l1.4-0.1l0.4-0.2
		l1.9-0.3l1.3,0.1l3.6-0.2l0.4-0.2l-0.1-0.2l-1.8-1.9l-0.4-0.2l-3.4-0.2l-4.5,0.7l-0.4,0.2l0.1,0.2l1.7-0.3h1.8l1-0.1l2.3-0.1
		l0.6-0.2l0.1,0.2l0.7,1l-0.2,0.1l-5.3,0.5l-1.1,0.3l-1.7-0.1l-0.5-0.3v-0.2v-0.2v-0.3l0.2-0.2l-0.1-0.1h-0.2l-0.7,0.1l-0.5,0.4v0.2
		v0.1l0.1,0.5l1.5,3.3l1,3.1l0.4,0.7l0.7,0.7l0.2,0.5l-0.1,0.7l-0.3,0.5v0.7h0.1l0.3,0.3l4.4-0.2l1.5-0.2h13l4.5,0.3l0.4,0.2
		l0.2,0.1l0.1,0.3v0.7h-0.1l-0.1,0.1l-0.7,0.1l-0.6-0.1l-11-0.2l-2.8-0.1l-7.5,0.4l-0.8,0.2v0.2v0.1l0.3,0.8l0.4,4.1l0.4,0.7
		l0.1,1.3l-0.1,0.4l0.5,6.1l-0.2,8.7L55,863v1.2l-1.4,7l-0.5,1.5l-0.8,2.6l-0.2,0.1l-1.3,3.7l-0.5,0.7l-0.4,0.8l-0.4,1.9l0.3,0.5
		l0.5,0.2l2.4,0.5l0.4-0.1l3.2,0.2l1.5-0.2l0.7,0.1l0.2-0.1l0.3-0.1l3.1,0.3l4.9-0.1l0.7-0.2l0.8,0.1l2.7-0.4l0.4-0.2l2.3-0.3
		l0.8-0.4l1.2-1.7l0.4-1l0.4-0.5l0.3-1l0.7-1.5l1.6-5.8l0.7-5.1l0.2-0.3l0.2-3.9l0.3-0.7v-1.1l0.2-0.4h0.2h0.3V860z M68.5,831
		l0.3-0.3l0.3-0.1l0.3-0.1h0.7l0.3,0.1l0.2,0.2h0.1l0.1,0.4v0.3l-0.1,0.1v0.2l-1.3-0.1l-0.8-0.6L68.5,831z M57,831.5v-0.3l0.4-0.3
		h0.4h0.3l0.3,0.2v0.1h0.1v0.3v0.2l-0.1,0.1v0.1l-0.9,0.2l-0.6-0.2L57,831.5z M53.1,831.1L53.1,831.1l0.3-0.1l1,0.1l0.1,0.1h0.1
		l0.1,0.2l0.1,0.3v0.2v0.3l-0.6,0.3h-0.6l-0.4-0.2l-0.3-0.7L53.1,831.1z M60.9,837.2l-1.4,0.3h-0.1l-0.4-0.6v-0.2v-0.2l0.4-0.3
		l0.7-0.1h0.2h0.2l0.1,0.7h0.3L60.9,837.2L60.9,837.2z M76.4,833.7l-0.1,0.1v0.2l-0.1,0.1l-0.1,0.1l-1.2,0.1l-9.8-0.3l-5.5,0.2
		l-4.9,0.5l-0.3-0.2l-0.9,0.1l-0.4-0.5l0.2-0.5l0.7-0.5l4.7-0.5l5.1-0.1l1.1-0.3l3.9,0.3l0.8-0.1l1.7,0.3l2.5-0.1l1.8,0.2l0.5,0.2
		l0.3,0.4l0.1,0.1v0.2H76.4z M79.3,856.1v0.1v0.1l-0.1,0.3l-0.3,0.2h-2.4l-0.3,0.1v0.2v0.2v0.2l1.5,0.1l1-0.1l0.3,0.1l0.1,0.1
		l0.1,0.4v0.5l-0.1,0.1l-0.2,0.2L78,859l-10.4,0.2l-2.6,0.1l-2-0.1l-0.4,0.1l-2.5-0.1l-1.8,0.3l-1.1-0.4l-0.4-0.5l0.1-0.3l0.1-0.2
		l0.3-0.2l1-0.2l1.8,0.2l4.3-0.3l1.5,0.3h1.4l0.7-0.2l1,0.1l1.2-0.1l4.1,0.2l0.3-0.1l0.1-0.4V857l-12.5-0.2l-1.5,0.1l-2.4-0.2
		l-0.6-0.2l-0.1-0.1l-0.1-0.1v-0.2V856v-0.2l0.5-0.3l2.9-0.3l12.5,0.3l2.3,0.1l1-0.1H77l0.1,0.1l2,0.1L79.3,856.1L79.3,856.1z
		 M57.9,861.9l4.7,0.1l1.5-0.2l1.5,0.1l1.1-0.2l2.9,0.1l0.7-0.2l4.5,0.1l1.9-0.1l1.2,0.1l0.4-0.1h0.1h0.2l0.2,0.1l0.2,0.4v0.1v0.2
		l-0.1,0.1l-0.2,0.2l-0.8,0.2l-6,0.1l-2.8-0.1l-0.8,0.2l-2.8-0.1l-1,0.2l-0.9-0.2l-1.2,0.1l-0.3-0.1l-3.5,0.1l-1.1-0.2l-0.4-0.3
		v-0.2v-0.1L57.9,861.9z M79,852.5l-0.2,0.3L77,853l-3-0.2h-9.7l-1.7,0.2H60l-0.4-0.1h-1.7l-0.5-0.2l-0.4-0.5l0.3-0.5l0.2-0.1
		l0.3-0.2l3.4-0.1l0.4,0.1l6.6-0.3l2.2,0.2l1.7-0.1l1,0.2l3.7,0.1l2,0.3h0.1v0.1H79v0.1L79,852.5z M56.6,846.2V846l0.6-0.4l0.7-0.2
		h2.2l1.7-0.3l4.9-0.2l1.5,0.3l0.6-0.1l6.6,0.2h1.5l1.9,0.3L79,846v0.3v0.2v0.2l-1,0.3l-0.8-0.1l-1.8-0.2l-2.3,0.1l-2.5-0.2l-4,0.1
		h-3.9l-1.2,0.1h-4.2l-0.7-0.4L56.6,846.2z M74.5,881.6l-0.1,0.3l-0.9,0.5l-3.4,0.5h-2.3l-2.9,0.2h-4.5l-1.2-0.1l-2.2,0.3l-0.5,0.2
		l-0.6-0.4l-0.4,0.1l-0.1,0.1l-1.1,0.1l-2.6-0.3l-0.3-0.4l0.1-0.7l0.1-0.1v-0.1l0.1-0.1l0.1-0.1l2.9-0.2l8.6,0.1l1.2-0.2l0.9,0.1
		l0.3-0.1l0.1-0.1l1.3,0.1l1-0.3l0.5,0.3l2.5-0.3l0.7,0.1l2-0.3l0.5,0.1l0.1,0.1l0.1,0.1v0.2L74.5,881.6L74.5,881.6z M77.8,872.7
		l-0.7,0.8l-0.6,0.3l-4.9,0.3l-0.4-0.1h-0.4l-0.4,0.1l-0.3,0.2v0.2l-0.1,0.1v0.2l0.3,0.1l4-0.1h0.3l0.5-0.3l1.4,0.2l0.1,0.1h0.1
		l0.1,0.9l-0.1,0.3l-0.4,0.2l-4.2,0.6l-4.4-0.1l-2.2,0.3l-1.7-0.1l-0.3,0.1l-0.2,0.4v0.2v0.2l1,0.3l2.5,0.1l1.1-0.3h3.8l0.6-0.1
		l1.1,0.3l0.4-0.2h2l0.3,0.1l0.1,0.1l0.1,0.1v0.3l-0.5,0.9l-0.1,0.2l-0.9,0.3l-0.1,0.1l-8.8,0.6l-0.7,0.2l-5.2-0.1l-0.7,0.1
		l-1.2-0.1l-1,0.3l-0.3-0.1l-0.1-0.1l-4.3-0.1l-0.4-0.6l0.5-1.3l0.2-0.3h0.1l0.3-0.1h4.1l1.9,0.2l1.5-0.2l0.6-0.3h0.1l0.3-0.6v-0.3
		h-5.2l-0.3-0.1L56,877l-1.7,0.2l-0.5-0.2l-0.2-0.1l-0.1-0.2v-0.4l0.1-0.4l0.2-0.2l0.2-0.2l1.5-0.6l7,0.2l1.3,0.2L67,875l0.1-0.1
		h0.1v-0.1l0.1-0.1v-0.2l-3.6-0.3l-1.2,0.3l-1.7-0.1l-0.4-0.2l-2.1,0.2l-2-0.4l-0.8,0.2h-0.4l-0.6-0.3l-0.1-0.2h-0.1v-0.4V873
		l0.2-0.3l2-0.1l1.8,0.1l1.3-0.2l6,0.1l1.4-0.3h0.1l0.5,0.3l0.9-0.1l1.9,0.2l4.7-0.5l2.4-0.1l0.1,0.4L77.8,872.7z M78.6,866.4v0.2
		L78,867l-0.3,0.1l-3.6-0.1l-1.7,0.2l-3-0.1l-0.9,0.2h-3.8l-1.1,0.4v0.2l3.2,0.1l1.3-0.1l4.5,0.1l3.3-0.3l1.8,0.1l0.3,0.3l0.2,0.2
		v0.1l-0.3,0.3l-0.6,0.3l-2.3-0.1l-0.3,0.1v0.1v0.3l3.1,0.2l0.1,0.1l0.2,0.1v0.5l-0.1,0.2h-0.1l-0.3,0.1l-1.9,0.1l-0.6,0.2l-4.9,0.2
		l-1.2,0.1l-3.6-0.1l-3.3,0.1l-5.9-0.2l-0.4,0.2h-0.3l-0.2-0.5v-0.3l0.1-0.2l0.3-0.3l0.4-0.1l0.8,0.1l3.6-0.3l2.4,0.2l0.7-0.3
		l0.1-0.1l2.8,0.2l3.1-0.2l1.1,0.3l1.3-0.1l0.2-0.1h0.2v-0.2V869l-2.3-0.1l-0.3,0.1l-0.8-0.2l-10.9,0.3h-1.3l-1.2-0.2l-0.1-0.1v-0.2
		v-0.2v-0.2l0.3-0.2l4.1-0.2l0.1-0.2h0.2l0.1,0.1v0.1l0.2,0.1l0.6-0.1v-0.1h0.1v-0.1v-0.3l-1.7-0.2l-1.7,0.3l-1.3-0.3l-0.4-0.3H56
		v-0.1l0.1-0.4l0.3-0.3l0.3-0.1l3.4-0.1l1.4,0.1l0.6-0.2h5.1l0.8,0.2l3.9-0.1h4.6l1.2-0.2l0.3,0.1l0.1,0.2h0.1v0.2v0.3H78.6z
		 M79.1,864.4l-0.5,0.4l-1.2,0.4l-3.6-0.1l-4,0.3l-1.1-0.2l-0.9,0.2l-3.1-0.1l-4.1,0.2l-3-0.2l-0.7,0.1h-0.3l-0.5-0.5l0.1-0.3
		l0.3-0.2l0.4-0.2l1.3-0.1h1.3l0.6-0.2l3.7-0.1l0.4-0.2l3.1,0.3l2.1-0.2l2.7,0.2l4.7-0.2l1.3,0.1l0.3-0.1h0.3l0.1,0.1H79l0.1,0.3
		v0.1L79.1,864.4z M79.2,860.6l-0.3,0.2l-3.4,0.2l-4.3-0.1l-4.5,0.4l-4-0.1l-0.3,0.1l-0.9-0.1l-1.6,0.2h-2.4l-0.3-0.4v-0.3v-0.2
		l0.6-0.3l1-0.2l4.4,0.1l0.6-0.2v-0.1L65,860l0.8-0.2h1.4l0.7-0.2l1.1,0.1l1-0.2l1.5,0.2l5.2-0.1l0.4-0.1l1.2,0.1l0.3,0.1l0.1,0.2
		h0.1l0.1,0.3L79.2,860.6z"/>
	<polygon points="17.4,862 17,862 16.9,862 16.8,862.1 16.7,862.1 16.7,862.3 16.6,862.4 16.6,863.6 17.2,864.9 17.4,864.9 
		17.8,865 17.8,864.8 17.9,862.9 17.7,862.2 	"/>
	<polygon points="20.5,864.9 20.8,865.5 21,865.5 21.1,865.2 20.9,863.9 20.7,863.8 20.5,863.8 19.5,864.1 19.5,864.3 19.4,864.6 
		20.4,864.7 	"/>
	<polygon points="21,874.5 20.6,874.1 20,874 19.8,874.1 19.7,874.4 19.7,875 20.4,876.3 21.1,876.8 21.3,876.8 21.4,876.6 
		21.6,876 21.5,875.5 	"/>
	<path d="M38.5,883.4l0.4,0.3l0.7,0.1l3.7-0.2l1.6-0.7v-0.2l0.1-0.2v-0.3l0.8-1.3l0.5-1.7l0.4-0.4l0.3-0.6l0.7-2.5l0.7-0.7l0.4-1.5
		l0.2-0.4l0.1-1l0.9-3.2l0.4-0.9v-1.2l0.4-0.7l-0.1-1L51,862l0.2-0.4l0.2-2.3l-0.2-0.7l0.3-1.2l-0.4-0.9l0.2-2.2l-0.2-0.4v-4.5
		l-0.2-0.7v-1l-0.2-0.5l-0.3-2.3L50,844l-0.3-2l-0.6-2.6l0.1-1.1l-0.1-0.3l-0.2-0.3l-0.2-1.4l-0.4-1.1l-0.7-1l-0.4-1.3l-2-3.6
		l-0.7-0.4l-0.3-0.4l-1-0.7l-2.1,0.5l-0.2,0.2L42,829v0.1v0.1v0.1h-0.1v0.1h-0.1l-0.1,0.1l-1,0.4h-0.8l-0.6,0.3h-0.2l-0.8-0.3
		l-0.8-0.5l-0.7,0.2v0.2v0.4l0.2,0.9l0.5,0.6l0.3,0.8l0.5,1.2l2.7,8l0.9,3.4l0.4,0.9l1,0.1l2.4-0.2l2.2,0.1l0.4,0.2l0.2,0.2l0.2,0.4
		v0.3l-0.1,0.1l-0.1,0.1h-0.1l-0.3,0.2l-2.5,0.2h-1.3l-1.5,0.1l-0.3,0.1l-0.1,0.3l0.1,2.2l0.3,0.7l0.8,0.9l0.6,0.2l5.3,0.1l0.1,0.1
		l0.2,0.2v0.2v0.3l-0.2,0.3l-0.5,0.3h-0.3l-5.2,0.3l-0.3,0.1h-0.1l-0.2,0.8l0.4,5.1l-0.2,1.4l-0.2,3.9l-0.1,0.3l-0.7,1.9l-0.4,3.3
		l-0.2,0.4l-0.1,1.6l-0.4,0.7l-1.1,3.9l-1.7,4.2l-0.2,1.1l0.2,0.4L38.5,883.4z M39.3,832.5h-0.2l-0.3-0.7v-0.4v-0.2l2.2-0.7l0.7-0.1
		l2.4,0.1h0.1l0.1,0.2l0.2,0.3v0.3l-0.1,0.3l-0.5,0.2l-4.5,0.7H39.3L39.3,832.5z M41.5,836.3l-1.2-0.4v-0.4v-0.3l0.5-0.3l2.8-0.5
		h2.2l0.3,0.1l0.3,0.4v0.1l-0.1,0.4l-0.6,0.3L41.5,836.3z M48,840.7l-0.4,0.3l-1.1,0.3l-3,0.4l-1.4-0.4l0.1-0.7l0.1-0.3l0.6-0.3
		l3.7-0.4l1.1,0.2l0.1,0.1l0.1,0.1v0.4L48,840.7z M48.4,868.8l-0.1,0.2l-0.8,0.3l-1.6,0.3l-1.6-0.4l-0.6-0.5v-0.4v-0.2l2.8-0.3
		l1.4,0.4l0.3,0.2v0.1L48.4,868.8L48.4,868.8z M48.6,867.3l-0.2,0.3l-0.8,0.1l-2.5-0.2l-0.4,0.1h-0.4l-0.6-0.4l0.1-0.4l0.1-0.1v-0.1
		l0.5-0.2l2.1-0.1l1.8,0.4h0.2l0.2,0.1l0.1,0.4L48.6,867.3z M44.7,856.6l0.2-0.2l0.1-0.1l2.9-0.1l0.9,0.2l0.1,0.1H49l0.1,0.1v0.2
		v0.2l-0.1,0.2l-1,0.2h-2.2l-0.6,0.2h-0.3l-0.5-0.4L44.7,856.6z M44.2,858.8v-0.1l0.3-0.2l2.6-0.1l0.4,0.1l1-0.2l0.8,0.1l0.1,0.1
		h0.1l0.1,0.1v0.2v0.2v0.2l-1.1,0.4l-2,0.1l-1.9-0.4l-0.4-0.4V858.8z M44.2,862.3l0.2-0.2V862l0.2-0.2l2.2-0.1l1.8,0.2l0.4,0.2
		l0.1,0.1l0.1,0.1v0.3v0.2v0.2l-0.3,0.1l-0.1,0.1l-2.1,0.1l-2.8-0.3L44.2,862.3z M43.5,864.3l0.1-0.1v-0.1l0.5-0.2l3,0.2L48,864
		l0.7,0.1l0.5,0.3h0.1l0.1,0.1l0.1,0.1v0.3v0.2l-0.2,0.3l-1.1,0.3l-3.1,0.1l-1.3-0.5l-0.4-0.6L43.5,864.3z M43.1,870.7l0.2-0.3
		l0.2-0.2l1.1-0.2l2.9,0.1l0.3,0.7v0.6v0.3l-0.5,0.2l-1.5,0.1l-2.5-0.2l-0.4-0.3L43.1,870.7z M42.7,873.1l0.3-0.2h3.7L47,873
		l0.1,0.5v0.2v0.2l-0.6,0.5l-0.3,0.1l-3.5-0.4v-0.8V873.1z M41.8,876.3l0.2-0.5l0.8-0.6l0.8-0.1l2.2,0.2l0.1,0.1h0.2l0.1,0.4L46,877
		l-0.7,0.6l-0.8,0.3h-0.2l-0.1-0.1l-2-0.1l-0.6-0.5L41.8,876.3z M40.4,881.8l0.4-0.5l0.2-0.2l1.2-0.3v-0.2l-0.6-0.2l-0.3-0.4
		l-0.1-0.7l0.1-0.3h0.1l0.3-0.1l3.1,0.1l0.3,0.1l0.1,0.2l0.1,0.1v0.3l-0.2,0.5l-0.2,0.2l-0.3,0.2l-1.2,0.2l-0.1,0.1l-0.2,0.1
		l0.6,0.3l0.2,0.3l0.1,0.7l-0.1,0.3l-0.2,0.1l-0.3,0.1l-2.3-0.1l-0.7-0.3V881.8z"/>
	<path d="M55,894.5l-0.7,0.3l-1.4,0.3v0.2v0.1l0.8,1.1l0.5,0.2l0.3,0.5v0.7l-0.3,0.1l-0.7-0.1l-1.2-0.8l-1.8-0.8H50v0.1h-0.1v0.1
		l-0.1,0.1l0.2,2.1h-0.1l-0.2,0.2l0.7,0.8v0.5h-0.1l-0.1,0.1h-0.9l-0.3,0.2l-2.6,0.2l-0.5,0.5l1.3,0.2l1.3-0.1l1.1,0.1l0.7-0.3
		l0.8,0.3l3.3-0.1l0.8-0.2l0.1-0.1l0.1-0.4l0.1-4.5l-0.4-1.9L55,894.5z M54.5,899.7v0.2l-0.4,0.3l-0.4,0.1l-0.8-0.1l-2.1-1.2
		l0.1-0.5l0.2-0.2v-0.1h0.7l2.4,1l0.1,0.1h0.2l0.1,0.1v0.2v0.1H54.5z"/>
	<polygon points="68.6,889.4 68.5,889.4 68.5,889.6 68.5,889.8 68.9,890.1 69.2,890.1 71.4,889.7 71.6,889.5 71.6,889.2 71.7,888.9 
		68.7,889.2 	"/>
	<polygon points="44.3,899.1 43.2,898 42.5,897.9 41.6,898.5 41.5,898.5 40.6,898.1 38.9,898.1 38.7,898.3 39.1,898.9 39.4,899 
		41.6,898.8 42.7,899.1 44.2,899.7 44.5,900.2 44.7,900.1 44.7,899.9 	"/>
	<polygon points="25.8,853.7 25.8,853.4 25.6,853.2 25.5,853 24.8,852.3 24.3,852.2 24.1,852.2 23.8,852.4 23.8,852.5 25.4,853.6 	
		"/>
	<path d="M38.3,864.9l0.1-0.7l0.5-1.3l-0.1-1.5l0.1-1.3l-0.1-4.2l0.1-0.3l1-0.6v-0.2v-0.1v-0.2h-0.1L39,854l-0.4-0.7l0.1-1.4
		l-0.3-1.3l-0.1-0.9l0.1-0.3v-0.1l0.1-0.1v-0.5l-1.1-4.5l-0.5-0.9v-1.5l-0.5-0.8l-0.2-1.6l-0.4-0.4l-0.5-0.1l-0.2-0.3l-0.2-0.6
		l-0.3-0.3l0,0l-1,0.4l-1.8-0.2l-1.2,0.1l-0.3-0.1l-0.1-1.2l0.2-0.2l3.6-1v-0.2v-0.1l-0.9-0.9H33l-1.8,0.3l-1.3,0.5l-1-0.1v0.1
		l-0.1,0.1v0.1v0.1v0.2l0.3,0.9l0.5,0.8l0.7,1.2l0.3,1.4l-0.2,0.4h-0.2h-0.1h-0.2l-0.1-0.1l-0.7-1.2l-0.3-0.2h-0.1v0.2v0.2v0.3
		l0.8,1.6l0.2,0.1h0.2l0.8-0.1l0.6,0.2L34,841l0.6-0.3h0.8l0.5,0.3v0.3v0.2l-0.3,0.8l-0.5,0.2l-1.8,0.1l-1.7,0.6l-1.1-0.1l-0.4,0.1
		v0.2l0.3,0.7l0.7,3.2l0.3,0.1l0.2-0.1l0.3-0.2h0.3l0.3,0.1l2.8-0.3L36,847l0.6,0.3l0.2,0.3v0.3v0.4l-0.1,0.2l-0.3,0.2h-0.2
		l-3.7,0.2l-0.7,0.2l-0.2,0.3l-0.1,0.3l0.2,2.9h0.2l3.9,0.1l1.3,0.3l0.1,0.2v0.2l-0.1,0.7l-0.2,0.2l-0.4,0.1h-2l-0.9,0.5l-1.5-0.5
		h-0.2l-0.4,0.3h-0.3h-0.3l-0.4-0.2l-0.2-0.2l-0.4-0.8v-2.2l-1-6.2l-0.7-2.3l-0.4-0.6l-0.9-2.3l-0.9-1.2l-0.6-0.5l-0.2,0.1l-1,1.9
		h-0.1h-1.3v0.2v0.1l0.4,0.5l0.4,1.3l-0.1,0.6l-0.8,2l-0.5,0.4h-0.4L21,845h-0.5l-0.1,0.2l-0.1,0.1v0.2v0.3l1.1,0.7h0.1l0.1-0.1
		l0.5-0.4h0.1h0.2l0.5,0.3l1.3,1.9v0.3l-0.3,0.5h-0.1h-0.1l-0.4-0.1l-0.1,0.2l0.4,0.5l1.4,1h0.2h0.3v0.2v0.2v0.2l0.1,0.1l0.1,0.1
		l2.8,2.2l1,1.1l0.4,1l-0.1,0.4l-0.2,0.1h-0.1h-0.1h-0.2l-0.4-0.2l-1.4-1.3l-0.5-0.1v0.2v0.2l0.1,0.2l0.9,0.5l2,2.1v0.3v0.4h-0.1
		l-0.1,0.1h-0.5l-0.3-0.1l-1.1-0.7l-1.8-1.5l-2.1-1.7l-1-0.9l-0.8-0.5l-0.2,0.1v0.2l-0.1,0.1l-0.1,0.3l0.1,2.3l-0.1,0.3v0.1h-0.2
		h-0.2H21l-0.3-0.2l-0.8-0.9h-0.1l-0.2,0.1v0.1h-0.1l-0.1,0.3v0.3l0.4,0.8l-0.1,0.3l-0.4,0.4v0.3v0.4l0.7,0.4h0.2l0.3-0.2l0.6-1.6
		h0.2l0.2,0.1l0.2,0.2l3,3.3l0.8,0.5l1.6,1.6l0.4,0.1h0.1l1.6,1.3v0.2l0.2,1.2l-0.1,0.3v0.1l-0.3,0.1h-0.4l-0.4-0.1l-1-0.8l-0.4-0.5
		l-1.7-1.5l-1.6-1.1l-0.4-0.5l-0.9-0.7h-0.4l-0.3,0.3l-1.1,0.3l-0.7,0.4l-0.1,0.3l0.3,0.1h0.3l0.4-0.2h1.5v0.1l0.1,0.1l0.3,0.9
		l0.3,4.1l-0.1,0.3l-0.2,0.1h-0.4l-0.9-0.4l-0.4,0.1l-0.2,0.3l-0.2,1.1l0.1,0.3l0.8,0.5l0.4,1.1l0.4,0.2h0.2l0.3-0.1v-0.2v-0.1
		l-0.2-0.8l0.1-0.6l0.1-0.1l0.1-0.1H23h0.2h0.2v0.1l0.2,0.1l1.1,3.4v0.8l-0.2,0.3l-0.4,0.2h-0.7l-0.1-0.1l-0.2-0.2L23,873h-0.2h-0.2
		h-0.2v0.8l0.2,0.3l0.1,0.2l1.3,1v0.9h0.2h0.1h0.2v-0.1h0.1l0.3-0.3l0.1-1l0.2-0.4l0.1-0.2h0.2h0.1l0.6,0.3l0.7,0.7h0.2l0.1-0.2
		l1.1-2.2l1.6-4.7h0.2l1.5,0.3l0.8,0.3l0.5,0.9l-0.1,0.3l-0.2,0.1l-1.2,0.2l-0.3,0.1l-0.1,0.2l-0.3,0.5l-0.8,2.3l-1.9,3.8v0.3h0.3
		h0.5l0.1-0.2l1.2-2.1h0.2h0.1h0.2v0.1h0.1l0.2,0.4v1.6h0.3l2.9,0.4l0.9,0.6l0.1-0.2l0.1-0.1l0.4-0.9v-0.7l-0.1-0.2l-0.2-0.1h-0.2
		H35l-1,0.4l-1.4-0.1l-0.9-0.8v-0.3V875l0.1-0.3l0.8-0.8l1.8-0.1l0.2,0.1l0.4,0.3l0.5,0.7h0.3l0.1-0.1v-0.2l0.1-0.1l0.7-1.5l0.5-2.6
		l0.2-0.4l0.9-4.2L38.3,864.9z M28.3,847.6l-0.5,0.4l-0.1,0.2h-0.2h-0.2h-0.2l-0.4-0.9l0.1-1l0.2-0.5h0.1v-0.1l0.3-0.1l0.4,0.1
		l0.7,0.5l0.1,0.1v0.7L28.3,847.6z M24.9,866l-0.2,0.1H24l-0.4-0.1l-0.3-0.5l-0.2-0.9l0.1-0.3l0.1-0.2l0.3-0.1l0.3-0.1h0.3l1.2,1.1
		v0.1l0.1,0.1v0.1L24.9,866z M32.4,874.1l-0.2,0.3l-0.9,0.4h-0.5l0.1-1.8l0.2-0.4l0.2-0.3l0.3-0.2h0.2H32h0.2l0.3,0.8L32.4,874.1z
		 M35.2,856.5l0.2-0.4l0.6-0.2l0.8,0.1l0.4,0.2l0.2,0.3v0.3v0.2l-0.2,0.3l-1.1,0.1l-0.9-0.6V856.5z M30.5,856l0.3-0.2h0.5l0.4,0.1
		l0.3,0.4l0.3,1.3l1.3,0.3l0.3,0.3l0.1,0.6l-0.3,0.7l-0.1,0.1l-0.1,0.1l-0.9,0.1l-0.1,0.1h-0.1l-0.3,0.8v0.1l-1,0.1l-0.5-3.9
		L30.5,856L30.5,856z M32.1,865.4l-0.7,1.4l-0.3,0.1h-0.4l-0.6-0.6l0.3-0.6l0.1-0.1l0.1-1.5l-0.2-0.6v-0.3l0.7-1.1l0.5-0.1h0.2h0.3
		l0.1,0.3l0.1,1.5l1,0.2l0.3,0.3l0.1,0.3v0.2v0.3l-0.3,0.2L32.1,865.4z M35.9,873.4l-0.2,0.2l-1.2,0.2l-1.1-0.5v-0.6l0.1-0.2
		l0.5-0.3l1-0.1l0.7,0.2l0.2,0.2H36l0.1,0.6L35.9,873.4z M36.4,870.6v0.2l-0.7,0.4l-0.3,0.3l-0.9,0.2l-0.7-0.1l-0.4-0.7l0.2-0.5
		l0.6-0.4l1.5-0.1L36,870l0.1,0.1h0.1l0.1,0.2L36.4,870.6L36.4,870.6L36.4,870.6z M36.6,868.9l-1,0.4l-0.5-0.1l-0.8-0.6v-0.2v-0.1
		l0.6-0.3l0.8-0.1L36,868l0.4,0.2l0.1,0.2v0.2L36.6,868.9z M36.9,867.1l-0.6,0.2l-1.4-0.2l-0.3-0.3v-0.1l0.1-0.2l0.7-0.3l0.8,0.1
		h0.3l0.3,0.2v0.1l0.1,0.1v0.2V867.1z M37.5,865.1l-0.1,0.1l-0.1,0.1l-1.7,0.2l-0.7-0.2l-0.5-0.4v-0.2v-0.2l0.2-0.2l0.1-0.1l2.1-0.1
		l0.5,0.2l0.2,0.2v0.2V865.1z M37.6,862.7v0.2l-1.9,0.3l-0.9-0.5l0.1-0.6l0.2-0.3l1.5-0.2l0.4,0.1l0.6,0.6v0.2L37.6,862.7
		L37.6,862.7z M37.8,859v0.2l-0.4,0.2l-1.4,0.2l-1-0.3l0.1-0.7l0.2-0.3l1.7-0.2l0.3,0.1l0.2,0.3l0.1,0.1v0.2v0.2H37.8z"/>
	<polygon points="46.2,898.5 46.4,898.4 46.4,898.3 46.5,898.2 46.5,897.8 46.3,895.6 46.2,895.2 46,895.1 43.2,893.4 43.1,893.2 
		42.9,892.8 42.5,892.4 42,892.4 42,892.6 41.9,892.7 41.9,892.8 42.3,893.1 42.9,893.1 42.9,893.5 43,893.7 43.7,894.3 44,894.7 
		44.7,895.2 44.8,895.5 44.8,895.9 44.6,896.1 44.4,896.2 44.2,896.1 43.1,895.7 43,895.7 42.9,896 43,896.2 43.3,896.6 45.1,898 
		46.1,898.6 	"/>
	<polygon points="70.4,891.4 70.1,891.4 68.3,891.4 67.8,891.6 67.6,891.9 67.5,892.2 67.8,892.4 70,892.3 70.3,892.2 70.5,892.1 
		70.5,891.8 70.5,891.7 	"/>
	<polygon points="67.1,889.4 67,889.3 66.7,889.2 66.6,889.2 65.7,889.5 65.4,889.8 64.7,889.7 64.6,889.9 64.6,890.2 65.9,890.3 
		67.1,890 67.1,889.8 67.1,889.6 	"/>
	<polygon points="62.3,889.4 62.1,889.3 61.3,889.3 59.7,889.7 58,889.5 57.1,889.7 56.8,890 57.3,890.2 62.1,890 62.4,889.8 
		62.4,889.8 62.5,889.6 62.4,889.5 	"/>
	<polygon points="65.7,891.5 62.8,891.9 62.7,892 62.6,892.2 63.3,892.5 65.4,892.4 66,892.1 66,891.9 66,891.7 66,891.6 	"/>
	<polygon points="61.1,897.8 61.1,897.8 60.9,897.6 60.8,897.6 60.5,897.4 60,896.5 59.6,896.2 58.9,896 58.4,895.7 58.3,895.3 
		58.4,894.6 58.4,894.3 58.3,894.3 57.7,893.7 57.5,893.8 57.4,894.1 57.3,894.7 57.7,900.7 57.8,900.8 57.8,900.8 58,900.6 
		58.3,899.9 58.9,899.4 59.5,899.1 60.6,898.9 61.2,898.5 61.2,898.2 61.2,898 	"/>
	<polygon points="55,890.8 54.2,890.6 54.2,890.4 54,890.1 53.4,889.5 52.6,889.1 52.2,888.6 51.2,887.9 51.1,887.9 51.1,888.2 
		51.1,888.3 51.2,888.3 51.3,888.5 52.5,889.4 53.2,890.3 53.6,890.4 53.8,890.7 53.8,891.1 53.6,891.4 53.6,891.5 53.4,891.5 
		53.2,891.5 53,891.5 52.7,891.2 52.3,891 50.3,889.2 49,888.2 47.1,886.4 46.7,886.2 46.6,886.3 46.5,886.4 46.4,886.4 46.4,886.5 
		46.4,886.7 46.4,886.8 46.6,886.9 48.6,888.7 50.2,890.3 51,890.6 51.3,891.4 51.2,891.7 51,891.7 50.9,891.7 50.7,891.7 
		50.7,891.6 49,890.4 49,890.3 47.9,889.1 47.2,888.9 45.4,887.2 44.9,886.8 44.5,886.8 44.5,887.1 44.7,887.5 45.1,887.8 
		46.5,889.4 46.9,889.6 47.2,890.1 47.5,890.2 48.1,890.9 48.1,891.4 47.9,891.4 47.7,891.4 46.4,890.5 46.2,890.2 42.9,887.5 
		42.5,887.5 42.5,887.6 43.1,888.5 45.4,890.5 45.5,890.6 45.5,890.8 45.4,891 45.3,891.1 45.2,891.2 44.9,891.2 44.7,891.1 
		42.7,889.4 40.8,887.9 40.7,887.6 40.3,887.5 39.5,886.7 38.6,886.2 38.3,886.3 38.2,886.5 38.2,886.8 38.9,887.5 40.8,889.2 
		41.4,889.8 41.9,890 45.1,892.5 45.5,893.1 46,893.3 48.5,893.4 48.9,893.3 54.2,893.2 54.5,893 54.5,891.6 54.9,891.5 55,891.5 
		55.3,891.6 57,893.2 57.2,893.1 57,892.8 	"/>
	<path d="M94,834.7l0.3,1.2l0.5,0.6l0.1,0.7l0.3,0.9l0.9,0.9l1.5,0.3v0.7l0.1,0.1l0.2-0.1l0.4-0.6h0.1h0.1l0.3,0.1l0.1,0.1l0.4,0.4
		l-0.6,0.3v0.2v0.3h-0.2l-2.5-0.1v0.2v0.2l0.6,1.3l-0.1,1.1l0.1,0.4l0.4,0.6l0.1,0.7l2.4,0.1l0.7,0.7v0.1v0.2h-0.1l-0.1,0.2
		l-3.1,0.2l-0.1,0.3l0.1,0.6l0.4,0.5l0.1,0.6l-0.1,0.8l-0.1,1.2l2.6-0.1l0.7,0.2v0.2v0.2l-0.1,0.7l-0.3,0.1h-2.5l-0.2,3.1l0.2,1.1
		h0.2h0.1l0.7-0.1l2.2,0.1l0.3,0.2v0.2v0.2v0.2l-0.1,0.2h-0.1l-0.1,0.1l-0.3,0.1l-2-0.1l-1.1,0.3l-0.1,0.3l-0.1,2.9l0.2,1l0.3,0.1
		H98l0.4-0.1h2.5l0.3,0.1v0.2v0.2v0.2l-0.1,0.2l-1.3,0.5l-1.3-0.1l-1.5,0.1v0.1l-0.3,0.7l-0.2,2.2l0.1,0.1h0.1l0.1,0.1h0.5l0.3-0.2
		l2.6,0.2l0.7-0.2l0.1-0.2l0.6-2l0.2-1.9l-0.1-0.4l0.3-0.7v-0.8l0.4-2.1v-1.5l-0.1-1.2l0.1-0.9l0.2-0.4l-0.2-4.1l-0.2-0.3l-0.4-2.6
		l-0.5-1.2v-0.8l-0.4-1.3l0.1-1.2l-0.5-2l-0.6-0.7l-0.2-2h-0.2l-0.1-0.1l-0.2-0.1l-1.5-3.7l-1.8-2l-1.3-0.8l-1.3-0.4h-1l-0.1,0.2
		v0.1l1,2.2L94,834.7z M95.1,834.3l0.3-0.4l0.1-0.1l0.9,0.3l0.2,0.1l0.1,0.2v0.6l-0.1,0.1v0.1l-0.1,0.1h-0.7l-0.7-0.4L95.1,834.3z"
		/>
	<polygon points="24.9,834.6 24.9,834.3 24.2,834.3 24.2,834.6 	"/>
	<polygon points="72,826 71.7,825.9 70.9,826 71.8,826.1 	"/>
	<polygon points="28.1,833.8 28.9,833.3 29.8,833.1 30.9,832.6 30.8,832.4 30.6,832.3 28.6,832.8 27.3,833.5 27.3,833.6 27.2,833.9 
		27.6,833.9 	"/>
	<polygon points="27.4,836.7 27.6,836.6 27.7,836.5 27.7,836.5 27.8,836.3 27.6,836 27.6,836 27.2,835.6 26.9,835.5 26.4,835.6 
		26.4,835.8 26.4,836.2 27.1,836.6 	"/>
	<polygon points="16.9,859.6 17.5,859.6 17.5,859.4 17.6,859.4 17.8,858.9 17.7,857.1 17.2,856.1 17,856.1 16.8,856.1 16.6,856.1 
		16.4,856.2 16.3,856.3 16.3,856.4 16,857.6 16.3,859 16.6,859.6 	"/>
	<path d="M69,795c-37.6,0-68,30.4-68,68s30.4,68,68,68s68-30.4,68-68S106.6,795,69,795z M120.5,889.5l0.1,0.1v0.2v0.1v0.2l-1.5,0.4
		l-4.3,0.5l-0.4,0.2l-0.7,0.1l-1-0.2l-0.6-0.6l0.2-0.4l0.5-0.4l3.2-0.6l4.3,0.2L120.5,889.5z M117.3,887.3l0.3,0.1v0.1l0.2,0.3v0.5
		l-0.1,0.3l-4.7,0.3l-1-0.3l-0.7-0.5l0.1-0.3l0.5-0.3l3.1-0.4L117.3,887.3z M114.2,885.3l0.5,0.3h0.1v0.1h0.1v0.2v0.4l-0.1,0.1
		l-0.1,0.1l-5,0.5h-0.3l-0.4-0.3l-0.3-0.6v-0.2v-0.1l4.1-0.6L114.2,885.3z M110.9,883.4l0.3,0.3l0.2,0.3v0.2v0.3h-0.1v0.1l-0.8,0.1
		l-3.8,0.1l-1.3-0.6l0.1-0.3l0.2-0.3l4.8-0.3L110.9,883.4z M106.4,881.4l0.2,0.4v0.3v0.2v0.2l-2.2,0.2l-1-0.4v-0.2l0.1-0.3l0.3-0.2
		l2.3-0.2H106.4z M111.3,899.6l-0.7,0.8l-0.3,0.1l-3.5,0.5l-1.5-0.2l-1.5,0.3l-0.1-0.1l-4.5-0.2l-0.6-0.5l-1.4-0.5l-0.4-0.2
		l-0.9-1.2l-0.5-0.4l-1.4-1.5l-0.9-0.7l-2.1-2.5l-1.2-1.1l-0.4-0.5l-0.2-0.1l-0.8-0.3H88h-0.4l-0.3,0.1h-4.8l-1.5,0.2l-1.5-0.1
		l-0.4,0.1l-0.8-0.1h-0.2v0.2v0.1l2.6,0.2l0.6-0.2l5.5,0.1l0.2,0.5v0.3v0.2l-0.1,0.1v0.1l-1.7,0.1l-1-0.1l-4.2,0.3h-2.2l-3.9,0.2
		l-0.3-0.1l-1.6,0.3l-4.9,0.2l-1.8,0.4h-2.1h-0.3v0.2v0.1l2.6,0.1l13.4-0.6l0.7-0.2l4.2,0.2l1-0.1l0.4,0.3l0.1,0.2h0.1v0.1v0.3
		l-0.9,0.4l-5.6,0.2l-0.3-0.1l-8.7,0.4l-1.2,0.3l-2.1,0.1h-0.7h-0.3l-0.1,0.1l-0.2,0.1l0.1,0.1l6.7-0.1l2.3-0.3l0.8,0.2v0.1v0.2
		l0.3,0.2l0.4,0.1v-0.3v-0.2v-0.2H76l0.1-0.1l5.4,0.1l0.6,0.1l0.1,0.1v0.1l-0.4,0.5l-0.1,0.1v0.1l-0.4,0.2l-3.7,0.3l-2.9-0.1
		l-1.7,0.1l-5.4,0.1l-1.7,0.2l-0.4,0.3h-0.9l-0.8-0.3h-0.3h-0.2l-0.3,0.2v0.2v0.2v0.2l1.9,0.1l3.1-0.4l0.3-0.1l0.8,0.3l5.6-0.5
		l1,0.2l0.7-0.2l0.5,0.1l0.1,0.1h0.1l0.1,0.3v0.3l-0.1,0.2l-0.5,0.2l-8.9,0.7l-1.9-0.1l-1.3,0.1l-0.4-0.1l-3.5,0.4v0.1h-0.1
		l-0.1,0.2v0.1l0.1,0.2l0.3,0.1l2.8-0.1l0.4,0.2l0.4,0.1l0.1,0.5v0.3l-0.8,0.2h-0.1l-0.3,0.2l-4.6-0.1l-0.1-0.1l-3.3-0.1l-2.1,0.3
		l-0.6-0.1l-1.8,0.1l-0.4-0.1h-2.3l-1.4,0.3l-2-0.4l-1.1-1.4l-1-0.9L42,900h-3l-1.5,0.2l-0.3-0.1L33,900l-0.7-0.3l-0.2-0.2H32v-0.1
		v-0.1v-0.1l0.7-0.3l1.9-0.2l2.2,0.1l0.3-0.1l0.1-0.2v-0.1v-0.2l-0.3-0.1l-1.5,0.2l-0.7-0.2l-0.4,0.1l-2.8-0.2l-0.9,0.3l-1.8,0.2
		l-0.4,0.2l-0.8-0.1l-0.9-0.5l-1-0.2l-0.2-0.2l-0.1-0.2v-0.2h0.1l0.3-0.1l9.1-0.5l1.9,0.1l2-0.3h2.8v-0.2v-0.2l-2.7-0.1l-3.1,0.2
		l-0.7-0.2l-1.5,0.2l-2.5,0.1l-2.4-0.1l-5.1,0.4l-1.3-0.4l-0.1-0.1H22l-0.1-0.2v-0.1l0.1-0.2l2.1-0.7l10.3-0.3H37l0.3-0.1v-0.2
		l-0.4-0.4l-0.1-0.1v-0.1l-2.6,0.2L25,894l-0.7,0.1l-5-0.1l-0.4-0.1l-0.1-0.1h-0.2v-0.3l0.1-0.4l0.6-0.4l1.1-0.3l12.7-0.2l1.5,0.1
		l0.3-0.1v-0.1l-0.3-0.6v-0.2l-0.2-0.1l-6.5,0.1l-3.3-0.1l-1.3,0.1l-0.6-0.2l-3.6,0.1l-0.7-0.2h-0.2v-0.3l0.1-0.2l0.3-0.3l3.9-0.5
		l5.4-0.1l0.4-0.1l0.7,0.1l2.6-0.4h0.7h0.2v-0.1v-0.2h-0.1l-1-0.2l-2.8,0.2l-1.1-0.3l-1.9,0.2l-1.4-0.2h-3.3l-0.4-0.4l-0.1-0.3v-0.1
		v-0.1l0.1-0.1l0.3-0.2l2.1-0.2l3.9,0.1l3.4-0.3l-0.9-0.5l-0.3-0.3l-0.8-0.1l-0.6,0.2l-0.3-0.1l-2.6-0.2l-2.2,0.1l-0.3-0.1l-0.1-0.1
		H22v-0.1v-0.1l0.4-0.5l0.3-0.2l0.3-0.2l4-0.3l-0.1-0.4l-0.7-0.8l-0.4-0.2l-0.5-0.5l-1.7-0.6l-1.6-1.5l-2.1-2.6l-2.2-4.6l-2.5-9
		l-0.6-5.9l-0.1-0.1l0.1-5.7l1.1-7l1.5-4.6l0.9-1.9l1-2.5l0.8-1l0.2-0.5v-0.2l1-0.7l0.4-0.4l1.3-0.7l0.1-0.2l2-1.1l4.5-1.4l1-0.1
		l0.3-0.1l0.4-0.5l1.5-0.9l1.5-0.4h1.4l0.5-0.1l0.6-0.4l4.2-1.2l2.8-0.4l0.7-0.3l1-0.1l0.3,0.1l0.2,0.3h0.1v0.1H46l2.8-1.2l3.3-0.7
		l6.2-0.6l6.4-0.1l10.3,0.8l3.6,0.5l1.4,0.1l2.3,0.6l0.2,0.4l0.4,0.4l0.5,0.1l1-0.2l0.6-0.4l1.2-0.1l2.4,0.5l2.2,0.9l0.2,0.1
		l0.1,0.5l0.4,0.2l2.9,0.5l2,0.6l1.9,1.5l0.3,0.5l0.1,0.4H99l0.2,1l1.5,2.8v0.2l0.1,0.1l0.4,0.4v0.5l0.4,1.4l0.3,0.4l0.7,2.4l0,0
		l0.1,0.1l0.4,1.2l0.3,0.1l0.4,2.3l-0.1,0.8l0.8,2.1l0.1,3.3l0.4,2l-0.3,0.7l-0.1,5.1l-0.1,0.3l-0.5,0.3l-0.3,0.1v0.2v0.1v0.2
		l0.6,0.4l0.1,0.7l-0.3,1.2l-0.1,1.8l-0.4,1.1l-0.2,1.9l-1.7,5l-1.4,3.1l-0.9,1.6l-0.2,0.2L99,877l0.1,0.6l-0.3,0.7v0.1l0.5,0.5
		l1.3,0.9l0.5,0.5l0.7,0.3l1.9,1.8l1.8,1.3l1.4,1.3l1.5,1l0.8,0.8l1.8,2.4v0.1l0.2,1l-0.2,0.5l-0.2,0.3l-0.7,0.3l-0.4,0.8l-0.1,0.8
		l0.4,0.8l0.2,0.3l0.2,0.3v0.3l-0.1,0.3h-0.6l-1.7-0.7l-0.6-0.4l-1.7-0.4l-0.1,0.1l0.9,0.8l2.5,1l0.9,0.7l0.9,0.4l0.7,0.6h0.1
		l0.3,1.1L111.3,899.6z M103,880.6l-0.2,0.4l-0.2,0.1H102l-1.1-0.7v-0.2l0.1-0.3l0.5-0.3h0.5l0.4,0.2h0.2l0.3,0.3L103,880.6z
		 M116.3,893.5L116.3,893.5l0.4,0.2l2.6-0.1l0.3-0.1l0.1-0.1l1.4-0.1l0.3,0.1l0.1,0.1v0.2v0.2v0.2l-0.3,0.3l-0.3,0.2l-3.4,0.5
		l-0.1,0.1h-0.1l-0.1,0.2v0.1l1.5,0.3l0.1,0.1h0.1l0.2,1l-0.1,0.3l-0.4,0.4l-2.2,1.3l-0.5,0.3l-0.9,0.2l-0.3,0.3h-0.1l-0.1,0.1
		l-1.6,0.1l-0.5-0.2l-0.4-0.4v-0.4l0.4-0.5l0.4-0.3l0.8-0.2h0.1l0.2-0.4v-0.3l-0.1-0.3l-1-0.4h-0.1v-0.2v-0.2v-0.2l0.3-0.1l0.1-0.1
		V895l-0.3-0.6v-0.3l0.2-0.2l0.1-0.1l0.3-0.1h0.4v-0.2h-1l-0.3-0.1l-0.3-0.4v-0.3v-0.2l0.3-0.3l2-0.4h1.7l0.9-0.2l4.1-0.3l0.4,0.2
		h0.1v0.1h0.1v0.2v0.1l-0.3,0.4l-0.4,0.3l-0.1,0.1l-2.3,0.1l-2.4,0.5L116.3,893.5L116.3,893.5z"/>
	<polygon points="109.3,898.6 109,898.4 108.5,898.2 106.7,897.2 103.5,895.9 102.8,895.9 102.6,896 102.5,896.2 102.6,896.3 
		106.3,898.2 106.5,898.4 106.5,898.5 106.4,898.6 106.2,898.8 105.9,898.9 104.8,898.8 102.9,898.1 102.4,898.1 101.6,898.8 
		100.6,899.1 100.5,899.3 101.1,899.5 103.4,899.5 103.9,899.4 107.9,899.6 109.5,899.2 109.4,898.9 	"/>
	<path d="M102.8,891l2.6-0.1l0.6,0.3h0.2l1.5-0.5l0.8-0.5v-0.1V890v-0.1h-0.1l-0.1-0.2l-1.9-1.6l-1.8-1.8l-0.4-0.1l-1.3-1l-0.6-0.8
		l-3-2.5l-0.7-0.4l-1.4-1.4H97h-0.3v0.2l0.1,0.1l0.6,0.6l2.3,1.7l1.9,1.5l0.3,0.9l-0.2,0.3h-0.1h-0.1l-0.8-0.3l-0.4-0.4l-2-1.5
		l-3.1-2.8l-0.4-0.1h-0.1v0.3v0.2l0.1,0.3l0.9,0.7l0.3,0.5l0.4,0.1l1.4,1.3l1,0.7l0.9,0.8l0.5,0.2l0.9,0.7l0.8,1.2l0.4,0.1l1.3,1.1
		l0.2,0.4v0.4l-0.1,0.2l-0.3,0.1l-0.7-0.1l-0.3-0.2l-3.3-2.9l-3.5-2.8l-0.9-1.1l-0.8-0.7h-0.1h-0.2l-1.2,0.4v0.2v0.3l0.7,0.6
		l1.4,1.6l1.8,1.7l0.7,0.5l0.4,0.5l0.7,0.6l0.2,0.5l1.3,1.2l0.6,0.2l0.5,0.5l0.4,0.1L102.8,891z M102.4,886.6L102.4,886.6v-0.2
		l0.1-0.1l0.3-0.2h0.2l1.7,1.1l1.3,1.3l0.4,0.7l0.1,0.1v0.2v0.3H106l-0.8-0.5L102.4,886.6z"/>
	<polygon points="100.2,893.5 100.1,892.9 99.7,892.3 98.1,891.2 97.7,890.4 96.9,890 95.4,888.5 95.2,888.4 94.7,888.5 94.7,888.7 
		94.7,888.9 94.8,889.1 94.9,889.2 96.2,890.1 96.9,891 97.3,891.2 97.7,891.5 98.1,892.4 98.1,892.6 98,892.8 97.7,892.9 97,892.8 
		96.9,892.6 95.9,891.5 93.8,890.2 93.7,890.2 93.7,890.4 93.7,890.6 93.8,890.9 94.3,891.6 98.5,895.5 98.9,896.3 98.9,896.4 
		98.9,896.7 98.7,896.9 98.6,896.9 98.5,896.9 98.2,896.9 97.6,896.7 95.7,895 95.2,894.4 94.7,893.9 92.9,891.8 92.1,891.3 
		90.7,889.6 90.2,889.2 89.3,888.1 88.3,887.4 85.7,884.6 85.3,884.4 84.9,884.5 84.8,884.7 84.8,885.1 88.1,888.3 89.6,889.4 
		89.7,889.9 90.9,891.3 91.4,891.5 92,891.9 92.5,892.6 92.8,892.9 94,894.4 94.9,895 96.2,896.6 96.8,897.1 97.4,897.8 97.8,898 
		98.4,898.5 98.7,898.5 98.8,898.5 98.9,898.4 100.1,897.4 100.2,897.1 99.9,894.9 	"/>
	<path d="M87,881.7l1.4-1.5l1.7-0.3l2.5-0.8l2.1-0.2l0.7-0.2l0.8-0.5l0.5-0.7l0.1-0.5h-0.4h-0.3l-0.9-0.3v-0.2v-0.2l0.1-0.6l0.3-0.2
		h0.2l0.5,0.1l1.7-0.3v-0.1l0.1-0.1v-0.2v-0.2l-1.5,0.2l-0.5-0.1l-0.2-0.4l-0.1-0.3l0.1-0.6l3.2-0.3l0.1-0.2l0.1-0.3l-2.4-0.2
		l-0.2-0.3l-0.1-0.4v-0.2l0.1-0.3l0.1-0.2l0.7-0.5l1.2,0.1l0.5-0.2l-0.1-0.1h-0.6l-1.2-0.3h-0.1v-0.2v-0.1l0.1-0.4l0.3-0.2l2.7-0.3
		l-0.1-0.3l-0.1-0.2h-0.2l-0.1-0.1h-2.1l-0.3-0.1l-0.3-0.3V867l-0.2,0.1v0.1l-0.1,0.1l-0.4,1.2L96,870l-0.1,0.3l-0.2,0.3l-0.5,2.4
		l-0.2,0.4l-0.5,2.2l-1,2.3l-0.5,0.3h-0.4l-0.2-0.1V878l-0.4,0l-0.4,0.6h-0.1l-1.5,0.6l-0.7-0.1l-0.7-0.3l-0.1-0.3l0.1-0.6l1.2-1.7
		l0.4-1.2l0.4-0.6l0.2-1.3l0.8-2.5l0.1-1l0.7-2.8l-0.1-0.9l0.8-4.1v-2l0.3-1.1l-0.1-1.1l0.3-2.6l-0.2-1.7v-0.7l0.1-2.2l-0.3-0.9
		v-1.8l-0.5-1.8l0.1-0.7l-0.2-0.8l-0.4-0.8l-0.5-2.9l-0.6-1.2l-0.6-2.1l-0.5-0.9v-0.7l-0.1-0.3v-0.1l-0.3-0.4l-0.4-1.5L88,831
		l-0.5-0.5l-0.3-1.2v-0.1l-0.8-0.9l-5.6-0.6l-0.3,0.2v0.2v0.4l0.6,1.1l1.6,4l0.2,0.1l0.1-0.2h0.1v-0.1l0.6-0.2h0.5l1-0.1l1.1,0.1
		l1.2,0.3l0.8,0.4v0.2v0.1l-0.1,0.4l-0.2,0.1l-4.9-0.3l0.5,2.9l0.8,2.7l0.6,3.5l-0.4,0.8l-0.7,0.3v0.3l0.3,0.1l0.9,0.1v0.1l0.1,0.1
		l0.3,0.6v1.6l0.3,0.9L86,851l-0.1,0.3l-0.5,1h-0.1l-0.2,0.2l-0.5,0.2l-0.6,0.4v0.1v0.1v0.1l0.1,0.1l0.1,0.1h0.2l0.6-0.3h0.2
		l0.2,0.1l0.7,0.7v0.3l0.3,2.1l-0.2,0.8l0.1,2.7l-0.4,1.5l-0.1,2.1l-0.4,2.3v1.7l-0.2,0.3l-0.2,2l-0.3,0.5l-1.2,6.2l-0.5,1.3
		l-0.3,0.3l-0.7,2.6l-0.2,0.5v0.5l0.9,0.4l1.5,0.1l2.2-0.3L87,881.7z M85.1,832.1v0.2l-0.4,0.3l-1,0.1l-0.5-0.3V832v-0.2l0.4-0.3
		l0.3-0.1l0.9,0.2l0.1,0.1H85v0.1h0.1v0.1V832.1z M86,830.7l-0.5,0.2l-3.3-0.4l-0.8-0.4v-0.4v-0.3l0.5-0.2l2.4,0.1l1.3,0.2l0.3,0.3
		l0.1,0.7V830.7z M90.7,865.5l-0.1,0.3l-0.5,0.3l-3,0.2l-0.4-0.1l-0.7-0.7l0.1-0.2l0.1-0.1l4-0.2h0.3l0.2,0.2h0.1v0.1v0.2H90.7z
		 M90.3,867.4l-0.1,0.5l-0.1,0.1v0.1l-0.7,0.1l-2.9-0.1l-0.5-0.4v-0.2v-0.1l0.6-0.2l1.3-0.1l2.1,0.1l0.1,0.1h0.1L90.3,867.4z
		 M91.2,863.6v0.2l-0.8,0.4l-1.1,0.1l-0.3-0.1l-0.7,0.3l-1.2-0.1l-0.3-0.1l-0.5-0.5l0.3-0.4l0.5-0.3l1.1-0.1l1,0.1l1.2-0.2h0.4
		l0.3,0.2v0.1h0.1v0.2V863.6z M86.4,857.8v-0.3v-0.2l0.3-0.1l1.6-0.1l2.8,0.3l0.3,0.2h0.1l0.1,0.2v0.1v0.2l-0.4,0.1l-0.1,0.1
		l-1.4,0.1l-1.2-0.2l-1.3,0.1l-0.5-0.2L86.4,857.8z M86.5,861.5l0.7-0.4l1.8-0.3l2,0.4v0.1h0.1v0.2v0.1v0.2l-0.4,0.2l-3.2,0.2
		l-1.1-0.3v-0.2L86.5,861.5z M91.7,860.1l-0.5,0.1l-3.9-0.2l-0.5-0.2v-0.4v-0.2l0.9-0.3l3.5,0.1l0.2,0.1l0.2,0.1v0.5L91.7,860.1z
		 M92,856.1v0.2l-0.6,0.2l-1.7,0.1l-0.7-0.2l-0.9,0.1l-1-0.3l0.1-0.4l0.1-0.2l0.5-0.2l2.2-0.1l1.8,0.2l0.1,0.3L92,856.1L92,856.1z
		 M91.8,851.4l0.1,0.1v0.2l-0.3,0.9l-0.3,0.2l-3.2,0.1l-0.6-0.2l-0.6-0.6v-0.3v-0.2l1.5-0.3L91.8,851.4z M85.5,840.2l-0.3-0.1
		l-0.5-0.5v-0.2v-0.1l0.3-0.2l2.4-0.1l1.8,0.4l0.1,0.1h0.2v0.1l0.1,0.1v0.1v0.1v0.1l-0.5,0.3l-2,0.2L85.5,840.2z M85.7,846.5v-0.4
		v-0.2l0.4-0.3l0.1-0.1l2.1-0.1l0.4,0.1l1.3-0.1l0.8,0.3l0.3,0.3h0.1v0.1l-0.2,0.4l-0.2,0.1l-0.3,0.1l-3.8-0.1L85.7,846.5z
		 M85.5,869.7l0.7-0.5l0.3-0.1l3.1-0.1l0.8,0.7l0.1,0.1l-0.2,0.3l-0.8,0.3l-3,0.3l-0.7-0.2l-0.3-0.3V869.7z M85.1,871.8l0.1-0.1
		v-0.1l0.7-0.2l1.1-0.1l1.8,0.1l0.5,0.4l0.1,0.3v0.1v0.2l-0.5,0.3l-2.4,0.1l-1.4-0.3l-0.2-0.1L85.1,871.8z M84.5,874.1l0.5-0.4
		l2.9-0.4l0.7,0.1l0.2,0.1l0.1,0.2v0.4l-0.1,0.4l-0.6,0.6l-1.1,0.3H85l-0.3-0.1l-0.5-0.6L84.5,874.1z M83.5,877l0.3-0.4l0.3-0.2
		l1.4-0.2l0.1-0.2h2l0.3,0.3l0.2,0.4l-0.2,0.7l-0.2,0.4L87,878l-0.3,0.2l-0.3,0.1l-2.5,0.1h-0.3l-0.3-0.8L83.5,877z M83,880.7
		l-0.5-0.5l0.2-0.5l0.4-0.4l0.3-0.1l1-0.1l0.7-0.2l1.8-0.1v0.1H87v0.5l-0.2,0.4v0.1l-1.3,0.3L83,880.7z"/>
	<polygon points="49.8,829.6 49.7,829.5 49.5,829.6 49.1,829.8 49,830 49.8,829.9 	"/>
	<polygon points="22.4,836.3 22.5,836.1 22.6,835.9 22.5,835.5 22.4,835.4 22.2,835.4 22,835.5 22,835.6 21.8,835.7 21.8,835.9 
		21.7,836.3 22.1,836.5 	"/>
	<polygon points="20.1,841.2 20.3,841 20.7,840.4 20.9,839.1 20.8,838.3 20.5,838.3 20.4,838.3 20.3,838.4 20.2,838.6 20.1,838.7 
		19.4,839.9 19.1,841.1 19.7,841.3 	"/>
	<polygon points="19,852 18.9,852.4 19.9,853 20,853 20.1,852.9 20.2,852.8 20.2,852.4 20.1,851.9 19.8,851.7 19.5,851.7 19,851.7 	
		"/>
	<polygon points="17.9,846.6 18,846.6 18.3,845.8 18.6,845.6 18.8,845.3 18.9,845 19,843.8 18.9,843.5 18.7,843.3 18.5,843.2 
		18.4,843.2 18.2,843.3 18.2,843.4 18.1,843.5 18.1,843.6 17.8,844.3 17.4,846.7 17.7,846.8 	"/>
	<polygon points="23.8,838.5 23.8,838.4 23.9,838.4 23.9,838.3 23.9,838.1 23.9,838 23.7,838 23.5,838 23.3,838 23.2,838.3 
		23.6,838.5 	"/>
	<polygon points="19.5,849.6 19.5,850.1 19.8,850.4 21,850.7 21.1,850.5 21.2,850.4 21.4,848.4 21.3,848.4 20.8,847.9 20.5,847.8 
		20.2,847.9 20.2,848 	"/>
	<polygon points="17,853.4 17,853.3 17.1,853.3 17.4,852.1 17.5,849.7 17.3,849.4 17.1,849.4 16.6,849.4 16.5,849.7 16.3,850.9 
		16.2,853.3 16.7,853.5 	"/>
</g>
<g>
	<path d="M144.9,819.3v-3.1h33.8v3.1h-8.1l17.2,51.5l10.8-32.6l-6.2-18.8h-6.6v-3.1h32.5v3.1h-7.2l16.8,50.2l14.1-50.2h-10.8v-3.1
		H253v3.1h-7l-20.8,72.8h-8.1L200.7,844L185,892.1h-7.8l-26.4-72.8H144.9z"/>
	<path d="M252.7,891.5v-2.8h6.5v-75.1h-6.5v-2.8h24v38.9c2.9-7,8.4-10.4,16.7-10.4c11.1,0,16.6,6,16.6,18v31.5h6.6v2.8h-29.5v-2.8
		h5.4v-33.4c0-8.6-1.4-11-4.7-11c-3,0-5.6,1.6-7.8,4.7s-3.2,6.9-3.2,11.3v28.3h5.5v2.8H252.7z"/>
	<path d="M318.6,843.1v-2.8h24.3v48.4h6.6v2.8h-30.6v-2.8h6.5v-45.6H318.6z M333.4,813.7c6,0,9.6,3.1,9.6,9c0,5.5-3.2,9.2-9.8,9.2
		c-7,0-9.7-4.1-9.7-9.2S326.8,813.7,333.4,813.7z"/>
	<path d="M352.7,892.6v-18.9h2.4c3.1,11.3,9,15.6,18.2,15.6c7.6,0,11.1-2.8,11.1-7c0-1.6-0.6-3-1.8-4.1s-2.4-1.8-3.6-2.2
		c-1.2-0.4-3.4-1.1-6.8-1.9l-1.1-0.3c-5.5-1.3-8.2-2.3-12.2-4.7s-6-6.6-6-12.2c0-10.4,7.5-17.7,18.7-17.7c3.6,0,7.2,0.9,10.8,2.5
		c1.4,0.5,2.5,0.9,3,0.9c1.3,0,2.2-1.2,2.5-3.6h2.2v16.4h-2.3c-3.2-8.7-8.5-13.1-15.8-13.1c-6.8,0-10.1,2-10.1,6.2
		c0,1.8,1.1,3.6,2.3,4.5c0.5,0.4,1.5,0.9,2.7,1.4c2.5,0.9,3.7,1.2,7.1,2l1.3,0.3c5.3,1.3,8.1,2.4,12.1,5s5.9,6.9,5.9,12.9
		c0,11.5-7.4,18-19.8,18c-4.6,0-9-1.1-13.2-3.2c-0.9-0.5-1.5-0.9-1.9-0.9c-1.2,0-2.3,1.4-3.2,4.1H352.7L352.7,892.6z"/>
	<path d="M393.7,813.6v-2.8H418v51.7l2.2-0.5l22-18.8h-8.6v-2.8h21.3v2.8h-7.8l-13.2,11.5l18.8,34.1h4.5v2.8h-28.7v-2.8h5.4
		L421.1,865l-3,0.6v23.1h5.5v2.8h-29.5v-2.8h6.5v-75.1L393.7,813.6L393.7,813.6z"/>
	<path d="M462.6,846c5.1-4.5,11.7-6.8,19.8-6.8c14.7,0,22.2,7.5,22.2,22.6v1.9h-31.1v3.6c0,14.3,3.2,21.3,13.2,21.3
		c7.6,0,12.6-4.3,15.1-12.8l2.8,0.4c-2.6,10.2-8.9,16.4-22.8,16.4c-17.7,0-26.7-10.2-26.7-26.5C455,857.2,457.5,850.5,462.6,846z
		 M487.6,860.9c0-7.5-0.4-12.6-1.3-15.2c-0.8-2.6-2.5-3.9-5.2-3.9c-5.5,0-7.8,4.5-7.8,19.1H487.6z"/>
	<path d="M504,843.1v-2.8h29.6v2.8h-6.4l11.9,34.8l12.3-34.8h-6.9v-2.8h15.9v2.8h-5.3l-20.6,57.2c-2.5,7.1-5,11.9-7.3,14.4
		c-2.4,2.5-5.7,3.8-10,3.8c-7.9,0-12.5-4-12.5-10.3c0-5.3,3.3-8.7,8.1-8.7c5.4,0,8.1,2.3,8.1,6.9c0,1.1-0.2,2.4-0.6,3.9h-3.8
		c-0.5,1-0.8,1.8-0.8,2.6c0,1.6,1.2,2.5,3.7,2.5c5.2,0,7.8-4.6,12.1-17l2.3-6.7h-6.5l-18.6-48.4H504V843.1z"/>
	<path d="M565,874.7c5.6,0,9.2,2.8,9.2,8.7c0,5.6-3.2,9.2-8.8,9.2c-6.4,0-9.2-4.1-9.2-8.8C556.2,878.5,559.4,874.7,565,874.7z"/>
</g>
<g>
	<path d="M178.5,916.1l-1.1,2.9h-4.6l6.4-16.6h4.7l6.2,16.6h-4.6l-1.1-2.9H178.5z M181.5,907.5L181.5,907.5l-1.8,5.3h3.6
		L181.5,907.5z"/>
	<path d="M196,902.4h4.2l3.4,8.9l3.6-8.9h4.3L214,919h-4.3l-1.2-9.5l0,0l-4,9.5h-1.7l-3.8-9.5l0,0l-1.4,9.5h-4.3L196,902.4z"/>
	<path d="M235.5,910.4c0,5.4-3.9,9.2-9.2,9.2s-9.2-3.8-9.2-9.2c0-5,4.4-8.5,9.2-8.5C231.1,901.8,235.5,905.4,235.5,910.4z
		 M221.6,910.4c0,2.9,2.1,5,4.7,5c2.6,0,4.7-2.1,4.7-5c0-2.3-2.1-4.4-4.7-4.4C223.8,906,221.6,908.1,221.6,910.4z"/>
	<path d="M239.9,902.4h4.3l7.9,10.1l0,0v-10.1h4.3V919h-4.3l-7.9-10.2l0,0V919h-4.3V902.4z"/>
	<path d="M278.2,909.7c0,2.4-0.2,4.5-1.7,6.6c-1.6,2.3-4.1,3.3-6.8,3.3c-5.2,0-8.8-3.5-8.8-8.8c0-5.4,3.7-8.9,9-8.9
		c3.4,0,6.1,1.5,7.5,4.6l-4.1,1.7c-0.6-1.6-1.8-2.6-3.6-2.6c-2.8,0-4.3,2.7-4.3,5.2c0,2.6,1.5,5.2,4.4,5.2c1.9,0,3.3-1,3.5-2.9h-3.5
		v-3.4L278.2,909.7L278.2,909.7z"/>
	<path d="M310.1,910.4c0,5.4-3.9,9.2-9.2,9.2s-9.2-3.8-9.2-9.2c0-5,4.4-8.5,9.2-8.5C305.7,901.8,310.1,905.4,310.1,910.4z
		 M296.2,910.4c0,2.9,2.1,5,4.7,5c2.6,0,4.7-2.1,4.7-5c0-2.3-2.1-4.4-4.7-4.4S296.2,908.1,296.2,910.4z"/>
	<path d="M320.7,919h-4.3v-13h-3.6v-3.7h11.4v3.7h-3.6L320.7,919L320.7,919z"/>
	<path d="M338.5,908.8v-6.4h4.3V919h-4.3v-6.8h-6.2v6.8H328v-16.6h4.3v6.4H338.5z"/>
	<path d="M352.3,906v2.8h4.9v3.7h-4.9v2.9h5.1v3.7H348v-16.6h9.4v3.7h-5.1V906z"/>
	<path d="M376.3,919h-5.4l-4.1-6.4l0,0v6.4h-4.3v-16.6h6.4c3.3,0,5.8,1.6,5.8,5.1c0,2.3-1.3,4.3-3.6,4.7L376.3,919z M366.8,909.8
		h0.4c1.4,0,3-0.3,3-2.1c0-1.8-1.6-2.1-3-2.1h-0.4V909.8z"/>
	<path d="M396.4,919h-4.3v-13h-3.6v-3.7H400v3.7h-3.6V919z"/>
	<path d="M414.2,908.8v-6.4h4.3V919h-4.3v-6.8H408v6.8h-4.3v-16.6h4.3v6.4H414.2z"/>
	<path d="M428,919h-4.3v-16.6h4.3V919z"/>
	<path d="M433.2,902.4h4.3l7.9,10.1l0,0v-10.1h4.3V919h-4.3l-7.9-10.2l0,0V919h-4.3V902.4z"/>
	<path d="M471.5,909.7c0,2.4-0.2,4.5-1.7,6.6c-1.6,2.3-4.1,3.3-6.8,3.3c-5.2,0-8.8-3.5-8.8-8.8c0-5.4,3.7-8.9,9-8.9
		c3.4,0,6.1,1.5,7.5,4.6l-4.1,1.7c-0.6-1.6-1.8-2.6-3.6-2.6c-2.8,0-4.3,2.7-4.3,5.2c0,2.6,1.5,5.2,4.4,5.2c1.9,0,3.3-1,3.5-2.9H463
		v-3.4L471.5,909.7L471.5,909.7z"/>
	<path d="M484.6,906.7c-0.8-0.7-1.8-1.1-2.9-1.1c-0.8,0-1.8,0.5-1.8,1.4c0,1,1.2,1.3,1.9,1.6l1.1,0.3c2.3,0.7,4.1,1.8,4.1,4.5
		c0,1.7-0.4,3.3-1.7,4.5c-1.3,1.1-3,1.6-4.7,1.6c-2.1,0-4.1-0.7-5.8-1.9l1.8-3.5c1.1,0.9,2.4,1.7,3.8,1.7c1,0,2.1-0.5,2.1-1.7
		c0-1.2-1.7-1.6-2.6-1.9c-2.7-0.8-4.5-1.5-4.5-4.7c0-3.4,2.4-5.6,5.7-5.6c1.7,0,3.7,0.5,5.2,1.4L484.6,906.7z"/>
</g>
</svg>
