<?xml version="1.0" encoding="utf-8"?>
<!-- Generator: Adobe Illustrator 18.0.0, SVG Export Plug-In . SVG Version: 6.00 Build 0)  -->
<!DOCTYPE svg PUBLIC "-//W3C//DTD SVG 1.1//EN" "http://www.w3.org/Graphics/SVG/1.1/DTD/svg11.dtd">
<svg version="1.1" id="Layer_1" xmlns="http://www.w3.org/2000/svg" xmlns:xlink="http://www.w3.org/1999/xlink" x="0px" y="0px"
	 viewBox="0 -518.1 2048 2054.1" enable-background="new 0 -518.1 2048 2054.1" xml:space="preserve">
<path fill="#FAB317" d="M2045.1,504.3c0-564.8-457.6-1022.3-1022.3-1022.3C457.6-518.1,0-60.5,0,504.3s457.6,1022.3,1022.3,1022.3
	S2045.1,1069,2045.1,504.3z"/>
<g>
	<g>
		<g>
			<path d="M480.7,235.6l-10.2-8.6l-6.6-2l-4.7,2.3l-0.4,1.2l-1.2,0.8l-3.5,7.4l-1.2,15.3l6.3,14.1l3.5,0.4h2.7l3.5-0.4l2.3-2.7
				l7.8-7l3.5-9.4v-10.2L480.7,235.6z M431.4,530.1l-0.8-1.6l-18.4-17.2l-4.7-0.8l-3.9,1.6l-3.9,2.3l-1.2,2.7l-1.2,4.7l3.1,13.7
				l5.1,7.4l6.3,1.6h11l2.7-1.6l7.4-9.8l-0.4-2.3L431.4,530.1z M1451.4,500.8l-0.8-1.2l-4.7-3.5l-7-0.4l-18.4,3.1l-15.3-1.6
				l-16.4,1.2l-7.8,5.1l-4.7,5.9l7.4,8.2l4.7,2.3l18.8,1.6l11-4.7l4.7,1.2l16.4-1.2l12.9-7l0.4-2.7v-2.3l-0.4-2.7L1451.4,500.8z
				 M1393.5,423.7l19.6-1.2l18.4,2.7l21.5-1.2l1.2-1.2l6.6-2.3l0.4-2.7l-0.4-2.3l-1.2-2.7l-2.3-0.8l-4.7-2.7l-43.8-4.3l-23.9,1.2
				l-3.9,1.6l-0.4,2.7l-0.4,4.7l6.3,5.9L1393.5,423.7z M537.4,638.4h-2.7l-3.5,0.8l-5.1,3.5l-3.5,4.7l-2.7,6.3l-1.6,27.4l7.4,0.4
				l13.7-7l3.5-4.7l2.3-18.8l-4.3-12.1L537.4,638.4z M1433.4,561.4l-32.5-0.8l-19.6,1.2l-8.6,3.5l-0.4,2.3l-0.4,3.5l8.2,5.5l45.8,2
				l10.2-2.3l0.4-1.6l1.2-1.2l2.3-7.4l-2.3-2.7l-2.3-0.4L1433.4,561.4z M614.8,407.3l3.5-4.7l0.4-2.7l-0.4-4.7l-3.5-4.7l-5.9-3.5
				l-12.1-1.2l-9,2.7l-3.5,5.9l-1.2,3.5l13.7,10.2L614.8,407.3z M605.4,577.4l-5.9-3.5l-5.1-1.2l-13.3,1.2l-9.8,5.1l-0.4,2.3
				l-0.8,3.5l12.1,9l8.6,1.6l16-6.3l0.4-5.9l-0.4-3.5L605.4,577.4z M1649.7,887.6l7.4-0.8l0.4-3.9l-0.4-2.7l-1.2-1.2l-5.9-11
				l-20.7-19.9l-25.8-16.8l-2.7-0.8l-3.9,2.3l-1.2,1.2l-0.4,2.3l-0.4,2.3l42.2,41.5L1649.7,887.6z M1397.4,482.8l49.3-2.3l5.5-3.5
				l0.4-2.7v-2.3l-0.4-3.1l-1.2-0.4l-0.8-1.2l-30.9-5.5l-27.4,4.3l-11.3,7v2l-0.4,3.5L1397.4,482.8z M602.3,606.4l-1.6-0.4l-1.2-1.2
				l-4.7-1.2l-23.5,1.2l-9.8,7l-2.7,7.4l5.9,11l10.2,2.3l13.7-2.3l3.9-4.7l11.3-5.9l0.4-3.5v-2.7l-0.4-3.9L602.3,606.4z M519,467.1
				l16-1.2l0.4-2.3l5.1-12.5l2.3-0.4l2-1.2l14.9-2.3l1.2-1.6l1.6-1.2l4.7-11.3l-1.2-9.4l-4.7-5.1l-20.3-5.1l-4.3-20.3l-5.1-6.3
				l-6.3-1.6h-7.4l-4.7,3.5l-1.2,3.9v13.7L519,467.1z M559.7,525v-3.5l-1.6-4.3l-3.9-4.7l-16-2.7l-1.2-22.7l-1.6-5.1l-3.9-0.4H528
				l-7.4,2.3l-11.3,17.6v5.1l3.5,8.6l-1.2,23.5l-1.2,1.2l-4.7,9.8l9,9l7,0.4l5.1-1.6l10.2-22.3l17.6-2.3l4.7-3.5L559.7,525z
				 M593.7,645.1l-3.5-2.7l-11-2.7l-14.9,1.2l-7.8,5.1l-1.2,3.9v8.6l17.6,7.8l18.8-3.5l3.5-3.5l1.2-4.7l-1.2-9L593.7,645.1z
				 M610.9,553.2l-0.8-1.6l-4.7-3.5l-3.9-0.8l-12.1-1.2l-11.3,5.1l-2.3,3.5l-0.4,2.3l3.9,3.9l21.5,2.7l9.8-2.7l1.6-3.9l-0.4-2.7
				L610.9,553.2z M1339.9,738.2l39.5-1.2l4.7-2.3l4.7-3.5l12.1-3.9l3.5-5.9l2.3-10.2l-2.3-6.3l-4.7-4.7h-30.9l-2.3,2.7l-22.3,2.3
				l-4.7,3.5l-5.1,6.3l-2.7,9.8l4.7,12.5L1339.9,738.2z M1358.7,687.3h32.5l16.4-3.9l9.8-9.4l2.3-6.3l-0.8-5.9l-1.6-2.7l-2.7-1.6
				l-11.3-1.2l-45,6.6l-8.6,7l-2.7,7.4l7.4,9L1358.7,687.3z M1382.5,647.8l37.2-1.2l7.8-4.7l0.4-2.7v-2l-2.3-4.3l-8.2-6.3l-28.6-1.2
				l-16.8,1.2l-11.3,3.5l-0.8,2.3l-1.2,1.6l-1.2,7l2.7,2.3L1382.5,647.8z M1385.7,760.8l2.7-5.5v-8.6l-1.2-0.8l-0.4-1.2l-28.6,1.2
				l-10.2,3.5l-14.9,1.2l-4.7,2.3l-6.3,5.5l-2.7,7.4l7.4,7.4l38.3-5.5l19.9-5.1L1385.7,760.8z M617.9,517.2l-8.2-2.7l-32.1,1.2
				l-1.2,1.2l-3.5,3.5l-0.4,2.7l-0.8,3.5l7.4,5.9l11.3,2.7l27-3.1l1.2-1.6l1.6-1.2l0.4-5.9l-0.4-3.5L617.9,517.2z M1725.1,1010.8
				l-1.6-0.4l-11.7-9.8l-14.1-5.9l-8.6-5.5l-38.3-15.3l-13.7-12.9l2.3-2.3l25.8,5.5l8.6,6.6l26.2,11.3h9.8l2.3-3.9v-5.1l-2.3-4.7
				l-3.5-4.7l-5.9-13.3l2.3-11.7l6.6-12.5l11.3-3.9l3.5-4.7l2.7-7.8l-2.3-16l-0.8-1.6l-28.6-37.9l-12.5-13.3l-23.5-16l-21.1-19.9
				l3.1,6.3l-29.3-28.9l-10.2-5.1l-7.4-7.8l-19.9-14.1l-7.4-7.8v-2.3l4.7-11l-1.2-9.8l2.3-2.7l3.5-3.5l14.9-25.8l21.9-48.1
				l26.6-78.2l3.1-28.9l6.3-16.4l2-28.2l5.1-18.8l-1.2-11l-9.8-5.5l-0.4-2.7v-2.3l0.4-2.7l4.7-2.3l8.6-5.1l1.2-3.9l1.2-80.6l4.7-11
				l-7.4-32.1l-1.6-51.2l-12.1-32.5l1.2-12.1l-6.3-36.4l-4.7-2.3l-5.9-18.8l-1.2-1.2v-0.4l-11-37.2l-4.7-5.5l-7-22.3v-8.2l-5.9-6.6
				l-1.2-2.3l-0.8-3.5l-23.5-44.2l-2.7-16h-5.1l-1.2-5.5l-4.7-8.6l-29.3-23.9l-31.3-10.2l-45-8.2l-5.9-3.5l-2.3-8.6l-3.1-2.3
				l-33.6-14.9l-37.2-7.8l-18.8,1.2l-9.8,6.3l-14.9,2.3l-7.4-2.3l-6.6-6.3l-3.5-6.6l-36-9l-21.1-2.3l-56.3-8.2l-159.2-12.9
				l-98.6,1.6l-96.2,9.4l-52,11.7l-42.6,19.2l-1.6-0.4l-0.8-1.2l-1.2-0.4l-2.3-4.7l-3.9-1.2l-14.9,1.2l-11.3,4.7l-42.6,5.9
				l-64.5,19.2l-9.8,6.3L589-44h-22.3l-23.9,7l-22.7,13.7l-5.9,8.2l-3.9,1.2l-16,1.2l-70,22.7l-30.9,17.2l-2.3,3.5l-19.9,10.2
				l-5.9,6.3l-14.9,11l-0.4,3.5l-2.7,7.8L335.6,85l-15.6,38.7l-14.9,29.7l-23.5,72.7L264,336.5l-2,88.8l2.3,2.3l9.4,93.1l38.3,141.2
				l34.4,72.4l32.1,41.1l24.6,23.1l25.8,9l7.4,8.6l5.9,3.5l10.6,12.9l1.2,6.3l-61.4,4.7l-4.7,2.7l-4.7,3.5l-5.5,7.8v1.6l0.4,2.3
				l1.6,0.8l1.2,1.2l4.7,1.2l34-2l39.9,2.7l5.1,1.6l9.8-3.1l12.5,1.2l3.9,4.7l14.5,7.4l-53.2,4.3l-59.8-1.2l-32.5,2.7l-4.3,3.5
				l-1.2,1.2l-0.4,2.3v1.2l2.3,5.1l6.3,6.6l50.8-0.8l22.3,3.1l29.3-3.5l17.2,5.1l43.8-3.1l15.6,3.5l1.2,0.4l0.4,2.7l-0.4,1.6
				l-2.7,0.4l-10.2-0.4l-40.3,5.9l-11-2.3l-6.3,1.2l-83.7,2l-60.2,8.2l-3.9,4.7l-1.6,3.5l-2.3,5.5l3.5,0.4l10.2,2.7l55.5-1.6
				l9.8,2.7l20.3-1.6l51.2,1.6l100.9-2l2.7,2.3l-0.4,2.7l3.9,9l-0.4,2l-3.9,1.2l-23.9-1.6l-196.7,2.7l-17.6,4.7l-8.6,7l-2.3,5.9
				l0.8,3.9l2.7,0.4l2.3,1.2l5.9,1.2l77,1.2l10.2-2.3l142-2l39.9-2.7l0.4,2l1.2,1.2l5.9,5.9l-0.4,2.7l-3.9,1.2h-41.1l-159.2,5.5
				l-32.1,10.6l-1.2,2.3v2.3l1.2,2.7l2.7,0.4l1.6,1.2l20.7,6.3l78.6-5.5l37.5,1.6l38.3-1.2l23.9-3.5l11.3,2.7l48.1-3.1l41.5,2
				l0.8,2.3l0.4,3.5h-42.6l-30.9,5.1l-29.3-1.6l-140.4,7.4l-4.7,2.3l-1.2,0.4l-0.4,2.7l1.6,2.3l2.3,2.7l14.9,3.9l14.1,7.8l12.5,1.2
				l6.6-2.3l28.6-3.5l14.1-4.7l43,3.1l6.6-1.2l10.2,2.7l22.7-3.1l5.1,2l0.4,3.5l-0.4,2.3l-1.2,2.7l-4.7,1.2l-33.6-1.2l-28.9,2.3
				l-11.3,5.1l0.8,3.5v1.6l0.4,2.3l1.6,0.8l3.5,2.7l11,4.7l64.9,1.2l4.7,2.3l22.7-2.3l46.9,0.4l9,2.3l14.9,13.7l17.6,21.5l31.3,5.5
				l21.1-3.9l35.2-0.8l7,2l27.4-1.2l9.8,2l33.2-4.7l52,0.8l2.3,1.2l70.8,0.8l4.7-2.3l1.6-0.4l12.9-3.5l0.8-3.9l-1.6-7.4l-5.9-2.3
				l-5.9-2.7l-43.4,2l-3.9-2.3l-1.2-2.7v-2.3l1.2-2.7l1.6-0.4l0.4-1.2l53.6-6.6l7,1.6l20.3-1.6l28.9,1.2l138.8-11.3l7.4-3.5l1.2-3.9
				v-5.1l-2.3-3.9l-2.3-0.4l-1.2-1.2l-7.8-2.3l-11.3,2.3l-16-2.7l-87.2,7l-12.1-4.3l-5.1,1.6l-48.1,6.6l-29.7-0.8l-0.4-3.5v-2.7
				l0.8-3.5l4.7-3.5l3.5-0.8l3.9,0.4l12.1,4.7h13.7l6.6-4.7l26.2-3.5l83.7-1.6l25.8-1.6l44.6,0l57.1-4.7l7-3.5l0.8-2.3l1.2-2
				l5.5-8.6l-0.8-1.6l-1.2-2.3l-9-2.3l-84.1-0.8l-1.2,1.2l-2,0.4l-0.4,3.1l0.4,3.5l0.8,4.7l-5.9-1.2l-3.9-2.7l0.4-3.5l-0.4-1.6
				l-12.5-2.7l-36,4.3l-104.4,1.6l-2.3-2.3l3.5-2.3l1.2-1.2l3.9-0.8l10.6-0.8l32.1-1.2l18.4-4.7l135.3-5.9l5.1,1.6l87.2-2.7l13.7-7
				l0.4-3.9l-0.4-2.3l-1.2-0.4l-2.3-2.7l-7-3.9l-16,1.2l-65.7-2.7l-11.3,2.7l-206.9,9.4l-39.9-1.2l-0.8-1.6l0.8-2.7l3.9-0.8h32.1
				l27.8-5.9l76.3-2.7l25-3.9l4.7,1.2l59.8-3.5l34.4-0.8l64.9-5.1l15.3,1.6l26.2-1.2l0.8-1.6l1.2-1.2l0.4-3.1l-0.4-5.1l-3.5-7.4
				l-84.9-1.2l-9,2.7l-40.7-3.1l-0.4-1.6l0.4-2.7l2.7-0.4l13.3,1.2l6.6-1.6l23.9,1.6l23.5-2.3l74.3,0.4l4.7-2.3l6.3-0.4l5.9,0.4
				l12.1,4.3l2.7,2.3l5.5,7.8l18.4,17.2l33.2,39.1l-18.4-16.4l21.1,23.9l7.8,6.6l14.5,18.4l5.9,3.5l21.5,7.4l9.8,7.8l69.6,3.5
				l1.6,1.2l23.9-3.9l23.9,3.5l50.1-11.7l4.7-2.3l11.3-12.1l0.8-7.8L1725.1,1010.8z M1470.9,2.5l2.3-2.7l14.9-0.8l19.9,6.6
				l19.6,12.5L1555,49l23.1,58.3l2.7,1.2l2.3,1.6l2.7,0.4l3.5,30.9l8.6,11.3l7.4,30.9l-1.2,18.4l7,20.3v12.1l7.4,18.8l5.9,40.7
				l2.7,4.3l3.5,64.5l-2.7,5.9l-1.2,14.9l2,18.8l0.4,23.5l-5.5,33.2V471l-4.3,10.2l1.2,7L1618,518l-9.4,30.9l-2.3,3.5l-11,2.7
				l-40.7-3.9l-4.7,2.7h-8.2l-1.6-1.2l-2.3-0.8l-1.6-1.6l2.7-33.6l5.1-10.2l0.8-1.6l22.7-1.2l20.7,1.6l19.6-8.2l1.6-2.7l0.4-3.9
				v-3.1l-0.4-3.5l-4.7-2.3l-38.7-0.4l-6.6,1.6h-5.1l-3.9-1.2l-2.7-16l1.6-44.6l1.2-3.9l17.6-4.7l30.9,1.6l4.7-1.2l1.2-1.2l1.6-0.4
				l1.6-3.1l0.8-3.9v-2.7l-0.4-3.5l-4.7-3.5l-34.4-2l-10.2,2.3h-2.3l-2.7-0.4l-2.7-18l3.1-47.7l39.5,0.4l3.9-1.2l2.3-11v-2.7
				l-0.8-3.5l-11-3.5l-41.1,0.8l2.3-19.6l2.3-13.3l-2.3-9.8l-6.3-7.8l-1.2-9.8l1.2-3.9l47.3-2.3l2.3-2.7l1.2-0.4l0.4-2.7v-2.3
				l-11-11.3l-37.2-2l-2.3-11l-7-9.8l-1.6-5.9l1.2-17.2l-9.4-20.3l-0.8-3.5l-0.4-3.5l39.5,0.8l3.5,0.8l-0.4-4.7l-0.8-3.5l9-4.7
				l-5.9-5.5l-1.2-1.2l-3.9-2.3h-1.6l-1.6,0.8l-5.5,9.8l-2.7,1.6l-2-1.6l-0.8-11.3l-23.9-5.1l-13.7-13.7l-3.9-14.9l-1.2-11.3
				l-8.2-9.8l-3.9-19.2l-11.3-16.4l-14.9-33.6V2.5z M1151.4-83.9l3.9,1.2l-2.3,2l-13.7-1.6L1151.4-83.9z M800.2-23.3l6.3-2.7
				l3.9-0.8l1.2,1.2v3.9L799-19L800.2-23.3z M462.7,37.3l0.4-2.3L483,24.4l31.3-7.4l2.7,0.8l1.6,2.7L501,29.1l-14.1,2.3l-12.1,8.2
				L467,42l-5.1-1.2L462.7,37.3z M449,71.3l0.8-3.5l7.4-0.8l3.9,0.8l5.9,6.3l1.2,0.4l2.3,4.7l-0.8,2.3l-1.2,1.2l-0.4,1.6l-2.7,0.4
				l-5.1-0.4L449,76.8V71.3z M426.3,47.9v5.1h-11.7v-5.1H426.3z M400.1,105.7l3.5-0.4h2.7l3.5,0.4l0.8,2.3v1.6l-0.8,2.3l-1.2,0.4
				l-0.8,1.2l-2.3,0.4l-7-4.3L400.1,105.7z M377,73.3l0.4-3.5l2.7-2.3l0.4-1.2l2.7-0.4h2.3l2.7,0.4l0.8,6.3l-0.4,3.9l-1.6,2.7
				l-4.3,2.3l-6.3-3.1L377,73.3z M340.3,135.5l11.3-19.6l0.8-1.6l2.7-2.3l0.8-0.8l2.3-0.8l3.9,0.4l1.2,12.5l-2.7,19.9l-6.3,9.8
				l-3.1,2.3l-5.9,2l-9.8-2.7L340.3,135.5z M358.2,259.5l3.5,0.4l8.2,8.2l1.6,0.4l-3.5,31.3l-1.2,2l-1.6,2.7l-18.8-5.1l-4.7-4.7V286
				l10.6-24.6l0.4-1.6L358.2,259.5z M341.8,319.3l4.7,0.4l4.7,3.5l2.3,7.8l-0.4,5.9l-1.6,1.2l-1.2,1.6l-2.3,0.8l-14.5-9.8l0.4-7
				l0.8-3.9L341.8,319.3z M315.2,204.3l4.7-10.2l0.4-2.7l1.2-1.2l0.8-1.6l2.7-0.8h2.3l2.7,0.4l2.3,2.7l2.3,4.7l-2.3,19.2l-0.8,4.7
				l-3.1,5.5l-4.7,2.3l-5.5,12.1l-1.6,1.2l-2.7,2.3l-4.7-1.2L315.2,204.3z M292.2,307.2l2.7-18.8l1.6-3.9l7.4-0.4l4.7,0.4l2.3,3.9
				l-2,37.9l-3.9,17.6l-1.2,1.2l-0.4,1.6l-5.1,0.4l-7.4-2.7L292.2,307.2z M287.5,411.6l4.3-18.4l1.2-1.2l0.4-1.6l2.7-1.6l3.9-0.4
				h2.7l3.5,0.4l7,16l1.2,27.4l-2.7,7.8l-1.2,1.2l-0.4,1.6l-9,1.2l-3.9-1.2l-5.1-9L287.5,411.6z M316,524.2l-0.8,3.5l-5.9-1.2
				l-3.5-1.2l-9.8-19.9l1.2-19.2l1.2-1.6l0.4-2.3l1.2-0.4l0.4-1.2l2.7-0.4l6.3,0.4l3.9,2.7l3.1,11.3L316,524.2z M338.7,624l-2.3,0.4
				h-1.6L332,624l-8.6-18.8l-5.9-17.6V579l1.2-4.7l2.7-1.6l8.6,9l10.6,33.2l0.4,2.7L338.7,624z M371.5,708.8l-1.2,3.9h-3.5
				l-10.2-7.8l-11.3-21.5v-8.6l1.2-3.9l2.7-2.3l9,2.3l6.3,6.3l8.6,15.3l0.4,7L371.5,708.8z M341,520.7l0.4-4.7l0.4-2.7l15.3-4.3h2.7
				l3.5,0.4l3.1,21.1l-1.2,3.9l-2.7,0.8l-5.9-9.8l-1.2-2.3L341,520.7z M392.3,748.7l-5.9-3.9l0.8-3.5l0.4-2.3l5.1-3.5l3.5-0.4h2.7
				l3.5,0.4l3.5,5.9l0.8,4.3l0.4,5.9L392.3,748.7z M462.7,762l-25,16l-2.7-1.2l1.2-6.3l25.4-25l7.8-2.3h2.3l2.7,0.4l-1.6,7
				L462.7,762z M581.2,761.2l-25.4,39.9l-8.6,0.4l-0.4-0.4l-1.2-1.2l-0.8-1.6l-31.3,2.3l-34-3.1l-7-3.5l1.2-4.3l3.5-3.5l4.7-2.7
				l13.3-1.2l56.3,8.2l3.9-1.2l3.5-4.7l1.2-11.3l-1.2-3.9l-3.5-3.5l-19.6-4.7l-32.5-1.6l-3.9-1.2l-0.8-6.3l0.8-3.9l1.2-1.2l0.4-1.6
				l2.7-2.3l21.1,9l23.1,2.7l25.8,2.7l4.7-1.2l2.7,0.8l0.4,2.3v1.6H581.2z M618.3,622.4l-7,41.1l-10.2,23.5l-1.2,1.2l-0.4,2.3
				l-2.3,1.2h-3.9l-7.4-11.3l-7-3.9l-2.7-1.2l-27.4,2l-12.9,12.9l-1.6,4.7v3.5l0.4,3.9l13.7,11.7l21.1,1.2l16-6.3h2.3l3.5,0.4
				l2.7,1.6l2,2.7v10.2l-6.6,14.5l-1.2,1.2l-2.3,2.3l-13.7-9l-45.8-5.9l-4.7,0.4l0.4-25.8l-3.5-5.9l-1.2-0.4l-0.8-1.2l-2.7-0.4h-2.3
				l-2.7,0.4L490,726l-2.3,3.5l-7.4,0.8l-3.9-0.4l-0.8-3.9l28.9-60.2l12.5-35.6l4.3-8.2l2.3-3.5l4.7-2.3l18.8-3.1l3.5-2.3l2.3-5.1
				l-7.4-14.9l-13.3-5.1l-23.9-3.9l-3.5,0.4l-24.2,73.5l-16.4,33.6l-2.3,2.3l-2.7-0.8L449,679.5l-8.6-3.9H438l-2.7,0.8l-2.3,2.7
				l-2.7,5.9l-2.3,15.6l-4.7,4.7l-1.6,0.4l-0.4,1.2l-2.7,0.4h-2.3l-2.7-0.8l-0.8-13.7l-19.9-15.3l-2.3-2.7l-2.3-4.3v-12.1l3.5-0.4
				l2.7-0.8l2.7,0.4l2.3,8.2l3.5,3.5l1.2,1.6h11.3l5.9-3.5l3.5-4.7v-13.3l-17.2-53.6l-2.7-2.3l-0.4-1.2l-3.5-0.8h-2.7l-3.9,0.4
				l-1.2,1.6l-1.6,1.2l-1.2,9.8l2.7,12.5v2.3l-0.4,2.7l-4.7,2.3l-2.7-0.4l-5.9-3.5l-7-16.4l-12.5-8.2l-2.3-4.7l2.7-16.4l3.5-4.7
				l6.3-2.3l14.1,5.5l6.6-0.4l2.7-1.6l2.3-4.7l-4.7-64.5l-4.7-14.9l-1.2-1.2l-0.4-1.6H361l-7,2.7l-4.7,0.8l-3.9-1.6l2.3-5.1l10.2-7
				l16.4-4.3l3.9-4.7h5.9l14.5,10.2l5.9,7.8l25,17.6l25.8,23.9l5.9,7.8l15.6,12.5l5.9,2.3h6.6l3.9-1.2l0.8-1.2l2.3-4.7l-2.3-18.8
				l-0.8-3.9l-23.9-21.1l-1.6,0.4l-6.3-2.3l-24.6-25l-13.3-7.4l-48.1-49.7l-2.7-2.3l-2.3-1.6l-2.7,0.8l-9,25.8l-4.7,3.1l-3.5,0.4
				l-11.3-6.3l0.4-6.6l0.8-3.9l6.3-5.9l2.3-5.1l-6.3-12.5v-5.1l1.2-3.9l1.2-0.4l0.4-1.6l2.7-2.3h2.3l12.1,13.7l4.7,2.7l3.9,0.4h2.7
				l3.5-0.4l0.8-1.2l2.3-4.7l-2-36l1.2-5.1l1.2-1.6l0.4-2.3l2.7-2.3l12.1,7.4l15.3,14.9l32.9,26.2l27.4,23.5l17.2,10.6l4.7,1.6
				l7.8-0.4l1.2-1.2l1.6-0.8l0.4-6.3l-0.8-3.9l-30.9-32.5l-13.3-8.6L458,376l-0.4-2.7l-0.4-3.5l8.2,1.2l22.3,20.3l5.9,2.7l2.7,0.4
				h1.2l2.3-0.8l2.7-1.6l2.3-7l-5.9-15.3l-15.6-16.4l-43-34.8l-1.2-1.6l-1.6-1.2l-0.8-3.5l0.8-2.7l0.4-3.5l-4.7,0.8l-3.5,0.8
				l-21.9-16l-7-8.6l1.2-3.5l6.3,2.3h2l2.3-0.8l5.1-7.8l0.4-4.7l-19.6-29.7l-8.2-5.1l-2.7-0.4H386l-7.8,5.9l-1.2,1.2l-2.3,0.8
				l-16.8-11l-0.4-3.9l0.4-2.7l1.2-1.2l2.3-3.5l7.4-0.4l12.5,3.9l5.9-0.8l7.8-6.3l11.7-30.9l1.2-9.8l-6.3-19.9l-6.3-7.8l-0.4-2.3
				l0.4-2.7H415l2.3-0.8l15.3-30.1l2.3-2.3l9.8,7.4l13.7,18.8l14.5,36l6.3,9.8l10.6,36.4l15.3,96.2v34.4l6.3,12.9l3.5,3.5l5.9,2.7
				l3.9,0.4l5.1-0.4l5.5-4.7l3.5-0.8l22.7,7.4l13.7-7.8l31.3,0.4l5.9-1.6l2.7-2.7l2.3-11l-0.4-2.7l-1.2-3.5l-19.9-4.7l-59.8-0.8
				l-3.5-0.8l-3.5-46.1l1.2-4.7l3.5-4.7l11.3-3.5l57.1-3.5l3.5-0.4l4.7-3.5l1.6-2.7l0.4-6.6l-0.4-3.9l-3.5-4.7l-9-3.9l-11.3-1.6
				l-43.4,4.7l-5.1-1.2l-4.7,0.8l-4.7,3.5l-2.7,1.6l-3.9-1.6l-11-50.8l-5.1-11.3l0.4-2.7l5.9-2.3l17.6,2.3l27-8.6l27.4-2.3l7.4-3.5
				l3.9-12.5v-3.5l-0.4-3.9l-8.2-5.1h-12.9l-8.6,4.7l-41.1,4.7l-9.8-2.7l-12.1,2.3L501,155l-3.5-1.2L485.4,128l-0.4-3.9v-2.7
				l0.4-3.5l1.2-0.4l5.1,3.5l11,18.8l1.2,2l3.5,0.4h2.3l2.7-0.8l2.7-5.5l-4.7-22.3L499.8,94L492,81.9l-5.1-14.1l-0.8-3.5v-1.2
				l0.8-2.3l1.2-1.2l0.4-1.6l14.9,1.2l20.7-7.8l28.6-3.9h1.6l14.5,13.7l0.8,2.3l-0.4,2.7l-56.3,15.6l-2.7,2.3l1.2,18l3.9,2.3
				l19.6-1.2l28.6,3.9l14.9-7h0.4l4.7,5.1l2.3,9l3.5,4.7l8.2,2l7,7l2.3,25.8l8.2,12.9l0.8,23.5l8.2,13.7l16.4,70l-0.8,7.8l-1.2,1.2
				l-0.4,1.6l-2.3,4.7l1.2,13.7l5.1,21.1l-1.2,21.5l6.3,11l11.3,6.6l1.6,0.4l0.8,2.7v2.3l-0.8,2.7l-14.9,9l-2.3,5.1l1.6,65.7
				l-1.6,20.7l2,23.9l-7.4,20.7l-1.2,10.2l2,23.9l-14.5,66.1L618.3,622.4z M408.7,332.2l0.4-1.2l4.7-2.7l3.5-0.4l6.3,2.3l11.3,10.2
				l2.3,2.7l1.6,3.5l0.4,4.7l-6.3-1.2L408.7,332.2z M634.4,791.7l27-66.5l16.4-61l6.6-11.3l2.3-25l2.7-5.9l5.5-51.6l10.2-29.7
				l2.3-4.7l3.5-60.6l2.7-21.5l-5.5-80.6l2.7-12.5l1.2-0.4l4.7-2.3l80.6-4.3l5.1-0.4l7.4-5.1l3.5-4.7l0.4-4.3l-0.4-2.7L810,333
				l-1.2-1.2l-82.1-2l-8.6-3.5l-12.1-14.1l-5.1-11.3l-1.2-34.8l1.2-3.9l3.9-1.6l23.9-1.2h20.7l38.7-3.1l4.7-2.7l2.3-0.8l1.2-1.6
				l1.6-1.2l0.4-4.7l-2.3-5.5l-3.5-3.5l-5.9-3.5l-34.4-0.8l-37.5,3.5l-16-1.2l-7-13.7L677,167.2L635.5,40.8l-8.2-18.8l-3.9-12.1
				l-7.8-9.8l-2.7-14.9l0.4-5.9l0.4-3.5l10.2-2.3l12.1,8.6l12.1,3.9h2.7l9.8-4.7h12.1l14.9-6.3l1.2-1.2l1.6-0.8l0.4-1.2l1.2-0.4
				l0.4-1.6v-1.2l-0.8-2.3l-17.2-7.8l2.3-3.5l31.7-7.4l15.6,11L729-35l11,6.6l30.5,55.9l5.9,19.9l11.7,15.3l6.3,17.6l2.7,21.5
				l3.5,4.7l1.6,4.7l-1.6,17.6l9.8,41.1l4.3,31.3l6.3,14.1l3.9,36.4l2.7,7.8l0.8,15.3l3.5,11.3l0.4,70.8l2.3,6.6l-3.1,34.4l6.3,14.1
				l-3.9,19.6l2.7,11l-2.7,35.2l-2.7,5.9l-4.3,48.1l2,15.3l-5.9,10.2l-0.4,18.4l-6.6,14.1l-14.1,49.7l-1.2,15.6l-3.5,6.3l-6.6,23.9
				l-10.2,11l-10.2,38.7l-4.7,9.8l-5.9,5.5l-8.6,27L738,797.6l-0.8,3.9l-1.2,2.7l-0.4,3.5l-25,10.6l-57.5,2.7l-11.3-2.3l-6.3-4.7
				l-1.6-0.4l-2.7-5.5L634.4,791.7z M729.8,1077.6l-5.9-7.8l-22.7-9l-17.2-3.9l-34,2l-3.9-1.2l-6.3-9l3.5-3.5h25.8l13.7,6.3h1.6
				l13.7-8.2l11.3,1.2l16.4,16.4l7,12.9l0.4,2.7L729.8,1077.6z M710.2,1021.3l-4.7-6.3l-0.4-2.7l0.4-3.9l2.7-0.4l16.4,6.6l2.7,0.8
				l3.5-0.8l2.3-3.9v-5.1l-1.2-4.7l-10.2-7.8l-4.7-6.6l-11-8.6l-1.6-3.9l-0.8-5.9h-8.6l-6.6-5.1l0.8-1.2l0.4-2.3l0.4-3.5l8.2,1.2
				l6.3,5.1l3.5,6.6l0.4,2.7l44.2,25.8l2.3,2.7l2.7,5.9l2.3,34.8l-0.4,5.1l-1.2,1.6l-0.4,2.7l-2.3,1.2l-1.6,0.4l-16-9L710.2,1021.3z
				 M900.7,1089l-1.6,5.9l-1.6,1.2l-12.5,3.5l-51.2,1.6l-12.1-4.7l-11.3,3.9l-17.6-0.8l-20.3,2l-20.3-3.1l7.8-7.4l41.1-2.3l4.7-2.7
				l14.1-0.4l1.2-1.2l1.6-0.8v-8.6l-10.2-13.3l2.3-3.5l1.2-0.8l-2.7-32.9l1.2-1.6l0.8-2.3l1.2-0.4l0.8-1.2h7.4l28.6,11.7l18.4,12.9
				l11.3,0.8l3.9-1.2V1033l-5.1-8.2l-8.2-3.9l-12.5-16.4v-2.3l0.4-2.7l21.5-4.3l11.3-5.1l3.9,0.4l5.9,28.9L900.7,1089z M924.2,969.3
				l-27.4-25.4l-4.7-2.3h-0.4l-6.3,2.3l-0.4,22.3l-3.9,2.3l-82.1,2l-7,1.6l-38.3-2.7l-8.6-3.5l-5.9-8.2l-50.5-39.1l-7.4-3.9
				l-8.6-9.8l-29.3-26.2l-11.3-11l0.4-4.7l0.4-2.7l4.7-2.3l13.7,7.4l12.5,12.9l6.3,2.3l2.3,4.7l28.6,22.7l30.9,26.6l3.9,2.3l3.9-0.4
				l1.6-2l2.3-1.2l0.4-3.5v-2l-0.4-3.1l-35.6-31.3l-10.2-12.9l1.2-2.3l5.9,0.4l50.8,42.6l2.3,4.7l21.1,13.7l2.7,0.4l2.7-0.4v-7.4
				l-8.6-10.6l-4.7-2.3l-5.9-7.8l-5.1-2.3l-21.9-25.4l-7-5.1l-2.3-5.1l-0.8-5.5l5.9,0.4l8.6,5.5l28.2,26.6l9.8,3.9l17.2,18l0.8,2.3
				l25.8,18.8l1.2,1.2l2.7,0.4h2l2.3-0.4l2.3-4.7l-5.9-12.5l-11.3-5.1L792,896.9l-29.7-26.6l-2.7-2.3l-0.8-2.3v-1.6l0.8-2l1.2-0.8
				l0.4-1.2l1.6-0.8l6.3,2.3l29.3,28.6l20.3,15.6l30.9,28.6l7,2.3l3.9,4.7l3.5,0.4h2.7l3.5-0.4l0.4-1.2l2.3-4.7v-7l-2.3-3.9
				l-6.6-2.3l-10.2-13.7L835,895l-2.3-2.7l-1.2-0.4l-0.4-2.3l0.4-3.9l1.2-0.8l15.6,11l6.6,7.8l12.1,7.4l9,8.6l2.7,5.1l0.4,2.7
				l12.1,3.9l32.1,30.5l2.3,4.7L924.2,969.3z M987.5,1050.6l-7.8,7l-18.4,3.5l-9,3.9l-9,8.2l-4.3,11.3l-2.3,2.7l-1.2-0.4l-1.6-1.2
				l-5.1-93.5l1.2-10.2l1.6-3.5l2.7-2.3l9.4,9.8l1.2,0.8l0.4,3.5l-2.3,11.7l2.3,6.3l7.4,3.9l10.2,3.5l7.4,5.1l7.4,13.7l4.7,2.7
				l1.6,0.4l2.3,2.7l1.2,0.4l0.4,3.5v2.7L987.5,1050.6z M1007.5,915.3l-1.2,0.4l-4.7,2.3l-73.5,3.1l-8.6-2.7l5.9-3.9l12.9-3.5
				l27.4,2.3l23.9-5.1h12.1l3.9,1.2l0.4,1.2l1.6,2.3V915.3z M1063,948.2l-0.4,2.7l-9,5.1l-32.5,1.2l-10.2-5.1l1.2-2.3l1.2-2
				l45.4-6.3l3.9,1.2l0.4,2.7V948.2z M1079.4,918.5l-17.6,4.7l-20.7-1.6l0.4-4.7l0.4-2.7l11.3,1.2l3.9-4.7l13.7-4.3h2.7l3.5,0.8
				l1.6,1.6l0.8,3.5v3.1L1079.4,918.5z M1132.6,950.9l-2.7,2.3l-4.7,2.3h-34.4l-5.1-2l1.2-6.3l3.1-4.7l7.4-2.7h29.3l4.3,1.2l1.2,3.5
				l0.8,2.7L1132.6,950.9z M1150.2,906.7l-0.8,3.5l-3.5,3.5l-33.2,5.9h-5.1l-6.6-3.5l0.4-3.5l0.8-2.7l1.2-1.2l0.8-1.6l46.5-4.7
				L1150.2,906.7z M1167.8,914.2l0.4-1.2l2.3-6.3l14.1-2.7h7l4.7,1.2l1.2,3.5l0.4,2.7l-0.4,3.9l-3.9,2.3l-22.7-1.2L1167.8,914.2z
				 M1169.4,854.3l0.4-4.7l1.6-3.5l2.3-2.7l5.1-2.3l3.5,0.8l1.2,1.2l1.6,0.4l0.4,1.2l1.2,0.4l0.8,3.9l-0.8,2.7l-3.5,4.7l-4.7,2.3
				l-5.1-0.4L1169.4,854.3z M1213.2,945.4l-1.2,3.5l-35.2,3.1l0.4-3.5l2.3-3.9l7.4-5.1l22.3-1.2l3.9,1.2l0.4,3.5L1213.2,945.4z
				 M1264.8,904l-0.8,3.5l-22.7,9.8h-8.6l-5.1-3.5l0.8-7l0.4-3.9l5.5-3.5l30.9-1.2L1264.8,904z M1291.8,456.6l-0.4,16.4l-4.3,10.2
				l-3.5,61.8l-2.7,4.7l-10.6,79.4l-25.4,91.5l-11.3,23.1l-3.9,16l-6.3,8.2l-5.5,16l-18.8,27l-12.5,7l-36,4.3l-5.9,2.7l-41.5,5.9
				l-13.3-2.3l-11,3.5l-75.9,1.6l-47.7-4.7l-4.7,1.2l-3.5,1.6l-11-1.2l-23.9,3.5l-48.9-3.9l-6.3,1.6l-37.2-7l-7.4-3.5l-4.7-7.4
				l6.3-30.1l6.3-12.9l8.6-10.2l20.7-58.3l2.7-2.3l12.5-41.1l8.6-23.1l21.1-109.5l-0.8-18.8l3.9-11.3l3.5-135.3l-8.6-94.6l1.6-6.6
				l-1.2-20.7l-6.3-10.2l-6.6-63.4l-4.7-12.5v-2.3l0.8-2.7l12.9-3.5l116.5-6.3l43.8,0.8l171.3,2.7l9.8,1.2l10.2-2.3l1.2-1.2l1.6-0.8
				v-11.3l-1.6-5.1l-2.7-2.3l-5.9-2.7l-69.2-4.3l-202.2-0.8l-23.9,3.5l-68.8,2.7l-5.1-4.7l-1.6-0.4v-10.2l4.7-8.2l1.2-11.3l-2.7-7.4
				l-11.3-10.2l-7-10.2l-16-48.9L808-44.8l-2.3-8.6V-55l0.4-2.7l7.8-6.3l11.3-2.3l3.5,0.4l2.3,1.2l-2.7,3.5l-0.4,3.9v2.7l0.4,3.1
				l8.2,5.1l26.2,2.3l17.6-4.7l82.9-7.8l2.3-2.3l-10.6-16l-2.3-2.7l-9,2.7l-36,2l-15.3,1.6h-27.4l-26.6,4.7l-1.2-3.5l5.9-3.5
				l69.6-11.3l52,3.9l5.9,3.1l27.4,28.9l2.3,2.7l-5.5,3.5l-56.3,2.7l-19.6-2.3l-28.9,4.3l-7,2.7l-22.3,1.2l-7.4-0.4l-8.6,3.5
				l-1.6,2.7l-2.3,2.7v1.6l9.4,12.5l72.4-4.3l25.8-5.5l95.8-0.4l17.2-5.1l113,4.7l9.8-1.2l4.7-3.5l3.5-7.4l0.8-2.7l-2.3-6.3
				l-2.7-2.3l-0.4-1.2l-21.1,0.8l-39.9-2.7l-9.8-3.9l-11.3,1.2l-1.2,1.2l-52.4,1.2l-3.9-1.2v-9.8l11.7-27.4l1.2-0.4l4.7-2.3
				l58.3,3.1l2.7,2.3l-0.4,1.6l-56.3,2.3l-1.2,1.2l-1.6,0.8l-0.4,7.4l0.4,3.9l16,4.3l72,3.5l2.7,0.8l6.3-2.3l3.5-6.3l0.8-3.9v-2.7
				l-0.8-3.5l-1.6-0.4l-4.7-2.7v-0.4l5.5-2.3h5.1l11,6.3l20.7,30.9l9,17.2l13.3,21.5l34.8,100.1l3.5,29.7l8.6,25l20.7,170.9
				l-2.7,9.4l9.4,66.9l15.3,8.2l4.7,8.2l0.8,3.9l0.8,4.7l-11-1.2h-2.3l-2.7,0.4l-3.9,5.9l-1.2,1.6l-0.4,2.7v1.2l0.4,2.3l10.2,7.8
				l11.3,3.9l2.3,2.7l1.6,4.7v3.1l-0.4,3.9l-1.2,0.4l-0.8,1.2h-9l-5.9-3.5l-2.3-6.3l-3.5-0.8h-2.7l-3.5,0.8L1291.8,456.6z
				 M1331.3,912.2l-7,3.5h-11.3l-7.8-3.9l0.4-3.5l2.3-3.9l5.9-3.5l12.1,0.4l4.7,1.2l1.2,3.5l0.8,2.7L1331.3,912.2z M1312.9,801.1
				l-14.1-6.6V787l3.5-8.2l10.2-40.7l4.3-3.9l8.6-21.1l18.8-96.6l4.3-7.8l3.9-32.1l2.7-4.7l-0.8-26.6l5.9-36.8l1.2-32.5l6.3-23.5
				l-2-43l3.1-12.1l-4.3-33.2l-0.8-3.9l-10.2-10.2l-3.5-1.2l-2.7-0.4l-9.8,3.9l-2.7-0.4l-1.2-1.6l-1.6-1.2l-0.8-2.3v-1.2l0.8-2.3
				l9.8-6.3l7.4-2.3l3.5-2.7l1.6-0.4l7.8-15.6l1.2-3.9l-3.1-41.1l-4.7-13.7l0.4-25.8l-4.7-9.8l-1.2-1.2l-0.4-1.6l-14.5-1.2l-3.9-2.3
				v-3.9l11.3-5.5l6.6-12.5l-9-55.1l-11.7-41.5l-8.2-45.4l76.3,5.5l2.7-1.6l2.3-6.3v-2.3l-0.8-2.7l-12.9-6.6l-18.8-5.1l-16.4-1.2
				l-15.3,2l-7.4-0.8l-8.6,3.5l-0.4,1.2l-1.2,0.4l-1.6,2.7l-3.5-1.6l-24.6-63.4l-9.4-17.6l0.8-5.9l0.4-3.5l4.7-3.5l87.2,9.4
				l12.1,14.1l0.8,1.2l5.1,18.8l7.8,8.6l18,38.7l7,23.5l4.7,6.3l0.4,1.6l2.3,4.7v10.2l7.4,14.9l8.6,33.2l9.4,18.8l8.2,45l5.9,12.5
				l3.5,12.5l-2.3,11l8.2,28.6v27.4l4.7,14.1l-1.2,33.6l0.8,11l3.1,27l-5.1,41.1l1.6,17.2l-5.1,17.2v30.9l-12.9,64.5l2.3,14.5
				l-10.6,43.4l-1.2,15.6l-12.9,38.7l-1.6,19.9l-6.3,9.8l-5.5,19.6l-18,27l-1.2,9.8l1.2,3.9l10.2,5.1l11,1.2l23.9-9.4l2.3-0.4
				l5.9-9.8l2.7,1.2l0.4,2.3l3.5,1.2h7l7.8-5.1l15.3-36.8l7-34.4l3.5-6.3l8.6-37.5l3.5-4.7l2.3-4.7l1.2-21.5l6.6-18.8l1.2-1.2
				l0.4-1.6l2.7-2.3l0.8,13.7l4.7,3.9l4.7,2.3l33.2-0.8l2.3,1.2l3.5,0.4l1.2,2.7l1.2,4.7l-42.2,4.7l-4.7,3.5l-2.3,6.3v2.3l0.8,2.7
				l1.2,0.4l18.4,3.9h8.6l2.3,2.3l-7.4,2.7l-18.8-1.6l-11,8.2l-2.3,2.7l-1.6,4.7v3.5l2.3,6.3l3.5,4.3l36.4,2.7l-1.2,4.7l-1.2,2.7
				l-49.7,4.3l-1.2,9l1.2,5.1l3.5,5.5l7.4,2.3l23.9-3.1l-0.4,3.5l-0.4,2.7l-1.2,1.2l-0.4,1.6l-25.8,4.3l-8.2-2.3l-2.7,0.8l-3.9,2.7
				l-2.3,9v2.7l0.8,3.5l14.1,5.1l4.7,0.4l5.9,0.4l-1.2,7.4l-7.8,11l-12.1,8.2l-10.2,3.5l-32.1,3.1l-38.3,12.5l-25.8,4.3l-21.1,23.5
				l-17.2,8.6l-34.8,4.7L1312.9,801.1z M1560.1,1007.6l-18.8,15.6l-1.2,1.2l-2.7,0.8l-3.9-0.8l-8.6-7.8l-6.6-2.3l-9-11.3l-9.8-7.4
				l-19.6-25.4l-14.9-10.2l14.1,3.9l-4.7-3.5l-8.6-12.5l-8.6-6.3l-7.4-2.3l-18.4-22.3l-2.3-7l-23.5-18.8l-50.8-50.1l0.4-5.5l0.4-3.5
				l7.4-0.8l5.9,2.3l39.1,44.2l15.3,11l14.5,18.4l8.2,5.5l21.1,26.6l13.3,7.4l-3.9,6.3l8.2,7l7.4,10.2l29.3,26.2l9,2.7l4.7,0.4h1.2
				l2.3-0.4l2.7-2.7l0.4-3.5v-2.3l-7.4-13.3l-64.5-60.2l-7.4-11.7l-1.6-4.7v-2.3l0.4-2.7l1.6-0.4l32.1,20.7l15.6,17.2l2.3,2.7
				l11,1.2l3.9-1.2l1.6-2.7l0.8-2.7l-7.4-14.9l-5.1-5.1l-7-3.5l-10.2-13.3l-19.9-14.1l-2.3-1.6l-1.2-3.5l-0.4-2.7l0.4-3.5l7.4-0.8
				l3.9,0.4l23.1,23.9l11.3,6.6l7.4,11.3l23.5,17.6l6.6,9.8l1.2,9.8l-4.7,21.1l4.7,35.6L1560.1,1007.6z M1556.2,898.1l-9.8-3.9
				l-19.6-19.6l-3.5-7.4l-11.3-9l-5.9-7.8l-11.3-7.4l-27.4-27l10.6,2.3l-11-9.8l0.4-4.7l0.8-2.7l18.4-7l2.7-0.4h2l12.5,10.6
				l14.5,16.4l22.7,16l50.5,46.1l4.7,2.7l11.3,1.2l3.9-1.2l1.6-2.7l0.4-5.9l-2.3-6.3l-20.3-17.2l-7-2.3l-12.1-18l-13.3-10.2
				l-7.4-2.3l-13.3-12.9l16.4,16.4l-21.1-19.9l-6.3-2.3l-3.9-7.8l-13.7-10.2l-2-4.7v-3.5l0.4-3.9l1.6-0.4l6.3,2.3l48.5,43.8
				l-1.6-4.7l5.9,6.3l12.5,3.9h1.6l2.3-0.8l2.3-5.1l27.8,12.5l-28.6-23.9l-36-26.2l-9-9.8l-1.6-2.3l0.4-2.7l3.9-0.8l2.7,0.4
				l21.9,21.5l10.2,5.9l15.3,11.3l8.6,11.7l19.9,15.3l7,2.3l27.4,28.6l29.3,24.6l2.3,2.7l1.2,0.4l0.4,2.3v2l-0.4,2.3l-13.3,7.4
				l-22.7,8.6l-2.7-0.4l-9-5.1l-39.9,1.2l-32.1,0.8l-6.3-2L1556.2,898.1z M1676.3,1036.6l-58.3,2l-6.6,1.6l-36-0.8l-8.6-2.3l1.2-3.9
				l15.3-4.3l11.7-11.3h7.4l29.7,11.3l18.4,1.2l3.9-1.2l2.3-2.7l1.6-2.3v-1.2l-2.3-3.5L1598,990l-0.4-2.3l0.4-2.7l2.7-1.6h11.3
				l49.3,20.3l23.9,12.1l7.4,2.3l4.7,3.5l2.3,4.7l0.8,4.3L1676.3,1036.6z M1462.3,378.3l-28.2-2.7l-34.8,1.2l-7.4,3.5l-1.2,3.5
				l-1.2,5.5l15.3,5.1l14.1-1.2l11.3,2.7l26.2-1.2l8.6-2.7l0.8-2.7v-1.6l-1.6-3.9L1462.3,378.3z M1422.8,140.6l7.4-3.9l0.4-1.6v-1.2
				l-0.4-2.3l-1.2-1.2l-0.8-1.6l-2.7-0.8l-2.3-1.2l-28.2-5.9l-37.2,1.2l-4.3,3.5l-0.8,2.3l-0.4,3.5l7.4,7.4l4.7,1.2l27.4,3.1
				L1422.8,140.6z M1390.8,320.5l-0.4,2.7l-0.4,4.7l9,9l9.8,2.7l49.3-1.2l4.7-3.5l3.9-14.9l-0.4-3.5l-1.6-1.6l-50.1,0.8
				L1390.8,320.5z M1457.2,438.2l-2.7-1.6l-54.4-2l-14.1,3.9l-0.8,3.5l-0.4,5.5l8.6,3.1l59.8,2.7l7.4-2.3l0.8-3.9l-0.8-7.8
				L1457.2,438.2z M1445.5,245.4l4.7-2.3l2.7-2.3l2.3-6.3l-0.8-1.6l-1.2-0.8l-3.9-4.3l-12.5-4.7l-20.3,1.6l-6.6-1.6l-32.1,1.2
				l-1.2,1.2l-6.6,3.9l-0.8,3.5l-0.4,5.5l18.8,5.1L1445.5,245.4z M1535.9,62.3l1.6-2l0.4-2.3l1.2-2v-9.8l-2-2.7l-2.7-1.6l-13.7-3.9
				l-2.3,2.3l-4.7,7l-1.2,9l11.3,5.5h12.1V62.3z M1377.1,616.9l46.1-4.7l12.9-5.1l3.5-4.7l-1.6-2.3l-12.1-11.3l-47.3,2l-3.9,1.6
				l-10.2,8.2l-2.7,9.8l4.7,3.9L1377.1,616.9z M1256.2,544.6l-2.3-2.7l-3.9-1.2l-18.8,2.3l-72-0.4l-59.8,2l-12.1-3.5l-78.6,0.4
				l-8.6,3.5l-22.3-1.6l-53.2,2l-4.7,2.3l-4.7,3.9l-2.3,6.3l0.4,1.6l1.2,0.4l5.9,4.7l20.7,3.9l26.2-4.7l26.2,2.7l0.4,4.3l-0.4,2.3
				l-1.2,0.8l-0.4,1.2l-8.6,2.3l-2.7-2l-0.4-2l-1.6-1.2h-2.7l-2.3,3.1l-63.4,2.7l-4.7,3.5l-0.4,3.5v2.7l0.4,3.5l2,1.6l19.2,2.7h20.7
				l169.3-4.3l12.5,2.7l4.7-1.2l36,1.6l-0.8,4.3l-0.4,2.7l-3.5,0.8l-2.7,1.2l-19.9,1.2l-17.2-4.3l-48.1,3.5l-43.8-2.7l-1.2,1.2
				l-11.3,4.7l-37.5-3.1l-56.3,4.7l-12.1-2.3l-6.3,2.3l-5.1,4.7l-1.6,3.5l-0.4,4.7l3.1,7.4l3.9,0.4l6.6-2.7l90.7,3.1l51.2-2
				l56.3,1.6l18.8-2l75.5-3.9l8.6-3.5l28.9-2l4.7-2.3l1.6-0.4l1.2-3.9V604l-3.5-2.3l-1.2-1.2l-47.7-3.9l-0.8-3.9l0.4-2.3l3.9-1.2
				l36,1.2l9.8-3.9l4.7-4.3l0.8-2.3l-2.3-3.5l-5.1-4.3l-28.2-2.3l-51.2,4.7l-70.4-1.6l-20.3,2l-50.1-1.2l-0.4-2.7l17.2-7l59.4,0.4
				l13.7-2.7l46.9,2l26.2-2.3l55.1,0.8l4.7-2.3l7.8-5.9l0.4-2.7v-2.3l-0.8-2.7L1256.2,544.6z M945.3,11.9l0.4-1.6l1.2-1.2l0.4-3.5
				l-0.8-5.1l-1.2-0.4L944.9-1l-4.7-3.5l-3.9-0.8l-6.6,0.8l-6.3,5.1L923,4.5l-0.4,6.6l9,2.7L945.3,11.9z M1207.7,638.4l-73.5,7
				l-28.9-3.1l-13.7,1.2l-7.4-4.3h-2.3l-21.1,4.7l-92.3-1.2l-20.7,3.5l-27.4-1.6l-31.3,1.2l-3.5,4.7l-0.4,3.9l0.4,6.3l1.2,0.4
				l2.3,2.7l9,4.7h6.6l12.1-3.5l30.9,6.6l32.1-2.3l5.9,2.7l25.8,1.2l18.8-5.1l55.5,4.3l0.8,2.7l-1.6,2.3l-0.8,1.2l-1.6,0.8l-1.2,1.2
				l-48.9,4.3l-20.3-3.1l-108.3-3.5l-22.7,9l-3.5,3.5l-2.7,3.5l-2.3,6.3l0.4,5.9l2,2.7l2.7,1.6l7.8,2.7l25.8-2.3l1.6,1.2l5.1,1.2
				l80.6-0.4l-0.4,4.7l-3.9,9.8l-1.6,0.8l-9.8,4.7l-22.7,2.3l-29.7-2.7l-63.4,0.4l-4.7,2.3l-1.2,0.4l-3.5,4.7l-7.8,19.9l5.9,9.4
				l67.3,2l1.2,1.2l4.7,2.3l14.9-3.9l19.2,2.3l10.2-1.2l80.6,1.6l10.2-3.5l136.5-8.6l1.2-1.2l13.7-5.1l1.6-3.5l7.4-14.9l-0.8-4.7
				l-1.6-1.2l-1.2-2l-4.7-1.2l-31.3-0.4l-6.3,3.5l-16.4-3.9l-9,1.2l-58.3,0.4l-17.2,5.1l-38.7-0.8l-14.9-5.1l-0.8-2.7l0.4-2.7
				l3.5-5.9l3.9-1.2l25.8,1.6l34-5.5l68.4,0.8l64.9-9.4l5.5-3.5l1.2-3.9l-1.2-14.1l-2.3-0.8l-1.6-1.2l-22.3-3.9l-8.6,5.1l-4.7,0.4
				l-62.2,0.8l-4.7-2.3l0.8-2.7l1.2-1.6l0.4-2.7l5.1-3.1l5.9-1.2h7l7,1.6l75.9-5.1l9-4.7l11.3-12.1l0.4-4.3l-2.3-5.9L1207.7,638.4z
				 M1191.7,781.6l-1.2-1.6l-8.2-2.3l-30.1,3.9l-11-1.2l-38.7,4.7l-7.4-3.9l-15.3,4.7l-20.7-2l-2,1.2l-5.1,1.2l-14.5-1.2l-18.4,2.7
				l-133.4-1.2l-45.8,3.1l-1.2,1.6l-1.6,1.2l-0.8,2.3l-1.2,1.2l-1.2,11.3l4.7,5.9l39.9,4.3l16.4-1.2l1.2-1.2l5.9-2.3l9.8,5.5
				l7.4-3.5l34.8-4.7l18.8,1.6l70-0.4l44.6-3.5h36l53.2-8.2l14.1-8.6l2.3-3.9v-1.6l-0.8-2.7L1191.7,781.6z M1264.4,509l-2.3-0.4
				l-1.6-1.2l-5.1-0.8l-5.1,1.2l-20.7-1.6l-73.5,3.9L1115,507l-32.1,3.1l-48.1-5.1l-5.9,2.7l-57.5,2l-9,2.7h-20.3l-19.9,1.2
				l-5.9,3.1l-3.9,3.5l-1.2,4.7l7.4,7.4l4.7,0.4l10.2-1.2l46.1,3.1l63.7-3.1l47.3,2l13.3-2.3l17.6,2.7l61.8-5.5l56.3,1.2l18.4-5.9
				l7.8-6.3l0.4-2.3v-1.2L1264.4,509z M1356.7,8.4l-0.8-1.2l-1.6-0.4l-1.2-1.2l-13.7-3.9l-4.7,1.6l-5.9,4.3l-0.4,3.5l-0.4,5.9
				l8.6,5.1l14.9-1.2l6.3-4.7l0.4-2.7v-1.6l-0.4-2.3L1356.7,8.4z M712.2,803.5l4.7-2.3l2.7-2.3l1.2-3.9l-1.2-10.2l-3.5-4.3l-8.6-5.1
				l2.7-1.6l1.6-1.2l18.4-2.3l4.7-3.5l3.5-3.5l3.9-8.6l-0.8-3.9l-1.6-1.6l-1.2-2.3l-4.3-1.2l-48.1-1.6l-4.3,2.3l-1.2,0.4l-1.2,3.9
				l1.2,11.3l4.7,6.3l9,3.9v2.7l-19.2,5.1l-2.7,2.3l-5.9,8.6l-0.4,5.9l10.2,5.1L712.2,803.5z M1266.4,448.7l-2.3-2.7l-3.9-1.2
				l-18.8-1.6l-7,1.6l-80.6,2l-23.9-2.7l-15.3,2.3L1097,444l-11.3,2.7h-22.3l-12.1,2.7l-19.6-3.1l-0.8,1.2l-9.8,3.5l-68.4-1.2
				l-16,3.5l-9.8,3.9l-0.4,2.7l-0.4,4.7l4.7,5.5l36.4-0.8l25-3.1l14.1,2.3l5.1-1.2l61.4,1.6l70-5.5l66.9,1.6l52.4-3.1l4.7-3.5
				l2.3-5.1l-2.3-4.3L1266.4,448.7z M881.5,1062l-2.3-0.4l-1.6-1.2l-36.8-15.3h-10.2l-0.4,1.6l-2.7,3.5l-1.2,7.4l33.2,19.2l12.1,2.3
				l5.9-1.6l6.3-3.9l0.4-3.5v-2.7l-0.4-3.5L881.5,1062z M993.8,245.8l18.8-2l59.8-0.4l61.4-2l39.5,3.1l36-2l28.2,2.7l12.9,1.2
				l16-5.1l0.4-3.5v-2.7l-0.8-3.9l-3.5-6.3l-29.7-4.7h-23.9l-102.9-2.7l-9.8,1.2l-22.7-4.3l-75.5,3.9l-26.2,3.9l-33.6-0.4l-11.3,2.7
				l-9.8,7l-0.4,2.7l-0.4,4.7l11.3,6.3L993.8,245.8z M871,17.4l8.6,0.4l9-3.9l0.4-3.9V6.4l-1.2-4.7L885.5-1l-1.6-0.4l-1.2-1.2
				l-14.9-2.3l-2.7,1.6L863.9-3l-2.7,5.9l4.7,11L871,17.4z M1133.4,9.1l0.4-2.7l1.2-2.3l0.4-5.1l-1.6-6.3l-2-0.4l-3.5-2.7l-4.7-1.2
				h-10.2l-4.7,2.3l-3.9,1.6l-4.3,3.9l-0.4,2.3l12.5,9L1133.4,9.1z M977,75.6l-3.5-0.4h-2.3l-10.2,2.3l-6.3,4.7l-0.4,2.7l-0.4,3.5
				l6.3,9l2.3,0.4l22.3-4.7v-7h-5.1L977,75.6z M921,492.5l7,3.9l17.2,2.7l54.8-2l4.7,2.3l19.2-2.3l13.3,2.7l16-2.7l42.6,1.6
				l12.1-3.5l43.4,1.2l93.5-1.6l13.3-2.7l3.5-3.5l1.2-1.2l0.8-2.3v-1.2l-2.3-6.6l-2.7-2l-3.5-0.4h-2.3l-5.9,1.2l-18.8-1.6l-28.9,2
				l-70.4-0.8l-10.2,2.7l-45-0.8l-16.4,3.1l-22.7-1.2l-22.7,2.3l-73.5-1.6l-14.9,7l-0.8,2.3L921,492.5z M1265.6,323.6l-0.8-1.2
				l-2.3-0.4l-30.1-4.3l-57.1-0.8l-16-2.7l-27,1.2l-34.4-3.1L995,316.2l-6.6-1.6l-53.2,2l-4.7,2.3l-2.7,2.3l-4.7,7.4l6.3,7.4
				l7.4,2.7h25.8l6.6,1.6l39.9,0.8l27-3.1l150.6-0.8l46.1,3.1l27.8-3.1l3.5-4.3l2.3-6.3l-0.8-2.3L1265.6,323.6z M1232.8,382.3
				l-1.2-1.2l-4.7-0.4l-15.3,1.2l-36-1.6L982.1,376l-44.6,4.7l-7.4,4.7l-0.4,2.7v1.6l0.8,2.7l1.6,1.2l1.2,1.6l9,3.5l36.4,2.7l23.9-2
				l193.6,2.3l-0.4,7l-2.3,5.5l-3.9,1.2l-63.4-3.1l-18.8,2l-16-1.2l-11.3,2.7h-22.3l-22.7-3.9l-66.1,4.3l-27.8-2.7l-14.9,2.3
				l-3.9,2.7l-1.6,3.5l-1.2,4.7l6.3,7.8l17.6,6.6l27.4-4.7l39.5,1.6l6.6-2l30.9,1.6l41.1-2l160.7-2.3l13.3-2.7l3.5-3.5l1.2-1.2
				l0.4-8.2l-2.3-5.5l-1.2-2l-4.7-1.2l-15.3,2l-22.7-1.2l-0.8-3.5v-2.7l0.8-3.5l3.9-1.2l37.2,0.4l4.7-3.5l2.3-3.9v-1.6l-0.4-2.3
				l-1.2-0.4l-3.9-4.7L1232.8,382.3z M1219.1,26.7l-7.4-3.5l-27.4-2.7l-39.5,2l-27-4.3l-12.1,2.3l-60.6-4.3l-16.4,4.7l-79.8,1.6
				l-73.5,7.8l-10.2,7.8l-2.7,8.2l6.3,7.4l13.7-1.2l4.7,2.7l76.3-7.8l85.7-3.9l152.1,4.3l18.4-1.2l1.2-1.6l1.6-1.2l0.4-2.7l1.2-2
				v-5.1l-1.2-1.6L1219.1,26.7z M781.4,136.6l-1.2-1.6l-17.2-3.9l-57.5,5.9l-9,5.1l-2.3,5.1l-2,11l21.1,6.3l46.9-5.9l17.6-5.1
				l5.9-4.7l0.4-3.9l-0.4-6.6L781.4,136.6z M757.2,64.3l2.3-6.3l-0.8-2.3l-5.1-6.3l-3.9-1.2l-34.4,0.4l-42.6,7.8l-7.4,4.7l-0.8,4.7
				l-0.4,7l18.8,6.3l65.7-9.4L757.2,64.3z M613.6,476.1l-7-2.3l-23.5,2.3l-3.5,4.7l-0.8,9.8l13.7,7.8l29.7-4.3l0.4-2.7V489l-0.4-3.5
				L613.6,476.1z M729.4,4.5l1.2-3.9v-5.1l-2.3-4.3l-2.3-2.7l-1.6-0.4l-36.4-1.6l-11.3,2.3L643-0.6l-0.8,3.5l-0.4,5.9l4.7,10.6
				l3.5,0.8h2.7l69.6-11.3L729.4,4.5z M1444.7,531.7l-2.3-2.7l-3.9-0.4l-62.6,2.3l-1.2,2.3l-1.2,3.5l10.6,11l6.3,1.6l46.1-3.5
				l7.8-5.1l2.3-3.9v-1.6l-0.8-2.3L1444.7,531.7z M623.4,425.7l-3.5-4.3l-5.1-1.6l-26.6,3.5l-3.5,4.7l-1.2,11.3l14.9,4.7l21.1-2.3
				l5.5-3.5l0.4-3.5v-2.7l-0.4-3.5L623.4,425.7z M1368.5-28.8l-19.9-3.5l-37.2-1.6l-7.8,3.5l-0.4,3.9l-0.4,6.6l12.1,6.3l50.8,6.6
				l7.8-2.3l1.2-3.9l-1.2-11.3L1368.5-28.8z M786.9,583.3l-4.7-3.1l-22.3-5.5l-42.6,4.3l-0.4,3.5l-0.8,5.9l9.4,7.4l24.6,5.5
				l24.6-3.9l12.5-5.1l2.3-3.5v-1.2l-2-2.3L786.9,583.3z M750.5,635.3l23.5-1.2l7.8-3.5l0.8-3.9l-0.8-8.6l-5.1-11l-45.8-2l-17.2,3.5
				l-3.1,3.5l-2.3,5.1l-2.3,11.3l5.9,3.9L750.5,635.3z M726.7,727.2l1.2,1.2l3.5,0.4l12.1-3.9l10.2-9.8l3.9-18.4l-2.3-5.9l-2.3-0.4
				l-1.6-1.2l-34.4-2.7l-12.9,1.2l-13.3,8.6l-3.5,7.4l-1.2,13.7l9.8,7.4L726.7,727.2z M756,675.6l4.7-2l9.8-7.4l0.4-3.5v-2.7
				l-2.3-7.4l-3.9-2.3l-57.5-0.4l-4.7,3.5l-1.2,3.9v12.1L756,675.6z M738.4,539.5l48.5-1.6l17.2-5.1l3.5-4.7l0.4-2.7l-0.4-4.3
				l-1.6-1.2l-1.2-1.6l-2.3-0.4l-8.2-4.7l-11.3-1.2l-13.7,1.6l-46.1-3.1l-7.4,3.1l-0.8,2.3l-1.2,1.6l-1.2,5.1l6.3,9L738.4,539.5z
				 M742.7,412.4l8.6-2.7h34l14.9-3.1l1.2-3.5l0.4-2.7l-0.4-3.5l-1.6-1.6l-2.3-0.4l-1.6-1.2l-13.7-2.7l-45.8,1.2l-1.2,0.8l-3.5,3.5
				l-1.2,9.8l7.4,5.5L742.7,412.4z M789.2,552.4l-2.3-0.8l-28.2-5.5l-32.5,1.2l-7.4,3.5l-0.4,2.3l-1.2,1.6l-1.2,7l8.6,6.6h6.6l7-2
				l39.5,3.5l12.5-1.2l3.5-4.7l0.4-4.7l-2.3-5.9L789.2,552.4z M797.5,498.8l1.2-1.2l5.1-2.3l0.4-3.5V489l-0.8-3.9l-1.6-1.2l-1.2-1.6
				l-6.3-3.1l-27.4-2.7l-34.4,1.2l-3.9,2.7l-0.8,1.6l-2.7,3.5l-2.7,9.8l43,5.1L797.5,498.8z M759.9,445.2l30.9-2l17.6-6.6l0.4-3.5
				v-2.7l-0.8-3.5l-1.6-1.6l-2.3-0.8l-2-1.2L790,421l-14.9,2.3l-5.9-1.2l-40.7,1.2l-4.7,3.5l-0.4,2.3l-0.4,3.5l6.3,5.9L759.9,445.2z
				"/>
		</g>
	</g>
</g>
<polygon fill="#240F10" points="1835.4,923.9 1871.4,922.4 1873.4,921.6 1878.8,917.3 1882.8,911 1882.8,908.7 1882.4,905.9 
	1881.2,905.5 1880.4,904.4 1878.5,903.6 1871.4,900.9 1808.1,905.2 1794.4,908.7 1767.8,909.5 1736.9,915.3 1732.2,920 
	1731.8,922.8 1732.6,927.1 1737.7,933.3 1741.6,934.5 1756.8,934.5 1756.8,938 1750.2,938 1745.5,939.2 1744.3,940.7 1740.8,944.3 
	1740.4,948.2 1745.5,958 1745.5,969.3 1743.9,971.3 1739.6,973.6 1738.8,976.7 1738.8,979.9 1739.6,983 1741.2,983.8 1756,990.4 
	1757.2,994.3 1757.2,999.8 1754.5,1005.3 1752.5,1005.7 1740,1008.8 1734.5,1012.7 1728.7,1021.3 1728.3,1027.2 1734.1,1032.7 
	1742,1035.4 1767,1034.2 1768.2,1033 1770.5,1032.7 1775.6,1028 1790.1,1024.4 1797.1,1019.4 1831.9,999.8 1839,993.5 1840.9,988.9 
	1838.2,972.8 1835.8,972.4 1834.3,971.3 1811.2,967.3 1810.8,965.8 1812.8,962.7 1815.1,962.3 1817.1,961.1 1869.9,953.3 
	1874.5,950.5 1879.2,946.6 1879.6,943.1 1879.6,940.4 1878.8,936.8 1877.3,935.3 1873.4,934.1 1851.5,935.3 1850.7,936.4 
	1845.2,938.8 1804.9,939.6 1800.2,937.2 1799.1,936.4 1798.7,933.7 1799.1,932.1 "/>
<polygon fill="#240F10" points="1729.8,843.4 1721.6,848.4 1720.5,852.4 1732.2,860.6 1748.2,864.5 1820.6,859.4 1821.7,855.5 
	1821.7,846.9 1819.4,842.2 1818.6,841.4 1814.7,840.2 1778.3,837.5 "/>
<polygon fill="#240F10" points="1685.3,816.8 1684.5,820.3 1689.2,829.3 1695.4,834.4 1699.3,834.8 1776.4,826.9 1777.6,825.4 
	1779.1,824.2 1779.9,818.7 1779.1,815.6 1777.9,815.2 1777.6,814 1775.6,813.6 1767.8,808.9 1749,805 1685.6,814.4 "/>
<polygon fill="#240F10" points="1630.9,786.7 1629.7,791.3 1648.9,800.3 1708.3,799.6 1720.8,797.2 1721.6,795.3 1722.8,794.9 
	1723.2,791 1722.4,787.4 1719.7,783.1 1715.8,778.4 1708.3,776.9 1634,782 "/>
<polygon fill="#240F10" points="1588.7,756.9 1587.5,761.2 1606.6,770.6 1666.1,769.4 1678.6,767.1 1679.4,765.5 1680.2,765.1 
	1681,760.8 1680.2,757.7 1677.4,753 1673.5,748.3 1666.1,746.8 1591.8,752.2 "/>
<polygon fill="#240F10" points="1745.9,878.6 1737.3,884.4 1734.5,890.3 1743.5,899.3 1758.4,902 1769.7,900.9 1775.6,898.1 
	1842.9,890.3 1866.7,883.3 1867.5,880.5 1867.5,878.2 1866.7,874.7 1864.4,873.5 1862.8,871.9 1795.9,869.2 "/>
</svg>
