<svg id="Layer_1" xmlns="http://www.w3.org/2000/svg" viewBox="-461 444 277.2 69.2"><style>.st0{fill:#FFFFFF;}</style><path class="st0" d="M-187.4 503c-.4 0-.7-.1-1-.2-.3-.1-.6-.3-.8-.6-.2-.2-.4-.5-.6-.8-.1-.3-.2-.7-.2-1 0-.4.1-.7.2-1 .1-.3.3-.6.6-.8.2-.2.5-.4.8-.6.3-.1.7-.2 1-.2.4 0 .7.1 1 .2s.6.3.8.6c.2.2.4.5.6.8.1.3.2.7.2 1 0 .4-.1.7-.2 1-.1.3-.3.6-.6.8-.2.2-.5.4-.8.6-.3.1-.7.2-1 .2m0-.4c.3 0 .6-.1.9-.2s.5-.3.7-.5c.2-.2.3-.4.5-.7.1-.3.2-.6.2-.9 0-.3-.1-.6-.2-.9-.1-.3-.3-.5-.5-.7-.2-.2-.4-.4-.7-.5-.3-.1-.6-.2-.9-.2s-.6.1-.9.2c-.3.1-.5.3-.7.5-.2.2-.3.4-.5.7-.1.3-.2.6-.2.9 0 .3.1.6.2.9.1.3.3.5.5.7.2.2.4.4.7.5.3.2.6.2.9.2m1.3-.8h-.4l-.8-1.3h-.7v1.3h-.4v-2.9h1.3c.4 0 .7.1.8.2.2.1.2.3.2.6 0 .1 0 .3-.1.4 0 .1-.1.2-.2.2-.1.1-.2.1-.3.1-.1 0-.2 0-.4.1l1 1.3zm-1.4-1.6h.6c.1 0 .2-.1.3-.2.1-.1.1-.2.1-.3 0-.1 0-.2-.1-.3 0-.1-.1-.1-.2-.2-.1 0-.1-.1-.2-.1h-1v1h.5v.1zM-387.4 502.6h1.2v9.1h-1.2zM-382.9 502.6h1.2l4.8 7.1h.1v-7.1h1.1v9h-1.2l-4.8-7.1v7.1h-1.2zM-373.3 502.6h1.3l2.4 7.4 2.5-7.4h1.3l-3.2 9h-1.3zM-363.4 502.6h6.3v1h-5.1v2.8h4.5v1h-4.5v3.2h5.3v1h-6.5zM-348.6 505.2c-.1-1.3-1.1-1.9-2.3-1.9-.9 0-2 .3-2 1.4 0 2.4 5.7.6 5.7 4.4 0 1.9-1.8 2.8-3.5 2.8-2.1 0-3.9-.9-4-3.2l1.3-.1c.1 1.6 1.1 2.3 2.7 2.3 1.1 0 2.2-.5 2.2-1.8 0-2.5-5.7-.8-5.7-4.2 0-1.8 1.7-2.6 3.2-2.6 1.9 0 3.4.9 3.6 2.8l-1.2.1zM-342.4 503.6h-2.7v-1h6.6v1h-2.7v8h-1.2zM-335.9 502.6h1.5l2.8 7.3 2.8-7.3h1.6v9h-1.2v-7.3h-.1l-2.6 7.3h-1l-2.6-7.3v7.3h-1.2zM-324 502.6h6.3v1h-5.1v2.8h4.5v1h-4.5v3.2h5.3v1h-6.5zM-314.9 502.6h1.2l4.8 7.1v-7.1h1.2v9h-1.2l-4.8-7.1h-.1v7.1h-1.1zM-302.5 503.6h-2.7v-1h6.6v1h-2.7v8h-1.2zM-291.2 502.6h1.6l2.8 7.3 2.7-7.3h1.6v9h-1.2v-7.3l-2.6 7.3h-1l-2.7-7.3v7.3h-1.2zM-276.6 502.6h1.3l3.3 9.1h-1.3l-1-2.8h-3.4l-1 2.8h-1.3l3.4-9.1zm.6 1.5l-1.4 3.8h2.7l-1.3-3.8zM-269.6 502.6h1.2l4.8 7.1v-7.1h1.1v9h-1.2l-4.8-7.1v7.1h-1.1zM-256.7 502.6h1.3l3.3 9.1h-1.3l-1-2.8h-3.4l-1 2.8h-1.3l3.4-9.1zm.7 1.5l-1.4 3.8h2.7l-1.3-3.8zM-242.2 510.4c-.8 1.1-2 1.5-3.2 1.5-2.8 0-4.6-1.9-4.6-4.8 0-2.3 1.6-4.8 4.6-4.8 1.9 0 3.6.9 4.2 2.7l-1.2.3c-.4-1.1-1.3-1.9-3.1-1.9-2 0-3.3 1.7-3.3 3.6 0 2 1 3.8 3.3 3.8 1.9 0 3.2-1 3.2-2.9h-3.1v-1h4.2v4.8h-1v-1.3zM-238 502.6h6.4v1h-5.2v2.8h4.5v1h-4.5v3.2h5.3v1h-6.5zM-228.8 502.6h1.6l2.8 7.3 2.7-7.3h1.6v9h-1.2v-7.3l-2.7 7.3h-.9l-2.7-7.3v7.3h-1.2zM-216.9 502.6h6.4v1h-5.2v2.8h4.5v1h-4.5v3.2h5.3v1h-6.5zM-207.7 502.6h1.2l4.8 7.1v-7.1h1.1v9h-1.2l-4.8-7.1v7.1h-1.1zM-195.4 503.6h-2.7v-1h6.6v1h-2.7v8h-1.2zM-375.5 482.3c0 3.2.3 4.3 1.6 4.9 1.4.5 3.7.6 7 .6 6.8 0 10.4-.8 11.7-9.4h2l-.8 11.7h-33.7v-1.9c5.7-.4 5.8-.5 5.8-4.2v-32.9c0-3.6-.1-3.8-5.8-4.2v-1.8h18.5v1.9c-6 .4-6.2.5-6.2 4.2v31.1h-.1zM-325.8 481.8c0 4.1 1.1 5.3 2.3 5.6 1 .3 2.4.1 3.3-.1l.4 1.6c-2.5 1.2-5.3 2-7.7 2-2.3 0-3.3-1.5-4.2-3.9-2.1 1.4-5.7 3.8-9.7 3.9-6.1 0-9.4-4.4-9.4-9.2 0-3.1 1.4-6.3 6-7.7 5.1-1.6 11.4-3.2 13.1-4.9v-2.7c0-5.2-3-6.5-5.5-6.5-2.6 0-5.3 1.6-6.7 6.4-.3 1.1-.7 1.8-2.1 1.8-1.2 0-3.6-1-3.6-3.1 0-3.6 5.8-7.4 13.1-7.4 9.8 0 10.7 4.9 10.7 8.6v15.6zm-5.9-10.2c-1.4.9-4.9 2.1-7.5 3.1-3.6 1.4-5.1 2.9-5.1 6 0 3.8 1.9 6.7 6 6.7 2.5 0 6.6-1.4 6.6-6.6v-9.2zM-318.1 476.7h2.1c1.6 7.3 5.7 12 11.8 12 5.8 0 9.4-3.4 9.4-9 0-5.8-6.2-8.8-9-9.9l-1.2-.5c-6.8-2.4-12.3-6-12.3-12.8 0-8.6 7-12.5 14.9-12.5 4.4 0 8.8 1.1 11 2.9v9.2h-2c-1-6.6-4.2-9.7-9.7-9.7s-8.3 3.5-8.3 8.3c0 3.9 3.6 6.7 8 8.3l2.1.8c7.6 2.8 12.8 6.4 12.8 14.1 0 6.6-4.5 13.2-16.1 13.2-4.5 0-9.9-1.2-12.8-3.9l-.7-10.5zM-260.5 481.8c0 4.1 1.1 5.3 2.3 5.6 1 .3 2.4.1 3.3-.1l.4 1.6c-2.5 1.2-5.3 2-7.7 2-2.3 0-3.3-1.5-4.2-3.9-2.1 1.4-5.7 3.8-9.7 3.9-6.1 0-9.4-4.4-9.4-9.2 0-3.1 1.4-6.3 6-7.7 5.1-1.6 11.4-3.2 13.1-4.9v-2.7c0-5.2-3-6.5-5.5-6.5-2.6 0-5.3 1.6-6.7 6.4-.3 1.1-.7 1.8-2.1 1.8-1.2 0-3.6-1-3.6-3.1 0-3.6 5.8-7.4 13.1-7.4 9.8 0 10.7 4.9 10.7 8.6v15.6zm-5.9-10.2c-1.4.9-4.9 2.1-7.5 3.1-3.6 1.4-5.1 2.9-5.1 6 0 3.8 2 6.7 6 6.7 2.5 0 6.6-1.4 6.6-6.6v-9.2zM-242 484.4c0 3.3.3 3.4 4.9 3.8v1.9H-253v-1.9c4.7-.3 4.9-.5 4.9-3.8v-33.5c0-2.5-.4-2.8-2.1-3l-2.5-.3v-1.5l10.2-1.6.5.4v39.5zM-223.9 484.4c0 3.3.3 3.4 4.9 3.8v1.9h-15.9v-1.9c4.7-.3 4.9-.5 4.9-3.8v-33.5c0-2.5-.4-2.8-2.1-3l-2.5-.3v-1.5l10.2-1.6.5.4v39.5zM-211.2 473c-.1 6.8 1.5 14.6 9.6 14.6 5.1 0 7.6-3.1 9.4-6.9l2 1c-1.8 5.1-5.5 9.1-12.7 9.2-10.6.1-15-6.2-15-16.4 0-9.8 4.8-17 14.9-17 11.9 0 13.1 9.2 13.1 13.1 0 2.1-1.2 2.5-2.6 2.5h-18.7v-.1zm12.4-2.5c1.8 0 2.2-.8 2.2-2.1 0-2.5-.7-8.7-6.8-8.7-6.8 0-7.7 8.1-7.7 10.8h12.3z"/><g><path class="st0" d="M-435.7 510.8c.8-.4 1.6-.8 2.3-1.3.2-.1.3-.2.5-.3.9-.7 1.8-1.5 2.5-2.3 1-1.1 2-2.3 2.8-3.5.7-1 1.3-2 1.8-3.1 2.1-4.2 3.5-8.8 4.2-13.3.5-2.9.7-5.9.7-8.8 0-2.9-.2-5.9-.7-8.8-.7-4.5-2.1-9.1-4.2-13.3-.2-.5-.5-1-.8-1.4-1.1 2.1-2.1 4.2-2.8 6.5 1.4 4.1 2.2 8.4 2.5 12.7.1 1.5.1 2.9.1 4.4 0 1.5 0 2.9-.1 4.4-.4 5.2-1.5 10.5-3.5 15.3-.8 1.9-1.7 3.7-2.8 5.5-.3.4-.5.8-.8 1.2-.5.8-1.1 1.6-1.8 2.4-.7.9-1.5 1.7-2.3 2.5-.9.9-1.8 1.6-2.8 2.3-.1.1-.2.1-.2.2 2 0 3.8-.5 5.4-1.3zm0-3.8z"/><path class="st0" d="M-425 510.8c.8-.4 1.6-.8 2.3-1.3.2-.1.3-.2.5-.3 3.1-2.3 5.4-5.5 7.1-8.9 2.1-4.2 3.4-8.8 4.1-13.4.5-2.9.7-5.9.7-8.8 0-2.9-.2-5.9-.7-8.8-.7-4.5-2.1-9.1-4.2-13.3-1.6-3.1-3.7-6.1-6.4-8.4-.9.9-1.7 1.9-2.4 3 .3.4.5.7.8 1.1 4.4 6.5 6.5 14.3 7 22 .1 1.5.1 2.9.1 4.4s0 2.9-.1 4.4c-.5 7.8-2.6 15.5-7 22-.5.8-1.1 1.6-1.8 2.4-.7.9-1.5 1.7-2.3 2.5-.9.9-1.8 1.6-2.8 2.3-.1.1-.2.1-.2.2v.2c1.8 0 3.6-.5 5.3-1.3z"/><path class="st0" d="M-411.7 509.2c3.1-2.3 5.4-5.5 7.1-8.9 2.1-4.2 3.5-8.8 4.2-13.3.5-2.9.7-5.9.7-8.8 0-2.9-.2-5.9-.7-8.8-.7-4.5-2.1-9.1-4.2-13.3-1.7-3.4-4-6.6-7.1-8.9-2.3-1.7-5.2-2.9-8.1-2.9v.1c2.8 2 5.2 4.6 7.1 7.4 4.4 6.5 6.5 14.3 7 22 .1 1.5.1 2.9.1 4.4s0 2.9-.1 4.4c-.5 7.8-2.6 15.5-7 22-1.9 2.8-4.3 5.5-7.1 7.4v.1c2.9-.1 5.8-1.2 8.1-2.9zM-425 445.5c-.8.4-1.6.8-2.3 1.3-.2.1-.3.2-.5.3-.9.7-1.8 1.5-2.5 2.3-1 1.1-2 2.3-2.8 3.5-.7 1-1.3 2-1.8 3.1-2.1 4.2-3.5 8.8-4.2 13.3-.5 2.9-.7 5.9-.7 8.8 0 2.9.2 5.9.7 8.8.7 4.5 2.1 9.1 4.2 13.3.2.5.5 1 .8 1.4 1.1-2.1 2.1-4.2 2.8-6.5-1.4-4.1-2.2-8.4-2.5-12.7-.1-1.3-.2-2.8-.2-4.3s0-2.9.1-4.4c.4-5.2 1.5-10.5 3.5-15.3.8-1.9 1.7-3.7 2.8-5.5.3-.4.5-.8.8-1.2.5-.8 1.1-1.6 1.8-2.4.7-.9 1.5-1.7 2.3-2.5.8-.9 1.7-1.7 2.7-2.4.1-.1.2-.1.2-.2-1.8 0-3.6.5-5.2 1.3zm-.1 3.8z"/><path class="st0" d="M-435.7 445.5c-.8.4-1.6.8-2.3 1.3-.2.1-.3.2-.5.3-3.1 2.3-5.4 5.5-7.1 8.9-2.1 4.2-3.5 8.8-4.2 13.3-.5 2.9-.7 5.9-.7 8.8 0 2.9.2 5.9.7 8.8.7 4.5 2.1 9.1 4.2 13.3 1.6 3.1 3.7 6.1 6.4 8.4.9-.9 1.7-1.9 2.4-3-.3-.4-.5-.7-.8-1.1-4.4-6.5-6.5-14.3-7-22-.1-1.5-.1-2.9-.1-4.4s0-2.9.1-4.4c.5-7.8 2.6-15.5 7-22 .5-.8 1.1-1.6 1.8-2.4.7-.9 1.5-1.7 2.3-2.5.9-.9 1.8-1.6 2.8-2.3.1-.1.2-.1.2-.2v-.1c-1.7 0-3.5.5-5.2 1.3z"/><path class="st0" d="M-449 447.1c-3.1 2.3-5.4 5.5-7.1 8.9-2.1 4.2-3.5 8.8-4.2 13.3-.5 3-.7 5.9-.7 8.8 0 2.9.2 5.9.7 8.8.7 4.5 2.1 9.1 4.2 13.3 1.7 3.4 4 6.6 7.1 8.9 2.3 1.7 5.2 2.9 8.1 2.9v-.1c-2.8-2-5.2-4.6-7.1-7.4-4.4-6.5-6.5-14.3-7-22-.2-1.4-.2-2.9-.2-4.4s0-2.9.1-4.4c.5-7.8 2.6-15.5 7-22 1.9-2.8 4.3-5.5 7.1-7.4v-.1c-2.9 0-5.7 1.2-8 2.9zM-428.5 508.6c.9-.9 1.7-1.9 2.4-3-.3-.4-.5-.7-.8-1.1-.3-.4-.5-.8-.8-1.2-.8 1.3-1.8 2.5-2.8 3.5.7.7 1.3 1.3 2 1.8M-422.8 509.5c-.7.5-1.5 1-2.3 1.3 1.7.8 3.5 1.2 5.3 1.3v-.1c-1-.7-2-1.6-3-2.5M-431.4 512c.3 0 .6-.1.9-.1l-.9-.6c-.7-.5-1.4-1.1-2-1.8-.7.5-1.5 1-2.3 1.3 1.1.5 2.3.9 3.4 1.1.4.1.7.1.9.1m1 .1c0-.1-.1-.2-.1-.2-.3.1-.6.1-.9.1.4.1.7.1 1 .1zM-432.2 447.7c-.9.9-1.7 1.9-2.4 3 .3.4.5.7.8 1.1.3.4.5.8.8 1.2.8-1.3 1.8-2.5 2.8-3.5-.7-.7-1.4-1.3-2-1.8"/><path class="st0" d="M-438 446.8c.7-.5 1.5-.9 2.3-1.3-1.7-.8-3.5-1.2-5.3-1.3v.1c1.1.7 2.1 1.6 3 2.5M-425 445.5c-1.1-.5-2.3-.9-3.4-1.1-.3-.1-.6-.1-.9-.1-.3 0-.7-.1-1-.1v.1l.1.1.9.6c.7.5 1.4 1.1 2 1.8.7-.5 1.4-1 2.3-1.3"/></g></svg>