<?xml version="1.0" encoding="UTF-8"?>
<svg xmlns="http://www.w3.org/2000/svg" xmlns:xlink="http://www.w3.org/1999/xlink" version="1.2" >
<font id="Founders Grotesk Bold Italic">
<font-face  font-family="Founders Grotesk" units-per-em="1000" ascent="630" descent="-370" font-style="italic" font-weight="700" font-stretch="normal" slope="-14" cap-height="630" x-height="446" underline-position="-50" underline-thickness="40" />
<missing-glyph  horiz-adv-x="608" d="" />
<glyph glyph-name="NULL" d="" />
<glyph glyph-name="CR" unicode="&#xd;" horiz-adv-x="250" d="" />
<glyph glyph-name="space" unicode="&#x20;" horiz-adv-x="180" d="" />
<glyph glyph-name="exclam" unicode="&#x21;" horiz-adv-x="232" d="M-20 0 L152 0 L194 172 L22 172 L-20 0 Z M137 630 L96 468 L66 210 L170 210 L268 468 L309 630 L137 630 Z " />
<glyph glyph-name="quotedbl" unicode="&#x22;" horiz-adv-x="367" d="M65 370 L194 370 L261 630 L132 630 L65 370 Z M243 370 L372 370 L439 630 L310 630 L243 370 Z " />
<glyph glyph-name="numbersign" unicode="&#x23;" horiz-adv-x="628" d="M578 266 L482 266 L519 364 L610 364 L645 464 L556 464 L618 630 L497 630 L435 464 L349 464 L411 630 L290 630 L228 464 L130 464 L95 364 L191 364 L154 266 L63 266 L30 166 L117 166 L56 0 L177 0 L238 166 L324 166 L263 0 L384 0 L445 166 L543 166 L578 266 Z M312 364 L398 364 L361 266 L275 266 L312 364 Z " />
<glyph glyph-name="dollar" unicode="&#x24;" horiz-adv-x="606" d="M25 245 C12 122 81 27 215 -2 L191 -100 L271 -100 L293 -12 L307 -12 C447 -12 579 51 579 202 C579 292 517 342 409 373 L390 378 L420 501 C460 478 478 437 474 398 L622 392 C631 518 560 600 452 630 L474 717 L394 717 L375 642 L358 642 C197 642 90 559 90 426 C90 335 149 285 232 264 L278 251 L246 124 C197 143 166 183 175 240 L25 245 Z M410 176 C410 136 379 115 324 113 L353 231 C387 220 410 202 410 176 L410 176 Z M260 456 C260 496 292 518 344 519 L315 400 C284 411 260 428 260 456 L260 456 Z " />
<glyph glyph-name="percent" unicode="&#x25;" horiz-adv-x="830" d="M182 433 C182 517 218 553 252 553 C284 553 301 537 301 500 C301 416 265 380 231 380 C199 380 182 396 182 433 L182 433 Z M72 433 C72 346 137 291 222 291 C312 291 411 367 411 500 C411 587 346 642 261 642 C171 642 72 566 72 433 L72 433 Z M753 630 L628 630 L139 0 L264 0 L753 630 Z M710 197 C710 113 674 77 640 77 C608 77 591 93 591 130 C591 214 627 250 661 250 C693 250 710 234 710 197 L710 197 Z M820 197 C820 284 755 339 670 339 C580 339 481 263 481 130 C481 43 546 -12 631 -12 C721 -12 820 64 820 197 L820 197 Z " />
<glyph glyph-name="ampersand" unicode="&#x26;" horiz-adv-x="678" d="M517 328 C497 294 476 261 453 232 L391 310 C492 352 556 406 556 503 C556 576 508 642 378 642 C255 642 147 570 147 442 C147 402 157 373 175 344 C62 296 9 235 9 145 C9 46 89 -12 201 -12 C273 -12 340 9 400 43 C442 1 477 -8 506 -8 C554 -8 593 4 614 18 L638 116 C614 111 601 109 584 109 C554 109 541 118 525 139 C583 196 629 262 663 322 L517 328 Z M240 112 C203 112 174 136 174 176 C174 206 191 232 239 255 L330 132 C302 119 272 112 240 112 L240 112 Z M301 462 C301 503 330 528 366 528 C400 528 412 506 412 486 C412 441 383 418 325 395 C307 422 301 444 301 462 L301 462 Z " />
<glyph glyph-name="quotesingle" unicode="&#x27;" horiz-adv-x="199" d="M65 370 L204 370 L271 630 L132 630 L65 370 Z " />
<glyph glyph-name="parenleft" unicode="&#x28;" horiz-adv-x="345" d="M51 162 C51 66 82 -19 127 -84 L265 -84 C220 -12 202 62 202 162 C202 315 266 497 450 660 L296 660 C117 505 51 347 51 162 L51 162 Z " />
<glyph glyph-name="parenright" unicode="&#x29;" horiz-adv-x="345" d="M327 414 C327 510 296 595 251 660 L113 660 C158 588 176 514 176 414 C176 261 112 79 -72 -84 L82 -84 C261 71 327 229 327 414 L327 414 Z " />
<glyph glyph-name="asterisk" unicode="&#x2a;" horiz-adv-x="378" d="M72 514 L160 458 L80 391 L143 316 L223 382 L262 285 L353 322 L315 418 L419 425 L412 523 L308 517 L335 618 L240 642 L213 541 L125 598 L72 514 Z " />
<glyph glyph-name="plus" unicode="&#x2b;" horiz-adv-x="612" d="M331 574 L282 378 L86 378 L52 243 L248 243 L200 47 L334 47 L382 243 L579 243 L613 378 L416 378 L465 574 L331 574 Z " />
<glyph glyph-name="comma" unicode="&#x2c;" horiz-adv-x="232" d="M-23 0 L52 0 C42 -40 9 -60 -39 -61 L-57 -139 C54 -136 127 -88 151 11 L191 172 L19 172 L-23 0 Z " />
<glyph glyph-name="hyphen" unicode="&#x2d;" horiz-adv-x="360" d="M36 186 L304 186 L339 327 L71 327 L36 186 Z " />
<glyph glyph-name="period" unicode="&#x2e;" horiz-adv-x="232" d="M-23 0 L149 0 L191 172 L19 172 L-23 0 Z " />
<glyph glyph-name="slash" unicode="&#x2f;" horiz-adv-x="396" d="M-85 -83 L71 -83 L516 659 L359 659 L-85 -83 Z " />
<glyph glyph-name="zero" unicode="0" horiz-adv-x="618" d="M304 125 C246 125 218 163 218 233 C218 259 221 289 229 324 C255 441 296 505 365 505 C423 505 451 467 451 397 C451 371 448 341 440 306 C414 189 373 125 304 125 L304 125 Z M299 -12 C452 -12 578 99 617 292 C624 326 627 358 627 388 C627 541 536 642 370 642 C217 642 91 531 52 338 C45 304 42 272 42 242 C42 89 133 -12 299 -12 L299 -12 Z " />
<glyph glyph-name="one" unicode="1" horiz-adv-x="355" d="M63 422 L181 422 L76 0 L246 0 L403 630 L270 630 C230 564 179 534 91 534 L63 422 Z " />
<glyph glyph-name="two" unicode="2" horiz-adv-x="525" d="M266 141 L359 201 C476 276 553 330 553 458 C553 560 477 642 336 642 C166 642 68 534 65 376 L232 368 C232 438 258 498 317 498 C363 498 379 473 379 438 C379 382 322 336 216 264 L6 122 L-24 0 L464 0 L499 141 L266 141 Z " />
<glyph glyph-name="three" unicode="3" horiz-adv-x="542" d="M347 201 C347 146 306 124 259 124 C208 124 174 155 185 216 L24 221 C2 88 78 -12 262 -12 C390 -12 519 55 519 195 C519 252 485 296 425 314 C499 329 567 376 567 475 C567 566 497 642 353 642 C198 642 98 546 71 412 L235 405 C250 471 282 505 335 505 C378 505 399 478 399 447 C399 392 359 369 311 369 C292 369 277 370 263 372 L233 251 C251 253 268 253 280 253 C328 253 347 232 347 201 L347 201 Z " />
<glyph glyph-name="four" unicode="4" horiz-adv-x="588" d="M602 630 L387 630 L43 299 L4 133 L311 133 L278 0 L445 0 L478 133 L559 133 L594 276 L513 276 L602 630 Z M398 482 L346 276 L183 276 L398 482 Z " />
<glyph glyph-name="five" unicode="5" horiz-adv-x="529" d="M569 630 L172 630 C143 526 82 360 46 274 L205 262 C222 286 249 302 285 302 C336 302 359 266 359 224 C359 163 316 125 263 125 C213 125 176 154 183 210 L27 221 C-1 89 86 -12 253 -12 C413 -12 519 95 519 244 C519 346 456 429 336 429 C288 429 257 418 231 401 C242 425 251 455 260 482 L532 482 L569 630 Z " />
<glyph glyph-name="six" unicode="6" horiz-adv-x="558" d="M361 507 C408 507 434 483 434 440 L589 445 C589 558 524 642 373 642 C163 642 42 456 42 229 C42 82 134 -12 284 -12 C417 -12 550 79 550 237 C550 330 488 410 362 410 C301 410 241 387 206 346 C230 450 286 507 361 507 L361 507 Z M390 217 C390 155 341 121 290 121 C243 121 211 146 211 189 C211 251 260 285 311 285 C358 285 390 260 390 217 L390 217 Z " />
<glyph glyph-name="seven" unicode="7" horiz-adv-x="511" d="M363 478 C201 339 135 205 81 0 L267 0 C316 195 356 334 561 496 L595 630 L114 630 L76 478 L363 478 Z " />
<glyph glyph-name="eight" unicode="8" horiz-adv-x="559" d="M275 115 C220 115 192 144 192 181 C192 237 236 266 290 266 C345 266 373 237 373 200 C373 144 329 115 275 115 L275 115 Z M275 -12 C417 -12 539 55 539 185 C539 251 502 296 453 316 C532 343 582 392 582 479 C582 579 498 642 346 642 C219 642 99 574 99 446 C99 393 130 356 170 335 C81 318 25 255 25 166 C25 77 98 -12 275 -12 L275 -12 Z M332 382 C293 382 262 403 262 440 C262 490 302 518 349 518 C388 518 419 497 419 460 C419 410 379 382 332 382 L332 382 Z " />
<glyph glyph-name="nine" unicode="9" horiz-adv-x="558" d="M243 123 C196 123 170 147 170 190 L15 185 C15 72 80 -12 231 -12 C441 -12 562 174 562 401 C562 548 470 642 320 642 C187 642 54 551 54 393 C54 300 116 220 242 220 C303 220 363 243 398 284 C374 180 318 123 243 123 L243 123 Z M214 413 C214 475 263 509 314 509 C361 509 393 484 393 441 C393 379 344 345 293 345 C246 345 214 370 214 413 L214 413 Z " />
<glyph glyph-name="colon" unicode="&#x3a;" horiz-adv-x="232" d="M-23 0 L149 0 L191 172 L19 172 L-23 0 Z M44 266 L216 266 L258 438 L86 438 L44 266 Z " />
<glyph glyph-name="semicolon" unicode="&#x3b;" horiz-adv-x="232" d="M-23 0 L52 0 C42 -40 9 -60 -39 -61 L-57 -139 C54 -136 127 -88 151 11 L191 172 L19 172 L-23 0 Z M43 266 L215 266 L257 438 L85 438 L43 266 Z " />
<glyph glyph-name="less" unicode="&#x3c;" horiz-adv-x="473" d="M34 216 L394 46 L431 192 L178 300 L484 408 L524 570 L79 400 L34 216 Z " />
<glyph glyph-name="equal" unicode="&#x3d;" horiz-adv-x="634" d="M38 144 L565 144 L596 266 L69 266 L38 144 Z M92 360 L619 360 L650 482 L122 482 L92 360 Z " />
<glyph glyph-name="greater" unicode="&#x3e;" horiz-adv-x="473" d="M491 400 L131 570 L94 424 L346 316 L40 208 L1 46 L445 216 L491 400 Z " />
<glyph glyph-name="question" unicode="&#x3f;" horiz-adv-x="518" d="M343 210 C351 235 373 254 411 278 C478 320 557 374 556 475 C555 556 499 642 351 642 C189 642 69 549 61 373 L226 368 C226 435 259 498 323 498 C362 498 380 477 380 451 C380 393 332 370 284 338 C231 303 200 258 186 210 L343 210 Z M126 0 L298 0 L340 172 L168 172 L126 0 Z " />
<glyph glyph-name="at" unicode="&#x40;" horiz-adv-x="778" d="M564 111 C540 111 531 125 541 160 L606 384 L481 384 L466 338 C453 370 418 392 374 392 C269 392 188 295 186 175 C185 92 235 34 302 34 C355 34 397 55 423 98 C438 60 468 34 533 34 C645 34 758 121 758 294 C758 444 652 567 450 567 C206 567 21 399 21 155 C21 -30 160 -143 359 -143 C445 -143 523 -126 594 -86 L575 -14 C505 -47 442 -61 366 -61 C215 -61 118 19 118 155 C118 362 258 481 450 481 C593 481 664 405 664 294 C664 186 624 111 564 111 L564 111 Z M423 205 C411 148 385 128 358 128 C329 128 321 151 321 183 C321 241 355 303 399 303 C436 303 439 264 428 224 L423 205 Z " />
<glyph glyph-name="A" unicode="A" horiz-adv-x="692" d="M352 630 L-53 0 L125 0 L201 122 L448 122 L465 0 L639 0 L542 630 L352 630 Z M399 440 L403 440 L430 249 L280 249 L399 440 Z " />
<glyph glyph-name="B" unicode="B" horiz-adv-x="633" d="M320 0 C467 0 600 62 600 199 C600 266 559 310 501 323 C575 334 645 390 645 481 C645 577 578 630 448 630 L152 630 L-5 0 L320 0 Z M361 253 C402 253 428 240 428 208 C428 161 391 136 323 136 L193 136 L223 253 L361 253 Z M283 495 L408 495 C446 495 470 477 470 446 C470 404 440 380 365 380 L254 380 L283 495 Z " />
<glyph glyph-name="C" unicode="C" horiz-adv-x="672" d="M45 265 C45 98 161 -12 329 -12 C522 -12 640 110 672 267 L512 274 C494 204 446 139 348 139 C267 139 220 192 220 277 C220 383 282 491 394 491 C492 491 522 426 523 356 L681 362 C689 517 605 642 415 642 C198 642 45 477 45 265 L45 265 Z " />
<glyph glyph-name="D" unicode="D" horiz-adv-x="658" d="M198 134 L288 496 L343 496 C443 496 492 445 492 364 C492 215 401 134 264 134 L198 134 Z M-5 0 L252 0 C493 0 664 138 664 364 C664 540 538 630 377 630 L152 630 L-5 0 Z " />
<glyph glyph-name="E" unicode="E" horiz-adv-x="572" d="M525 140 L196 140 L224 249 L471 249 L505 387 L258 387 L284 490 L604 490 L639 630 L152 630 L-5 0 L491 0 L525 140 Z " />
<glyph glyph-name="F" unicode="F" horiz-adv-x="549" d="M165 0 L222 231 L452 231 L487 369 L257 369 L287 490 L593 490 L628 630 L152 630 L-5 0 L165 0 Z " />
<glyph glyph-name="G" unicode="G" horiz-adv-x="705" d="M686 383 C682 526 599 642 415 642 C198 642 45 479 45 261 C45 100 149 -12 308 -12 C384 -12 441 11 484 66 L468 0 L609 0 L690 327 L391 327 L360 205 L499 205 C461 155 411 134 348 134 C269 134 220 184 220 274 C220 385 282 491 394 491 C482 491 517 438 522 376 L686 383 Z " />
<glyph glyph-name="H" unicode="H" horiz-adv-x="687" d="M165 0 L227 249 L478 249 L416 0 L586 0 L743 630 L573 630 L512 387 L261 387 L322 630 L152 630 L-5 0 L165 0 Z " />
<glyph glyph-name="I" unicode="I" horiz-adv-x="266" d="M152 630 L-5 0 L165 0 L322 630 L152 630 Z " />
<glyph glyph-name="J" unicode="J" horiz-adv-x="563" d="M458 630 L361 244 C342 167 311 132 249 132 C184 132 168 180 183 267 L18 261 C-18 97 70 -12 232 -12 C385 -12 485 60 528 229 L628 630 L458 630 Z " />
<glyph glyph-name="K" unicode="K" horiz-adv-x="641" d="M598 0 L422 347 L743 630 L538 630 L259 383 L322 630 L152 630 L-5 0 L165 0 L212 191 L284 252 L409 0 L598 0 Z " />
<glyph glyph-name="L" unicode="L" horiz-adv-x="555" d="M152 630 L-5 0 L477 0 L511 140 L199 140 L322 630 L152 630 Z " />
<glyph glyph-name="M" unicode="M" horiz-adv-x="801" d="M413 0 L638 450 L642 450 L530 0 L700 0 L857 630 L592 630 L404 234 L401 234 L407 630 L152 630 L-5 0 L151 0 L263 450 L267 450 L268 0 L413 0 Z " />
<glyph glyph-name="N" unicode="N" horiz-adv-x="660" d="M314 630 L152 630 L-5 0 L151 0 L247 389 L423 0 L559 0 L716 630 L560 630 L469 265 L314 630 Z " />
<glyph glyph-name="O" unicode="O" horiz-adv-x="694" d="M401 642 C211 642 45 487 45 270 C45 91 164 -12 344 -12 C534 -12 700 143 700 360 C700 538 581 642 401 642 L401 642 Z M348 138 C266 138 220 188 220 270 C220 401 296 492 397 492 C479 492 525 442 525 360 C525 229 449 138 348 138 L348 138 Z " />
<glyph glyph-name="P" unicode="P" horiz-adv-x="593" d="M247 333 L287 494 L377 494 C439 494 465 475 465 424 C465 361 414 333 337 333 L247 333 Z M213 197 L327 197 C509 197 634 276 634 439 C634 546 558 630 414 630 L152 630 L-5 0 L164 0 L213 197 Z " />
<glyph glyph-name="Q" unicode="Q" horiz-adv-x="694" d="M401 642 C211 642 45 487 45 270 C45 91 164 -12 344 -12 C390 -12 435 -2 477 15 L520 -44 L623 23 L580 82 C652 149 700 246 700 360 C700 538 581 642 401 642 L401 642 Z M348 138 C266 138 220 188 220 270 C220 401 296 492 397 492 C479 492 525 442 525 355 C525 299 512 250 488 212 L445 273 L344 204 L388 142 C375 139 362 138 348 138 L348 138 Z " />
<glyph glyph-name="R" unicode="R" horiz-adv-x="637" d="M566 0 C559 10 556 21 556 39 C556 73 571 136 571 173 C571 228 538 259 485 270 C571 277 665 344 665 458 C665 576 580 630 443 630 L152 630 L-5 0 L162 0 L214 209 L327 209 C374 209 401 198 401 152 C401 118 388 60 388 35 C388 19 390 7 394 0 L566 0 Z M246 340 L285 494 L400 494 C461 494 491 475 491 432 C491 363 436 340 361 340 L246 340 Z " />
<glyph glyph-name="S" unicode="S" horiz-adv-x="609" d="M22 245 C7 96 111 -12 304 -12 C444 -12 576 53 576 204 C576 294 514 346 406 377 L323 401 C290 411 265 424 265 453 C265 492 298 509 345 509 C429 509 466 457 460 398 L619 392 C635 556 513 642 355 642 C194 642 87 555 87 422 C87 331 146 280 229 259 L339 231 C378 221 401 206 401 177 C401 137 364 120 311 120 C229 120 167 160 179 240 L22 245 Z " />
<glyph glyph-name="T" unicode="T" horiz-adv-x="654" d="M355 0 L477 490 L696 490 L731 630 L127 630 L92 490 L308 490 L186 0 L355 0 Z " />
<glyph glyph-name="U" unicode="U" horiz-adv-x="660" d="M299 -12 C476 -12 580 66 626 250 L721 630 L551 630 L463 278 C439 182 400 131 315 131 C242 131 206 184 229 278 L317 630 L148 630 L62 286 C16 103 124 -12 299 -12 L299 -12 Z " />
<glyph glyph-name="V" unicode="V" horiz-adv-x="663" d="M360 0 L763 630 L586 630 L321 211 L317 211 L270 630 L100 630 L181 0 L360 0 Z " />
<glyph glyph-name="W" unicode="W" horiz-adv-x="903" d="M627 630 L474 630 L267 235 L263 235 L266 630 L100 630 L104 0 L282 0 L490 398 L494 398 L496 0 L677 0 L1003 630 L835 630 L632 235 L628 235 L627 630 Z " />
<glyph glyph-name="X" unicode="X" horiz-adv-x="676" d="M569 630 L387 442 L290 630 L109 630 L269 326 L-55 0 L136 0 L333 204 L440 0 L621 0 L452 320 L760 630 L569 630 Z " />
<glyph glyph-name="Y" unicode="Y" horiz-adv-x="649" d="M360 395 L274 630 L100 630 L244 239 L185 0 L350 0 L409 239 L749 630 L560 630 L360 395 Z " />
<glyph glyph-name="Z" unicode="Z" horiz-adv-x="594" d="M235 140 L627 498 L660 630 L137 630 L102 490 L399 490 L9 129 L-23 0 L511 0 L545 140 L235 140 Z " />
<glyph glyph-name="bracketleft" unicode="&#x5b;" horiz-adv-x="324" d="M297 549 L387 549 L415 660 L181 660 L-3 -84 L230 -84 L257 27 L167 27 L297 549 Z " />
<glyph glyph-name="backslash" unicode="&#x5c;" horiz-adv-x="379" d="M235 659 L98 659 L211 -83 L348 -83 L235 659 Z " />
<glyph glyph-name="bracketright" unicode="&#x5d;" horiz-adv-x="324" d="M68 27 L-22 27 L-50 -84 L184 -84 L368 660 L135 660 L108 549 L198 549 L68 27 Z " />
<glyph glyph-name="asciicircum" unicode="&#x5e;" horiz-adv-x="408" d="M218 630 L57 420 L207 420 L283 529 L305 420 L445 420 L390 630 L218 630 Z " />
<glyph glyph-name="underscore" unicode="&#x5f;" horiz-adv-x="381" d="M-60 -151 L280 -151 L311 -28 L-30 -28 L-60 -151 Z " />
<glyph glyph-name="grave" unicode="&#x60;" horiz-adv-x="500" d="M422 488 L404 630 L250 630 L311 488 L422 488 Z " />
<glyph glyph-name="a" unicode="a" horiz-adv-x="527" d="M297 183 C286 126 242 94 201 94 C176 94 160 107 160 129 C160 159 180 173 219 178 L298 188 L297 183 Z M474 267 C505 391 423 458 305 458 C171 458 89 394 54 298 L206 288 C221 321 242 338 278 338 C317 338 330 316 321 279 L318 266 L182 252 C70 240 0 195 0 104 C0 36 46 -10 131 -10 C197 -10 250 16 280 67 C284 19 320 -10 378 -10 C418 -10 448 3 475 19 L497 105 C482 100 472 98 459 98 C442 98 434 108 440 131 L474 267 Z " />
<glyph glyph-name="b" unicode="b" horiz-adv-x="574" d="M212 242 C226 295 261 333 314 333 C361 333 386 306 386 256 C386 174 340 110 273 110 C218 110 187 160 207 226 L212 242 Z M167 75 C184 20 239 -12 309 -12 C460 -12 556 126 556 281 C556 385 502 458 394 458 C329 458 278 426 245 373 L310 630 L148 630 L-9 0 L120 0 L167 75 Z " />
<glyph glyph-name="c" unicode="c" horiz-adv-x="500" d="M17 187 C17 68 102 -12 232 -12 C366 -12 451 74 476 182 L345 192 C327 137 297 110 248 110 C208 110 179 134 179 187 C179 261 218 336 287 336 C334 336 351 305 353 255 L487 264 C493 371 427 458 290 458 C137 458 17 341 17 187 L17 187 Z " />
<glyph glyph-name="d" unicode="d" horiz-adv-x="569" d="M362 204 C348 151 313 113 260 113 C213 113 188 140 188 190 C188 272 234 336 301 336 C356 336 387 286 367 220 L362 204 Z M404 376 C387 427 335 458 265 458 C114 458 18 320 18 165 C18 61 72 -12 180 -12 C245 -12 296 20 329 73 L310 0 L472 0 L629 630 L467 630 L404 376 Z " />
<glyph glyph-name="e" unicode="e" horiz-adv-x="513" d="M350 159 C331 124 296 109 252 109 C203 109 172 136 172 192 L486 192 C493 218 495 237 495 262 C495 370 431 458 292 458 C137 458 18 340 18 184 C18 63 103 -12 237 -12 C351 -12 443 45 479 147 L350 159 Z M184 268 C197 310 228 342 278 342 C328 342 344 309 343 268 L184 268 Z " />
<glyph glyph-name="f" unicode="f" horiz-adv-x="327" d="M92 334 L9 0 L169 0 L252 334 L355 334 L383 446 L280 446 L289 483 C296 511 309 527 331 527 C352 527 362 515 369 496 L474 529 C459 595 414 642 324 642 C224 642 159 587 133 493 L120 446 L56 446 L28 334 L92 334 Z " />
<glyph glyph-name="g" unicode="g" horiz-adv-x="563" d="M357 217 C346 166 308 134 255 134 C213 134 185 159 185 210 C185 283 226 339 289 339 C346 339 375 298 361 235 L357 217 Z M319 56 C301 -20 260 -50 204 -50 C171 -50 138 -36 135 4 L-22 -3 C-20 -111 78 -172 197 -172 C347 -172 443 -97 479 49 L578 446 L416 446 L398 377 C381 425 330 458 260 458 C104 458 17 328 17 198 C17 86 88 25 190 25 C251 25 297 49 329 97 L319 56 Z " />
<glyph glyph-name="h" unicode="h" horiz-adv-x="552" d="M207 219 C224 286 252 330 307 330 C356 330 370 298 355 237 L296 0 L458 0 L525 271 C549 368 511 458 397 458 C329 458 283 427 247 378 L310 630 L148 630 L-9 0 L153 0 L207 219 Z " />
<glyph glyph-name="i" unicode="i" horiz-adv-x="250" d="M102 446 L-9 0 L153 0 L264 446 L102 446 Z M111 488 L275 488 L311 630 L147 630 L111 488 Z " />
<glyph glyph-name="j" unicode="j" horiz-adv-x="250" d="M264 446 L102 446 L-11 -7 C-21 -45 -39 -61 -67 -61 C-88 -61 -104 -53 -124 -39 L-171 -131 C-146 -154 -93 -172 -42 -172 C64 -172 121 -125 149 -15 L264 446 Z M111 488 L275 488 L311 630 L147 630 L111 488 Z " />
<glyph glyph-name="k" unicode="k" horiz-adv-x="543" d="M188 141 L241 185 L326 0 L498 0 L372 265 L602 446 L401 446 L227 300 L310 630 L148 630 L-9 0 L153 0 L188 141 Z " />
<glyph glyph-name="l" unicode="l" horiz-adv-x="250" d="M148 630 L-9 0 L153 0 L310 630 L148 630 Z " />
<glyph glyph-name="m" unicode="m" horiz-adv-x="836" d="M521 380 C510 424 472 458 400 458 C339 458 283 428 247 379 L264 446 L102 446 L-9 0 L153 0 L207 219 C224 286 255 330 302 330 C352 330 360 298 345 237 L286 0 L448 0 L502 219 C519 286 550 330 597 330 C647 330 655 298 640 237 L581 0 L743 0 L811 280 C834 375 800 458 684 458 C615 458 562 429 521 380 L521 380 Z " />
<glyph glyph-name="n" unicode="n" horiz-adv-x="552" d="M207 219 C224 286 252 330 307 330 C356 330 370 298 355 237 L296 0 L458 0 L525 271 C549 368 511 458 397 458 C329 458 283 427 247 378 L264 446 L102 446 L-9 0 L153 0 L207 219 Z " />
<glyph glyph-name="o" unicode="o" horiz-adv-x="527" d="M245 110 C199 110 180 139 180 189 C180 250 210 336 282 336 C328 336 347 307 347 257 C347 196 317 110 245 110 L245 110 Z M238 -12 C395 -12 509 101 509 255 C509 376 423 458 289 458 C132 458 18 345 18 191 C18 70 104 -12 238 -12 L238 -12 Z " />
<glyph glyph-name="p" unicode="p" horiz-adv-x="574" d="M212 242 C226 295 261 333 314 333 C361 333 386 306 386 256 C386 174 340 110 273 110 C218 110 187 160 207 226 L212 242 Z M170 70 C187 19 239 -12 309 -12 C460 -12 556 126 556 281 C556 385 502 458 394 458 C329 458 278 426 245 373 L264 446 L102 446 L-49 -160 L113 -160 L170 70 Z " />
<glyph glyph-name="q" unicode="q" horiz-adv-x="569" d="M362 204 C348 151 313 113 260 113 C213 113 188 140 188 190 C188 272 234 336 301 336 C356 336 387 286 367 220 L362 204 Z M404 376 C387 427 335 458 265 458 C114 458 18 320 18 165 C18 61 72 -12 180 -12 C245 -12 296 20 329 73 L271 -160 L433 -160 L584 446 L422 446 L404 376 Z " />
<glyph glyph-name="r" unicode="r" horiz-adv-x="396" d="M446 441 C435 449 414 458 384 458 C324 458 275 421 243 363 L264 446 L102 446 L-9 0 L153 0 L203 204 C222 279 266 307 326 307 C357 307 380 301 398 288 L446 441 Z " />
<glyph glyph-name="s" unicode="s" horiz-adv-x="461" d="M-12 153 C-5 44 78 -12 209 -12 C325 -12 425 38 425 147 C425 210 388 259 310 276 L220 296 C201 300 193 308 193 322 C193 344 215 356 241 356 C292 356 320 330 323 297 L458 304 C445 402 374 458 246 458 C141 458 45 405 45 298 C45 226 87 186 173 168 L238 155 C266 149 275 140 275 123 C275 99 247 88 215 88 C163 88 124 115 121 160 L-12 153 Z " />
<glyph glyph-name="t" unicode="t" horiz-adv-x="358" d="M43 148 C16 42 74 -12 156 -12 C217 -12 252 3 292 25 L318 127 C288 116 266 115 246 115 C213 115 199 130 208 168 L250 334 L366 334 L394 446 L278 446 L308 569 L206 569 L177 511 C156 470 136 446 89 439 L55 434 L30 334 L90 334 L43 148 Z " />
<glyph glyph-name="u" unicode="u" horiz-adv-x="540" d="M337 223 C320 156 292 112 237 112 C188 112 180 144 195 205 L255 446 L93 446 L26 175 C2 78 37 -12 148 -12 C216 -12 264 17 298 68 L281 0 L443 0 L554 446 L392 446 L337 223 Z " />
<glyph glyph-name="v" unicode="v" horiz-adv-x="518" d="M292 0 L578 446 L408 446 L239 166 L235 166 L210 446 L55 446 L108 0 L292 0 Z " />
<glyph glyph-name="w" unicode="w" horiz-adv-x="729" d="M486 446 L357 446 L223 193 L219 193 L208 446 L55 446 L81 0 L240 0 L368 252 L372 252 L374 0 L533 0 L789 446 L635 446 L490 193 L486 193 L486 446 Z " />
<glyph glyph-name="x" unicode="x" horiz-adv-x="520" d="M566 446 L390 446 L285 336 L227 446 L64 446 L178 234 L-55 0 L121 0 L240 123 L306 0 L469 0 L346 225 L566 446 Z " />
<glyph glyph-name="y" unicode="y" horiz-adv-x="529" d="M181 -160 L589 446 L416 446 L252 178 L248 178 L210 446 L54 446 L127 3 L20 -160 L181 -160 Z " />
<glyph glyph-name="z" unicode="z" horiz-adv-x="452" d="M248 329 L2 111 L-25 0 L375 0 L404 117 L205 117 L453 336 L481 446 L90 446 L61 329 L248 329 Z " />
<glyph glyph-name="braceleft" unicode="&#x7b;" horiz-adv-x="343" d="M38 233 L63 233 C89 233 99 225 99 206 C99 171 59 53 59 7 C59 -54 99 -84 164 -84 L247 -84 L274 27 L234 27 C214 27 209 35 209 45 C209 71 246 174 246 219 C246 259 227 281 182 288 C248 298 280 334 298 406 L324 512 C329 531 334 549 364 549 L404 549 L432 660 L349 660 C268 660 206 615 182 522 L155 416 C141 361 131 343 90 343 L65 343 L38 233 Z " />
<glyph glyph-name="bar" unicode="&#x7c;" horiz-adv-x="241" d="M-26 -83 L119 -83 L304 659 L159 659 L-26 -83 Z " />
<glyph glyph-name="braceright" unicode="&#x7d;" horiz-adv-x="343" d="M341 343 L316 343 C290 343 280 351 280 370 C280 405 320 523 320 569 C320 630 280 660 215 660 L132 660 L105 549 L145 549 C165 549 170 541 170 531 C170 505 133 402 133 357 C133 317 152 295 197 288 C131 278 99 242 81 170 L55 64 C50 45 45 27 15 27 L-25 27 L-53 -84 L30 -84 C111 -84 173 -39 197 54 L224 160 C238 215 248 233 289 233 L314 233 L341 343 Z " />
<glyph glyph-name="asciitilde" unicode="&#x7e;" horiz-adv-x="404" d="M119 204 C129 232 148 241 165 241 C202 241 215 200 265 200 C330 200 381 266 404 360 L317 360 C307 331 289 322 272 322 C235 322 220 363 170 363 C105 363 55 297 31 204 L119 204 Z " />
<glyph glyph-name="exclamdown" unicode="&#xa1;" horiz-adv-x="232" d="M278 518 L106 518 L64 346 L236 346 L278 518 Z M121 -112 L162 50 L192 308 L88 308 L-10 50 L-51 -112 L121 -112 Z " />
<glyph glyph-name="cent" unicode="&#xa2;" horiz-adv-x="519" d="M30 187 C30 87 92 15 192 -5 L170 -93 L254 -93 L274 -11 C405 -4 488 79 513 182 L387 192 C372 148 341 118 304 107 L360 330 C382 314 394 287 396 255 L525 264 C526 348 483 423 389 449 L412 538 L328 538 L308 458 C143 454 30 338 30 187 L30 187 Z M192 187 C192 264 224 322 278 339 L222 116 C202 130 192 154 192 187 L192 187 Z " />
<glyph glyph-name="sterling" unicode="&#xa3;" horiz-adv-x="616" d="M413 509 C472 509 492 468 477 401 L622 408 C658 549 584 642 423 642 C268 642 155 539 155 398 C155 382 157 369 161 356 L95 356 L73 265 L195 265 C197 255 198 245 198 235 C198 230 197 223 197 217 C177 224 155 229 130 229 C57 229 -14 180 -14 94 C-14 29 31 -12 99 -12 C148 -12 194 10 231 43 C267 13 315 -12 383 -12 C490 -12 587 42 597 214 L483 220 C466 155 440 137 380 137 C354 137 332 144 311 154 C327 190 337 229 339 265 L432 265 L454 356 L329 356 C326 370 324 383 324 399 C324 456 349 509 413 509 L413 509 Z M110 83 C95 83 84 91 84 105 C84 125 98 137 116 137 C131 137 144 128 159 114 C146 95 130 83 110 83 L110 83 Z " />
<glyph glyph-name="yen" unicode="&#xa5;" horiz-adv-x="639" d="M71 249 L245 249 L232 200 L58 200 L34 101 L208 101 L183 0 L348 0 L373 101 L547 101 L571 200 L397 200 L410 249 L584 249 L608 348 L496 348 L741 630 L547 630 L362 400 L281 630 L103 630 L208 348 L95 348 L71 249 Z " />
<glyph glyph-name="section" unicode="&#xa7;" horiz-adv-x="520" d="M502 265 C502 325 465 367 404 405 L315 459 C291 474 285 484 285 497 C286 525 309 537 338 537 C380 537 410 510 414 476 L534 485 C519 594 445 642 329 642 C225 642 132 576 132 477 C131 461 135 446 141 433 C83 401 46 344 46 284 C46 224 83 182 144 144 L233 90 C257 75 263 65 263 52 C262 24 239 12 210 12 C168 12 128 42 124 76 L4 67 C24 -42 103 -93 219 -93 C323 -93 416 -27 416 72 C416 88 413 102 407 115 C464 147 502 205 502 265 L502 265 Z M221 353 L325 279 C347 263 353 251 353 236 C352 215 342 202 331 193 L327 196 L223 270 C201 286 195 298 195 313 C195 333 206 347 217 356 L221 353 Z " />
<glyph glyph-name="dieresis" unicode="&#xa8;" horiz-adv-x="500" d="M156 488 L298 488 L334 630 L192 630 L156 488 Z M344 488 L486 488 L522 630 L380 630 L344 488 Z " />
<glyph glyph-name="copyright" unicode="&#xa9;" horiz-adv-x="724" d="M59 315 C59 125 206 -12 386 -12 C566 -12 713 125 713 315 C713 505 566 642 386 642 C206 642 59 505 59 315 L59 315 Z M188 315 C188 195 274 113 388 113 C507 113 570 188 578 286 L476 291 C470 251 447 213 391 213 C335 213 304 254 304 315 C304 378 335 419 391 419 C447 419 470 381 476 341 L578 344 C570 442 507 518 388 518 C274 518 188 436 188 315 L188 315 Z M109 315 C109 476 234 594 386 594 C538 594 663 476 663 315 C663 154 538 36 386 36 C234 36 109 154 109 315 L109 315 Z " />
<glyph glyph-name="ordfeminine" unicode="&#xaa;" horiz-adv-x="432" d="M297 419 C288 375 254 350 223 350 C204 350 191 360 191 377 C191 399 206 410 236 414 L297 422 L297 419 Z M443 487 C468 587 401 641 306 641 C196 641 130 589 102 511 L228 503 C240 528 255 541 283 541 C313 541 323 525 316 496 L314 486 L205 475 C114 465 58 429 58 356 C58 301 95 264 164 264 C217 264 259 284 283 325 C287 287 317 264 364 264 C397 264 421 275 444 288 L462 359 C450 355 442 353 431 353 C418 353 412 361 416 380 L443 487 Z " />
<glyph glyph-name="guillemotleft" unicode="&#xab;" horiz-adv-x="484" d="M14 154 L176 29 L207 154 L126 215 L237 276 L274 423 L50 298 L14 154 Z M245 154 L407 29 L438 154 L357 215 L468 276 L505 423 L281 298 L245 154 Z " />
<glyph glyph-name="registered" unicode="&#xae;" horiz-adv-x="412" d="M360 354 C353 362 352 370 349 400 C347 423 335 434 314 438 C339 442 357 461 357 490 C357 529 331 553 280 553 L179 553 L179 354 L238 354 L238 415 L261 415 C280 415 289 411 291 388 C293 366 295 360 300 354 L360 354 Z M238 461 L238 506 L263 506 C284 506 295 499 295 483 C295 467 284 461 263 461 L238 461 Z M447 454 C447 563 363 642 261 642 C159 642 75 563 75 454 C75 345 159 266 261 266 C363 266 447 345 447 454 L447 454 Z M413 454 C413 363 346 298 261 298 C176 298 109 363 109 454 C109 545 176 610 261 610 C346 610 413 545 413 454 L413 454 Z " />
<glyph glyph-name="macron" unicode="&#xaf;" horiz-adv-x="500" d="M184 492 L459 492 L490 600 L215 600 L184 492 Z " />
<glyph glyph-name="degree" unicode="&#xb0;" horiz-adv-x="370" d="M238 432 C205 432 184 453 184 489 C184 525 212 554 247 554 C280 554 301 533 301 497 C301 461 273 432 238 432 L238 432 Z M233 344 C326 344 394 413 394 503 C394 583 337 642 252 642 C159 642 91 573 91 483 C91 403 148 344 233 344 L233 344 Z " />
<glyph glyph-name="plusminus" unicode="&#xb1;" horiz-adv-x="629" d="M346 616 L311 477 L128 477 L94 343 L278 343 L244 204 L378 204 L412 343 L597 343 L631 477 L445 477 L480 616 L346 616 Z M12 16 L515 16 L549 149 L46 149 L12 16 Z " />
<glyph glyph-name="twosuperior" unicode="&#xb2;" horiz-adv-x="364" d="M235 329 L280 357 C355 404 399 436 399 518 C399 585 348 638 257 638 C145 638 80 569 78 466 L201 461 C201 496 212 532 242 532 C266 532 272 519 272 502 C272 476 246 450 175 402 L47 318 L25 226 L342 226 L368 329 L235 329 Z " />
<glyph glyph-name="threesuperior" unicode="&#xb3;" horiz-adv-x="360" d="M248 356 C248 328 226 318 203 318 C179 318 162 332 168 364 L49 367 C36 282 84 218 206 218 C287 218 374 260 374 352 C374 388 352 415 315 427 C362 437 403 466 403 529 C403 587 357 638 262 638 C159 638 94 574 77 488 L197 483 C205 519 220 537 248 537 C269 537 280 523 280 507 C280 479 262 466 235 466 C225 466 216 467 207 468 L185 381 C197 383 208 382 213 382 C238 382 248 372 248 356 L248 356 Z " />
<glyph glyph-name="acute" unicode="&#xb4;" horiz-adv-x="500" d="M330 488 L463 630 L302 630 L212 488 L330 488 Z " />
<glyph glyph-name="paragraph" unicode="&#xb6;" horiz-adv-x="581" d="M209 0 L313 0 L444 527 L503 527 L372 0 L476 0 L633 630 L366 630 C197 630 72 552 72 408 C72 313 143 239 268 239 L209 0 Z " />
<glyph glyph-name="periodcentered" unicode="&#xb7;" horiz-adv-x="271" d="M36 170 L208 170 L250 342 L78 342 L36 170 Z " />
<glyph glyph-name="cedilla" unicode="&#xb8;" horiz-adv-x="833" d="M459 -90 C459 -46 418 -25 358 -36 L403 11 L351 11 L271 -79 L300 -90 C328 -79 366 -77 366 -103 C366 -120 344 -125 321 -125 C287 -125 262 -116 242 -103 L217 -142 C236 -160 275 -175 325 -175 C385 -175 459 -156 459 -90 L459 -90 Z " />
<glyph glyph-name="onesuperior" unicode="&#xb9;" horiz-adv-x="248" d="M75 485 L151 485 L86 226 L211 226 L311 629 L212 629 C186 587 152 568 96 568 L75 485 Z " />
<glyph glyph-name="ordmasculine" unicode="&#xba;" horiz-adv-x="431" d="M257 364 C221 364 208 386 208 424 C208 471 230 540 286 540 C322 540 336 517 336 479 C336 432 313 364 257 364 L257 364 Z M251 262 C378 262 470 353 470 477 C470 575 401 641 292 641 C166 641 73 551 73 426 C73 329 142 262 251 262 L251 262 Z " />
<glyph glyph-name="guillemotright" unicode="&#xbb;" horiz-adv-x="484" d="M251 298 L89 423 L58 298 L139 237 L28 176 L-9 29 L215 154 L251 298 Z M482 298 L320 423 L289 298 L370 237 L259 176 L222 29 L446 154 L482 298 Z " />
<glyph glyph-name="onequarter" unicode="&#xbc;" horiz-adv-x="810" d="M719 630 L605 630 L63 0 L177 0 L719 630 Z M75 485 L151 485 L86 226 L211 226 L311 629 L212 629 C186 587 152 568 96 568 L75 485 Z M790 404 L632 404 L420 190 L394 79 L587 79 L567 0 L689 0 L709 79 L756 79 L778 174 L732 174 L790 404 Z M641 297 L609 174 L519 174 L641 297 Z " />
<glyph glyph-name="onehalf" unicode="&#xbd;" horiz-adv-x="838" d="M719 630 L605 630 L63 0 L177 0 L719 630 Z M75 485 L151 485 L86 226 L211 226 L311 629 L212 629 C186 587 152 568 96 568 L75 485 Z M654 103 L699 131 C774 178 818 210 818 292 C818 359 767 412 676 412 C564 412 499 343 497 240 L620 235 C620 270 631 306 661 306 C685 306 691 293 691 276 C691 250 665 224 594 176 L466 92 L444 0 L761 0 L787 103 L654 103 Z " />
<glyph glyph-name="threequarters" unicode="&#xbe;" horiz-adv-x="922" d="M831 630 L717 630 L175 0 L289 0 L831 630 Z M902 404 L744 404 L532 190 L506 79 L699 79 L679 0 L801 0 L821 79 L868 79 L890 174 L844 174 L902 404 Z M753 297 L721 174 L631 174 L753 297 Z M262 356 C262 328 240 318 217 318 C193 318 176 332 182 364 L63 367 C50 282 98 218 220 218 C301 218 388 260 388 352 C388 388 366 415 329 427 C376 437 417 466 417 529 C417 587 371 638 276 638 C173 638 108 574 91 488 L211 483 C219 519 234 537 262 537 C283 537 294 523 294 507 C294 479 276 466 249 466 C239 466 230 467 221 468 L199 381 C211 383 222 382 227 382 C252 382 262 372 262 356 L262 356 Z " />
<glyph glyph-name="questiondown" unicode="&#xbf;" horiz-adv-x="518" d="M196 308 C188 283 166 264 128 240 C61 198 -18 144 -17 43 C-16 -38 40 -124 188 -124 C350 -124 470 -31 478 145 L313 150 C313 83 280 20 216 20 C177 20 159 41 159 67 C159 125 207 148 255 180 C308 215 339 260 353 308 L196 308 Z M413 518 L241 518 L199 346 L371 346 L413 518 Z " />
<glyph glyph-name="Agrave" unicode="&#xc0;" horiz-adv-x="692" d="M352 630 L-53 0 L125 0 L201 122 L448 122 L465 0 L639 0 L542 630 L352 630 Z M525 668 L506 810 L352 810 L414 668 L525 668 Z M399 440 L403 440 L430 249 L280 249 L399 440 Z " />
<glyph glyph-name="Aacute" unicode="&#xc1;" horiz-adv-x="692" d="M352 630 L-53 0 L125 0 L201 122 L448 122 L465 0 L639 0 L542 630 L352 630 Z M514 668 L646 810 L485 810 L396 668 L514 668 Z M399 440 L403 440 L430 249 L280 249 L399 440 Z " />
<glyph glyph-name="Acircumflex" unicode="&#xc2;" horiz-adv-x="692" d="M352 630 L-53 0 L125 0 L201 122 L448 122 L465 0 L639 0 L542 630 L352 630 Z M412 810 L291 668 L397 668 L471 723 L517 668 L615 668 L564 810 L412 810 Z M399 440 L403 440 L430 249 L280 249 L399 440 Z " />
<glyph glyph-name="Atilde" unicode="&#xc3;" horiz-adv-x="692" d="M352 630 L-53 0 L125 0 L201 122 L448 122 L465 0 L639 0 L542 630 L352 630 Z M390 668 C399 694 416 702 431 702 C465 702 472 665 518 665 C577 665 623 725 645 810 L560 810 C551 784 534 776 519 776 C485 776 477 813 431 813 C372 813 326 753 305 668 L390 668 Z M399 440 L403 440 L430 249 L280 249 L399 440 Z " />
<glyph glyph-name="Adieresis" unicode="&#xc4;" horiz-adv-x="692" d="M352 630 L-53 0 L125 0 L201 122 L448 122 L465 0 L639 0 L542 630 L352 630 Z M293 668 L435 668 L470 810 L328 810 L293 668 Z M481 668 L623 668 L658 810 L516 810 L481 668 Z M399 440 L403 440 L430 249 L280 249 L399 440 Z " />
<glyph glyph-name="Aring" unicode="&#xc5;" horiz-adv-x="692" d="M352 630 L-53 0 L125 0 L201 122 L448 122 L465 0 L639 0 L542 630 L352 630 Z M575 766 C575 817 539 851 485 851 C427 851 384 807 384 748 C384 697 420 663 474 663 C532 663 575 707 575 766 L575 766 Z M399 440 L403 440 L430 249 L280 249 L399 440 Z M512 761 C512 739 496 723 477 723 C459 723 447 735 447 753 C447 775 463 791 482 791 C500 791 512 779 512 761 L512 761 Z " />
<glyph glyph-name="AE" unicode="&#xc6;" horiz-adv-x="1021" d="M479 630 L-53 0 L140 0 L268 152 L482 152 L444 0 L940 0 L974 140 L645 140 L673 249 L920 249 L954 387 L707 387 L733 490 L1053 490 L1088 630 L479 630 Z M566 505 L570 505 L513 279 L375 279 L566 505 Z " />
<glyph glyph-name="Ccedilla" unicode="&#xc7;" horiz-adv-x="672" d="M396 -90 C396 -46 355 -25 295 -36 L318 -12 L329 -12 C522 -12 640 110 672 267 L512 274 C494 204 446 139 348 139 C267 139 220 192 220 277 C220 383 282 491 394 491 C492 491 522 426 523 356 L681 362 C689 517 605 642 415 642 C198 642 45 477 45 265 C45 118 135 15 271 -7 L208 -79 L237 -90 C265 -79 303 -77 303 -103 C303 -120 281 -125 258 -125 C224 -125 199 -116 179 -103 L154 -142 C173 -160 212 -175 262 -175 C322 -175 396 -156 396 -90 L396 -90 Z " />
<glyph glyph-name="Egrave" unicode="&#xc8;" horiz-adv-x="572" d="M525 140 L196 140 L224 249 L471 249 L505 387 L258 387 L284 490 L604 490 L639 630 L152 630 L-5 0 L491 0 L525 140 Z M473 668 L454 810 L300 810 L362 668 L473 668 Z " />
<glyph glyph-name="Eacute" unicode="&#xc9;" horiz-adv-x="572" d="M525 140 L196 140 L224 249 L471 249 L505 387 L258 387 L284 490 L604 490 L639 630 L152 630 L-5 0 L491 0 L525 140 Z M462 668 L594 810 L433 810 L344 668 L462 668 Z " />
<glyph glyph-name="Ecircumflex" unicode="&#xca;" horiz-adv-x="572" d="M525 140 L196 140 L224 249 L471 249 L505 387 L258 387 L284 490 L604 490 L639 630 L152 630 L-5 0 L491 0 L525 140 Z M360 810 L239 668 L345 668 L419 723 L465 668 L563 668 L512 810 L360 810 Z " />
<glyph glyph-name="Edieresis" unicode="&#xcb;" horiz-adv-x="572" d="M525 140 L196 140 L224 249 L471 249 L505 387 L258 387 L284 490 L604 490 L639 630 L152 630 L-5 0 L491 0 L525 140 Z M241 668 L383 668 L418 810 L276 810 L241 668 Z M429 668 L571 668 L606 810 L464 810 L429 668 Z " />
<glyph glyph-name="Igrave" unicode="&#xcc;" horiz-adv-x="266" d="M152 630 L-5 0 L165 0 L322 630 L152 630 Z M314 668 L295 810 L141 810 L203 668 L314 668 Z " />
<glyph glyph-name="Iacute" unicode="&#xcd;" horiz-adv-x="266" d="M152 630 L-5 0 L165 0 L322 630 L152 630 Z M303 668 L435 810 L274 810 L185 668 L303 668 Z " />
<glyph glyph-name="Icircumflex" unicode="&#xce;" horiz-adv-x="266" d="M152 630 L-5 0 L165 0 L322 630 L152 630 Z M201 810 L80 668 L186 668 L260 723 L306 668 L404 668 L353 810 L201 810 Z " />
<glyph glyph-name="Idieresis" unicode="&#xcf;" horiz-adv-x="266" d="M152 630 L-5 0 L165 0 L322 630 L152 630 Z M82 668 L224 668 L259 810 L117 810 L82 668 Z M270 668 L412 668 L447 810 L305 810 L270 668 Z " />
<glyph glyph-name="Eth" unicode="&#xd0;" horiz-adv-x="683" d="M22 249 L82 249 L20 0 L277 0 C518 0 689 138 689 364 C689 540 563 630 402 630 L177 630 L116 387 L56 387 L22 249 Z M223 134 L251 249 L382 249 L416 387 L286 387 L313 496 L368 496 C468 496 517 445 517 364 C517 215 426 134 289 134 L223 134 Z " />
<glyph glyph-name="Ntilde" unicode="&#xd1;" horiz-adv-x="660" d="M314 630 L152 630 L-5 0 L151 0 L247 389 L423 0 L559 0 L716 630 L560 630 L469 265 L314 630 Z M381 668 C390 694 407 702 422 702 C456 702 463 665 509 665 C568 665 614 725 636 810 L551 810 C542 784 525 776 510 776 C476 776 468 813 422 813 C363 813 317 753 296 668 L381 668 Z " />
<glyph glyph-name="Ograve" unicode="&#xd2;" horiz-adv-x="694" d="M401 642 C211 642 45 487 45 270 C45 91 164 -12 344 -12 C534 -12 700 143 700 360 C700 538 581 642 401 642 L401 642 Z M348 138 C266 138 220 188 220 270 C220 401 296 492 397 492 C479 492 525 442 525 360 C525 229 449 138 348 138 L348 138 Z M504 668 L485 810 L331 810 L393 668 L504 668 Z " />
<glyph glyph-name="Oacute" unicode="&#xd3;" horiz-adv-x="694" d="M401 642 C211 642 45 487 45 270 C45 91 164 -12 344 -12 C534 -12 700 143 700 360 C700 538 581 642 401 642 L401 642 Z M348 138 C266 138 220 188 220 270 C220 401 296 492 397 492 C479 492 525 442 525 360 C525 229 449 138 348 138 L348 138 Z M493 668 L625 810 L464 810 L375 668 L493 668 Z " />
<glyph glyph-name="Ocircumflex" unicode="&#xd4;" horiz-adv-x="694" d="M401 642 C211 642 45 487 45 270 C45 91 164 -12 344 -12 C534 -12 700 143 700 360 C700 538 581 642 401 642 L401 642 Z M348 138 C266 138 220 188 220 270 C220 401 296 492 397 492 C479 492 525 442 525 360 C525 229 449 138 348 138 L348 138 Z M391 810 L270 668 L376 668 L450 723 L496 668 L594 668 L543 810 L391 810 Z " />
<glyph glyph-name="Otilde" unicode="&#xd5;" horiz-adv-x="694" d="M401 642 C211 642 45 487 45 270 C45 91 164 -12 344 -12 C534 -12 700 143 700 360 C700 538 581 642 401 642 L401 642 Z M348 138 C266 138 220 188 220 270 C220 401 296 492 397 492 C479 492 525 442 525 360 C525 229 449 138 348 138 L348 138 Z M369 668 C378 694 395 702 410 702 C444 702 451 665 497 665 C556 665 602 725 624 810 L539 810 C530 784 513 776 498 776 C464 776 456 813 410 813 C351 813 305 753 284 668 L369 668 Z " />
<glyph glyph-name="Odieresis" unicode="&#xd6;" horiz-adv-x="694" d="M401 642 C211 642 45 487 45 270 C45 91 164 -12 344 -12 C534 -12 700 143 700 360 C700 538 581 642 401 642 L401 642 Z M348 138 C266 138 220 188 220 270 C220 401 296 492 397 492 C479 492 525 442 525 360 C525 229 449 138 348 138 L348 138 Z M272 668 L414 668 L449 810 L307 810 L272 668 Z M460 668 L602 668 L637 810 L495 810 L460 668 Z " />
<glyph glyph-name="multiply" unicode="&#xd7;" horiz-adv-x="531" d="M101 81 L273 217 L376 78 L485 165 L381 304 L553 441 L481 537 L309 400 L205 539 L97 453 L201 313 L29 176 L101 81 Z " />
<glyph glyph-name="Oslash" unicode="&#xd8;" horiz-adv-x="694" d="M401 642 C211 642 45 487 45 270 C45 191 68 127 109 80 L46 9 L108 -43 L172 29 C219 2 277 -12 344 -12 C534 -12 700 143 700 360 C700 437 677 500 637 547 L699 616 L637 668 L575 599 C528 627 469 642 401 642 L401 642 Z M220 270 C220 401 296 492 397 492 C424 492 446 486 465 476 L229 213 C223 229 220 249 220 270 L220 270 Z M348 138 C322 138 300 142 282 151 L517 413 C522 397 525 379 525 360 C525 229 449 138 348 138 L348 138 Z " />
<glyph glyph-name="Ugrave" unicode="&#xd9;" horiz-adv-x="660" d="M299 -12 C476 -12 580 66 626 250 L721 630 L551 630 L463 278 C439 182 400 131 315 131 C242 131 206 184 229 278 L317 630 L148 630 L62 286 C16 103 124 -12 299 -12 L299 -12 Z M493 668 L474 810 L320 810 L382 668 L493 668 Z " />
<glyph glyph-name="Uacute" unicode="&#xda;" horiz-adv-x="660" d="M299 -12 C476 -12 580 66 626 250 L721 630 L551 630 L463 278 C439 182 400 131 315 131 C242 131 206 184 229 278 L317 630 L148 630 L62 286 C16 103 124 -12 299 -12 L299 -12 Z M502 668 L634 810 L473 810 L384 668 L502 668 Z " />
<glyph glyph-name="Ucircumflex" unicode="&#xdb;" horiz-adv-x="660" d="M299 -12 C476 -12 580 66 626 250 L721 630 L551 630 L463 278 C439 182 400 131 315 131 C242 131 206 184 229 278 L317 630 L148 630 L62 286 C16 103 124 -12 299 -12 L299 -12 Z M400 810 L279 668 L385 668 L459 723 L505 668 L603 668 L552 810 L400 810 Z " />
<glyph glyph-name="Udieresis" unicode="&#xdc;" horiz-adv-x="660" d="M299 -12 C476 -12 580 66 626 250 L721 630 L551 630 L463 278 C439 182 400 131 315 131 C242 131 206 184 229 278 L317 630 L148 630 L62 286 C16 103 124 -12 299 -12 L299 -12 Z M280 668 L422 668 L457 810 L315 810 L280 668 Z M468 668 L610 668 L645 810 L503 810 L468 668 Z " />
<glyph glyph-name="Yacute" unicode="&#xdd;" horiz-adv-x="649" d="M360 395 L274 630 L100 630 L244 239 L185 0 L350 0 L409 239 L749 630 L560 630 L360 395 Z M487 668 L619 810 L458 810 L369 668 L487 668 Z " />
<glyph glyph-name="Thorn" unicode="&#xde;" horiz-adv-x="593" d="M226 245 L266 406 L356 406 C418 406 444 387 444 336 C444 273 393 245 316 245 L226 245 Z M192 109 L306 109 C488 109 613 188 613 351 C613 458 537 542 393 542 L300 542 L322 630 L152 630 L-5 0 L164 0 L192 109 Z " />
<glyph glyph-name="germandbls" unicode="&#xdf;" horiz-adv-x="545" d="M563 492 C563 593 490 642 375 642 C226 642 128 554 93 411 L-9 0 L153 0 L254 407 C273 482 304 526 358 526 C390 526 408 508 408 478 C408 426 373 402 333 402 C322 402 314 402 304 403 L273 280 C287 281 297 282 309 282 C347 282 370 261 370 217 C370 157 327 122 281 122 C265 122 245 125 232 129 L201 8 C220 2 247 -4 285 -4 C405 -4 522 67 522 228 C522 288 491 334 449 351 C515 364 563 417 563 492 L563 492 Z " />
<glyph glyph-name="agrave" unicode="&#xe0;" horiz-adv-x="527" d="M297 183 C286 126 242 94 201 94 C176 94 160 107 160 129 C160 159 180 173 219 178 L298 188 L297 183 Z M474 267 C505 391 423 458 305 458 C171 458 89 394 54 298 L206 288 C221 321 242 338 278 338 C317 338 330 316 321 279 L318 266 L182 252 C70 240 0 195 0 104 C0 36 46 -10 131 -10 C197 -10 250 16 280 67 C284 19 320 -10 378 -10 C418 -10 448 3 475 19 L497 105 C482 100 472 98 459 98 C442 98 434 108 440 131 L474 267 Z M388 488 L370 630 L216 630 L277 488 L388 488 Z " />
<glyph glyph-name="aacute" unicode="&#xe1;" horiz-adv-x="527" d="M297 183 C286 126 242 94 201 94 C176 94 160 107 160 129 C160 159 180 173 219 178 L298 188 L297 183 Z M474 267 C505 391 423 458 305 458 C171 458 89 394 54 298 L206 288 C221 321 242 338 278 338 C317 338 330 316 321 279 L318 266 L182 252 C70 240 0 195 0 104 C0 36 46 -10 131 -10 C197 -10 250 16 280 67 C284 19 320 -10 378 -10 C418 -10 448 3 475 19 L497 105 C482 100 472 98 459 98 C442 98 434 108 440 131 L474 267 Z M382 488 L515 630 L354 630 L264 488 L382 488 Z " />
<glyph glyph-name="acircumflex" unicode="&#xe2;" horiz-adv-x="527" d="M297 183 C286 126 242 94 201 94 C176 94 160 107 160 129 C160 159 180 173 219 178 L298 188 L297 183 Z M474 267 C505 391 423 458 305 458 C171 458 89 394 54 298 L206 288 C221 321 242 338 278 338 C317 338 330 316 321 279 L318 266 L182 252 C70 240 0 195 0 104 C0 36 46 -10 131 -10 C197 -10 250 16 280 67 C284 19 320 -10 378 -10 C418 -10 448 3 475 19 L497 105 C482 100 472 98 459 98 C442 98 434 108 440 131 L474 267 Z M278 630 L156 488 L262 488 L336 543 L382 488 L480 488 L430 630 L278 630 Z " />
<glyph glyph-name="atilde" unicode="&#xe3;" horiz-adv-x="527" d="M297 183 C286 126 242 94 201 94 C176 94 160 107 160 129 C160 159 180 173 219 178 L298 188 L297 183 Z M474 267 C505 391 423 458 305 458 C171 458 89 394 54 298 L206 288 C221 321 242 338 278 338 C317 338 330 316 321 279 L318 266 L182 252 C70 240 0 195 0 104 C0 36 46 -10 131 -10 C197 -10 250 16 280 67 C284 19 320 -10 378 -10 C418 -10 448 3 475 19 L497 105 C482 100 472 98 459 98 C442 98 434 108 440 131 L474 267 Z M255 488 C264 514 281 522 296 522 C330 522 337 485 383 485 C442 485 488 545 510 630 L425 630 C416 604 399 596 384 596 C350 596 342 633 296 633 C237 633 191 573 170 488 L255 488 Z " />
<glyph glyph-name="adieresis" unicode="&#xe4;" horiz-adv-x="527" d="M297 183 C286 126 242 94 201 94 C176 94 160 107 160 129 C160 159 180 173 219 178 L298 188 L297 183 Z M474 267 C505 391 423 458 305 458 C171 458 89 394 54 298 L206 288 C221 321 242 338 278 338 C317 338 330 316 321 279 L318 266 L182 252 C70 240 0 195 0 104 C0 36 46 -10 131 -10 C197 -10 250 16 280 67 C284 19 320 -10 378 -10 C418 -10 448 3 475 19 L497 105 C482 100 472 98 459 98 C442 98 434 108 440 131 L474 267 Z M157 488 L299 488 L335 630 L193 630 L157 488 Z M345 488 L487 488 L523 630 L381 630 L345 488 Z " />
<glyph glyph-name="aring" unicode="&#xe5;" horiz-adv-x="527" d="M297 183 C286 126 242 94 201 94 C176 94 160 107 160 129 C160 159 180 173 219 178 L298 188 L297 183 Z M474 267 C505 391 423 458 305 458 C171 458 89 394 54 298 L206 288 C221 321 242 338 278 338 C317 338 330 316 321 279 L318 266 L182 252 C70 240 0 195 0 104 C0 36 46 -10 131 -10 C197 -10 250 16 280 67 C284 19 320 -10 378 -10 C418 -10 448 3 475 19 L497 105 C482 100 472 98 459 98 C442 98 434 108 440 131 L474 267 Z M445 586 C445 637 409 671 355 671 C297 671 254 627 254 568 C254 517 290 483 344 483 C402 483 445 527 445 586 L445 586 Z M382 581 C382 559 366 543 347 543 C329 543 317 555 317 573 C317 595 333 611 352 611 C370 611 382 599 382 581 L382 581 Z " />
<glyph glyph-name="ae" unicode="&#xe6;" horiz-adv-x="791" d="M297 183 C284 126 242 94 201 94 C176 94 160 107 160 129 C160 159 182 192 245 192 L299 192 L297 183 Z M335 75 C368 19 422 -12 515 -12 C629 -12 721 45 757 147 L628 159 C609 124 574 109 530 109 C481 109 450 136 450 192 L764 192 C771 218 773 237 773 262 C773 370 709 458 575 458 C508 458 459 437 419 407 C398 435 356 458 286 458 C171 458 89 399 54 303 L206 293 C221 326 242 338 278 338 C317 338 330 316 321 279 L318 268 L238 268 C79 268 0 195 0 104 C0 31 64 -10 150 -10 C227 -10 295 16 335 75 L335 75 Z M462 268 C475 310 506 342 556 342 C606 342 622 309 621 268 L462 268 Z " />
<glyph glyph-name="ccedilla" unicode="&#xe7;" horiz-adv-x="500" d="M287 -90 C287 -46 246 -25 186 -36 L210 -11 C217 -11 224 -12 232 -12 C366 -12 451 74 476 182 L345 192 C327 137 297 110 248 110 C208 110 179 134 179 187 C179 261 218 336 287 336 C334 336 351 305 353 255 L487 264 C493 371 427 458 290 458 C137 458 17 341 17 187 C17 89 73 18 165 -4 L99 -79 L128 -90 C156 -79 194 -77 194 -103 C194 -120 172 -125 149 -125 C115 -125 90 -116 70 -103 L45 -142 C64 -160 103 -175 153 -175 C213 -175 287 -156 287 -90 L287 -90 Z " />
<glyph glyph-name="egrave" unicode="&#xe8;" horiz-adv-x="513" d="M350 159 C331 124 296 109 252 109 C203 109 172 136 172 192 L486 192 C493 218 495 237 495 262 C495 370 431 458 292 458 C137 458 18 340 18 184 C18 63 103 -12 237 -12 C351 -12 443 45 479 147 L350 159 Z M184 268 C197 310 228 342 278 342 C328 342 344 309 343 268 L184 268 Z M379 488 L361 630 L207 630 L268 488 L379 488 Z " />
<glyph glyph-name="eacute" unicode="&#xe9;" horiz-adv-x="513" d="M350 159 C331 124 296 109 252 109 C203 109 172 136 172 192 L486 192 C493 218 495 237 495 262 C495 370 431 458 292 458 C137 458 18 340 18 184 C18 63 103 -12 237 -12 C351 -12 443 45 479 147 L350 159 Z M184 268 C197 310 228 342 278 342 C328 342 344 309 343 268 L184 268 Z M373 488 L506 630 L345 630 L255 488 L373 488 Z " />
<glyph glyph-name="ecircumflex" unicode="&#xea;" horiz-adv-x="513" d="M350 159 C331 124 296 109 252 109 C203 109 172 136 172 192 L486 192 C493 218 495 237 495 262 C495 370 431 458 292 458 C137 458 18 340 18 184 C18 63 103 -12 237 -12 C351 -12 443 45 479 147 L350 159 Z M184 268 C197 310 228 342 278 342 C328 342 344 309 343 268 L184 268 Z M274 630 L152 488 L258 488 L332 543 L378 488 L476 488 L426 630 L274 630 Z " />
<glyph glyph-name="edieresis" unicode="&#xeb;" horiz-adv-x="513" d="M350 159 C331 124 296 109 252 109 C203 109 172 136 172 192 L486 192 C493 218 495 237 495 262 C495 370 431 458 292 458 C137 458 18 340 18 184 C18 63 103 -12 237 -12 C351 -12 443 45 479 147 L350 159 Z M184 268 C197 310 228 342 278 342 C328 342 344 309 343 268 L184 268 Z M150 488 L292 488 L328 630 L186 630 L150 488 Z M338 488 L480 488 L516 630 L374 630 L338 488 Z " />
<glyph glyph-name="igrave" unicode="&#xec;" horiz-adv-x="250" d="M102 446 L-9 0 L153 0 L264 446 L102 446 Z M254 488 L236 630 L82 630 L143 488 L254 488 Z " />
<glyph glyph-name="iacute" unicode="&#xed;" horiz-adv-x="250" d="M102 446 L-9 0 L153 0 L264 446 L102 446 Z M248 488 L381 630 L220 630 L130 488 L248 488 Z " />
<glyph glyph-name="icircumflex" unicode="&#xee;" horiz-adv-x="250" d="M102 446 L-9 0 L153 0 L264 446 L102 446 Z M149 630 L27 488 L133 488 L207 543 L253 488 L351 488 L301 630 L149 630 Z " />
<glyph glyph-name="idieresis" unicode="&#xef;" horiz-adv-x="250" d="M102 446 L-9 0 L153 0 L264 446 L102 446 Z M28 488 L170 488 L206 630 L64 630 L28 488 Z M216 488 L358 488 L394 630 L252 630 L216 488 Z " />
<glyph glyph-name="eth" unicode="&#xf0;" horiz-adv-x="522" d="M136 435 L277 478 C308 446 331 414 344 385 C311 413 277 422 239 422 C114 422 18 327 18 191 C18 72 103 -12 236 -12 C391 -12 504 94 504 274 C504 349 477 441 413 520 L480 541 L456 609 L357 578 C330 602 298 623 263 642 L130 592 C160 574 189 554 214 534 L112 503 L136 435 Z M245 113 C201 113 182 139 182 183 C182 237 207 313 278 313 C322 313 341 287 341 243 C341 189 316 113 245 113 L245 113 Z " />
<glyph glyph-name="ntilde" unicode="&#xf1;" horiz-adv-x="552" d="M207 219 C224 286 252 330 307 330 C356 330 370 298 355 237 L296 0 L458 0 L525 271 C549 368 511 458 397 458 C329 458 283 427 247 378 L264 446 L102 446 L-9 0 L153 0 L207 219 Z M284 488 C293 514 310 522 325 522 C359 522 366 485 412 485 C471 485 517 545 539 630 L454 630 C445 604 428 596 413 596 C379 596 371 633 325 633 C266 633 220 573 199 488 L284 488 Z " />
<glyph glyph-name="ograve" unicode="&#xf2;" horiz-adv-x="527" d="M245 110 C199 110 180 139 180 189 C180 250 210 336 282 336 C328 336 347 307 347 257 C347 196 317 110 245 110 L245 110 Z M238 -12 C395 -12 509 101 509 255 C509 376 423 458 289 458 C132 458 18 345 18 191 C18 70 104 -12 238 -12 L238 -12 Z M385 488 L367 630 L213 630 L274 488 L385 488 Z " />
<glyph glyph-name="oacute" unicode="&#xf3;" horiz-adv-x="527" d="M245 110 C199 110 180 139 180 189 C180 250 210 336 282 336 C328 336 347 307 347 257 C347 196 317 110 245 110 L245 110 Z M238 -12 C395 -12 509 101 509 255 C509 376 423 458 289 458 C132 458 18 345 18 191 C18 70 104 -12 238 -12 L238 -12 Z M379 488 L512 630 L351 630 L261 488 L379 488 Z " />
<glyph glyph-name="ocircumflex" unicode="&#xf4;" horiz-adv-x="527" d="M245 110 C199 110 180 139 180 189 C180 250 210 336 282 336 C328 336 347 307 347 257 C347 196 317 110 245 110 L245 110 Z M238 -12 C395 -12 509 101 509 255 C509 376 423 458 289 458 C132 458 18 345 18 191 C18 70 104 -12 238 -12 L238 -12 Z M279 630 L157 488 L263 488 L337 543 L383 488 L481 488 L431 630 L279 630 Z " />
<glyph glyph-name="otilde" unicode="&#xf5;" horiz-adv-x="527" d="M245 110 C199 110 180 139 180 189 C180 250 210 336 282 336 C328 336 347 307 347 257 C347 196 317 110 245 110 L245 110 Z M238 -12 C395 -12 509 101 509 255 C509 376 423 458 289 458 C132 458 18 345 18 191 C18 70 104 -12 238 -12 L238 -12 Z M256 488 C265 514 282 522 297 522 C331 522 338 485 384 485 C443 485 489 545 511 630 L426 630 C417 604 400 596 385 596 C351 596 343 633 297 633 C238 633 192 573 171 488 L256 488 Z " />
<glyph glyph-name="odieresis" unicode="&#xf6;" horiz-adv-x="527" d="M245 110 C199 110 180 139 180 189 C180 250 210 336 282 336 C328 336 347 307 347 257 C347 196 317 110 245 110 L245 110 Z M238 -12 C395 -12 509 101 509 255 C509 376 423 458 289 458 C132 458 18 345 18 191 C18 70 104 -12 238 -12 L238 -12 Z M158 488 L300 488 L336 630 L194 630 L158 488 Z M346 488 L488 488 L524 630 L382 630 L346 488 Z " />
<glyph glyph-name="divide" unicode="&#xf7;" horiz-adv-x="612" d="M52 243 L579 243 L613 378 L86 378 L52 243 Z M279 442 L452 442 L493 605 L320 605 L279 442 Z M172 16 L345 16 L386 178 L213 178 L172 16 Z " />
<glyph glyph-name="oslash" unicode="&#xf8;" horiz-adv-x="527" d="M22 7 L74 -38 L123 15 C156 -2 195 -12 238 -12 C395 -12 509 101 509 255 C509 307 491 352 461 386 L509 439 L457 483 L407 429 C373 447 333 458 289 458 C132 458 18 345 18 191 C18 137 36 92 68 57 L22 7 Z M161 189 C161 262 210 338 282 338 C295 338 307 335 318 331 L165 163 C162 171 161 180 161 189 L161 189 Z M245 108 C233 108 222 110 212 113 L363 279 C365 272 366 265 366 257 C366 187 317 108 245 108 L245 108 Z " />
<glyph glyph-name="ugrave" unicode="&#xf9;" horiz-adv-x="540" d="M337 223 C320 156 292 112 237 112 C188 112 180 144 195 205 L255 446 L93 446 L26 175 C2 78 37 -12 148 -12 C216 -12 264 17 298 68 L281 0 L443 0 L554 446 L392 446 L337 223 Z M394 488 L376 630 L222 630 L283 488 L394 488 Z " />
<glyph glyph-name="uacute" unicode="&#xfa;" horiz-adv-x="540" d="M337 223 C320 156 292 112 237 112 C188 112 180 144 195 205 L255 446 L93 446 L26 175 C2 78 37 -12 148 -12 C216 -12 264 17 298 68 L281 0 L443 0 L554 446 L392 446 L337 223 Z M388 488 L521 630 L360 630 L270 488 L388 488 Z " />
<glyph glyph-name="ucircumflex" unicode="&#xfb;" horiz-adv-x="540" d="M337 223 C320 156 292 112 237 112 C188 112 180 144 195 205 L255 446 L93 446 L26 175 C2 78 37 -12 148 -12 C216 -12 264 17 298 68 L281 0 L443 0 L554 446 L392 446 L337 223 Z M289 630 L167 488 L273 488 L347 543 L393 488 L491 488 L441 630 L289 630 Z " />
<glyph glyph-name="udieresis" unicode="&#xfc;" horiz-adv-x="540" d="M337 223 C320 156 292 112 237 112 C188 112 180 144 195 205 L255 446 L93 446 L26 175 C2 78 37 -12 148 -12 C216 -12 264 17 298 68 L281 0 L443 0 L554 446 L392 446 L337 223 Z M168 488 L310 488 L346 630 L204 630 L168 488 Z M356 488 L498 488 L534 630 L392 630 L356 488 Z " />
<glyph glyph-name="yacute" unicode="&#xfd;" horiz-adv-x="529" d="M181 -160 L589 446 L416 446 L252 178 L248 178 L210 446 L54 446 L127 3 L20 -160 L181 -160 Z M383 488 L516 630 L355 630 L265 488 L383 488 Z " />
<glyph glyph-name="thorn" unicode="&#xfe;" horiz-adv-x="574" d="M212 242 C226 295 261 333 314 333 C361 333 386 306 386 256 C386 174 340 110 273 110 C218 110 187 160 207 226 L212 242 Z M170 70 C187 19 239 -12 309 -12 C460 -12 556 126 556 281 C556 385 502 458 394 458 C329 458 278 426 245 373 L310 630 L148 630 L-49 -160 L113 -160 L170 70 Z " />
<glyph glyph-name="ydieresis" unicode="&#xff;" horiz-adv-x="529" d="M181 -160 L589 446 L416 446 L252 178 L248 178 L210 446 L54 446 L127 3 L20 -160 L181 -160 Z M162 488 L304 488 L340 630 L198 630 L162 488 Z M350 488 L492 488 L528 630 L386 630 L350 488 Z " />
<glyph glyph-name="Amacron" unicode="&#x100;" horiz-adv-x="692" d="M352 630 L-53 0 L125 0 L201 122 L448 122 L465 0 L639 0 L542 630 L352 630 Z M315 672 L600 672 L627 780 L342 780 L315 672 Z M399 440 L403 440 L430 249 L280 249 L399 440 Z " />
<glyph glyph-name="amacron" unicode="&#x101;" horiz-adv-x="527" d="M297 183 C286 126 242 94 201 94 C176 94 160 107 160 129 C160 159 180 173 219 178 L298 188 L297 183 Z M474 267 C505 391 423 458 305 458 C171 458 89 394 54 298 L206 288 C221 321 242 338 278 338 C317 338 330 316 321 279 L318 266 L182 252 C70 240 0 195 0 104 C0 36 46 -10 131 -10 C197 -10 250 16 280 67 C284 19 320 -10 378 -10 C418 -10 448 3 475 19 L497 105 C482 100 472 98 459 98 C442 98 434 108 440 131 L474 267 Z M185 492 L460 492 L491 600 L216 600 L185 492 Z " />
<glyph glyph-name="Abreve" unicode="&#x102;" horiz-adv-x="692" d="M352 630 L-53 0 L125 0 L201 122 L448 122 L465 0 L639 0 L542 630 L352 630 Z M454 668 C543 668 609 721 632 810 L539 810 C531 778 505 764 476 764 C452 764 435 774 435 796 C435 800 436 805 437 810 L348 810 C344 795 342 781 342 769 C342 705 388 668 454 668 L454 668 Z M399 440 L403 440 L430 249 L280 249 L399 440 Z " />
<glyph glyph-name="abreve" unicode="&#x103;" horiz-adv-x="527" d="M297 183 C286 126 242 94 201 94 C176 94 160 107 160 129 C160 159 180 173 219 178 L298 188 L297 183 Z M474 267 C505 391 423 458 305 458 C171 458 89 394 54 298 L206 288 C221 321 242 338 278 338 C317 338 330 316 321 279 L318 266 L182 252 C70 240 0 195 0 104 C0 36 46 -10 131 -10 C197 -10 250 16 280 67 C284 19 320 -10 378 -10 C418 -10 448 3 475 19 L497 105 C482 100 472 98 459 98 C442 98 434 108 440 131 L474 267 Z M325 488 C414 488 480 541 503 630 L410 630 C402 598 376 584 347 584 C323 584 306 594 306 616 C306 620 307 625 308 630 L219 630 C215 615 213 601 213 589 C213 525 259 488 325 488 L325 488 Z " />
<glyph glyph-name="Aogonek" unicode="&#x104;" horiz-adv-x="692" d="M352 630 L-53 0 L125 0 L201 122 L448 122 L465 0 L516 0 C470 -29 432 -64 432 -109 C432 -146 457 -175 509 -175 C551 -175 576 -162 596 -151 L614 -79 C597 -86 583 -91 567 -91 C551 -91 546 -82 546 -72 C546 -44 571 -30 639 0 L542 630 L352 630 Z M399 440 L403 440 L430 249 L280 249 L399 440 Z " />
<glyph glyph-name="aogonek" unicode="&#x105;" horiz-adv-x="527" d="M474 267 C505 391 423 458 305 458 C171 458 89 394 54 298 L206 288 C221 321 242 338 278 338 C317 338 330 316 321 279 L318 266 L182 252 C70 240 0 195 0 104 C0 36 46 -10 131 -10 C197 -10 250 16 280 67 C283 30 305 4 342 -5 C299 -34 266 -67 266 -109 C266 -146 291 -175 343 -175 C385 -175 410 -162 430 -151 L448 -79 C431 -86 417 -91 401 -91 C385 -91 379 -83 380 -68 C381 -41 406 -21 475 19 L497 105 C482 100 472 98 459 98 C442 98 434 108 440 131 L474 267 Z M297 183 C286 126 242 94 201 94 C176 94 160 107 160 129 C160 159 180 173 219 178 L298 188 L297 183 Z " />
<glyph glyph-name="Cacute" unicode="&#x106;" horiz-adv-x="672" d="M45 265 C45 98 161 -12 329 -12 C522 -12 640 110 672 267 L512 274 C494 204 446 139 348 139 C267 139 220 192 220 277 C220 383 282 491 394 491 C492 491 522 426 523 356 L681 362 C689 517 605 642 415 642 C198 642 45 477 45 265 L45 265 Z M489 668 L621 810 L460 810 L371 668 L489 668 Z " />
<glyph glyph-name="cacute" unicode="&#x107;" horiz-adv-x="500" d="M17 187 C17 68 102 -12 232 -12 C366 -12 451 74 476 182 L345 192 C327 137 297 110 248 110 C208 110 179 134 179 187 C179 261 218 336 287 336 C334 336 351 305 353 255 L487 264 C493 371 427 458 290 458 C137 458 17 341 17 187 L17 187 Z M363 488 L496 630 L335 630 L245 488 L363 488 Z " />
<glyph glyph-name="Ccircumflex" unicode="&#x108;" horiz-adv-x="672" d="M45 265 C45 98 161 -12 329 -12 C522 -12 640 110 672 267 L512 274 C494 204 446 139 348 139 C267 139 220 192 220 277 C220 383 282 491 394 491 C492 491 522 426 523 356 L681 362 C689 517 605 642 415 642 C198 642 45 477 45 265 L45 265 Z M387 810 L266 668 L372 668 L446 723 L492 668 L590 668 L539 810 L387 810 Z " />
<glyph glyph-name="ccircumflex" unicode="&#x109;" horiz-adv-x="500" d="M17 187 C17 68 102 -12 232 -12 C366 -12 451 74 476 182 L345 192 C327 137 297 110 248 110 C208 110 179 134 179 187 C179 261 218 336 287 336 C334 336 351 305 353 255 L487 264 C493 371 427 458 290 458 C137 458 17 341 17 187 L17 187 Z M264 630 L142 488 L248 488 L322 543 L368 488 L466 488 L416 630 L264 630 Z " />
<glyph glyph-name="Cdotaccent" unicode="&#x10a;" horiz-adv-x="672" d="M45 265 C45 98 161 -12 329 -12 C522 -12 640 110 672 267 L512 274 C494 204 446 139 348 139 C267 139 220 192 220 277 C220 383 282 491 394 491 C492 491 522 426 523 356 L681 362 C689 517 605 642 415 642 C198 642 45 477 45 265 L45 265 Z M360 668 L524 668 L559 810 L395 810 L360 668 Z " />
<glyph glyph-name="cdotaccent" unicode="&#x10b;" horiz-adv-x="500" d="M17 187 C17 68 102 -12 232 -12 C366 -12 451 74 476 182 L345 192 C327 137 297 110 248 110 C208 110 179 134 179 187 C179 261 218 336 287 336 C334 336 351 305 353 255 L487 264 C493 371 427 458 290 458 C137 458 17 341 17 187 L17 187 Z M226 488 L390 488 L426 630 L262 630 L226 488 Z " />
<glyph glyph-name="Ccaron" unicode="&#x10c;" horiz-adv-x="672" d="M45 265 C45 98 161 -12 329 -12 C522 -12 640 110 672 267 L512 274 C494 204 446 139 348 139 C267 139 220 192 220 277 C220 383 282 491 394 491 C492 491 522 426 523 356 L681 362 C689 517 605 642 415 642 C198 642 45 477 45 265 L45 265 Z M510 668 L631 810 L525 810 L452 755 L405 810 L307 810 L358 668 L510 668 Z " />
<glyph glyph-name="ccaron" unicode="&#x10d;" horiz-adv-x="500" d="M17 187 C17 68 102 -12 232 -12 C366 -12 451 74 476 182 L345 192 C327 137 297 110 248 110 C208 110 179 134 179 187 C179 261 218 336 287 336 C334 336 351 305 353 255 L487 264 C493 371 427 458 290 458 C137 458 17 341 17 187 L17 187 Z M386 488 L508 630 L402 630 L328 575 L282 630 L184 630 L234 488 L386 488 Z " />
<glyph glyph-name="Dcaron" unicode="&#x10e;" horiz-adv-x="658" d="M198 134 L288 496 L343 496 C443 496 492 445 492 364 C492 215 401 134 264 134 L198 134 Z M-5 0 L252 0 C493 0 664 138 664 364 C664 540 538 630 377 630 L152 630 L-5 0 Z M478 668 L599 810 L493 810 L420 755 L373 810 L275 810 L326 668 L478 668 Z " />
<glyph glyph-name="dcaron" unicode="&#x10f;" horiz-adv-x="569" d="M362 204 C348 151 313 113 260 113 C213 113 188 140 188 190 C188 272 234 336 301 336 C356 336 387 286 367 220 L362 204 Z M404 376 C387 427 335 458 265 458 C114 458 18 320 18 165 C18 61 72 -12 180 -12 C245 -12 296 20 329 73 L310 0 L472 0 L629 630 L467 630 L404 376 Z M724 481 L828 630 L673 630 L622 481 L724 481 Z " />
<glyph glyph-name="Dcroat" unicode="&#x110;" horiz-adv-x="683" d="M22 249 L82 249 L20 0 L277 0 C518 0 689 138 689 364 C689 540 563 630 402 630 L177 630 L116 387 L56 387 L22 249 Z M223 134 L251 249 L382 249 L416 387 L286 387 L313 496 L368 496 C468 496 517 445 517 364 C517 215 426 134 289 134 L223 134 Z " />
<glyph glyph-name="dcroat" unicode="&#x111;" horiz-adv-x="569" d="M304 468 L426 468 L400 361 C383 410 335 440 265 440 C114 440 18 307 18 158 C18 58 72 -12 180 -12 C245 -12 296 19 329 70 L310 0 L472 0 L588 468 L644 468 L668 567 L613 567 L629 630 L467 630 L451 567 L328 567 L304 468 Z M362 197 C348 147 313 110 260 110 C213 110 188 136 188 183 C188 262 234 323 301 323 C356 323 388 273 367 212 L362 197 Z " />
<glyph glyph-name="Emacron" unicode="&#x112;" horiz-adv-x="572" d="M525 140 L196 140 L224 249 L471 249 L505 387 L258 387 L284 490 L604 490 L639 630 L152 630 L-5 0 L491 0 L525 140 Z M263 672 L548 672 L575 780 L290 780 L263 672 Z " />
<glyph glyph-name="emacron" unicode="&#x113;" horiz-adv-x="513" d="M350 159 C331 124 296 109 252 109 C203 109 172 136 172 192 L486 192 C493 218 495 237 495 262 C495 370 431 458 292 458 C137 458 18 340 18 184 C18 63 103 -12 237 -12 C351 -12 443 45 479 147 L350 159 Z M184 268 C197 310 228 342 278 342 C328 342 344 309 343 268 L184 268 Z M180 492 L455 492 L486 600 L211 600 L180 492 Z " />
<glyph glyph-name="Ebreve" unicode="&#x114;" horiz-adv-x="572" d="M525 140 L196 140 L224 249 L471 249 L505 387 L258 387 L284 490 L604 490 L639 630 L152 630 L-5 0 L491 0 L525 140 Z M402 668 C491 668 557 721 580 810 L487 810 C479 778 453 764 424 764 C400 764 383 774 383 796 C383 800 384 805 385 810 L296 810 C292 795 290 781 290 769 C290 705 336 668 402 668 L402 668 Z " />
<glyph glyph-name="ebreve" unicode="&#x115;" horiz-adv-x="513" d="M350 159 C331 124 296 109 252 109 C203 109 172 136 172 192 L486 192 C493 218 495 237 495 262 C495 370 431 458 292 458 C137 458 18 340 18 184 C18 63 103 -12 237 -12 C351 -12 443 45 479 147 L350 159 Z M184 268 C197 310 228 342 278 342 C328 342 344 309 343 268 L184 268 Z M317 488 C406 488 472 541 495 630 L402 630 C394 598 368 584 339 584 C315 584 298 594 298 616 C298 620 299 625 300 630 L211 630 C207 615 205 601 205 589 C205 525 251 488 317 488 L317 488 Z " />
<glyph glyph-name="Edotaccent" unicode="&#x116;" horiz-adv-x="572" d="M525 140 L196 140 L224 249 L471 249 L505 387 L258 387 L284 490 L604 490 L639 630 L152 630 L-5 0 L491 0 L525 140 Z M324 668 L488 668 L523 810 L359 810 L324 668 Z " />
<glyph glyph-name="edotaccent" unicode="&#x117;" horiz-adv-x="513" d="M350 159 C331 124 296 109 252 109 C203 109 172 136 172 192 L486 192 C493 218 495 237 495 262 C495 370 431 458 292 458 C137 458 18 340 18 184 C18 63 103 -12 237 -12 C351 -12 443 45 479 147 L350 159 Z M184 268 C197 310 228 342 278 342 C328 342 344 309 343 268 L184 268 Z M236 488 L400 488 L436 630 L272 630 L236 488 Z " />
<glyph glyph-name="Eogonek" unicode="&#x118;" horiz-adv-x="572" d="M525 140 L196 140 L224 249 L471 249 L505 387 L258 387 L284 490 L604 490 L639 630 L152 630 L-5 0 L347 0 C301 -29 263 -64 263 -109 C263 -146 288 -175 340 -175 C382 -175 407 -162 427 -151 L445 -79 C428 -86 414 -91 398 -91 C382 -91 377 -82 377 -73 C377 -44 401 -30 443 0 L491 0 L525 140 Z " />
<glyph glyph-name="eogonek" unicode="&#x119;" horiz-adv-x="513" d="M350 159 C331 124 296 109 252 109 C203 109 172 136 172 192 L486 192 C493 218 495 237 495 262 C495 370 431 458 292 458 C137 458 18 340 18 184 C18 63 103 -12 237 -12 L245 -12 C207 -39 182 -70 182 -109 C182 -146 207 -175 259 -175 C301 -175 326 -162 346 -151 L364 -79 C347 -86 333 -91 317 -91 C301 -91 296 -83 296 -68 C296 -41 323 -12 375 22 C421 52 459 91 479 147 L350 159 Z M184 268 C197 310 228 342 278 342 C328 342 344 309 343 268 L184 268 Z " />
<glyph glyph-name="Ecaron" unicode="&#x11a;" horiz-adv-x="572" d="M525 140 L196 140 L224 249 L471 249 L505 387 L258 387 L284 490 L604 490 L639 630 L152 630 L-5 0 L491 0 L525 140 Z M483 668 L604 810 L498 810 L425 755 L378 810 L280 810 L331 668 L483 668 Z " />
<glyph glyph-name="ecaron" unicode="&#x11b;" horiz-adv-x="513" d="M350 159 C331 124 296 109 252 109 C203 109 172 136 172 192 L486 192 C493 218 495 237 495 262 C495 370 431 458 292 458 C137 458 18 340 18 184 C18 63 103 -12 237 -12 C351 -12 443 45 479 147 L350 159 Z M184 268 C197 310 228 342 278 342 C328 342 344 309 343 268 L184 268 Z M396 488 L518 630 L412 630 L338 575 L292 630 L194 630 L244 488 L396 488 Z " />
<glyph glyph-name="Gcircumflex" unicode="&#x11c;" horiz-adv-x="705" d="M686 383 C682 526 599 642 415 642 C198 642 45 479 45 261 C45 100 149 -12 308 -12 C384 -12 441 11 484 66 L468 0 L609 0 L690 327 L391 327 L360 205 L499 205 C461 155 411 134 348 134 C269 134 220 184 220 274 C220 385 282 491 394 491 C482 491 517 438 522 376 L686 383 Z M388 810 L267 668 L373 668 L447 723 L493 668 L591 668 L540 810 L388 810 Z " />
<glyph glyph-name="gcircumflex" unicode="&#x11d;" horiz-adv-x="563" d="M357 217 C346 166 308 134 255 134 C213 134 185 159 185 210 C185 283 226 339 289 339 C346 339 375 298 361 235 L357 217 Z M319 56 C301 -20 260 -50 204 -50 C171 -50 138 -36 135 4 L-22 -3 C-20 -111 78 -172 197 -172 C347 -172 443 -97 479 49 L578 446 L416 446 L398 377 C381 425 330 458 260 458 C104 458 17 328 17 198 C17 86 88 25 190 25 C251 25 297 49 329 97 L319 56 Z M308 630 L186 488 L292 488 L366 543 L412 488 L510 488 L460 630 L308 630 Z " />
<glyph glyph-name="Gbreve" unicode="&#x11e;" horiz-adv-x="705" d="M686 383 C682 526 599 642 415 642 C198 642 45 479 45 261 C45 100 149 -12 308 -12 C384 -12 441 11 484 66 L468 0 L609 0 L690 327 L391 327 L360 205 L499 205 C461 155 411 134 348 134 C269 134 220 184 220 274 C220 385 282 491 394 491 C482 491 517 438 522 376 L686 383 Z M430 668 C519 668 585 721 608 810 L515 810 C507 778 481 764 452 764 C428 764 411 774 411 796 C411 800 412 805 413 810 L324 810 C320 795 318 781 318 769 C318 705 364 668 430 668 L430 668 Z " />
<glyph glyph-name="gbreve" unicode="&#x11f;" horiz-adv-x="563" d="M357 217 C346 166 308 134 255 134 C213 134 185 159 185 210 C185 283 226 339 289 339 C346 339 375 298 361 235 L357 217 Z M319 56 C301 -20 260 -50 204 -50 C171 -50 138 -36 135 4 L-22 -3 C-20 -111 78 -172 197 -172 C347 -172 443 -97 479 49 L578 446 L416 446 L398 377 C381 425 330 458 260 458 C104 458 17 328 17 198 C17 86 88 25 190 25 C251 25 297 49 329 97 L319 56 Z M351 488 C440 488 506 541 529 630 L436 630 C428 598 402 584 373 584 C349 584 332 594 332 616 C332 620 333 625 334 630 L245 630 C241 615 239 601 239 589 C239 525 285 488 351 488 L351 488 Z " />
<glyph glyph-name="Gdotaccent" unicode="&#x120;" horiz-adv-x="705" d="M686 383 C682 526 599 642 415 642 C198 642 45 479 45 261 C45 100 149 -12 308 -12 C384 -12 441 11 484 66 L468 0 L609 0 L690 327 L391 327 L360 205 L499 205 C461 155 411 134 348 134 C269 134 220 184 220 274 C220 385 282 491 394 491 C482 491 517 438 522 376 L686 383 Z M362 668 L526 668 L561 810 L397 810 L362 668 Z " />
<glyph glyph-name="gdotaccent" unicode="&#x121;" horiz-adv-x="563" d="M357 217 C346 166 308 134 255 134 C213 134 185 159 185 210 C185 283 226 339 289 339 C346 339 375 298 361 235 L357 217 Z M319 56 C301 -20 260 -50 204 -50 C171 -50 138 -36 135 4 L-22 -3 C-20 -111 78 -172 197 -172 C347 -172 443 -97 479 49 L578 446 L416 446 L398 377 C381 425 330 458 260 458 C104 458 17 328 17 198 C17 86 88 25 190 25 C251 25 297 49 329 97 L319 56 Z M270 488 L434 488 L470 630 L306 630 L270 488 Z " />
<glyph glyph-name="Gcommaaccent" unicode="&#x122;" horiz-adv-x="705" d="M686 383 C682 526 599 642 415 642 C198 642 45 479 45 261 C45 100 149 -12 308 -12 C384 -12 441 11 484 66 L468 0 L609 0 L690 327 L391 327 L360 205 L499 205 C461 155 411 134 348 134 C269 134 220 184 220 274 C220 385 282 491 394 491 C482 491 517 438 522 376 L686 383 Z M222 -133 L277 -133 C270 -159 251 -165 214 -165 L201 -218 C293 -218 351 -187 371 -107 L389 -34 L247 -34 L222 -133 Z " />
<glyph glyph-name="gcommaaccent" unicode="&#x123;" horiz-adv-x="563" d="M357 217 C346 166 308 134 255 134 C213 134 185 159 185 210 C185 283 226 339 289 339 C346 339 375 298 361 235 L357 217 Z M319 56 C301 -20 260 -50 204 -50 C171 -50 138 -36 135 4 L-22 -3 C-20 -111 78 -172 197 -172 C347 -172 443 -97 479 49 L578 446 L416 446 L398 377 C381 425 330 458 260 458 C104 458 17 328 17 198 C17 86 88 25 190 25 C251 25 297 49 329 97 L319 56 Z M448 587 L393 587 C400 613 419 619 456 619 L469 672 C377 672 319 641 299 561 L281 488 L423 488 L448 587 Z " />
<glyph glyph-name="Hcircumflex" unicode="&#x124;" horiz-adv-x="687" d="M165 0 L227 249 L478 249 L416 0 L586 0 L743 630 L573 630 L512 387 L261 387 L322 630 L152 630 L-5 0 L165 0 Z M412 810 L291 668 L397 668 L471 723 L517 668 L615 668 L564 810 L412 810 Z " />
<glyph glyph-name="hcircumflex" unicode="&#x125;" horiz-adv-x="552" d="M207 219 C224 286 252 330 307 330 C356 330 370 298 355 237 L296 0 L458 0 L525 271 C549 368 511 458 397 458 C329 458 283 427 247 378 L310 630 L148 630 L-9 0 L153 0 L207 219 Z M337 810 L216 668 L322 668 L396 723 L442 668 L540 668 L489 810 L337 810 Z " />
<glyph glyph-name="Hbar" unicode="&#x126;" horiz-adv-x="738" d="M59 403 L120 403 L20 0 L190 0 L240 199 L491 199 L441 0 L611 0 L711 403 L774 403 L808 541 L746 541 L768 630 L598 630 L576 541 L325 541 L347 630 L177 630 L155 541 L93 541 L59 403 Z M274 337 L290 403 L541 403 L525 337 L274 337 Z " />
<glyph glyph-name="hbar" unicode="&#x127;" horiz-adv-x="552" d="M52 468 L107 468 L-9 0 L153 0 L203 202 C220 269 248 313 303 313 C352 313 366 281 351 220 L296 0 L458 0 L521 254 C545 351 507 441 393 441 C325 441 279 410 243 361 L269 468 L392 468 L416 567 L294 567 L310 630 L148 630 L132 567 L76 567 L52 468 Z " />
<glyph glyph-name="Itilde" unicode="&#x128;" horiz-adv-x="266" d="M179 668 C188 694 205 702 220 702 C254 702 261 665 307 665 C366 665 412 725 434 810 L349 810 C340 784 323 776 308 776 C274 776 266 813 220 813 C161 813 115 753 94 668 L179 668 Z M152 630 L-5 0 L165 0 L322 630 L152 630 Z " />
<glyph glyph-name="itilde" unicode="&#x129;" horiz-adv-x="250" d="M126 488 C135 514 152 522 167 522 C201 522 200 485 246 485 C305 485 351 545 373 630 L288 630 C279 604 262 596 247 596 C213 596 213 633 167 633 C108 633 62 573 41 488 L126 488 Z M102 446 L-9 0 L153 0 L264 446 L102 446 Z " />
<glyph glyph-name="Imacron" unicode="&#x12a;" horiz-adv-x="266" d="M104 672 L389 672 L416 780 L131 780 L104 672 Z M152 630 L-5 0 L165 0 L322 630 L152 630 Z " />
<glyph glyph-name="imacron" unicode="&#x12b;" horiz-adv-x="250" d="M65 492 L320 492 L351 600 L96 600 L65 492 Z M102 446 L-9 0 L153 0 L264 446 L102 446 Z " />
<glyph glyph-name="Ibreve" unicode="&#x12c;" horiz-adv-x="266" d="M152 630 L-5 0 L165 0 L322 630 L152 630 Z M243 668 C332 668 398 721 421 810 L328 810 C320 778 294 764 265 764 C241 764 224 774 224 796 C224 800 225 805 226 810 L137 810 C133 795 131 781 131 769 C131 705 177 668 243 668 L243 668 Z " />
<glyph glyph-name="ibreve" unicode="&#x12d;" horiz-adv-x="250" d="M102 446 L-9 0 L153 0 L264 446 L102 446 Z M192 488 C281 488 347 541 370 630 L277 630 C269 598 243 584 214 584 C190 584 173 594 173 616 C173 620 174 625 175 630 L86 630 C82 615 80 601 80 589 C80 525 126 488 192 488 L192 488 Z " />
<glyph glyph-name="Iogonek" unicode="&#x12e;" horiz-adv-x="266" d="M152 630 L-5 0 L47 0 C1 -29 -37 -64 -37 -109 C-37 -146 -12 -175 40 -175 C82 -175 107 -162 127 -151 L145 -79 C128 -86 114 -91 98 -91 C82 -91 77 -83 77 -72 C77 -43 102 -30 165 0 L322 630 L152 630 Z " />
<glyph glyph-name="iogonek" unicode="&#x12f;" horiz-adv-x="250" d="M102 446 L-9 0 L40 0 C-6 -29 -44 -64 -44 -109 C-44 -146 -19 -175 33 -175 C75 -175 100 -162 120 -151 L138 -79 C121 -86 107 -91 91 -91 C75 -91 70 -82 70 -73 C70 -44 94 -30 153 0 L264 446 L102 446 Z M111 488 L275 488 L311 630 L147 630 L111 488 Z " />
<glyph glyph-name="Idotaccent" unicode="&#x130;" horiz-adv-x="266" d="M152 630 L-5 0 L165 0 L322 630 L152 630 Z M165 668 L329 668 L364 810 L200 810 L165 668 Z " />
<glyph glyph-name="dotlessi" unicode="&#x131;" horiz-adv-x="250" d="M102 446 L-9 0 L153 0 L264 446 L102 446 Z " />
<glyph glyph-name="IJ" unicode="&#x132;" horiz-adv-x="819" d="M152 630 L-5 0 L165 0 L322 630 L152 630 Z M714 630 L617 244 C598 167 567 132 505 132 C440 132 424 180 439 267 L274 261 C238 97 326 -12 488 -12 C641 -12 741 60 784 229 L884 630 L714 630 Z " />
<glyph glyph-name="ij" unicode="&#x133;" horiz-adv-x="500" d="M102 446 L-9 0 L153 0 L264 446 L102 446 Z M111 488 L275 488 L311 630 L147 630 L111 488 Z M514 446 L352 446 L239 -7 C229 -45 211 -61 183 -61 C162 -61 146 -53 126 -39 L79 -131 C104 -154 157 -172 208 -172 C314 -172 371 -125 399 -15 L514 446 Z M361 488 L525 488 L561 630 L397 630 L361 488 Z " />
<glyph glyph-name="Jcircumflex" unicode="&#x134;" horiz-adv-x="563" d="M458 630 L361 244 C342 167 311 132 249 132 C184 132 168 180 183 267 L18 261 C-18 97 70 -12 232 -12 C385 -12 485 60 528 229 L628 630 L458 630 Z M502 810 L381 668 L487 668 L561 723 L607 668 L705 668 L654 810 L502 810 Z " />
<glyph glyph-name="jcircumflex" unicode="&#x135;" horiz-adv-x="250" d="M264 446 L102 446 L-11 -7 C-21 -45 -39 -61 -67 -61 C-88 -61 -104 -53 -124 -39 L-171 -131 C-146 -154 -93 -172 -42 -172 C64 -172 121 -125 149 -15 L264 446 Z M142 630 L20 488 L126 488 L200 543 L246 488 L344 488 L294 630 L142 630 Z " />
<glyph glyph-name="Kcommaaccent" unicode="&#x136;" horiz-adv-x="641" d="M598 0 L422 347 L743 630 L538 630 L259 383 L322 630 L152 630 L-5 0 L165 0 L212 191 L284 252 L409 0 L598 0 Z M172 -133 L227 -133 C220 -159 201 -165 164 -165 L151 -218 C243 -218 301 -187 321 -107 L339 -34 L197 -34 L172 -133 Z " />
<glyph glyph-name="kcommaaccent" unicode="&#x137;" horiz-adv-x="543" d="M188 141 L241 185 L326 0 L498 0 L372 265 L602 446 L401 446 L227 300 L310 630 L148 630 L-9 0 L153 0 L188 141 Z M127 -133 L182 -133 C175 -159 156 -165 119 -165 L106 -218 C198 -218 256 -187 276 -107 L294 -34 L152 -34 L127 -133 Z " />
<glyph glyph-name="kgreenlandic" unicode="&#x138;" horiz-adv-x="543" d="M188 141 L241 185 L326 0 L498 0 L372 265 L602 446 L401 446 L227 300 L264 446 L102 446 L-9 0 L153 0 L188 141 Z " />
<glyph glyph-name="Lacute" unicode="&#x139;" horiz-adv-x="555" d="M152 630 L-5 0 L477 0 L511 140 L199 140 L322 630 L152 630 Z M300 668 L432 810 L271 810 L182 668 L300 668 Z " />
<glyph glyph-name="lacute" unicode="&#x13a;" horiz-adv-x="250" d="M148 630 L-9 0 L153 0 L310 630 L148 630 Z M295 668 L427 810 L266 810 L177 668 L295 668 Z " />
<glyph glyph-name="Lcommaaccent" unicode="&#x13b;" horiz-adv-x="555" d="M152 630 L-5 0 L477 0 L511 140 L199 140 L322 630 L152 630 Z M138 -133 L193 -133 C186 -159 167 -165 130 -165 L117 -218 C209 -218 267 -187 287 -107 L305 -34 L163 -34 L138 -133 Z " />
<glyph glyph-name="lcommaaccent" unicode="&#x13c;" horiz-adv-x="250" d="M148 630 L-9 0 L153 0 L310 630 L148 630 Z M-33 -133 L22 -133 C15 -159 -4 -165 -41 -165 L-54 -218 C38 -218 96 -187 116 -107 L134 -34 L-8 -34 L-33 -133 Z " />
<glyph glyph-name="Lcaron" unicode="&#x13d;" horiz-adv-x="555" d="M152 630 L-5 0 L477 0 L511 140 L199 140 L322 630 L152 630 Z M452 481 L556 630 L401 630 L350 481 L452 481 Z " />
<glyph glyph-name="lcaron" unicode="&#x13e;" horiz-adv-x="250" d="M148 630 L-9 0 L153 0 L310 630 L148 630 Z M406 481 L510 630 L355 630 L304 481 L406 481 Z " />
<glyph glyph-name="Ldot" unicode="&#x13f;" horiz-adv-x="555" d="M152 630 L-5 0 L477 0 L511 140 L199 140 L322 630 L152 630 Z M347 288 L511 288 L547 430 L383 430 L347 288 Z " />
<glyph glyph-name="ldot" unicode="&#x140;" horiz-adv-x="429" d="M148 630 L-9 0 L153 0 L310 630 L148 630 Z M264 244 L428 244 L464 386 L300 386 L264 244 Z " />
<glyph glyph-name="Lslash" unicode="&#x141;" horiz-adv-x="580" d="M177 630 L108 353 L43 335 L10 201 L74 219 L20 0 L502 0 L536 140 L224 140 L255 265 L412 309 L445 443 L289 400 L347 630 L177 630 Z " />
<glyph glyph-name="lslash" unicode="&#x142;" horiz-adv-x="309" d="M174 630 L105 354 L21 320 L-8 203 L76 238 L17 0 L179 0 L253 297 L339 332 L368 449 L282 413 L336 630 L174 630 Z " />
<glyph glyph-name="Nacute" unicode="&#x143;" horiz-adv-x="660" d="M314 630 L152 630 L-5 0 L151 0 L247 389 L423 0 L559 0 L716 630 L560 630 L469 265 L314 630 Z M506 668 L638 810 L477 810 L388 668 L506 668 Z " />
<glyph glyph-name="nacute" unicode="&#x144;" horiz-adv-x="552" d="M207 219 C224 286 252 330 307 330 C356 330 370 298 355 237 L296 0 L458 0 L525 271 C549 368 511 458 397 458 C329 458 283 427 247 378 L264 446 L102 446 L-9 0 L153 0 L207 219 Z M406 488 L539 630 L378 630 L288 488 L406 488 Z " />
<glyph glyph-name="Ncommaaccent" unicode="&#x145;" horiz-adv-x="660" d="M314 630 L152 630 L-5 0 L151 0 L247 389 L423 0 L559 0 L716 630 L560 630 L469 265 L314 630 Z M178 -133 L233 -133 C226 -159 207 -165 170 -165 L157 -218 C249 -218 307 -187 327 -107 L345 -34 L203 -34 L178 -133 Z " />
<glyph glyph-name="ncommaaccent" unicode="&#x146;" horiz-adv-x="552" d="M207 219 C224 286 252 330 307 330 C356 330 370 298 355 237 L296 0 L458 0 L525 271 C549 368 511 458 397 458 C329 458 283 427 247 378 L264 446 L102 446 L-9 0 L153 0 L207 219 Z M125 -133 L180 -133 C173 -159 154 -165 117 -165 L104 -218 C196 -218 254 -187 274 -107 L292 -34 L150 -34 L125 -133 Z " />
<glyph glyph-name="Ncaron" unicode="&#x147;" horiz-adv-x="660" d="M314 630 L152 630 L-5 0 L151 0 L247 389 L423 0 L559 0 L716 630 L560 630 L469 265 L314 630 Z M527 668 L648 810 L542 810 L469 755 L422 810 L324 810 L375 668 L527 668 Z " />
<glyph glyph-name="ncaron" unicode="&#x148;" horiz-adv-x="552" d="M207 219 C224 286 252 330 307 330 C356 330 370 298 355 237 L296 0 L458 0 L525 271 C549 368 511 458 397 458 C329 458 283 427 247 378 L264 446 L102 446 L-9 0 L153 0 L207 219 Z M429 488 L551 630 L445 630 L371 575 L325 630 L227 630 L277 488 L429 488 Z " />
<glyph glyph-name="Eng" unicode="&#x14a;" horiz-adv-x="660" d="M410 28 C402 -16 385 -36 343 -36 C319 -36 296 -23 282 -6 L196 -104 C220 -139 286 -172 352 -172 C466 -172 531 -112 560 4 L716 630 L560 630 L469 265 L314 630 L152 630 L-5 0 L151 0 L247 389 L410 28 Z " />
<glyph glyph-name="eng" unicode="&#x14b;" horiz-adv-x="552" d="M294 -7 C284 -45 266 -61 238 -61 C217 -61 201 -53 181 -39 L134 -131 C159 -154 212 -172 263 -172 C369 -172 427 -125 454 -15 L525 271 C549 368 511 458 397 458 C329 458 283 427 247 378 L264 446 L102 446 L-9 0 L153 0 L207 219 C224 286 252 330 307 330 C356 330 370 298 355 237 L294 -7 Z " />
<glyph glyph-name="Omacron" unicode="&#x14c;" horiz-adv-x="694" d="M401 642 C211 642 45 487 45 270 C45 91 164 -12 344 -12 C534 -12 700 143 700 360 C700 538 581 642 401 642 L401 642 Z M348 138 C266 138 220 188 220 270 C220 401 296 492 397 492 C479 492 525 442 525 360 C525 229 449 138 348 138 L348 138 Z M294 672 L579 672 L606 780 L321 780 L294 672 Z " />
<glyph glyph-name="omacron" unicode="&#x14d;" horiz-adv-x="527" d="M245 110 C199 110 180 139 180 189 C180 250 210 336 282 336 C328 336 347 307 347 257 C347 196 317 110 245 110 L245 110 Z M238 -12 C395 -12 509 101 509 255 C509 376 423 458 289 458 C132 458 18 345 18 191 C18 70 104 -12 238 -12 L238 -12 Z M185 492 L460 492 L491 600 L216 600 L185 492 Z " />
<glyph glyph-name="Obreve" unicode="&#x14e;" horiz-adv-x="694" d="M401 642 C211 642 45 487 45 270 C45 91 164 -12 344 -12 C534 -12 700 143 700 360 C700 538 581 642 401 642 L401 642 Z M348 138 C266 138 220 188 220 270 C220 401 296 492 397 492 C479 492 525 442 525 360 C525 229 449 138 348 138 L348 138 Z M441 668 C530 668 596 721 619 810 L526 810 C518 778 492 764 463 764 C439 764 422 774 422 796 C422 800 423 805 424 810 L335 810 C331 795 329 781 329 769 C329 705 375 668 441 668 L441 668 Z " />
<glyph glyph-name="obreve" unicode="&#x14f;" horiz-adv-x="527" d="M245 110 C199 110 180 139 180 189 C180 250 210 336 282 336 C328 336 347 307 347 257 C347 196 317 110 245 110 L245 110 Z M238 -12 C395 -12 509 101 509 255 C509 376 423 458 289 458 C132 458 18 345 18 191 C18 70 104 -12 238 -12 L238 -12 Z M322 488 C411 488 477 541 500 630 L407 630 C399 598 373 584 344 584 C320 584 303 594 303 616 C303 620 304 625 305 630 L216 630 C212 615 210 601 210 589 C210 525 256 488 322 488 L322 488 Z " />
<glyph glyph-name="Ohungarumlaut" unicode="&#x150;" horiz-adv-x="694" d="M401 642 C211 642 45 487 45 270 C45 91 164 -12 344 -12 C534 -12 700 143 700 360 C700 538 581 642 401 642 L401 642 Z M348 138 C266 138 220 188 220 270 C220 401 296 492 397 492 C479 492 525 442 525 360 C525 229 449 138 348 138 L348 138 Z M392 668 L510 810 L362 810 L287 668 L392 668 Z M564 668 L682 810 L534 810 L459 668 L564 668 Z " />
<glyph glyph-name="ohungarumlaut" unicode="&#x151;" horiz-adv-x="527" d="M245 110 C199 110 180 139 180 189 C180 250 210 336 282 336 C328 336 347 307 347 257 C347 196 317 110 245 110 L245 110 Z M238 -12 C395 -12 509 101 509 255 C509 376 423 458 289 458 C132 458 18 345 18 191 C18 70 104 -12 238 -12 L238 -12 Z M264 488 L383 630 L235 630 L159 488 L264 488 Z M436 488 L555 630 L407 630 L331 488 L436 488 Z " />
<glyph glyph-name="OE" unicode="&#x152;" horiz-adv-x="966" d="M919 140 L590 140 L618 249 L865 249 L899 387 L652 387 L678 490 L998 490 L1033 630 L457 630 C216 630 45 492 45 266 C45 90 171 0 332 0 L885 0 L919 140 Z M511 496 L421 134 L366 134 C266 134 217 185 217 266 C217 415 308 496 445 496 L511 496 Z " />
<glyph glyph-name="oe" unicode="&#x153;" horiz-adv-x="823" d="M289 458 C132 458 18 345 18 191 C18 70 104 -12 238 -12 C298 -12 355 10 396 42 C433 10 484 -12 547 -12 C661 -12 753 45 789 147 L660 159 C641 124 606 109 562 109 C513 109 482 136 482 192 L796 192 C803 218 805 237 805 262 C805 370 741 458 602 458 C539 458 485 437 441 404 C403 439 351 458 289 458 L289 458 Z M245 110 C199 110 180 139 180 189 C180 250 210 336 282 336 C328 336 347 307 347 257 C347 196 317 110 245 110 L245 110 Z M494 268 C507 310 538 342 588 342 C638 342 654 309 653 268 L494 268 Z " />
<glyph glyph-name="Racute" unicode="&#x154;" horiz-adv-x="637" d="M566 0 C559 10 556 21 556 39 C556 73 571 136 571 173 C571 228 538 259 485 270 C571 277 665 344 665 458 C665 576 580 630 443 630 L152 630 L-5 0 L162 0 L214 209 L327 209 C374 209 401 198 401 152 C401 118 388 60 388 35 C388 19 390 7 394 0 L566 0 Z M246 340 L285 494 L400 494 C461 494 491 475 491 432 C491 363 436 340 361 340 L246 340 Z M465 668 L597 810 L436 810 L347 668 L465 668 Z " />
<glyph glyph-name="racute" unicode="&#x155;" horiz-adv-x="396" d="M446 441 C435 449 414 458 384 458 C324 458 275 421 243 363 L264 446 L102 446 L-9 0 L153 0 L203 204 C222 279 266 307 326 307 C357 307 380 301 398 288 L446 441 Z M334 488 L467 630 L306 630 L216 488 L334 488 Z " />
<glyph glyph-name="Rcommaaccent" unicode="&#x156;" horiz-adv-x="637" d="M566 0 C559 10 556 21 556 39 C556 73 571 136 571 173 C571 228 538 259 485 270 C571 277 665 344 665 458 C665 576 580 630 443 630 L152 630 L-5 0 L162 0 L214 209 L327 209 C374 209 401 198 401 152 C401 118 388 60 388 35 C388 19 390 7 394 0 L566 0 Z M246 340 L285 494 L400 494 C461 494 491 475 491 432 C491 363 436 340 361 340 L246 340 Z M175 -133 L230 -133 C223 -159 204 -165 167 -165 L154 -218 C246 -218 304 -187 324 -107 L342 -34 L200 -34 L175 -133 Z " />
<glyph glyph-name="rcommaaccent" unicode="&#x157;" horiz-adv-x="396" d="M446 441 C435 449 414 458 384 458 C324 458 275 421 243 363 L264 446 L102 446 L-9 0 L153 0 L203 204 C222 279 266 307 326 307 C357 307 380 301 398 288 L446 441 Z M-36 -133 L19 -133 C12 -159 -7 -165 -44 -165 L-57 -218 C35 -218 93 -187 113 -107 L131 -34 L-11 -34 L-36 -133 Z " />
<glyph glyph-name="Rcaron" unicode="&#x158;" horiz-adv-x="637" d="M566 0 C559 10 556 21 556 39 C556 73 571 136 571 173 C571 228 538 259 485 270 C571 277 665 344 665 458 C665 576 580 630 443 630 L152 630 L-5 0 L162 0 L214 209 L327 209 C374 209 401 198 401 152 C401 118 388 60 388 35 C388 19 390 7 394 0 L566 0 Z M246 340 L285 494 L400 494 C461 494 491 475 491 432 C491 363 436 340 361 340 L246 340 Z M486 668 L607 810 L501 810 L428 755 L381 810 L283 810 L334 668 L486 668 Z " />
<glyph glyph-name="rcaron" unicode="&#x159;" horiz-adv-x="396" d="M446 441 C435 449 414 458 384 458 C324 458 275 421 243 363 L264 446 L102 446 L-9 0 L153 0 L203 204 C222 279 266 307 326 307 C357 307 380 301 398 288 L446 441 Z M357 488 L479 630 L373 630 L299 575 L253 630 L155 630 L205 488 L357 488 Z " />
<glyph glyph-name="Sacute" unicode="&#x15a;" horiz-adv-x="609" d="M22 245 C7 96 111 -12 304 -12 C444 -12 576 53 576 204 C576 294 514 346 406 377 L323 401 C290 411 265 424 265 453 C265 492 298 509 345 509 C429 509 466 457 460 398 L619 392 C635 556 513 642 355 642 C194 642 87 555 87 422 C87 331 146 280 229 259 L339 231 C378 221 401 206 401 177 C401 137 364 120 311 120 C229 120 167 160 179 240 L22 245 Z M455 668 L587 810 L426 810 L337 668 L455 668 Z " />
<glyph glyph-name="sacute" unicode="&#x15b;" horiz-adv-x="461" d="M-12 153 C-5 44 78 -12 209 -12 C325 -12 425 38 425 147 C425 210 388 259 310 276 L220 296 C201 300 193 308 193 322 C193 344 215 356 241 356 C292 356 320 330 323 297 L458 304 C445 402 374 458 246 458 C141 458 45 405 45 298 C45 226 87 186 173 168 L238 155 C266 149 275 140 275 123 C275 99 247 88 215 88 C163 88 124 115 121 160 L-12 153 Z M343 488 L476 630 L315 630 L225 488 L343 488 Z " />
<glyph glyph-name="Scircumflex" unicode="&#x15c;" horiz-adv-x="609" d="M22 245 C7 96 111 -12 304 -12 C444 -12 576 53 576 204 C576 294 514 346 406 377 L323 401 C290 411 265 424 265 453 C265 492 298 509 345 509 C429 509 466 457 460 398 L619 392 C635 556 513 642 355 642 C194 642 87 555 87 422 C87 331 146 280 229 259 L339 231 C378 221 401 206 401 177 C401 137 364 120 311 120 C229 120 167 160 179 240 L22 245 Z M353 810 L232 668 L338 668 L412 723 L458 668 L556 668 L505 810 L353 810 Z " />
<glyph glyph-name="scircumflex" unicode="&#x15d;" horiz-adv-x="461" d="M-12 153 C-5 44 78 -12 209 -12 C325 -12 425 38 425 147 C425 210 388 259 310 276 L220 296 C201 300 193 308 193 322 C193 344 215 356 241 356 C292 356 320 330 323 297 L458 304 C445 402 374 458 246 458 C141 458 45 405 45 298 C45 226 87 186 173 168 L238 155 C266 149 275 140 275 123 C275 99 247 88 215 88 C163 88 124 115 121 160 L-12 153 Z M243 630 L121 488 L227 488 L301 543 L347 488 L445 488 L395 630 L243 630 Z " />
<glyph glyph-name="Scedilla" unicode="&#x15e;" horiz-adv-x="609" d="M352 -90 C352 -46 311 -25 251 -36 L275 -11 C284 -11 294 -12 304 -12 C444 -12 576 53 576 204 C576 294 514 346 406 377 L323 401 C290 411 265 424 265 453 C265 492 298 509 345 509 C429 509 466 457 460 398 L619 392 C635 556 513 642 355 642 C194 642 87 555 87 422 C87 331 146 280 229 259 L339 231 C378 221 401 206 401 177 C401 137 364 120 311 120 C229 120 167 160 179 240 L22 245 C9 116 84 18 229 -6 L164 -79 L193 -90 C221 -79 259 -77 259 -103 C259 -120 237 -125 214 -125 C180 -125 155 -116 135 -103 L110 -142 C129 -160 168 -175 218 -175 C278 -175 352 -156 352 -90 L352 -90 Z " />
<glyph glyph-name="scedilla" unicode="&#x15f;" horiz-adv-x="461" d="M266 -90 C266 -46 225 -25 165 -36 L188 -11 C195 -12 202 -12 209 -12 C325 -12 425 38 425 147 C425 210 388 259 310 276 L220 296 C201 300 193 308 193 322 C193 344 215 356 241 356 C292 356 320 330 323 297 L458 304 C445 402 374 458 246 458 C141 458 45 405 45 298 C45 226 87 186 173 168 L238 155 C266 149 275 140 275 123 C275 99 247 88 215 88 C163 88 124 115 121 160 L-12 153 C-6 64 50 10 142 -6 L78 -79 L107 -90 C135 -79 173 -77 173 -103 C173 -120 151 -125 128 -125 C94 -125 69 -116 49 -103 L24 -142 C43 -160 82 -175 132 -175 C192 -175 266 -156 266 -90 L266 -90 Z " />
<glyph glyph-name="Scaron" unicode="&#x160;" horiz-adv-x="609" d="M22 245 C7 96 111 -12 304 -12 C444 -12 576 53 576 204 C576 294 514 346 406 377 L323 401 C290 411 265 424 265 453 C265 492 298 509 345 509 C429 509 466 457 460 398 L619 392 C635 556 513 642 355 642 C194 642 87 555 87 422 C87 331 146 280 229 259 L339 231 C378 221 401 206 401 177 C401 137 364 120 311 120 C229 120 167 160 179 240 L22 245 Z M476 668 L597 810 L491 810 L418 755 L371 810 L273 810 L324 668 L476 668 Z " />
<glyph glyph-name="scaron" unicode="&#x161;" horiz-adv-x="461" d="M-12 153 C-5 44 78 -12 209 -12 C325 -12 425 38 425 147 C425 210 388 259 310 276 L220 296 C201 300 193 308 193 322 C193 344 215 356 241 356 C292 356 320 330 323 297 L458 304 C445 402 374 458 246 458 C141 458 45 405 45 298 C45 226 87 186 173 168 L238 155 C266 149 275 140 275 123 C275 99 247 88 215 88 C163 88 124 115 121 160 L-12 153 Z M366 488 L488 630 L382 630 L308 575 L262 630 L164 630 L214 488 L366 488 Z " />
<glyph glyph-name="Tcedilla" unicode="&#x162;" horiz-adv-x="654" d="M355 0 L477 490 L696 490 L731 630 L127 630 L92 490 L308 490 L186 0 L355 0 Z M167 -133 L222 -133 C215 -159 196 -165 159 -165 L146 -218 C238 -218 296 -187 316 -107 L334 -34 L192 -34 L167 -133 Z " />
<glyph glyph-name="tcedilla" unicode="&#x163;" horiz-adv-x="358" d="M43 148 C16 42 74 -12 156 -12 C217 -12 252 3 292 25 L318 127 C288 116 266 115 246 115 C213 115 199 130 208 168 L250 334 L366 334 L394 446 L278 446 L308 569 L206 569 L177 511 C156 470 136 446 89 439 L55 434 L30 334 L90 334 L43 148 Z M48 -133 L103 -133 C96 -159 77 -165 40 -165 L27 -218 C119 -218 177 -187 197 -107 L215 -34 L73 -34 L48 -133 Z " />
<glyph glyph-name="Tcaron" unicode="&#x164;" horiz-adv-x="654" d="M355 0 L477 490 L696 490 L731 630 L127 630 L92 490 L308 490 L186 0 L355 0 Z M506 668 L627 810 L521 810 L448 755 L401 810 L303 810 L354 668 L506 668 Z " />
<glyph glyph-name="tcaron" unicode="&#x165;" horiz-adv-x="358" d="M43 148 C16 42 74 -12 156 -12 C217 -12 252 3 292 25 L318 127 C288 116 266 115 246 115 C213 115 199 130 208 168 L250 334 L366 334 L394 446 L278 446 L308 569 L206 569 L177 511 C156 470 136 446 89 439 L55 434 L30 334 L90 334 L43 148 Z M423 481 L527 630 L372 630 L321 481 L423 481 Z " />
<glyph glyph-name="Tbar" unicode="&#x166;" horiz-adv-x="654" d="M135 229 L243 229 L186 0 L355 0 L412 229 L521 229 L555 367 L446 367 L477 490 L696 490 L731 630 L127 630 L92 490 L308 490 L277 367 L169 367 L135 229 Z " />
<glyph glyph-name="tbar" unicode="&#x167;" horiz-adv-x="374" d="M2 184 L58 184 L49 148 C22 42 80 -12 162 -12 C223 -12 258 3 298 25 L324 127 C294 116 272 115 252 115 C219 115 205 130 214 168 L218 184 L336 184 L360 283 L243 283 L256 334 L372 334 L400 446 L284 446 L314 569 L212 569 L183 511 C162 470 142 446 95 439 L61 434 L36 334 L96 334 L83 283 L26 283 L2 184 Z " />
<glyph glyph-name="Utilde" unicode="&#x168;" horiz-adv-x="660" d="M299 -12 C476 -12 580 66 626 250 L721 630 L551 630 L463 278 C439 182 400 131 315 131 C242 131 206 184 229 278 L317 630 L148 630 L62 286 C16 103 124 -12 299 -12 L299 -12 Z M377 668 C386 694 403 702 418 702 C452 702 459 665 505 665 C564 665 610 725 632 810 L547 810 C538 784 521 776 506 776 C472 776 464 813 418 813 C359 813 313 753 292 668 L377 668 Z " />
<glyph glyph-name="utilde" unicode="&#x169;" horiz-adv-x="540" d="M337 223 C320 156 292 112 237 112 C188 112 180 144 195 205 L255 446 L93 446 L26 175 C2 78 37 -12 148 -12 C216 -12 264 17 298 68 L281 0 L443 0 L554 446 L392 446 L337 223 Z M266 488 C275 514 292 522 307 522 C341 522 348 485 394 485 C453 485 499 545 521 630 L436 630 C427 604 410 596 395 596 C361 596 353 633 307 633 C248 633 202 573 181 488 L266 488 Z " />
<glyph glyph-name="Umacron" unicode="&#x16a;" horiz-adv-x="660" d="M299 -12 C476 -12 580 66 626 250 L721 630 L551 630 L463 278 C439 182 400 131 315 131 C242 131 206 184 229 278 L317 630 L148 630 L62 286 C16 103 124 -12 299 -12 L299 -12 Z M303 672 L588 672 L615 780 L330 780 L303 672 Z " />
<glyph glyph-name="umacron" unicode="&#x16b;" horiz-adv-x="540" d="M337 223 C320 156 292 112 237 112 C188 112 180 144 195 205 L255 446 L93 446 L26 175 C2 78 37 -12 148 -12 C216 -12 264 17 298 68 L281 0 L443 0 L554 446 L392 446 L337 223 Z M195 492 L470 492 L501 600 L226 600 L195 492 Z " />
<glyph glyph-name="Ubreve" unicode="&#x16c;" horiz-adv-x="660" d="M299 -12 C476 -12 580 66 626 250 L721 630 L551 630 L463 278 C439 182 400 131 315 131 C242 131 206 184 229 278 L317 630 L148 630 L62 286 C16 103 124 -12 299 -12 L299 -12 Z M437 668 C526 668 592 721 615 810 L522 810 C514 778 488 764 459 764 C435 764 418 774 418 796 C418 800 419 805 420 810 L331 810 C327 795 325 781 325 769 C325 705 371 668 437 668 L437 668 Z " />
<glyph glyph-name="ubreve" unicode="&#x16d;" horiz-adv-x="540" d="M337 223 C320 156 292 112 237 112 C188 112 180 144 195 205 L255 446 L93 446 L26 175 C2 78 37 -12 148 -12 C216 -12 264 17 298 68 L281 0 L443 0 L554 446 L392 446 L337 223 Z M332 488 C421 488 487 541 510 630 L417 630 C409 598 383 584 354 584 C330 584 313 594 313 616 C313 620 314 625 315 630 L226 630 C222 615 220 601 220 589 C220 525 266 488 332 488 L332 488 Z " />
<glyph glyph-name="Uring" unicode="&#x16e;" horiz-adv-x="660" d="M299 -12 C476 -12 580 66 626 250 L721 630 L551 630 L463 278 C439 182 400 131 315 131 C242 131 206 184 229 278 L317 630 L148 630 L62 286 C16 103 124 -12 299 -12 L299 -12 Z M553 766 C553 817 517 851 463 851 C405 851 362 807 362 748 C362 697 398 663 452 663 C510 663 553 707 553 766 L553 766 Z M490 761 C490 739 474 723 455 723 C437 723 425 735 425 753 C425 775 441 791 460 791 C478 791 490 779 490 761 L490 761 Z " />
<glyph glyph-name="uring" unicode="&#x16f;" horiz-adv-x="540" d="M337 223 C320 156 292 112 237 112 C188 112 180 144 195 205 L255 446 L93 446 L26 175 C2 78 37 -12 148 -12 C216 -12 264 17 298 68 L281 0 L443 0 L554 446 L392 446 L337 223 Z M451 586 C451 637 415 671 361 671 C303 671 260 627 260 568 C260 517 296 483 350 483 C408 483 451 527 451 586 L451 586 Z M388 581 C388 559 372 543 353 543 C335 543 323 555 323 573 C323 595 339 611 358 611 C376 611 388 599 388 581 L388 581 Z " />
<glyph glyph-name="Uhungarumlaut" unicode="&#x170;" horiz-adv-x="660" d="M299 -12 C476 -12 580 66 626 250 L721 630 L551 630 L463 278 C439 182 400 131 315 131 C242 131 206 184 229 278 L317 630 L148 630 L62 286 C16 103 124 -12 299 -12 L299 -12 Z M370 668 L488 810 L340 810 L265 668 L370 668 Z M542 668 L660 810 L512 810 L437 668 L542 668 Z " />
<glyph glyph-name="uhungarumlaut" unicode="&#x171;" horiz-adv-x="540" d="M337 223 C320 156 292 112 237 112 C188 112 180 144 195 205 L255 446 L93 446 L26 175 C2 78 37 -12 148 -12 C216 -12 264 17 298 68 L281 0 L443 0 L554 446 L392 446 L337 223 Z M273 488 L392 630 L244 630 L168 488 L273 488 Z M445 488 L564 630 L416 630 L340 488 L445 488 Z " />
<glyph glyph-name="Uogonek" unicode="&#x172;" horiz-adv-x="660" d="M299 -12 L308 -12 C270 -39 242 -70 242 -109 C242 -146 267 -175 319 -175 C361 -175 386 -162 406 -151 L424 -79 C407 -86 393 -91 377 -91 C361 -91 356 -82 356 -73 C356 -42 383 -28 432 7 C530 40 593 118 626 250 L721 630 L551 630 L463 278 C439 182 400 131 315 131 C242 131 206 184 229 278 L317 630 L148 630 L62 286 C16 103 124 -12 299 -12 L299 -12 Z " />
<glyph glyph-name="uogonek" unicode="&#x173;" horiz-adv-x="540" d="M337 223 C320 156 292 112 237 112 C188 112 180 144 195 205 L255 446 L93 446 L26 175 C2 78 37 -12 148 -12 C216 -12 264 17 298 68 L281 0 L327 0 C281 -29 243 -64 243 -109 C243 -146 268 -175 320 -175 C362 -175 387 -162 407 -151 L425 -79 C408 -86 394 -91 378 -91 C362 -91 357 -82 357 -73 C357 -44 381 -30 443 0 L554 446 L392 446 L337 223 Z " />
<glyph glyph-name="Wcircumflex" unicode="&#x174;" horiz-adv-x="903" d="M627 630 L474 630 L267 235 L263 235 L266 630 L100 630 L104 0 L282 0 L490 398 L494 398 L496 0 L677 0 L1003 630 L835 630 L632 235 L628 235 L627 630 Z M515 810 L394 668 L500 668 L574 723 L620 668 L718 668 L667 810 L515 810 Z " />
<glyph glyph-name="wcircumflex" unicode="&#x175;" horiz-adv-x="729" d="M486 446 L357 446 L223 193 L219 193 L208 446 L55 446 L81 0 L240 0 L368 252 L372 252 L374 0 L533 0 L789 446 L635 446 L490 193 L486 193 L486 446 Z M386 630 L264 488 L370 488 L444 543 L490 488 L588 488 L538 630 L386 630 Z " />
<glyph glyph-name="Ycircumflex" unicode="&#x176;" horiz-adv-x="649" d="M360 395 L274 630 L100 630 L244 239 L185 0 L350 0 L409 239 L749 630 L560 630 L360 395 Z M385 810 L264 668 L370 668 L444 723 L490 668 L588 668 L537 810 L385 810 Z " />
<glyph glyph-name="ycircumflex" unicode="&#x177;" horiz-adv-x="529" d="M181 -160 L589 446 L416 446 L252 178 L248 178 L210 446 L54 446 L127 3 L20 -160 L181 -160 Z M283 630 L161 488 L267 488 L341 543 L387 488 L485 488 L435 630 L283 630 Z " />
<glyph glyph-name="Ydieresis" unicode="&#x178;" horiz-adv-x="649" d="M360 395 L274 630 L100 630 L244 239 L185 0 L350 0 L409 239 L749 630 L560 630 L360 395 Z M266 668 L408 668 L443 810 L301 810 L266 668 Z M454 668 L596 668 L631 810 L489 810 L454 668 Z " />
<glyph glyph-name="Zacute" unicode="&#x179;" horiz-adv-x="594" d="M235 140 L627 498 L660 630 L137 630 L102 490 L399 490 L9 129 L-23 0 L511 0 L545 140 L235 140 Z M455 668 L587 810 L426 810 L337 668 L455 668 Z " />
<glyph glyph-name="zacute" unicode="&#x17a;" horiz-adv-x="452" d="M248 329 L2 111 L-25 0 L375 0 L404 117 L205 117 L453 336 L481 446 L90 446 L61 329 L248 329 Z M349 488 L482 630 L321 630 L231 488 L349 488 Z " />
<glyph glyph-name="Zdotaccent" unicode="&#x17b;" horiz-adv-x="594" d="M235 140 L627 498 L660 630 L137 630 L102 490 L399 490 L9 129 L-23 0 L511 0 L545 140 L235 140 Z M317 668 L481 668 L516 810 L352 810 L317 668 Z " />
<glyph glyph-name="zdotaccent" unicode="&#x17c;" horiz-adv-x="452" d="M248 329 L2 111 L-25 0 L375 0 L404 117 L205 117 L453 336 L481 446 L90 446 L61 329 L248 329 Z M212 488 L376 488 L412 630 L248 630 L212 488 Z " />
<glyph glyph-name="Zcaron" unicode="&#x17d;" horiz-adv-x="594" d="M235 140 L627 498 L660 630 L137 630 L102 490 L399 490 L9 129 L-23 0 L511 0 L545 140 L235 140 Z M476 668 L597 810 L491 810 L418 755 L371 810 L273 810 L324 668 L476 668 Z " />
<glyph glyph-name="zcaron" unicode="&#x17e;" horiz-adv-x="452" d="M248 329 L2 111 L-25 0 L375 0 L404 117 L205 117 L453 336 L481 446 L90 446 L61 329 L248 329 Z M372 488 L494 630 L388 630 L314 575 L268 630 L170 630 L220 488 L372 488 Z " />
<glyph glyph-name="florin" unicode="&#x192;" horiz-adv-x="428" d="M363 432 C385 492 406 519 452 519 C459 519 466 518 474 517 L504 634 C480 639 457 641 435 641 C334 641 253 588 214 483 L174 376 L91 376 L62 259 L130 259 L61 73 C41 19 23 -13 -24 -13 C-28 -13 -33 -13 -38 -12 L-74 -129 C-53 -132 -34 -133 -15 -133 C96 -133 170 -86 210 22 L298 259 L411 259 L440 376 L342 376 L363 432 Z " />
<glyph glyph-name="Aringacute" unicode="&#x1fa;" horiz-adv-x="692" d="M352 630 L-53 0 L125 0 L201 122 L448 122 L465 0 L639 0 L542 630 L352 630 Z M564 744 C564 792 528 823 474 823 C416 823 373 782 373 728 C373 680 409 649 463 649 C521 649 564 690 564 744 L564 744 Z M550 843 L661 958 L500 958 L432 843 L550 843 Z M399 440 L403 440 L430 249 L280 249 L399 440 Z M501 740 C501 719 485 705 466 705 C448 705 436 716 436 732 C436 753 452 767 471 767 C489 767 501 756 501 740 L501 740 Z " />
<glyph glyph-name="aringacute" unicode="&#x1fb;" horiz-adv-x="527" d="M445 569 C445 617 409 648 355 648 C297 648 254 607 254 553 C254 505 290 474 344 474 C402 474 445 515 445 569 L445 569 Z M382 565 C382 544 366 530 347 530 C329 530 317 541 317 557 C317 578 333 592 352 592 C370 592 382 581 382 565 L382 565 Z M428 668 L539 783 L378 783 L310 668 L428 668 Z M297 183 C286 126 242 94 201 94 C176 94 160 107 160 129 C160 159 180 173 219 178 L298 188 L297 183 Z M474 267 C505 391 423 458 305 458 C171 458 89 394 54 298 L206 288 C221 321 242 338 278 338 C317 338 330 316 321 279 L318 266 L182 252 C70 240 0 195 0 104 C0 36 46 -10 131 -10 C197 -10 250 16 280 67 C284 19 320 -10 378 -10 C418 -10 448 3 475 19 L497 105 C482 100 472 98 459 98 C442 98 434 108 440 131 L474 267 Z " />
<glyph glyph-name="AEacute" unicode="&#x1fc;" horiz-adv-x="1021" d="M479 630 L-53 0 L140 0 L268 152 L482 152 L444 0 L940 0 L974 140 L645 140 L673 249 L920 249 L954 387 L707 387 L733 490 L1053 490 L1088 630 L479 630 Z M800 668 L932 810 L771 810 L682 668 L800 668 Z M566 505 L570 505 L513 279 L375 279 L566 505 Z " />
<glyph glyph-name="aeacute" unicode="&#x1fd;" horiz-adv-x="791" d="M297 183 C284 126 242 94 201 94 C176 94 160 107 160 129 C160 159 182 192 245 192 L299 192 L297 183 Z M335 75 C368 19 422 -12 515 -12 C629 -12 721 45 757 147 L628 159 C609 124 574 109 530 109 C481 109 450 136 450 192 L764 192 C771 218 773 237 773 262 C773 370 709 458 575 458 C508 458 459 437 419 407 C398 435 356 458 286 458 C171 458 89 399 54 303 L206 293 C221 326 242 338 278 338 C317 338 330 316 321 279 L318 268 L238 268 C79 268 0 195 0 104 C0 31 64 -10 150 -10 C227 -10 295 16 335 75 L335 75 Z M462 268 C475 310 506 342 556 342 C606 342 622 309 621 268 L462 268 Z M507 488 L640 630 L479 630 L389 488 L507 488 Z " />
<glyph glyph-name="Oslashacute" unicode="&#x1fe;" horiz-adv-x="694" d="M401 642 C211 642 45 487 45 270 C45 191 68 127 109 80 L46 9 L108 -43 L172 29 C219 2 277 -12 344 -12 C534 -12 700 143 700 360 C700 437 677 500 637 547 L699 616 L637 668 L575 599 C528 627 469 642 401 642 L401 642 Z M220 270 C220 401 296 492 397 492 C424 492 446 486 465 476 L229 213 C223 229 220 249 220 270 L220 270 Z M348 138 C322 138 300 142 282 151 L517 413 C522 397 525 379 525 360 C525 229 449 138 348 138 L348 138 Z M494 668 L626 810 L465 810 L376 668 L494 668 Z " />
<glyph glyph-name="oslashacute" unicode="&#x1ff;" horiz-adv-x="527" d="M22 7 L74 -38 L123 15 C156 -2 195 -12 238 -12 C395 -12 509 101 509 255 C509 307 491 352 461 386 L509 439 L457 483 L407 429 C373 447 333 458 289 458 C132 458 18 345 18 191 C18 137 36 92 68 57 L22 7 Z M379 488 L512 630 L351 630 L261 488 L379 488 Z M161 189 C161 262 210 338 282 338 C295 338 307 335 318 331 L165 163 C162 171 161 180 161 189 L161 189 Z M245 108 C233 108 222 110 212 113 L363 279 C365 272 366 265 366 257 C366 187 317 108 245 108 L245 108 Z " />
<glyph glyph-name="Scommaaccent" unicode="&#x218;" horiz-adv-x="609" d="M22 245 C7 96 111 -12 304 -12 C444 -12 576 53 576 204 C576 294 514 346 406 377 L323 401 C290 411 265 424 265 453 C265 492 298 509 345 509 C429 509 466 457 460 398 L619 392 C635 556 513 642 355 642 C194 642 87 555 87 422 C87 331 146 280 229 259 L339 231 C378 221 401 206 401 177 C401 137 364 120 311 120 C229 120 167 160 179 240 L22 245 Z M167 -133 L222 -133 C215 -159 196 -165 159 -165 L146 -218 C238 -218 296 -187 316 -107 L334 -34 L192 -34 L167 -133 Z " />
<glyph glyph-name="scommaaccent" unicode="&#x219;" horiz-adv-x="461" d="M-12 153 C-5 44 78 -12 209 -12 C325 -12 425 38 425 147 C425 210 388 259 310 276 L220 296 C201 300 193 308 193 322 C193 344 215 356 241 356 C292 356 320 330 323 297 L458 304 C445 402 374 458 246 458 C141 458 45 405 45 298 C45 226 87 186 173 168 L238 155 C266 149 275 140 275 123 C275 99 247 88 215 88 C163 88 124 115 121 160 L-12 153 Z M81 -133 L136 -133 C129 -159 110 -165 73 -165 L60 -218 C152 -218 210 -187 230 -107 L248 -34 L106 -34 L81 -133 Z " />
<glyph glyph-name="uni0237" unicode="&#x237;" horiz-adv-x="250" d="M264 446 L102 446 L-11 -7 C-21 -45 -39 -61 -67 -61 C-88 -61 -104 -53 -124 -39 L-171 -131 C-146 -154 -93 -172 -42 -172 C64 -172 121 -125 149 -15 L264 446 Z " />
<glyph glyph-name="circumflex" unicode="&#x2c6;" horiz-adv-x="500" d="M281 630 L159 488 L265 488 L339 543 L385 488 L483 488 L433 630 L281 630 Z " />
<glyph glyph-name="caron" unicode="&#x2c7;" horiz-adv-x="500" d="M397 488 L519 630 L413 630 L339 575 L293 630 L195 630 L245 488 L397 488 Z " />
<glyph glyph-name="breve" unicode="&#x2d8;" horiz-adv-x="500" d="M321 488 C410 488 476 541 499 630 L406 630 C398 598 372 584 343 584 C319 584 302 594 302 616 C302 620 303 625 304 630 L215 630 C211 615 209 601 209 589 C209 525 255 488 321 488 L321 488 Z " />
<glyph glyph-name="dotaccent" unicode="&#x2d9;" horiz-adv-x="500" d="M239 488 L403 488 L439 630 L275 630 L239 488 Z " />
<glyph glyph-name="ring" unicode="&#x2da;" horiz-adv-x="500" d="M438 586 C438 637 402 671 348 671 C290 671 247 627 247 568 C247 517 283 483 337 483 C395 483 438 527 438 586 L438 586 Z M375 581 C375 559 359 543 340 543 C322 543 310 555 310 573 C310 595 326 611 345 611 C363 611 375 599 375 581 L375 581 Z " />
<glyph glyph-name="ogonek" unicode="&#x2db;" horiz-adv-x="500" d="M186 12 C131 -20 82 -58 82 -109 C82 -146 107 -175 159 -175 C201 -175 226 -162 246 -151 L264 -79 C247 -86 233 -91 217 -91 C201 -91 196 -82 196 -73 C196 -41 226 -27 278 12 L186 12 Z " />
<glyph glyph-name="tilde" unicode="&#x2dc;" horiz-adv-x="500" d="M254 488 C263 514 280 522 295 522 C329 522 336 485 382 485 C441 485 487 545 509 630 L424 630 C415 604 398 596 383 596 C349 596 341 633 295 633 C236 633 190 573 169 488 L254 488 Z " />
<glyph glyph-name="hungarumlaut" unicode="&#x2dd;" horiz-adv-x="500" d="M246 488 L365 630 L217 630 L141 488 L246 488 Z M418 488 L537 630 L389 630 L313 488 L418 488 Z " />
<glyph glyph-name="Wgrave" unicode="&#x1e80;" horiz-adv-x="903" d="M627 630 L474 630 L267 235 L263 235 L266 630 L100 630 L104 0 L282 0 L490 398 L494 398 L496 0 L677 0 L1003 630 L835 630 L632 235 L628 235 L627 630 Z M627 668 L608 810 L454 810 L516 668 L627 668 Z " />
<glyph glyph-name="wgrave" unicode="&#x1e81;" horiz-adv-x="729" d="M486 446 L357 446 L223 193 L219 193 L208 446 L55 446 L81 0 L240 0 L368 252 L372 252 L374 0 L533 0 L789 446 L635 446 L490 193 L486 193 L486 446 Z M492 488 L474 630 L320 630 L381 488 L492 488 Z " />
<glyph glyph-name="Wacute" unicode="&#x1e82;" horiz-adv-x="903" d="M627 630 L474 630 L267 235 L263 235 L266 630 L100 630 L104 0 L282 0 L490 398 L494 398 L496 0 L677 0 L1003 630 L835 630 L632 235 L628 235 L627 630 Z M617 668 L749 810 L588 810 L499 668 L617 668 Z " />
<glyph glyph-name="wacute" unicode="&#x1e83;" horiz-adv-x="729" d="M486 446 L357 446 L223 193 L219 193 L208 446 L55 446 L81 0 L240 0 L368 252 L372 252 L374 0 L533 0 L789 446 L635 446 L490 193 L486 193 L486 446 Z M486 488 L619 630 L458 630 L368 488 L486 488 Z " />
<glyph glyph-name="Wdieresis" unicode="&#x1e84;" horiz-adv-x="903" d="M627 630 L474 630 L267 235 L263 235 L266 630 L100 630 L104 0 L282 0 L490 398 L494 398 L496 0 L677 0 L1003 630 L835 630 L632 235 L628 235 L627 630 Z M395 668 L537 668 L572 810 L430 810 L395 668 Z M583 668 L725 668 L760 810 L618 810 L583 668 Z " />
<glyph glyph-name="wdieresis" unicode="&#x1e85;" horiz-adv-x="729" d="M486 446 L357 446 L223 193 L219 193 L208 446 L55 446 L81 0 L240 0 L368 252 L372 252 L374 0 L533 0 L789 446 L635 446 L490 193 L486 193 L486 446 Z M265 488 L407 488 L443 630 L301 630 L265 488 Z M453 488 L595 488 L631 630 L489 630 L453 488 Z " />
<glyph glyph-name="Ygrave" unicode="&#x1ef2;" horiz-adv-x="649" d="M360 395 L274 630 L100 630 L244 239 L185 0 L350 0 L409 239 L749 630 L560 630 L360 395 Z M479 668 L460 810 L306 810 L368 668 L479 668 Z " />
<glyph glyph-name="ygrave" unicode="&#x1ef3;" horiz-adv-x="529" d="M181 -160 L589 446 L416 446 L252 178 L248 178 L210 446 L54 446 L127 3 L20 -160 L181 -160 Z M389 488 L371 630 L217 630 L278 488 L389 488 Z " />
<glyph glyph-name="endash" unicode="&#x2013;" horiz-adv-x="500" d="M40 201 L446 201 L472 308 L66 308 L40 201 Z " />
<glyph glyph-name="emdash" unicode="&#x2014;" horiz-adv-x="1000" d="M40 201 L948 201 L974 308 L66 308 L40 201 Z " />
<glyph glyph-name="quoteleft" unicode="&#x2018;" horiz-adv-x="229" d="M270 498 L194 498 C205 538 235 551 283 553 L303 630 C190 627 123 586 98 488 L63 348 L232 348 L270 498 Z " />
<glyph glyph-name="quoteright" unicode="&#x2019;" horiz-adv-x="229" d="M96 480 L172 480 C161 440 131 427 83 425 L63 348 C176 351 243 392 268 490 L303 630 L134 630 L96 480 Z " />
<glyph glyph-name="quotesinglbase" unicode="&#x201a;" horiz-adv-x="229" d="M-22 0 L54 0 C43 -40 13 -53 -35 -55 L-55 -132 C58 -129 125 -88 150 10 L185 150 L16 150 L-22 0 Z " />
<glyph glyph-name="quotedblleft" unicode="&#x201c;" horiz-adv-x="442" d="M270 498 L194 498 C205 538 235 551 283 553 L303 630 C190 627 123 586 98 488 L63 348 L232 348 L270 498 Z M483 498 L407 498 C418 538 448 551 496 553 L516 630 C403 627 336 586 311 488 L276 348 L445 348 L483 498 Z " />
<glyph glyph-name="quotedblright" unicode="&#x201d;" horiz-adv-x="442" d="M309 480 L385 480 C374 440 344 427 296 425 L276 348 C389 351 456 392 481 490 L516 630 L347 630 L309 480 Z M96 480 L172 480 C161 440 131 427 83 425 L63 348 C176 351 243 392 268 490 L303 630 L134 630 L96 480 Z " />
<glyph glyph-name="quotedblbase" unicode="&#x201e;" horiz-adv-x="442" d="M191 0 L267 0 C256 -40 226 -53 178 -55 L158 -132 C271 -129 338 -88 363 10 L398 150 L229 150 L191 0 Z M-22 0 L54 0 C43 -40 13 -53 -35 -55 L-55 -132 C58 -129 125 -88 150 10 L185 150 L16 150 L-22 0 Z " />
<glyph glyph-name="dagger" unicode="&#x2020;" horiz-adv-x="344" d="M90 448 L182 448 L137 267 L237 267 L282 448 L374 448 L398 545 L306 545 L328 630 L228 630 L206 545 L114 545 L90 448 Z " />
<glyph glyph-name="daggerdbl" unicode="&#x2021;" horiz-adv-x="354" d="M69 332 L164 332 L148 267 L242 267 L258 332 L353 332 L375 419 L280 419 L295 478 L390 478 L411 565 L316 565 L333 630 L239 630 L222 565 L127 565 L106 478 L201 478 L186 419 L91 419 L69 332 Z " />
<glyph glyph-name="bullet" unicode="&#x2022;" horiz-adv-x="400" d="M376 259 C376 360 300 429 206 429 C112 429 36 360 36 259 C36 158 112 89 206 89 C300 89 376 158 376 259 L376 259 Z " />
<glyph glyph-name="ellipsis" unicode="&#x2026;" horiz-adv-x="696" d="M-23 0 L149 0 L191 172 L19 172 L-23 0 Z M209 0 L381 0 L423 172 L251 172 L209 0 Z M441 0 L613 0 L655 172 L483 172 L441 0 Z " />
<glyph glyph-name="perthousand" unicode="&#x2030;" horiz-adv-x="1197" d="M182 433 C182 517 218 553 252 553 C284 553 301 537 301 500 C301 416 265 380 231 380 C199 380 182 396 182 433 L182 433 Z M72 433 C72 346 137 291 222 291 C312 291 411 367 411 500 C411 587 346 642 261 642 C171 642 72 566 72 433 L72 433 Z M753 630 L628 630 L139 0 L264 0 L753 630 Z M710 197 C710 113 674 77 640 77 C608 77 591 93 591 130 C591 214 627 250 661 250 C693 250 710 234 710 197 L710 197 Z M820 197 C820 284 755 339 670 339 C580 339 481 263 481 130 C481 43 546 -12 631 -12 C721 -12 820 64 820 197 L820 197 Z M1077 197 C1077 113 1041 77 1007 77 C975 77 958 93 958 130 C958 214 994 250 1028 250 C1060 250 1077 234 1077 197 L1077 197 Z M1187 197 C1187 284 1122 339 1037 339 C947 339 848 263 848 130 C848 43 913 -12 998 -12 C1088 -12 1187 64 1187 197 L1187 197 Z " />
<glyph glyph-name="guilsinglleft" unicode="&#x2039;" horiz-adv-x="253" d="M14 154 L176 29 L207 154 L126 215 L237 276 L274 423 L50 298 L14 154 Z " />
<glyph glyph-name="guilsinglright" unicode="&#x203a;" horiz-adv-x="253" d="M251 298 L89 423 L58 298 L139 237 L28 176 L-9 29 L215 154 L251 298 Z " />
<glyph glyph-name="fraction" unicode="&#x2044;" horiz-adv-x="501" d="M501 642 L392 642 L0 -12 L109 -12 L501 642 Z " />
<glyph glyph-name="Euro" unicode="&#x20ac;" horiz-adv-x="656" d="M52 341 L105 341 C102 325 99 309 98 293 L40 293 L20 213 L97 213 C107 88 178 -12 346 -12 C503 -12 621 103 647 257 L493 264 C478 184 434 134 364 134 C301 134 274 166 266 213 L359 213 L389 293 L265 293 C267 309 269 325 272 341 L407 341 L436 421 L299 421 C324 466 363 496 419 496 C489 496 517 435 508 366 L664 372 C680 523 596 642 430 642 C287 642 178 552 127 421 L71 421 L52 341 Z " />
<glyph glyph-name="uni2117" unicode="&#x2117;" horiz-adv-x="724" d="M59 315 C59 125 206 -12 386 -12 C566 -12 713 125 713 315 C713 505 566 642 386 642 C206 642 59 505 59 315 L59 315 Z M109 315 C109 476 234 594 386 594 C538 594 663 476 663 315 C663 154 538 36 386 36 C234 36 109 154 109 315 L109 315 Z M354 327 L354 417 L404 417 C450 417 468 401 468 371 C468 343 450 327 404 327 L354 327 Z M354 241 L416 241 C516 241 574 288 574 373 C574 456 516 503 416 503 L249 503 L249 122 L354 122 L354 241 Z " />
<glyph glyph-name="trademark" unicode="&#x2122;" horiz-adv-x="681" d="M233 370 L279 555 L365 555 L384 630 L128 630 L109 555 L193 555 L147 370 L233 370 Z M520 370 L596 527 L598 527 L559 370 L644 370 L709 630 L594 630 L523 476 L521 476 L526 630 L407 630 L342 370 L422 370 L461 527 L463 527 L461 370 L520 370 Z " />
<glyph glyph-name="uni2153" unicode="&#x2153;" horiz-adv-x="844" d="M719 630 L605 630 L63 0 L177 0 L719 630 Z M75 485 L151 485 L86 226 L211 226 L311 629 L212 629 C186 587 152 568 96 568 L75 485 Z M669 130 C669 102 647 92 624 92 C600 92 583 106 589 138 L470 141 C457 56 505 -8 627 -8 C708 -8 795 34 795 126 C795 162 773 189 736 201 C783 211 824 240 824 303 C824 361 778 412 683 412 C580 412 515 348 498 262 L618 257 C626 293 641 311 669 311 C690 311 701 297 701 281 C701 253 683 240 656 240 C646 240 637 241 628 242 L606 155 C618 157 629 156 634 156 C659 156 669 146 669 130 L669 130 Z " />
<glyph glyph-name="uni2154" unicode="&#x2154;" horiz-adv-x="982" d="M857 630 L743 630 L201 0 L315 0 L857 630 Z M807 130 C807 102 785 92 762 92 C738 92 721 106 727 138 L608 141 C595 56 643 -8 765 -8 C846 -8 933 34 933 126 C933 162 911 189 874 201 C921 211 962 240 962 303 C962 361 916 412 821 412 C718 412 653 348 636 262 L756 257 C764 293 779 311 807 311 C828 311 839 297 839 281 C839 253 821 240 794 240 C784 240 775 241 766 242 L744 155 C756 157 767 156 772 156 C797 156 807 146 807 130 L807 130 Z M260 329 L305 357 C380 404 424 436 424 518 C424 585 373 638 282 638 C170 638 105 569 103 466 L226 461 C226 496 237 532 267 532 C291 532 297 519 297 502 C297 476 271 450 200 402 L72 318 L50 226 L367 226 L393 329 L260 329 Z " />
<glyph glyph-name="uni215B" unicode="&#x215b;" horiz-adv-x="855" d="M719 630 L605 630 L63 0 L177 0 L719 630 Z M75 485 L151 485 L86 226 L211 226 L311 629 L212 629 C186 587 152 568 96 568 L75 485 Z M633 85 C603 85 591 102 591 119 C591 152 617 166 644 166 C673 166 685 149 685 132 C685 99 659 85 633 85 L633 85 Z M634 -8 C725 -8 806 34 806 120 C806 161 785 190 755 203 C803 221 835 251 835 307 C835 370 781 412 677 412 C595 412 515 369 515 284 C515 253 533 229 558 216 C502 204 470 163 470 108 C470 54 511 -8 634 -8 L634 -8 Z M669 251 C650 251 634 262 634 279 C634 308 657 321 680 321 C700 321 715 310 715 292 C715 264 693 251 669 251 L669 251 Z " />
<glyph glyph-name="uni215C" unicode="&#x215c;" horiz-adv-x="967" d="M262 356 C262 328 240 318 217 318 C193 318 176 332 182 364 L63 367 C50 282 98 218 220 218 C301 218 388 260 388 352 C388 388 366 415 329 427 C376 437 417 466 417 529 C417 587 371 638 276 638 C173 638 108 574 91 488 L211 483 C219 519 234 537 262 537 C283 537 294 523 294 507 C294 479 276 466 249 466 C239 466 230 467 221 468 L199 381 C211 383 222 382 227 382 C252 382 262 372 262 356 L262 356 Z M831 630 L717 630 L175 0 L289 0 L831 630 Z M745 85 C715 85 703 102 703 119 C703 152 729 166 756 166 C785 166 797 149 797 132 C797 99 771 85 745 85 L745 85 Z M746 -8 C837 -8 918 34 918 120 C918 161 897 190 867 203 C915 221 947 251 947 307 C947 370 893 412 789 412 C707 412 627 369 627 284 C627 253 645 229 670 216 C614 204 582 163 582 108 C582 54 623 -8 746 -8 L746 -8 Z M781 251 C762 251 746 262 746 279 C746 308 769 321 792 321 C812 321 827 310 827 292 C827 264 805 251 781 251 L781 251 Z " />
<glyph glyph-name="uni215D" unicode="&#x215d;" horiz-adv-x="957" d="M821 630 L707 630 L165 0 L279 0 L821 630 Z M735 85 C705 85 693 102 693 119 C693 152 719 166 746 166 C775 166 787 149 787 132 C787 99 761 85 735 85 L735 85 Z M736 -8 C827 -8 908 34 908 120 C908 161 887 190 857 203 C905 221 937 251 937 307 C937 370 883 412 779 412 C697 412 617 369 617 284 C617 253 635 229 660 216 C604 204 572 163 572 108 C572 54 613 -8 736 -8 L736 -8 Z M771 251 C752 251 736 262 736 279 C736 308 759 321 782 321 C802 321 817 310 817 292 C817 264 795 251 771 251 L771 251 Z M417 630 L156 630 C137 563 98 456 75 401 L191 392 C199 403 213 411 230 411 C258 411 269 390 269 369 C269 337 244 319 220 319 C195 319 175 330 178 359 L64 367 C46 284 100 218 212 218 C317 218 386 288 386 384 C386 448 347 503 269 503 C241 503 224 498 209 491 C215 505 217 516 223 532 L393 532 L417 630 Z " />
<glyph glyph-name="uni215E" unicode="&#x215e;" horiz-adv-x="873" d="M737 630 L623 630 L81 0 L195 0 L737 630 Z M651 85 C621 85 609 102 609 119 C609 152 635 166 662 166 C691 166 703 149 703 132 C703 99 677 85 651 85 L651 85 Z M652 -8 C743 -8 824 34 824 120 C824 161 803 190 773 203 C821 221 853 251 853 307 C853 370 799 412 695 412 C613 412 533 369 533 284 C533 253 551 229 576 216 C520 204 488 163 488 108 C488 54 529 -8 652 -8 L652 -8 Z M687 251 C668 251 652 262 652 279 C652 308 675 321 698 321 C718 321 733 310 733 292 C733 264 711 251 687 251 L687 251 Z M247 519 C143 428 110 354 76 226 L213 226 C243 348 257 425 390 529 L416 630 L103 630 L75 519 L247 519 Z " />
<glyph glyph-name="minus" unicode="&#x2212;" horiz-adv-x="612" d="M52 243 L579 243 L613 378 L86 378 L52 243 Z " />
<glyph glyph-name="approxequal" unicode="&#x2248;" horiz-adv-x="634" d="M84 328 C144 361 195 375 238 375 C328 375 377 329 467 329 C510 329 562 342 624 376 L655 500 C592 465 540 452 497 452 C407 452 358 498 268 498 C225 498 174 484 115 451 L84 328 Z M34 127 C94 160 144 174 187 174 C278 174 327 128 417 128 C460 128 512 141 573 175 L604 299 C543 264 491 251 448 251 C357 251 309 298 218 298 C175 298 124 284 65 250 L34 127 Z " />
<glyph glyph-name="notequal" unicode="&#x2260;" horiz-adv-x="634" d="M93 362 L328 362 L242 264 L69 264 L39 146 L139 146 L39 31 L156 31 L256 146 L566 146 L596 264 L359 264 L445 362 L620 362 L649 480 L548 480 L649 595 L532 595 L431 480 L121 480 L93 362 Z " />
<glyph glyph-name="lessequal" unicode="&#x2264;" horiz-adv-x="484" d="M-7 16 L395 16 L429 150 L27 150 L-7 16 Z M65 303 L435 171 L471 310 L221 385 L507 459 L545 615 L110 482 L65 303 Z " />
<glyph glyph-name="greaterequal" unicode="&#x2265;" horiz-adv-x="484" d="M429 150 L27 150 L-7 16 L395 16 L429 150 Z M512 482 L143 615 L107 476 L356 400 L71 327 L32 171 L467 303 L512 482 Z " />
<glyph glyph-name="ff" unicode="&#xfb00;" horiz-adv-x="620" d="M280 446 L285 469 C292 497 304 515 333 515 C351 515 368 508 380 500 L434 596 C408 615 372 632 318 632 C224 632 151 584 124 464 L120 446 L56 446 L28 334 L92 334 L9 0 L169 0 L252 334 L385 334 L302 0 L462 0 L545 334 L648 334 L676 446 L573 446 L582 483 C589 511 602 527 624 527 C645 527 655 515 662 496 L767 529 C752 595 707 642 617 642 C517 642 452 587 426 493 L413 446 L280 446 Z " />
<glyph glyph-name="fi" unicode="&#xfb01;" horiz-adv-x="561" d="M280 446 L282 453 C298 510 326 526 359 526 C392 526 412 510 417 490 L538 528 C520 583 467 642 356 642 C236 642 159 582 122 453 L120 446 L56 446 L28 334 L92 334 L9 0 L169 0 L252 334 L385 334 L302 0 L464 0 L575 446 L280 446 Z " />
<glyph glyph-name="fl" unicode="&#xfb02;" horiz-adv-x="561" d="M459 630 L302 0 L464 0 L621 630 L459 630 Z M280 446 L286 471 C294 503 312 520 339 520 C357 520 368 516 380 508 L423 615 C400 629 364 642 319 642 C217 642 150 585 125 468 L120 446 L56 446 L28 334 L92 334 L9 0 L169 0 L252 334 L338 334 L366 446 L280 446 Z " />
<glyph glyph-name="ffi" unicode="&#xfb03;" horiz-adv-x="854" d="M413 446 L280 446 L285 469 C292 497 304 515 333 515 C351 515 368 508 380 500 L434 596 C408 615 372 632 318 632 C224 632 151 584 124 464 L120 446 L56 446 L28 334 L92 334 L9 0 L169 0 L252 334 L385 334 L302 0 L462 0 L545 334 L678 334 L595 0 L757 0 L868 446 L573 446 L575 453 C591 510 619 526 652 526 C685 526 705 510 710 490 L831 528 C813 583 760 642 649 642 C529 642 452 582 415 453 L413 446 Z " />
<glyph glyph-name="ffl" unicode="&#xfb04;" horiz-adv-x="854" d="M752 630 L595 0 L757 0 L914 630 L752 630 Z M385 334 L302 0 L462 0 L545 334 L631 334 L659 446 L573 446 L579 471 C587 503 605 520 632 520 C650 520 661 516 673 508 L716 615 C693 629 657 642 612 642 C510 642 443 585 418 468 L413 446 L280 446 L285 469 C292 497 304 515 333 515 C351 515 368 508 380 500 L434 596 C408 615 372 632 318 632 C224 632 151 584 124 464 L120 446 L56 446 L28 334 L92 334 L9 0 L169 0 L252 334 L385 334 Z " />
</font>
</svg>
