<svg xmlns="http://www.w3.org/2000/svg" viewBox="0 -518.1 2048 2054.1" enable-background="new 0 -518.1 2048 2054.1"><path fill="#FAB317" d="M2045.1 504.3c0-564.8-457.6-1022.3-1022.3-1022.3-565.2-.1-1022.8 457.5-1022.8 1022.3s457.6 1022.3 1022.3 1022.3 1022.8-457.6 1022.8-1022.3z"/><path d="M480.7 235.6l-10.2-8.6-6.6-2-4.7 2.3-.4 1.2-1.2.8-3.5 7.4-1.2 15.3 6.3 14.1 3.5.4h2.7l3.5-.4 2.3-2.7 7.8-7 3.5-9.4v-10.2l-1.8-1.2zm-49.3 294.5l-.8-1.6-18.4-17.2-4.7-.8-3.9 1.6-3.9 2.3-1.2 2.7-1.2 4.7 3.1 13.7 5.1 7.4 6.3 1.6h11l2.7-1.6 7.4-9.8-.4-2.3-1.1-.7zm1020-29.3l-.8-1.2-4.7-3.5-7-.4-18.4 3.1-15.3-1.6-16.4 1.2-7.8 5.1-4.7 5.9 7.4 8.2 4.7 2.3 18.8 1.6 11-4.7 4.7 1.2 16.4-1.2 12.9-7 .4-2.7v-2.3l-.4-2.7-.8-1.3zm-57.9-77.1l19.6-1.2 18.4 2.7 21.5-1.2 1.2-1.2 6.6-2.3.4-2.7-.4-2.3-1.2-2.7-2.3-.8-4.7-2.7-43.8-4.3-23.9 1.2-3.9 1.6-.4 2.7-.4 4.7 6.3 5.9 7 2.6zm-856.1 214.7h-2.7l-3.5.8-5.1 3.5-3.5 4.7-2.7 6.3-1.6 27.4 7.4.4 13.7-7 3.5-4.7 2.3-18.8-4.3-12.1-3.5-.5zm896-77l-32.5-.8-19.6 1.2-8.6 3.5-.4 2.3-.4 3.5 8.2 5.5 45.8 2 10.2-2.3.4-1.6 1.2-1.2 2.3-7.4-2.3-2.7-2.3-.4-2-1.6zm-818.6-154.1l3.5-4.7.4-2.7-.4-4.7-3.5-4.7-5.9-3.5-12.1-1.2-9 2.7-3.5 5.9-1.2 3.5 13.7 10.2 18-.8zm-9.4 170.1l-5.9-3.5-5.1-1.2-13.3 1.2-9.8 5.1-.4 2.3-.8 3.5 12.1 9 8.6 1.6 16-6.3.4-5.9-.4-3.5-1.4-2.3zm1044.3 310.2l7.4-.8.4-3.9-.4-2.7-1.2-1.2-5.9-11-20.7-19.9-25.8-16.8-2.7-.8-3.9 2.3-1.2 1.2-.4 2.3-.4 2.3 42.2 41.5 12.6 7.5zm-252.3-404.8l49.3-2.3 5.5-3.5.4-2.7v-2.3l-.4-3.1-1.2-.4-.8-1.2-30.9-5.5-27.4 4.3-11.3 7v2l-.4 3.5 17.2 4.2zm-795.1 123.6l-1.6-.4-1.2-1.2-4.7-1.2-23.5 1.2-9.8 7-2.7 7.4 5.9 11 10.2 2.3 13.7-2.3 3.9-4.7 11.3-5.9.4-3.5v-2.7l-.4-3.9-1.5-3.1zm-83.3-139.3l16-1.2.4-2.3 5.1-12.5 2.3-.4 2-1.2 14.9-2.3 1.2-1.6 1.6-1.2 4.7-11.3-1.2-9.4-4.7-5.1-20.3-5.1-4.3-20.3-5.1-6.3-6.3-1.6h-7.4l-4.7 3.5-1.2 3.9v13.7l7 60.7zm40.7 57.9v-3.5l-1.6-4.3-3.9-4.7-16-2.7-1.2-22.7-1.6-5.1-3.9-.4h-3.5l-7.4 2.3-11.3 17.6v5.1l3.5 8.6-1.2 23.5-1.2 1.2-4.7 9.8 9 9 7 .4 5.1-1.6 10.2-22.3 17.6-2.3 4.7-3.5.4-4.4zm34 120.1l-3.5-2.7-11-2.7-14.9 1.2-7.8 5.1-1.2 3.9v8.6l17.6 7.8 18.8-3.5 3.5-3.5 1.2-4.7-1.2-9-1.5-.5zm17.2-91.9l-.8-1.6-4.7-3.5-3.9-.8-12.1-1.2-11.3 5.1-2.3 3.5-.4 2.3 3.9 3.9 21.5 2.7 9.8-2.7 1.6-3.9-.4-2.7-.9-1.1zm729 185l39.5-1.2 4.7-2.3 4.7-3.5 12.1-3.9 3.5-5.9 2.3-10.2-2.3-6.3-4.7-4.7h-30.9l-2.3 2.7-22.3 2.3-4.7 3.5-5.1 6.3-2.7 9.8 4.7 12.5 3.5.9zm18.8-50.9h32.5l16.4-3.9 9.8-9.4 2.3-6.3-.8-5.9-1.6-2.7-2.7-1.6-11.3-1.2-45 6.6-8.6 7-2.7 7.4 7.4 9 4.3 1zm23.8-39.5l37.2-1.2 7.8-4.7.4-2.7v-2l-2.3-4.3-8.2-6.3-28.6-1.2-16.8 1.2-11.3 3.5-.8 2.3-1.2 1.6-1.2 7 2.7 2.3 22.3 4.5zm3.2 113l2.7-5.5v-8.6l-1.2-.8-.4-1.2-28.6 1.2-10.2 3.5-14.9 1.2-4.7 2.3-6.3 5.5-2.7 7.4 7.4 7.4 38.3-5.5 19.9-5.1.7-1.8zm-767.8-243.6l-8.2-2.7-32.1 1.2-1.2 1.2-3.5 3.5-.4 2.7-.8 3.5 7.4 5.9 11.3 2.7 27-3.1 1.2-1.6 1.6-1.2.4-5.9-.4-3.5-2.3-2.7zm1107.2 493.6l-1.6-.4-11.7-9.8-14.1-5.9-8.6-5.5-38.3-15.3-13.7-12.9 2.3-2.3 25.8 5.5 8.6 6.6 26.2 11.3h9.8l2.3-3.9v-5.1l-2.3-4.7-3.5-4.7-5.9-13.3 2.3-11.7 6.6-12.5 11.3-3.9 3.5-4.7 2.7-7.8-2.3-16-.8-1.6-28.6-37.9-12.5-13.3-23.5-16-21.1-19.9 3.1 6.3-29.3-28.9-10.2-5.1-7.4-7.8-19.9-14.1-7.4-7.8v-2.3l4.7-11-1.2-9.8 2.3-2.7 3.5-3.5 14.9-25.8 21.9-48.1 26.6-78.2 3.1-28.9 6.3-16.4 2-28.2 5.1-18.8-1.2-11-9.8-5.5-.4-2.7v-2.3l.4-2.7 4.7-2.3 8.6-5.1 1.2-3.9 1.2-80.6 4.7-11-7.4-32.1-1.6-51.2-12.1-32.5 1.2-12.1-6.3-36.4-4.7-2.3-5.9-18.8-1.2-1.2v-.4l-11-37.2-4.7-5.5-7-22.3v-8.2l-5.9-6.6-1.2-2.3-.8-3.5-23.5-44.2-2.7-16h-5.1l-1.2-5.5-4.7-8.6-29.3-23.9-31.3-10.2-45-8.2-5.9-3.5-2.3-8.6-3.1-2.3-33.6-14.9-37.2-7.8-18.8 1.2-9.8 6.3-14.9 2.3-7.4-2.3-6.6-6.3-3.5-6.6-36-9-21.1-2.3-56.3-8.2-159.2-12.9-98.6 1.6-96.2 9.4-52 11.7-42.6 19.2-1.6-.4-.8-1.2-1.2-.4-2.3-4.7-3.9-1.2-14.9 1.2-11.3 4.7-42.6 5.9-64.5 19.2-9.8 6.3-7.1 1.9h-22.3l-23.9 7-22.7 13.7-5.9 8.2-3.9 1.2-16 1.2-70 22.7-30.9 17.2-2.3 3.5-19.9 10.2-5.9 6.3-14.9 11-.4 3.5-2.7 7.8-11.7 15.5-15.6 38.7-14.9 29.7-23.5 72.7-17.6 110.4-2 88.8 2.3 2.3 9.4 93.1 38.3 141.2 34.4 72.4 32.1 41.1 24.6 23.1 25.8 9 7.4 8.6 5.9 3.5 10.6 12.9 1.2 6.3-61.4 4.7-4.7 2.7-4.7 3.5-5.5 7.8v1.6l.4 2.3 1.6.8 1.2 1.2 4.7 1.2 34-2 39.9 2.7 5.1 1.6 9.8-3.1 12.5 1.2 3.9 4.7 14.5 7.4-53.2 4.3-59.8-1.2-32.5 2.7-4.3 3.5-1.2 1.2-.4 2.3v1.2l2.3 5.1 6.3 6.6 50.8-.8 22.3 3.1 29.3-3.5 17.2 5.1 43.8-3.1 15.6 3.5 1.2.4.4 2.7-.4 1.6-2.7.4-10.2-.4-40.3 5.9-11-2.3-6.3 1.2-83.7 2-60.2 8.2-3.9 4.7-1.6 3.5-2.3 5.5 3.5.4 10.2 2.7 55.5-1.6 9.8 2.7 20.3-1.6 51.2 1.6 100.9-2 2.7 2.3-.4 2.7 3.9 9-.4 2-3.9 1.2-23.9-1.6-196.7 2.7-17.6 4.7-8.6 7-2.3 5.9.8 3.9 2.7.4 2.3 1.2 5.9 1.2 77 1.2 10.2-2.3 142-2 39.9-2.7.4 2 1.2 1.2 5.9 5.9-.4 2.7-3.9 1.2h-41.1l-159.2 5.5-32.1 10.6-1.2 2.3v2.3l1.2 2.7 2.7.4 1.6 1.2 20.7 6.3 78.6-5.5 37.5 1.6 38.3-1.2 23.9-3.5 11.3 2.7 48.1-3.1 41.5 2 .8 2.3.4 3.5h-42.6l-30.9 5.1-29.3-1.6-140.4 7.4-4.7 2.3-1.2.4-.4 2.7 1.6 2.3 2.3 2.7 14.9 3.9 14.1 7.8 12.5 1.2 6.6-2.3 28.6-3.5 14.1-4.7 43 3.1 6.6-1.2 10.2 2.7 22.7-3.1 5.1 2 .4 3.5-.4 2.3-1.2 2.7-4.7 1.2-33.6-1.2-28.9 2.3-11.3 5.1.8 3.5v1.6l.4 2.3 1.6.8 3.5 2.7 11 4.7 64.9 1.2 4.7 2.3 22.7-2.3 46.9.4 9 2.3 14.9 13.7 17.6 21.5 31.3 5.5 21.1-3.9 35.2-.8 7 2 27.4-1.2 9.8 2 33.2-4.7 52 .8 2.3 1.2 70.8.8 4.7-2.3 1.6-.4 12.9-3.5.8-3.9-1.6-7.4-5.9-2.3-5.9-2.7-43.4 2-3.9-2.3-1.2-2.7v-2.3l1.2-2.7 1.6-.4.4-1.2 53.6-6.6 7 1.6 20.3-1.6 28.9 1.2 138.8-11.3 7.4-3.5 1.2-3.9v-5.1l-2.3-3.9-2.3-.4-1.2-1.2-7.8-2.3-11.3 2.3-16-2.7-87.2 7-12.1-4.3-5.1 1.6-48.1 6.6-29.7-.8-.4-3.5v-2.7l.8-3.5 4.7-3.5 3.5-.8 3.9.4 12.1 4.7h13.7l6.6-4.7 26.2-3.5 83.7-1.6 25.8-1.6h44.6l57.1-4.7 7-3.5.8-2.3 1.2-2 5.5-8.6-.8-1.6-1.2-2.3-9-2.3-84.1-.8-1.2 1.2-2 .4-.4 3.1.4 3.5.8 4.7-5.9-1.2-3.9-2.7.4-3.5-.4-1.6-12.5-2.7-36 4.3-104.4 1.6-2.3-2.3 3.5-2.3 1.2-1.2 3.9-.8 10.6-.8 32.1-1.2 18.4-4.7 135.3-5.9 5.1 1.6 87.2-2.7 13.7-7 .4-3.9-.4-2.3-1.2-.4-2.3-2.7-7-3.9-16 1.2-65.7-2.7-11.3 2.7-206.9 9.4-39.9-1.2-.8-1.6.8-2.7 3.9-.8h32.1l27.8-5.9 76.3-2.7 25-3.9 4.7 1.2 59.8-3.5 34.4-.8 64.9-5.1 15.3 1.6 26.2-1.2.8-1.6 1.2-1.2.4-3.1-.4-5.1-3.5-7.4-84.9-1.2-9 2.7-40.7-3.1-.4-1.6.4-2.7 2.7-.4 13.3 1.2 6.6-1.6 23.9 1.6 23.5-2.3 74.3.4 4.7-2.3 6.3-.4 5.9.4 12.1 4.3 2.7 2.3 5.5 7.8 18.4 17.2 33.2 39.1-18.4-16.4 21.1 23.9 7.8 6.6 14.5 18.4 5.9 3.5 21.5 7.4 9.8 7.8 69.6 3.5 1.6 1.2 23.9-3.9 23.9 3.5 50.1-11.7 4.7-2.3 11.3-12.1.8-7.8-3.7-18.7zm-254.2-1008.3l2.3-2.7 14.9-.8 19.9 6.6 19.6 12.5 27.4 30.9 23.1 58.3 2.7 1.2 2.3 1.6 2.7.4 3.5 30.9 8.6 11.3 7.4 30.9-1.2 18.4 7 20.3v12.1l7.4 18.8 5.9 40.7 2.7 4.3 3.5 64.5-2.7 5.9-1.2 14.9 2 18.8.4 23.5-5.5 33.2v12l-4.3 10.2 1.2 7-2.5 29.8-9.4 30.9-2.3 3.5-11 2.7-40.7-3.9-4.7 2.7h-8.2l-1.6-1.2-2.3-.8-1.6-1.6 2.7-33.6 5.1-10.2.8-1.6 22.7-1.2 20.7 1.6 19.6-8.2 1.6-2.7.4-3.9v-3.1l-.4-3.5-4.7-2.3-38.7-.4-6.6 1.6h-5.1l-3.9-1.2-2.7-16 1.6-44.6 1.2-3.9 17.6-4.7 30.9 1.6 4.7-1.2 1.2-1.2 1.6-.4 1.6-3.1.8-3.9v-2.7l-.4-3.5-4.7-3.5-34.4-2-10.2 2.3h-2.3l-2.7-.4-2.7-18 3.1-47.7 39.5.4 3.9-1.2 2.3-11v-2.7l-.8-3.5-11-3.5-41.1.8 2.3-19.6 2.3-13.3-2.3-9.8-6.3-7.8-1.2-9.8 1.2-3.9 47.3-2.3 2.3-2.7 1.2-.4.4-2.7v-2.3l-11-11.3-37.2-2-2.3-11-7-9.8-1.6-5.9 1.2-17.2-9.4-20.3-.8-3.5-.4-3.5 39.5.8 3.5.8-.4-4.7-.8-3.5 9-4.7-5.9-5.5-1.2-1.2-3.9-2.3h-1.6l-1.6.8-5.5 9.8-2.7 1.6-2-1.6-.8-11.3-23.9-5.1-13.7-13.7-3.9-14.9-1.2-11.3-8.2-9.8-3.9-19.2-11.3-16.4-14.9-33.6v-1.4zm-319.5-86.4l3.9 1.2-2.3 2-13.7-1.6 12.1-1.6zm-351.2 60.6l6.3-2.7 3.9-.8 1.2 1.2v3.9l-12.6 2.7 1.2-4.3zm-337.5 60.6l.4-2.3 19.9-10.6 31.3-7.4 2.7.8 1.6 2.7-17.6 8.6-14.1 2.3-12.1 8.2-7.8 2.4-5.1-1.2.8-3.5zm-13.7 34l.8-3.5 7.4-.8 3.9.8 5.9 6.3 1.2.4 2.3 4.7-.8 2.3-1.2 1.2-.4 1.6-2.7.4-5.1-.4-11.3-7.5v-5.5zm-22.7-23.4v5.1h-11.7v-5.1h11.7zm-26.2 57.8l3.5-.4h2.7l3.5.4.8 2.3v1.6l-.8 2.3-1.2.4-.8 1.2-2.3.4-7-4.3 1.6-3.9zm-23.1-32.4l.4-3.5 2.7-2.3.4-1.2 2.7-.4h2.3l2.7.4.8 6.3-.4 3.9-1.6 2.7-4.3 2.3-6.3-3.1.6-5.1zm-36.7 62.2l11.3-19.6.8-1.6 2.7-2.3.8-.8 2.3-.8 3.9.4 1.2 12.5-2.7 19.9-6.3 9.8-3.1 2.3-5.9 2-9.8-2.7 4.8-19.1zm17.9 124l3.5.4 8.2 8.2 1.6.4-3.5 31.3-1.2 2-1.6 2.7-18.8-5.1-4.7-4.7v-8.7l10.6-24.6.4-1.6 5.5-.3zm-16.4 59.8l4.7.4 4.7 3.5 2.3 7.8-.4 5.9-1.6 1.2-1.2 1.6-2.3.8-14.5-9.8.4-7 .8-3.9 7.1-.5zm-26.6-115l4.7-10.2.4-2.7 1.2-1.2.8-1.6 2.7-.8h2.3l2.7.4 2.3 2.7 2.3 4.7-2.3 19.2-.8 4.7-3.1 5.5-4.7 2.3-5.5 12.1-1.6 1.2-2.7 2.3-4.7-1.2 6-37.4zm-23 102.9l2.7-18.8 1.6-3.9 7.4-.4 4.7.4 2.3 3.9-2 37.9-3.9 17.6-1.2 1.2-.4 1.6-5.1.4-7.4-2.7 1.3-37.2zm-4.7 104.4l4.3-18.4 1.2-1.2.4-1.6 2.7-1.6 3.9-.4h2.7l3.5.4 7 16 1.2 27.4-2.7 7.8-1.2 1.2-.4 1.6-9 1.2-3.9-1.2-5.1-9-4.6-22.2zm28.5 112.6l-.8 3.5-5.9-1.2-3.5-1.2-9.8-19.9 1.2-19.2 1.2-1.6.4-2.3 1.2-.4.4-1.2 2.7-.4 6.3.4 3.9 2.7 3.1 11.3-.4 29.5zm22.7 99.8l-2.3.4h-1.6l-2.8-.4-8.6-18.8-5.9-17.6v-8.6l1.2-4.7 2.7-1.6 8.6 9 10.6 33.2.4 2.7-2.3 6.4zm32.8 84.8l-1.2 3.9h-3.5l-10.2-7.8-11.3-21.5v-8.6l1.2-3.9 2.7-2.3 9 2.3 6.3 6.3 8.6 15.3.4 7-2 9.3zm-30.5-188.1l.4-4.7.4-2.7 15.3-4.3h2.7l3.5.4 3.1 21.1-1.2 3.9-2.7.8-5.9-9.8-1.2-2.3-14.4-2.4zm51.3 228l-5.9-3.9.8-3.5.4-2.3 5.1-3.5 3.5-.4h2.7l3.5.4 3.5 5.9.8 4.3.4 5.9-14.8-2.9zm70.4 13.3l-25 16-2.7-1.2 1.2-6.3 25.4-25 7.8-2.3h2.3l2.7.4-1.6 7-10.1 11.4zm118.5-.8l-25.4 39.9-8.6.4-.4-.4-1.2-1.2-.8-1.6-31.3 2.3-34-3.1-7-3.5 1.2-4.3 3.5-3.5 4.7-2.7 13.3-1.2 56.3 8.2 3.9-1.2 3.5-4.7 1.2-11.3-1.2-3.9-3.5-3.5-19.6-4.7-32.5-1.6-3.9-1.2-.8-6.3.8-3.9 1.2-1.2.4-1.6 2.7-2.3 21.1 9 23.1 2.7 25.8 2.7 4.7-1.2 2.7.8.4 2.3v1.6h-.3zm37.1-138.8l-7 41.1-10.2 23.5-1.2 1.2-.4 2.3-2.3 1.2h-3.9l-7.4-11.3-7-3.9-2.7-1.2-27.4 2-12.9 12.9-1.6 4.7v3.5l.4 3.9 13.7 11.7 21.1 1.2 16-6.3h2.3l3.5.4 2.7 1.6 2 2.7v10.2l-6.6 14.5-1.2 1.2-2.3 2.3-13.7-9-45.8-5.9-4.7.4.4-25.8-3.5-5.9-1.2-.4-.8-1.2-2.7-.4h-2.3l-2.7.4-18.9 32-2.3 3.5-7.4.8-3.9-.4-.8-3.9 28.9-60.2 12.5-35.6 4.3-8.2 2.3-3.5 4.7-2.3 18.8-3.1 3.5-2.3 2.3-5.1-7.4-14.9-13.3-5.1-23.9-3.9-3.5.4-24.2 73.5-16.4 33.6-2.3 2.3-2.7-.8-10.2-11.3-8.6-3.9h-2.4l-2.7.8-2.3 2.7-2.7 5.9-2.3 15.6-4.7 4.7-1.6.4-.4 1.2-2.7.4h-2.3l-2.7-.8-.8-13.7-19.9-15.3-2.3-2.7-2.3-4.3v-12.1l3.5-.4 2.7-.8 2.7.4 2.3 8.2 3.5 3.5 1.2 1.6h11.3l5.9-3.5 3.5-4.7v-13.3l-17.2-53.6-2.7-2.3-.4-1.2-3.5-.8h-2.7l-3.9.4-1.2 1.6-1.6 1.2-1.2 9.8 2.7 12.5v2.3l-.4 2.7-4.7 2.3-2.7-.4-5.9-3.5-7-16.4-12.5-8.2-2.3-4.7 2.7-16.4 3.5-4.7 6.3-2.3 14.1 5.5 6.6-.4 2.7-1.6 2.3-4.7-4.7-64.5-4.7-14.9-1.2-1.2-.4-1.6h-23.9l-7 2.7-4.7.8-3.9-1.6 2.3-5.1 10.2-7 16.4-4.3 3.9-4.7h5.9l14.5 10.2 5.9 7.8 25 17.6 25.8 23.9 5.9 7.8 15.6 12.5 5.9 2.3h6.6l3.9-1.2.8-1.2 2.3-4.7-2.3-18.8-.8-3.9-23.9-21.1-1.6.4-6.3-2.3-24.6-25-13.3-7.4-48.1-49.7-2.7-2.3-2.3-1.6-2.7.8-9 25.8-4.7 3.1-3.5.4-11.3-6.3.4-6.6.8-3.9 6.3-5.9 2.3-5.1-6.3-12.5v-5.1l1.2-3.9 1.2-.4.4-1.6 2.7-2.3h2.3l12.1 13.7 4.7 2.7 3.9.4h2.7l3.5-.4.8-1.2 2.3-4.7-2-36 1.2-5.1 1.2-1.6.4-2.3 2.7-2.3 12.1 7.4 15.3 14.9 32.9 26.2 27.4 23.5 17.2 10.6 4.7 1.6 7.8-.4 1.2-1.2 1.6-.8.4-6.3-.8-3.9-30.9-32.5-13.3-8.6-1.6-2.6-.4-2.7-.4-3.5 8.2 1.2 22.3 20.3 5.9 2.7 2.7.4h1.2l2.3-.8 2.7-1.6 2.3-7-5.9-15.3-15.6-16.4-43-34.8-1.2-1.6-1.6-1.2-.8-3.5.8-2.7.4-3.5-4.7.8-3.5.8-21.9-16-7-8.6 1.2-3.5 6.3 2.3h2l2.3-.8 5.1-7.8.4-4.7-19.6-29.7-8.2-5.1-2.7-.4h-1.6l-7.8 5.9-1.2 1.2-2.3.8-16.8-11-.4-3.9.4-2.7 1.2-1.2 2.3-3.5 7.4-.4 12.5 3.9 5.9-.8 7.8-6.3 11.7-30.9 1.2-9.8-6.3-19.9-6.3-7.8-.4-2.3.4-2.7h19.7l2.3-.8 15.3-30.1 2.3-2.3 9.8 7.4 13.7 18.8 14.5 36 6.3 9.8 10.6 36.4 15.3 96.2v34.4l6.3 12.9 3.5 3.5 5.9 2.7 3.9.4 5.1-.4 5.5-4.7 3.5-.8 22.7 7.4 13.7-7.8 31.3.4 5.9-1.6 2.7-2.7 2.3-11-.4-2.7-1.2-3.5-19.9-4.7-59.8-.8-3.5-.8-3.5-46.1 1.2-4.7 3.5-4.7 11.3-3.5 57.1-3.5 3.5-.4 4.7-3.5 1.6-2.7.4-6.6-.4-3.9-3.5-4.7-9-3.9-11.3-1.6-43.4 4.7-5.1-1.2-4.7.8-4.7 3.5-2.7 1.6-3.9-1.6-11-50.8-5.1-11.3.4-2.7 5.9-2.3 17.6 2.3 27-8.6 27.4-2.3 7.4-3.5 3.9-12.5v-3.5l-.4-3.9-8.2-5.1h-12.9l-8.6 4.7-41.1 4.7-9.8-2.7-12.1 2.3-3.1-1.3-3.5-1.2-12.1-25.8-.4-3.9v-2.7l.4-3.5 1.2-.4 5.1 3.5 11 18.8 1.2 2 3.5.4h2.3l2.7-.8 2.7-5.5-4.7-22.3-10.6-19.6-7.8-12.1-5.1-14.1-.8-3.5v-1.2l.8-2.3 1.2-1.2.4-1.6 14.9 1.2 20.7-7.8 28.6-3.9h1.6l14.5 13.7.8 2.3-.4 2.7-56.3 15.6-2.7 2.3 1.2 18 3.9 2.3 19.6-1.2 28.6 3.9 14.9-7h.4l4.7 5.1 2.3 9 3.5 4.7 8.2 2 7 7 2.3 25.8 8.2 12.9.8 23.5 8.2 13.7 16.4 70-.8 7.8-1.2 1.2-.4 1.6-2.3 4.7 1.2 13.7 5.1 21.1-1.2 21.5 6.3 11 11.3 6.6 1.6.4.8 2.7v2.3l-.8 2.7-14.9 9-2.3 5.1 1.6 65.7-1.6 20.7 2 23.9-7.4 20.7-1.2 10.2 2 23.9-14.5 66.1-5.4 6zm-209.6-290.2l.4-1.2 4.7-2.7 3.5-.4 6.3 2.3 11.3 10.2 2.3 2.7 1.6 3.5.4 4.7-6.3-1.2-24.2-17.9zm225.7 459.5l27-66.5 16.4-61 6.6-11.3 2.3-25 2.7-5.9 5.5-51.6 10.2-29.7 2.3-4.7 3.5-60.6 2.7-21.5-5.5-80.6 2.7-12.5 1.2-.4 4.7-2.3 80.6-4.3 5.1-.4 7.4-5.1 3.5-4.7.4-4.3-.4-2.7-3.3-3.6-1.2-1.2-82.1-2-8.6-3.5-12.1-14.1-5.1-11.3-1.2-34.8 1.2-3.9 3.9-1.6 23.9-1.2h20.7l38.7-3.1 4.7-2.7 2.3-.8 1.2-1.6 1.6-1.2.4-4.7-2.3-5.5-3.5-3.5-5.9-3.5-34.4-.8-37.5 3.5-16-1.2-7-13.7-14.7-53.4-41.5-126.4-8.2-18.8-3.9-12.1-7.8-9.8-2.7-14.9.4-5.9.4-3.5 10.2-2.3 12.1 8.6 12.1 3.9h2.7l9.8-4.7h12.1l14.9-6.3 1.2-1.2 1.6-.8.4-1.2 1.2-.4.4-1.6v-1.2l-.8-2.3-17.2-7.8 2.3-3.5 31.7-7.4 15.6 11 5 6.4 11 6.6 30.5 55.9 5.9 19.9 11.7 15.3 6.3 17.6 2.7 21.5 3.5 4.7 1.6 4.7-1.6 17.6 9.8 41.1 4.3 31.3 6.3 14.1 3.9 36.4 2.7 7.8.8 15.3 3.5 11.3.4 70.8 2.3 6.6-3.1 34.4 6.3 14.1-3.9 19.6 2.7 11-2.7 35.2-2.7 5.9-4.3 48.1 2 15.3-5.9 10.2-.4 18.4-6.6 14.1-14.1 49.7-1.2 15.6-3.5 6.3-6.6 23.9-10.2 11-10.2 38.7-4.7 9.8-5.9 5.5-8.6 27-13 20.3-.8 3.9-1.2 2.7-.4 3.5-25 10.6-57.5 2.7-11.3-2.3-6.3-4.7-1.6-.4-2.7-5.5 3.2-16.4zm95.4 285.9l-5.9-7.8-22.7-9-17.2-3.9-34 2-3.9-1.2-6.3-9 3.5-3.5h25.8l13.7 6.3h1.6l13.7-8.2 11.3 1.2 16.4 16.4 7 12.9.4 2.7-3.4 1.1zm-19.6-56.3l-4.7-6.3-.4-2.7.4-3.9 2.7-.4 16.4 6.6 2.7.8 3.5-.8 2.3-3.9v-5.1l-1.2-4.7-10.2-7.8-4.7-6.6-11-8.6-1.6-3.9-.8-5.9h-8.6l-6.6-5.1.8-1.2.4-2.3.4-3.5 8.2 1.2 6.3 5.1 3.5 6.6.4 2.7 44.2 25.8 2.3 2.7 2.7 5.9 2.3 34.8-.4 5.1-1.2 1.6-.4 2.7-2.3 1.2-1.6.4-16-9-27.8-21.5zm190.5 67.7l-1.6 5.9-1.6 1.2-12.5 3.5-51.2 1.6-12.1-4.7-11.3 3.9-17.6-.8-20.3 2-20.3-3.1 7.8-7.4 41.1-2.3 4.7-2.7 14.1-.4 1.2-1.2 1.6-.8v-8.6l-10.2-13.3 2.3-3.5 1.2-.8-2.7-32.9 1.2-1.6.8-2.3 1.2-.4.8-1.2h7.4l28.6 11.7 18.4 12.9 11.3.8 3.9-1.2v-10.3l-5.1-8.2-8.2-3.9-12.5-16.4v-2.3l.4-2.7 21.5-4.3 11.3-5.1 3.9.4 5.9 28.9-3.4 69.6zm23.5-119.7l-27.4-25.4-4.7-2.3h-.4l-6.3 2.3-.4 22.3-3.9 2.3-82.1 2-7 1.6-38.3-2.7-8.6-3.5-5.9-8.2-50.5-39.1-7.4-3.9-8.6-9.8-29.3-26.2-11.3-11 .4-4.7.4-2.7 4.7-2.3 13.7 7.4 12.5 12.9 6.3 2.3 2.3 4.7 28.6 22.7 30.9 26.6 3.9 2.3 3.9-.4 1.6-2 2.3-1.2.4-3.5v-2l-.4-3.1-35.6-31.3-10.2-12.9 1.2-2.3 5.9.4 50.8 42.6 2.3 4.7 21.1 13.7 2.7.4 2.7-.4v-7.4l-8.6-10.6-4.7-2.3-5.9-7.8-5.1-2.3-21.9-25.4-7-5.1-2.3-5.1-.8-5.5 5.9.4 8.6 5.5 28.2 26.6 9.8 3.9 17.2 18 .8 2.3 25.8 18.8 1.2 1.2 2.7.4h2l2.3-.4 2.3-4.7-5.9-12.5-11.3-5.1-25.8-25.6-29.7-26.6-2.7-2.3-.8-2.3v-1.6l.8-2 1.2-.8.4-1.2 1.6-.8 6.3 2.3 29.3 28.6 20.3 15.6 30.9 28.6 7 2.3 3.9 4.7 3.5.4h2.7l3.5-.4.4-1.2 2.3-4.7v-7l-2.3-3.9-6.6-2.3-10.2-13.7-18.8-13.6-2.3-2.7-1.2-.4-.4-2.3.4-3.9 1.2-.8 15.6 11 6.6 7.8 12.1 7.4 9 8.6 2.7 5.1.4 2.7 12.1 3.9 32.1 30.5 2.3 4.7-1.4 2.7zm63.3 81.3l-7.8 7-18.4 3.5-9 3.9-9 8.2-4.3 11.3-2.3 2.7-1.2-.4-1.6-1.2-5.1-93.5 1.2-10.2 1.6-3.5 2.7-2.3 9.4 9.8 1.2.8.4 3.5-2.3 11.7 2.3 6.3 7.4 3.9 10.2 3.5 7.4 5.1 7.4 13.7 4.7 2.7 1.6.4 2.3 2.7 1.2.4.4 3.5v2.7l-.4 3.8zm20-135.3l-1.2.4-4.7 2.3-73.5 3.1-8.6-2.7 5.9-3.9 12.9-3.5 27.4 2.3 23.9-5.1h12.1l3.9 1.2.4 1.2 1.6 2.3v2.4zm55.5 32.9l-.4 2.7-9 5.1-32.5 1.2-10.2-5.1 1.2-2.3 1.2-2 45.4-6.3 3.9 1.2.4 2.7v2.8zm16.4-29.7l-17.6 4.7-20.7-1.6.4-4.7.4-2.7 11.3 1.2 3.9-4.7 13.7-4.3h2.7l3.5.8 1.6 1.6.8 3.5v6.2zm53.2 32.4l-2.7 2.3-4.7 2.3h-34.4l-5.1-2 1.2-6.3 3.1-4.7 7.4-2.7h29.3l4.3 1.2 1.2 3.5.8 2.7-.4 3.7zm17.6-44.2l-.8 3.5-3.5 3.5-33.2 5.9h-5.1l-6.6-3.5.4-3.5.8-2.7 1.2-1.2.8-1.6 46.5-4.7-.5 4.3zm17.6 7.5l.4-1.2 2.3-6.3 14.1-2.7h7l4.7 1.2 1.2 3.5.4 2.7-.4 3.9-3.9 2.3-22.7-1.2-3.1-2.2zm1.6-59.9l.4-4.7 1.6-3.5 2.3-2.7 5.1-2.3 3.5.8 1.2 1.2 1.6.4.4 1.2 1.2.4.8 3.9-.8 2.7-3.5 4.7-4.7 2.3-5.1-.4-4-4zm43.8 91.1l-1.2 3.5-35.2 3.1.4-3.5 2.3-3.9 7.4-5.1 22.3-1.2 3.9 1.2.4 3.5-.3 2.4zm51.6-41.4l-.8 3.5-22.7 9.8h-8.6l-5.1-3.5.8-7 .4-3.9 5.5-3.5 30.9-1.2-.4 5.8zm27-447.4l-.4 16.4-4.3 10.2-3.5 61.8-2.7 4.7-10.6 79.4-25.4 91.5-11.3 23.1-3.9 16-6.3 8.2-5.5 16-18.8 27-12.5 7-36 4.3-5.9 2.7-41.5 5.9-13.3-2.3-11 3.5-75.9 1.6-47.7-4.7-4.7 1.2-3.5 1.6-11-1.2-23.9 3.5-48.9-3.9-6.3 1.6-37.2-7-7.4-3.5-4.7-7.4 6.3-30.1 6.3-12.9 8.6-10.2 20.7-58.3 2.7-2.3 12.5-41.1 8.6-23.1 21.1-109.5-.8-18.8 3.9-11.3 3.5-135.3-8.6-94.6 1.6-6.6-1.2-20.7-6.3-10.2-6.6-63.4-4.7-12.5v-2.3l.8-2.7 12.9-3.5 116.5-6.3 43.8.8 171.3 2.7 9.8 1.2 10.2-2.3 1.2-1.2 1.6-.8v-11.3l-1.6-5.1-2.7-2.3-5.9-2.7-69.2-4.3-202.2-.8-23.9 3.5-68.8 2.7-5.1-4.7-1.6-.4v-10.2l4.7-8.2 1.2-11.3-2.7-7.4-11.3-10.2-7-10.2-16-48.9-23.3-51.5-2.3-8.6v-1.6l.4-2.7 7.8-6.3 11.3-2.3 3.5.4 2.3 1.2-2.7 3.5-.4 3.9v2.7l.4 3.1 8.2 5.1 26.2 2.3 17.6-4.7 82.9-7.8 2.3-2.3-10.6-16-2.3-2.7-9 2.7-36 2-15.3 1.6h-27.4l-26.6 4.7-1.2-3.5 5.9-3.5 69.6-11.3 52 3.9 5.9 3.1 27.4 28.9 2.3 2.7-5.5 3.5-56.3 2.7-19.6-2.3-28.9 4.3-7 2.7-22.3 1.2-7.4-.4-8.6 3.5-1.6 2.7-2.3 2.7v1.6l9.4 12.5 72.4-4.3 25.8-5.5 95.8-.4 17.2-5.1 113 4.7 9.8-1.2 4.7-3.5 3.5-7.4.8-2.7-2.3-6.3-2.7-2.3-.4-1.2-21.1.8-39.9-2.7-9.8-3.9-11.3 1.2-1.2 1.2-52.4 1.2-3.9-1.2v-9.8l11.7-27.4 1.2-.4 4.7-2.3 58.3 3.1 2.7 2.3-.4 1.6-56.3 2.3-1.2 1.2-1.6.8-.4 7.4.4 3.9 16 4.3 72 3.5 2.7.8 6.3-2.3 3.5-6.3.8-3.9v-2.7l-.8-3.5-1.6-.4-4.7-2.7v-.4l5.5-2.3h5.1l11 6.3 20.7 30.9 9 17.2 13.3 21.5 34.8 100.1 3.5 29.7 8.6 25 20.7 170.9-2.7 9.4 9.4 66.9 15.3 8.2 4.7 8.2.8 3.9.8 4.7-11-1.2h-2.3l-2.7.4-3.9 5.9-1.2 1.6-.4 2.7v1.2l.4 2.3 10.2 7.8 11.3 3.9 2.3 2.7 1.6 4.7v3.1l-.4 3.9-1.2.4-.8 1.2h-9l-5.9-3.5-2.3-6.3-3.5-.8h-2.7l-3.5.8-5.1 6.3zm39.5 455.6l-7 3.5h-11.3l-7.8-3.9.4-3.5 2.3-3.9 5.9-3.5 12.1.4 4.7 1.2 1.2 3.5.8 2.7-1.3 3.5zm-18.4-111.1l-14.1-6.6v-7.5l3.5-8.2 10.2-40.7 4.3-3.9 8.6-21.1 18.8-96.6 4.3-7.8 3.9-32.1 2.7-4.7-.8-26.6 5.9-36.8 1.2-32.5 6.3-23.5-2-43 3.1-12.1-4.3-33.2-.8-3.9-10.2-10.2-3.5-1.2-2.7-.4-9.8 3.9-2.7-.4-1.2-1.6-1.6-1.2-.8-2.3v-1.2l.8-2.3 9.8-6.3 7.4-2.3 3.5-2.7 1.6-.4 7.8-15.6 1.2-3.9-3.1-41.1-4.7-13.7.4-25.8-4.7-9.8-1.2-1.2-.4-1.6-14.5-1.2-3.9-2.3v-3.9l11.3-5.5 6.6-12.5-9-55.1-11.7-41.5-8.2-45.4 76.3 5.5 2.7-1.6 2.3-6.3v-2.3l-.8-2.7-12.9-6.6-18.8-5.1-16.4-1.2-15.3 2-7.4-.8-8.6 3.5-.4 1.2-1.2.4-1.6 2.7-3.5-1.6-24.6-63.4-9.4-17.6.8-5.9.4-3.5 4.7-3.5 87.2 9.4 12.1 14.1.8 1.2 5.1 18.8 7.8 8.6 18 38.7 7 23.5 4.7 6.3.4 1.6 2.3 4.7v10.2l7.4 14.9 8.6 33.2 9.4 18.8 8.2 45 5.9 12.5 3.5 12.5-2.3 11 8.2 28.6v27.4l4.7 14.1-1.2 33.6.8 11 3.1 27-5.1 41.1 1.6 17.2-5.1 17.2v30.9l-12.9 64.5 2.3 14.5-10.6 43.4-1.2 15.6-12.9 38.7-1.6 19.9-6.3 9.8-5.5 19.6-18 27-1.2 9.8 1.2 3.9 10.2 5.1 11 1.2 23.9-9.4 2.3-.4 5.9-9.8 2.7 1.2.4 2.3 3.5 1.2h7l7.8-5.1 15.3-36.8 7-34.4 3.5-6.3 8.6-37.5 3.5-4.7 2.3-4.7 1.2-21.5 6.6-18.8 1.2-1.2.4-1.6 2.7-2.3.8 13.7 4.7 3.9 4.7 2.3 33.2-.8 2.3 1.2 3.5.4 1.2 2.7 1.2 4.7-42.2 4.7-4.7 3.5-2.3 6.3v2.3l.8 2.7 1.2.4 18.4 3.9h8.6l2.3 2.3-7.4 2.7-18.8-1.6-11 8.2-2.3 2.7-1.6 4.7v3.5l2.3 6.3 3.5 4.3 36.4 2.7-1.2 4.7-1.2 2.7-49.7 4.3-1.2 9 1.2 5.1 3.5 5.5 7.4 2.3 23.9-3.1-.4 3.5-.4 2.7-1.2 1.2-.4 1.6-25.8 4.3-8.2-2.3-2.7.8-3.9 2.7-2.3 9v2.7l.8 3.5 14.1 5.1 4.7.4 5.9.4-1.2 7.4-7.8 11-12.1 8.2-10.2 3.5-32.1 3.1-38.3 12.5-25.8 4.3-21.1 23.5-17.2 8.6-34.8 4.7-24.1-.6zm247.2 206.5l-18.8 15.6-1.2 1.2-2.7.8-3.9-.8-8.6-7.8-6.6-2.3-9-11.3-9.8-7.4-19.6-25.4-14.9-10.2 14.1 3.9-4.7-3.5-8.6-12.5-8.6-6.3-7.4-2.3-18.4-22.3-2.3-7-23.5-18.8-50.8-50.1.4-5.5.4-3.5 7.4-.8 5.9 2.3 39.1 44.2 15.3 11 14.5 18.4 8.2 5.5 21.1 26.6 13.3 7.4-3.9 6.3 8.2 7 7.4 10.2 29.3 26.2 9 2.7 4.7.4h1.2l2.3-.4 2.7-2.7.4-3.5v-2.3l-7.4-13.3-64.5-60.2-7.4-11.7-1.6-4.7v-2.3l.4-2.7 1.6-.4 32.1 20.7 15.6 17.2 2.3 2.7 11 1.2 3.9-1.2 1.6-2.7.8-2.7-7.4-14.9-5.1-5.1-7-3.5-10.2-13.3-19.9-14.1-2.3-1.6-1.2-3.5-.4-2.7.4-3.5 7.4-.8 3.9.4 23.1 23.9 11.3 6.6 7.4 11.3 23.5 17.6 6.6 9.8 1.2 9.8-4.7 21.1 4.7 35.6-1.3 4zm-3.9-109.5l-9.8-3.9-19.6-19.6-3.5-7.4-11.3-9-5.9-7.8-11.3-7.4-27.4-27 10.6 2.3-11-9.8.4-4.7.8-2.7 18.4-7 2.7-.4h2l12.5 10.6 14.5 16.4 22.7 16 50.5 46.1 4.7 2.7 11.3 1.2 3.9-1.2 1.6-2.7.4-5.9-2.3-6.3-20.3-17.2-7-2.3-12.1-18-13.3-10.2-7.4-2.3-13.3-12.9 16.4 16.4-21.1-19.9-6.3-2.3-3.9-7.8-13.7-10.2-2-4.7v-3.5l.4-3.9 1.6-.4 6.3 2.3 48.5 43.8-1.6-4.7 5.9 6.3 12.5 3.9h1.6l2.3-.8 2.3-5.1 27.8 12.5-28.6-23.9-36-26.2-9-9.8-1.6-2.3.4-2.7 3.9-.8 2.7.4 21.9 21.5 10.2 5.9 15.3 11.3 8.6 11.7 19.9 15.3 7 2.3 27.4 28.6 29.3 24.6 2.3 2.7 1.2.4.4 2.3v2l-.4 2.3-13.3 7.4-22.7 8.6-2.7-.4-9-5.1-39.9 1.2-32.1.8-6.3-2-7.4-7.6zm120.1 138.5l-58.3 2-6.6 1.6-36-.8-8.6-2.3 1.2-3.9 15.3-4.3 11.7-11.3h7.4l29.7 11.3 18.4 1.2 3.9-1.2 2.3-2.7 1.6-2.3v-1.2l-2.3-3.5-58-29.2-.4-2.3.4-2.7 2.7-1.6h11.3l49.3 20.3 23.9 12.1 7.4 2.3 4.7 3.5 2.3 4.7.8 4.3-24.1 6zm-214-658.3l-28.2-2.7-34.8 1.2-7.4 3.5-1.2 3.5-1.2 5.5 15.3 5.1 14.1-1.2 11.3 2.7 26.2-1.2 8.6-2.7.8-2.7v-1.6l-1.6-3.9-1.9-5.5zm-39.5-237.7l7.4-3.9.4-1.6v-1.2l-.4-2.3-1.2-1.2-.8-1.6-2.7-.8-2.3-1.2-28.2-5.9-37.2 1.2-4.3 3.5-.8 2.3-.4 3.5 7.4 7.4 4.7 1.2 27.4 3.1 31-2.5zm-32 179.9l-.4 2.7-.4 4.7 9 9 9.8 2.7 49.3-1.2 4.7-3.5 3.9-14.9-.4-3.5-1.6-1.6-50.1.8-23.8 4.8zm66.4 117.7l-2.7-1.6-54.4-2-14.1 3.9-.8 3.5-.4 5.5 8.6 3.1 59.8 2.7 7.4-2.3.8-3.9-.8-7.8-3.4-1.1zm-11.7-192.8l4.7-2.3 2.7-2.3 2.3-6.3-.8-1.6-1.2-.8-3.9-4.3-12.5-4.7-20.3 1.6-6.6-1.6-32.1 1.2-1.2 1.2-6.6 3.9-.8 3.5-.4 5.5 18.8 5.1 57.9 1.9zm90.4-183.1l1.6-2 .4-2.3 1.2-2v-9.8l-2-2.7-2.7-1.6-13.7-3.9-2.3 2.3-4.7 7-1.2 9 11.3 5.5h12.1v.5zm-158.8 554.6l46.1-4.7 12.9-5.1 3.5-4.7-1.6-2.3-12.1-11.3-47.3 2-3.9 1.6-10.2 8.2-2.7 9.8 4.7 3.9 10.6 2.6zm-120.9-72.3l-2.3-2.7-3.9-1.2-18.8 2.3-72-.4-59.8 2-12.1-3.5-78.6.4-8.6 3.5-22.3-1.6-53.2 2-4.7 2.3-4.7 3.9-2.3 6.3.4 1.6 1.2.4 5.9 4.7 20.7 3.9 26.2-4.7 26.2 2.7.4 4.3-.4 2.3-1.2.8-.4 1.2-8.6 2.3-2.7-2-.4-2-1.6-1.2h-2.7l-2.3 3.1-63.4 2.7-4.7 3.5-.4 3.5v2.7l.4 3.5 2 1.6 19.2 2.7h20.7l169.3-4.3 12.5 2.7 4.7-1.2 36 1.6-.8 4.3-.4 2.7-3.5.8-2.7 1.2-19.9 1.2-17.2-4.3-48.1 3.5-43.8-2.7-1.2 1.2-11.3 4.7-37.5-3.1-56.3 4.7-12.1-2.3-6.3 2.3-5.1 4.7-1.6 3.5-.4 4.7 3.1 7.4 3.9.4 6.6-2.7 90.7 3.1 51.2-2 56.3 1.6 18.8-2 75.5-3.9 8.6-3.5 28.9-2 4.7-2.3 1.6-.4 1.2-3.9v-7.2l-3.5-2.3-1.2-1.2-47.7-3.9-.8-3.9.4-2.3 3.9-1.2 36 1.2 9.8-3.9 4.7-4.3.8-2.3-2.3-3.5-5.1-4.3-28.2-2.3-51.2 4.7-70.4-1.6-20.3 2-50.1-1.2-.4-2.7 17.2-7 59.4.4 13.7-2.7 46.9 2 26.2-2.3 55.1.8 4.7-2.3 7.8-5.9.4-2.7v-2.3l-.8-2.7-1.6-1.7zm-310.9-532.7l.4-1.6 1.2-1.2.4-3.5-.8-5.1-1.2-.4-.4-1.1-4.7-3.5-3.9-.8-6.6.8-6.3 5.1-.4 3.9-.4 6.6 9 2.7 13.7-1.9zm262.4 626.5l-73.5 7-28.9-3.1-13.7 1.2-7.4-4.3h-2.3l-21.1 4.7-92.3-1.2-20.7 3.5-27.4-1.6-31.3 1.2-3.5 4.7-.4 3.9.4 6.3 1.2.4 2.3 2.7 9 4.7h6.6l12.1-3.5 30.9 6.6 32.1-2.3 5.9 2.7 25.8 1.2 18.8-5.1 55.5 4.3.8 2.7-1.6 2.3-.8 1.2-1.6.8-1.2 1.2-48.9 4.3-20.3-3.1-108.3-3.5-22.7 9-3.5 3.5-2.7 3.5-2.3 6.3.4 5.9 2 2.7 2.7 1.6 7.8 2.7 25.8-2.3 1.6 1.2 5.1 1.2 80.6-.4-.4 4.7-3.9 9.8-1.6.8-9.8 4.7-22.7 2.3-29.7-2.7-63.4.4-4.7 2.3-1.2.4-3.5 4.7-7.8 19.9 5.9 9.4 67.3 2 1.2 1.2 4.7 2.3 14.9-3.9 19.2 2.3 10.2-1.2 80.6 1.6 10.2-3.5 136.5-8.6 1.2-1.2 13.7-5.1 1.6-3.5 7.4-14.9-.8-4.7-1.6-1.2-1.2-2-4.7-1.2-31.3-.4-6.3 3.5-16.4-3.9-9 1.2-58.3.4-17.2 5.1-38.7-.8-14.9-5.1-.8-2.7.4-2.7 3.5-5.9 3.9-1.2 25.8 1.6 34-5.5 68.4.8 64.9-9.4 5.5-3.5 1.2-3.9-1.2-14.1-2.3-.8-1.6-1.2-22.3-3.9-8.6 5.1-4.7.4-62.2.8-4.7-2.3.8-2.7 1.2-1.6.4-2.7 5.1-3.1 5.9-1.2h7l7 1.6 75.9-5.1 9-4.7 11.3-12.1.4-4.3-2.3-5.9-37.4.3zm-16 143.2l-1.2-1.6-8.2-2.3-30.1 3.9-11-1.2-38.7 4.7-7.4-3.9-15.3 4.7-20.7-2-2 1.2-5.1 1.2-14.5-1.2-18.4 2.7-133.4-1.2-45.8 3.1-1.2 1.6-1.6 1.2-.8 2.3-1.2 1.2-1.2 11.3 4.7 5.9 39.9 4.3 16.4-1.2 1.2-1.2 5.9-2.3 9.8 5.5 7.4-3.5 34.8-4.7 18.8 1.6 70-.4 44.6-3.5h36l53.2-8.2 14.1-8.6 2.3-3.9v-1.6l-.8-2.7-.5-1.2zm72.7-272.6l-2.3-.4-1.6-1.2-5.1-.8-5.1 1.2-20.7-1.6-73.5 3.9-41.1-3.1-32.1 3.1-48.1-5.1-5.9 2.7-57.5 2-9 2.7h-20.3l-19.9 1.2-5.9 3.1-3.9 3.5-1.2 4.7 7.4 7.4 4.7.4 10.2-1.2 46.1 3.1 63.7-3.1 47.3 2 13.3-2.3 17.6 2.7 61.8-5.5 56.3 1.2 18.4-5.9 7.8-6.3.4-2.3v-1.2l-1.8-4.9zm92.3-500.6l-.8-1.2-1.6-.4-1.2-1.2-13.7-3.9-4.7 1.6-5.9 4.3-.4 3.5-.4 5.9 8.6 5.1 14.9-1.2 6.3-4.7.4-2.7v-1.6l-.4-2.3-1.1-1.2zm-644.5 795.1l4.7-2.3 2.7-2.3 1.2-3.9-1.2-10.2-3.5-4.3-8.6-5.1 2.7-1.6 1.6-1.2 18.4-2.3 4.7-3.5 3.5-3.5 3.9-8.6-.8-3.9-1.6-1.6-1.2-2.3-4.3-1.2-48.1-1.6-4.3 2.3-1.2.4-1.2 3.9 1.2 11.3 4.7 6.3 9 3.9v2.7l-19.2 5.1-2.7 2.3-5.9 8.6-.4 5.9 10.2 5.1 35.7 1.6zm554.2-354.8l-2.3-2.7-3.9-1.2-18.8-1.6-7 1.6-80.6 2-23.9-2.7-15.3 2.3-17.6-2.4-11.3 2.7h-22.3l-12.1 2.7-19.6-3.1-.8 1.2-9.8 3.5-68.4-1.2-16 3.5-9.8 3.9-.4 2.7-.4 4.7 4.7 5.5 36.4-.8 25-3.1 14.1 2.3 5.1-1.2 61.4 1.6 70-5.5 66.9 1.6 52.4-3.1 4.7-3.5 2.3-5.1-2.3-4.3-.4-.3zm-384.9 613.3l-2.3-.4-1.6-1.2-36.8-15.3h-10.2l-.4 1.6-2.7 3.5-1.2 7.4 33.2 19.2 12.1 2.3 5.9-1.6 6.3-3.9.4-3.5v-2.7l-.4-3.5-2.3-1.9zm112.3-816.2l18.8-2 59.8-.4 61.4-2 39.5 3.1 36-2 28.2 2.7 12.9 1.2 16-5.1.4-3.5v-2.7l-.8-3.9-3.5-6.3-29.7-4.7h-23.9l-102.9-2.7-9.8 1.2-22.7-4.3-75.5 3.9-26.2 3.9-33.6-.4-11.3 2.7-9.8 7-.4 2.7-.4 4.7 11.3 6.3 66.2.6zm-122.8-228.4l8.6.4 9-3.9.4-3.9v-3.6l-1.2-4.7-2.3-2.7-1.6-.4-1.2-1.2-14.9-2.3-2.7 1.6-1.2.3-2.7 5.9 4.7 11 5.1 3.5zm262.4-8.3l.4-2.7 1.2-2.3.4-5.1-1.6-6.3-2-.4-3.5-2.7-4.7-1.2h-10.2l-4.7 2.3-3.9 1.6-4.3 3.9-.4 2.3 12.5 9 20.8 1.6zm-156.4 66.5l-3.5-.4h-2.3l-10.2 2.3-6.3 4.7-.4 2.7-.4 3.5 6.3 9 2.3.4 22.3-4.7v-7h-5.1l-2.7-10.5zm-56 416.9l7 3.9 17.2 2.7 54.8-2 4.7 2.3 19.2-2.3 13.3 2.7 16-2.7 42.6 1.6 12.1-3.5 43.4 1.2 93.5-1.6 13.3-2.7 3.5-3.5 1.2-1.2.8-2.3v-1.2l-2.3-6.6-2.7-2-3.5-.4h-2.3l-5.9 1.2-18.8-1.6-28.9 2-70.4-.8-10.2 2.7-45-.8-16.4 3.1-22.7-1.2-22.7 2.3-73.5-1.6-14.9 7-.8 2.3-1.6 3zm344.6-168.9l-.8-1.2-2.3-.4-30.1-4.3-57.1-.8-16-2.7-27 1.2-34.4-3.1-102.9 3.9-6.6-1.6-53.2 2-4.7 2.3-2.7 2.3-4.7 7.4 6.3 7.4 7.4 2.7h25.8l6.6 1.6 39.9.8 27-3.1 150.6-.8 46.1 3.1 27.8-3.1 3.5-4.3 2.3-6.3-.8-2.3v-.7zm-32.8 58.7l-1.2-1.2-4.7-.4-15.3 1.2-36-1.6-193.5-4.3-44.6 4.7-7.4 4.7-.4 2.7v1.6l.8 2.7 1.6 1.2 1.2 1.6 9 3.5 36.4 2.7 23.9-2 193.6 2.3-.4 7-2.3 5.5-3.9 1.2-63.4-3.1-18.8 2-16-1.2-11.3 2.7h-22.3l-22.7-3.9-66.1 4.3-27.8-2.7-14.9 2.3-3.9 2.7-1.6 3.5-1.2 4.7 6.3 7.8 17.6 6.6 27.4-4.7 39.5 1.6 6.6-2 30.9 1.6 41.1-2 160.7-2.3 13.3-2.7 3.5-3.5 1.2-1.2.4-8.2-2.3-5.5-1.2-2-4.7-1.2-15.3 2-22.7-1.2-.8-3.5v-2.7l.8-3.5 3.9-1.2 37.2.4 4.7-3.5 2.3-3.9v-1.6l-.4-2.3-1.2-.4-3.9-4.7-31.7-.6zm-13.7-355.6l-7.4-3.5-27.4-2.7-39.5 2-27-4.3-12.1 2.3-60.6-4.3-16.4 4.7-79.8 1.6-73.5 7.8-10.2 7.8-2.7 8.2 6.3 7.4 13.7-1.2 4.7 2.7 76.3-7.8 85.7-3.9 152.1 4.3 18.4-1.2 1.2-1.6 1.6-1.2.4-2.7 1.2-2v-5.1l-1.2-1.6-3.8-5.7zm-437.7 109.9l-1.2-1.6-17.2-3.9-57.5 5.9-9 5.1-2.3 5.1-2 11 21.1 6.3 46.9-5.9 17.6-5.1 5.9-4.7.4-3.9-.4-6.6-2.3-1.7zm-24.2-72.3l2.3-6.3-.8-2.3-5.1-6.3-3.9-1.2-34.4.4-42.6 7.8-7.4 4.7-.8 4.7-.4 7 18.8 6.3 65.7-9.4 8.6-5.4zm-143.6 411.8l-7-2.3-23.5 2.3-3.5 4.7-.8 9.8 13.7 7.8 29.7-4.3.4-2.7v-2.4l-.4-3.5-8.6-9.4zm115.8-471.6l1.2-3.9v-5.1l-2.3-4.3-2.3-2.7-1.6-.4-36.4-1.6-11.3 2.3-33.7 10.6-.8 3.5-.4 5.9 4.7 10.6 3.5.8h2.7l69.6-11.3 7.1-4.4zm715.3 527.2l-2.3-2.7-3.9-.4-62.6 2.3-1.2 2.3-1.2 3.5 10.6 11 6.3 1.6 46.1-3.5 7.8-5.1 2.3-3.9v-1.6l-.8-2.3-1.1-1.2zm-821.3-106l-3.5-4.3-5.1-1.6-26.6 3.5-3.5 4.7-1.2 11.3 14.9 4.7 21.1-2.3 5.5-3.5.4-3.5v-2.7l-.4-3.5-1.6-2.8zm745.1-454.5l-19.9-3.5-37.2-1.6-7.8 3.5-.4 3.9-.4 6.6 12.1 6.3 50.8 6.6 7.8-2.3 1.2-3.9-1.2-11.3-5-4.3zm-581.6 612.1l-4.7-3.1-22.3-5.5-42.6 4.3-.4 3.5-.8 5.9 9.4 7.4 24.6 5.5 24.6-3.9 12.5-5.1 2.3-3.5v-1.2l-2-2.3-.6-2zm-36.4 52l23.5-1.2 7.8-3.5.8-3.9-.8-8.6-5.1-11-45.8-2-17.2 3.5-3.1 3.5-2.3 5.1-2.3 11.3 5.9 3.9 38.6 2.9zm-23.8 91.9l1.2 1.2 3.5.4 12.1-3.9 10.2-9.8 3.9-18.4-2.3-5.9-2.3-.4-1.6-1.2-34.4-2.7-12.9 1.2-13.3 8.6-3.5 7.4-1.2 13.7 9.8 7.4 30.8 2.4zm29.3-51.6l4.7-2 9.8-7.4.4-3.5v-2.7l-2.3-7.4-3.9-2.3-57.5-.4-4.7 3.5-1.2 3.9v12.1l54.7 6.2zm-17.6-136.1l48.5-1.6 17.2-5.1 3.5-4.7.4-2.7-.4-4.3-1.6-1.2-1.2-1.6-2.3-.4-8.2-4.7-11.3-1.2-13.7 1.6-46.1-3.1-7.4 3.1-.8 2.3-1.2 1.6-1.2 5.1 6.3 9 19.5 7.9zm4.3-127.1l8.6-2.7h34l14.9-3.1 1.2-3.5.4-2.7-.4-3.5-1.6-1.6-2.3-.4-1.6-1.2-13.7-2.7-45.8 1.2-1.2.8-3.5 3.5-1.2 9.8 7.4 5.5 4.8.6zm46.5 140l-2.3-.8-28.2-5.5-32.5 1.2-7.4 3.5-.4 2.3-1.2 1.6-1.2 7 8.6 6.6h6.6l7-2 39.5 3.5 12.5-1.2 3.5-4.7.4-4.7-2.3-5.9-2.6-.9zm8.3-53.6l1.2-1.2 5.1-2.3.4-3.5v-2.8l-.8-3.9-1.6-1.2-1.2-1.6-6.3-3.1-27.4-2.7-34.4 1.2-3.9 2.7-.8 1.6-2.7 3.5-2.7 9.8 43 5.1 32.1-1.6zm-37.6-53.6l30.9-2 17.6-6.6.4-3.5v-2.7l-.8-3.5-1.6-1.6-2.3-.8-2-1.2-12.1-2.3-14.9 2.3-5.9-1.2-40.7 1.2-4.7 3.5-.4 2.3-.4 3.5 6.3 5.9 30.6 6.7z"/><polygon fill="#240F10" points="1835.4,923.9 1871.4,922.4 1873.4,921.6 1878.8,917.3 1882.8,911 1882.8,908.7 1882.4,905.9 1881.2,905.5 1880.4,904.4 1878.5,903.6 1871.4,900.9 1808.1,905.2 1794.4,908.7 1767.8,909.5 1736.9,915.3 1732.2,920 1731.8,922.8 1732.6,927.1 1737.7,933.3 1741.6,934.5 1756.8,934.5 1756.8,938 1750.2,938 1745.5,939.2 1744.3,940.7 1740.8,944.3 1740.4,948.2 1745.5,958 1745.5,969.3 1743.9,971.3 1739.6,973.6 1738.8,976.7 1738.8,979.9 1739.6,983 1741.2,983.8 1756,990.4 1757.2,994.3 1757.2,999.8 1754.5,1005.3 1752.5,1005.7 1740,1008.8 1734.5,1012.7 1728.7,1021.3 1728.3,1027.2 1734.1,1032.7 1742,1035.4 1767,1034.2 1768.2,1033 1770.5,1032.7 1775.6,1028 1790.1,1024.4 1797.1,1019.4 1831.9,999.8 1839,993.5 1840.9,988.9 1838.2,972.8 1835.8,972.4 1834.3,971.3 1811.2,967.3 1810.8,965.8 1812.8,962.7 1815.1,962.3 1817.1,961.1 1869.9,953.3 1874.5,950.5 1879.2,946.6 1879.6,943.1 1879.6,940.4 1878.8,936.8 1877.3,935.3 1873.4,934.1 1851.5,935.3 1850.7,936.4 1845.2,938.8 1804.9,939.6 1800.2,937.2 1799.1,936.4 1798.7,933.7 1799.1,932.1"/><polygon fill="#240F10" points="1729.8,843.4 1721.6,848.4 1720.5,852.4 1732.2,860.6 1748.2,864.5 1820.6,859.4 1821.7,855.5 1821.7,846.9 1819.4,842.2 1818.6,841.4 1814.7,840.2 1778.3,837.5"/><polygon fill="#240F10" points="1685.3,816.8 1684.5,820.3 1689.2,829.3 1695.4,834.4 1699.3,834.8 1776.4,826.9 1777.6,825.4 1779.1,824.2 1779.9,818.7 1779.1,815.6 1777.9,815.2 1777.6,814 1775.6,813.6 1767.8,808.9 1749,805 1685.6,814.4"/><polygon fill="#240F10" points="1630.9,786.7 1629.7,791.3 1648.9,800.3 1708.3,799.6 1720.8,797.2 1721.6,795.3 1722.8,794.9 1723.2,791 1722.4,787.4 1719.7,783.1 1715.8,778.4 1708.3,776.9 1634,782"/><polygon fill="#240F10" points="1588.7,756.9 1587.5,761.2 1606.6,770.6 1666.1,769.4 1678.6,767.1 1679.4,765.5 1680.2,765.1 1681,760.8 1680.2,757.7 1677.4,753 1673.5,748.3 1666.1,746.8 1591.8,752.2"/><polygon fill="#240F10" points="1745.9,878.6 1737.3,884.4 1734.5,890.3 1743.5,899.3 1758.4,902 1769.7,900.9 1775.6,898.1 1842.9,890.3 1866.7,883.3 1867.5,880.5 1867.5,878.2 1866.7,874.7 1864.4,873.5 1862.8,871.9 1795.9,869.2"/></svg>