<svg xmlns="http://www.w3.org/2000/svg" xmlns:xlink="http://www.w3.org/1999/xlink" viewBox="0 0 1560.3 723.8"><path fill="#FFF" d="M936.7 172.9h-175V189c8.4.8 15.3 1.7 20.8 3 6.6 1.5 11.5 3.5 15.1 6.6 10.5 8.9 10.2 25.6 10.2 55.8V457c-.1 41.3 3.7 99.6-54.7 98.9-25-.3-50.8-18.2-58.8-50.8h-20.1c8.5 54.6 37.6 91.7 108.1 91.7h.2c59.9 0 113.4-27.5 113.3-121.1V254.4c0-30.2-.2-46.2 10.2-55.1 6.7-5.7 12.2-8.5 30.5-10.3l.2-16.1zM1137.3 172.9h-175V189c18.3 1.8 23.8 4.6 30.5 10.3 8.3 7.1 9.9 18.9 10.2 38.8 0 6-.1 12.8.1 20.3v242.4c-.1 7.5-.1 14.3-.1 20.3-.3 19.9-1.8 31.6-10.2 38.8-6.7 5.7-12.2 8.5-30.5 10.3v16.1h264.4l27.9-80.9h-20.5c-20.3 44.5-51.7 49.7-80.4 49.7-23.4 0-39-1.3-50.1-8.5-9-5.7-12.3-20.8-12.4-46.3v-246c0-30.2-.2-46.8 10.2-55.8 6.7-5.7 17.6-7.8 35.9-9.6v-16z"/><path fill="#FFF" d="M1429 172.9h-175V189c18.3 1.8 23.8 4.6 30.5 10.3 8.3 7.1 9.9 18.9 10.2 38.8 0 6-.1 12.8.1 20.3v242.4c-.1 7.5-.1 14.3-.1 20.3-.3 19.9-1.8 31.6-10.2 38.8-6.7 5.7-12.2 8.5-30.5 10.3v16.1h264.4l27.9-80.9h-20.5c-20.3 44.5-51.7 49.7-80.4 49.7-23.4 0-39-1.3-50.1-8.5-8.9-5.7-12.3-20.8-12.4-46.3v-246c0-30.2-.2-46.8 10.2-55.8 6.7-5.7 17.6-7.8 35.9-9.6v-16z"/><defs><path id="a" d="M319.4 206.5c13.9 41.4 22 85 25 128.4 1 14.7 1.4 29.6 1.4 44.5h-.1c0 14.9-.3 29.7-1.4 44.5-3.7 53.2-14.8 106.3-35.2 155.6-7.9 19.1-17.3 37.7-28.2 55.4-2.6 4.1-5 8.4-7.7 12.5-5.6 8.2-11.5 16.4-17.9 24.2-7.3 9-15 17.7-23.3 25.8-8.8 8.6-18.2 16.6-28.2 23.7-.8.5-1.6 1.2-2.4 1.8v1c18.5-.5 36.9-5.2 53.8-13 8.2-3.8 16-8.3 23.3-13.4 1.6-1.1 3.2-2.1 4.7-3.3 9.3-7 17.9-14.8 25.8-23.3 10.5-11.1 19.8-23.1 28.2-36 6.7-10.2 12.8-20.6 18.3-31.4 21.5-42.1 35.2-88.9 42.3-134.8 4.6-29.9 6.7-59.9 6.7-89.3 0-29.5-2.1-59.4-6.7-89.3-7.1-45.9-20.8-92.7-42.3-134.8-2.5-4.9-5.2-9.7-7.9-14.5-11.2 20.9-20.5 43-28.2 65.7"/></defs><clipPath id="b"><use xlink:href="#a" overflow="visible"/></clipPath><linearGradient id="c" gradientUnits="userSpaceOnUse" x1="600.274" y1="469.374" x2="607.765" y2="469.374" gradientTransform="rotate(-90 13355.73 103317.127) scale(192.3085)"><stop offset="0" stop-color="#D42D28"/><stop offset=".308" stop-color="#D12C28"/><stop offset=".509" stop-color="#C92A26"/><stop offset=".681" stop-color="#BA2723"/><stop offset=".835" stop-color="#A42220"/><stop offset=".976" stop-color="#891C1B"/><stop offset="1" stop-color="#841B1A"/></linearGradient><path clip-path="url(#b)" fill="url(#c)" d="M201.6 140.7h203.1v582.9H201.6z"/><g><defs><path id="d" d="M373.2 100.4c2.6 3.7 5.2 7.3 7.7 11.1 44.3 65.9 65.6 144.8 71.1 223.5 1 14.7 1.5 29.6 1.5 44.5s-.5 29.7-1.5 44.5c-5.4 78.6-26.7 157.6-71.1 223.5-5.6 8.2-11.5 16.4-17.9 24.2-7.3 9-15 17.6-23.3 25.8-8.8 8.6-18.3 16.6-28.2 23.7-.8.5-1.6 1.2-2.4 1.8v1c18.5-.5 36.9-5.2 53.8-13 8.2-3.8 16-8.3 23.3-13.4 1.6-1.1 3.2-2.1 4.7-3.3 31.2-23.4 54.6-56.1 72.3-90.6 21.5-42.1 35.2-88.9 42.3-134.8 4.6-29.9 6.7-59.9 6.7-89.3 0-29.5-2.1-59.4-6.7-89.3-7.1-45.9-20.8-92.7-42.3-134.8-16.3-31.8-37.6-62.1-65.3-85-8.9 9.4-17.1 19.5-24.7 29.9"/></defs><clipPath id="e"><use xlink:href="#d" overflow="visible"/></clipPath><linearGradient id="f" gradientUnits="userSpaceOnUse" x1="600.833" y1="469.223" x2="608.324" y2="469.223" gradientTransform="rotate(-90 8766.675 66337.023) scale(123.5682)"><stop offset="0" stop-color="#D42D28"/><stop offset=".308" stop-color="#D12C28"/><stop offset=".509" stop-color="#C92A26"/><stop offset=".681" stop-color="#BA2723"/><stop offset=".835" stop-color="#A42220"/><stop offset=".976" stop-color="#891C1B"/><stop offset="1" stop-color="#841B1A"/></linearGradient><path clip-path="url(#e)" fill="url(#f)" d="M309.2 70.3h203.1v653.3H309.2z"/></g><g><defs><path id="g" d="M416.9 35.1v1c28.5 19.9 52.6 47 71.7 75.4 44.3 65.9 65.6 144.9 71.1 223.5 1 14.7 1.5 29.6 1.5 44.5s-.5 29.7-1.5 44.5c-5.4 78.6-26.7 157.6-71.1 223.5-19.1 28.4-43.2 55.6-71.7 75.5v1c29.3-.7 58.5-12.2 81.8-29.7 31.2-23.4 54.6-56.1 72.3-90.6 21.5-42.1 35.2-88.9 42.3-134.8 4.6-29.9 6.7-59.9 6.7-89.3 0-29.5-2.1-59.4-6.7-89.3-7.1-45.9-20.8-92.7-42.3-134.8-17.6-34.5-41.1-67.2-72.3-90.6-23.4-17.6-52.6-29.1-81.8-29.8z"/></defs><clipPath id="h"><use xlink:href="#g" overflow="visible"/></clipPath><linearGradient id="i" gradientUnits="userSpaceOnUse" x1="600.883" y1="470.275" x2="608.374" y2="470.275" gradientTransform="rotate(-90 12159.39 93611.295) scale(174.3027)"><stop offset="0" stop-color="#D42D28"/><stop offset=".308" stop-color="#D12C28"/><stop offset=".509" stop-color="#C92A26"/><stop offset=".681" stop-color="#BA2723"/><stop offset=".835" stop-color="#A42220"/><stop offset=".976" stop-color="#891C1B"/><stop offset="1" stop-color="#841B1A"/></linearGradient><path clip-path="url(#h)" fill="url(#i)" d="M416.8 35.1h203.1v688.6H416.8z"/></g><g><defs><path id="j" d="M416.8 35.1c-18.5.5-36.9 5.2-53.8 13-8.2 3.7-16 8.3-23.3 13.4-1.6 1.1-3.2 2.1-4.7 3.3-9.3 6.9-17.9 14.9-25.8 23.3-10.5 11.1-19.8 23.1-28.2 36-6.7 10.2-12.8 20.6-18.3 31.4-21.5 42.1-35.2 88.9-42.3 134.8-4.6 29.9-6.7 59.9-6.7 89.3-.1 29.5 2.1 59.4 6.7 89.3 7.1 45.9 20.8 92.7 42.3 134.8 2.5 4.9 5.2 9.7 7.9 14.5 11.5-21 20.8-43 28.4-65.7-13.9-41.5-22-84.9-25-128.4-1-14.7-1.4-29.6-1.4-44.5h.1c0-14.9.3-29.7 1.4-44.5 3.7-53.2 14.8-106.3 35.2-155.6 7.9-19.1 17.3-37.7 28.2-55.4 2.6-4.1 5-8.4 7.7-12.5 5.6-8.2 11.5-16.4 17.9-24.2 7.3-9 15-17.6 23.3-25.8 8.8-8.6 18.2-16.6 28.2-23.7.8-.5 1.6-1.2 2.4-1.8l-.2-1z"/></defs><clipPath id="k"><use xlink:href="#j" overflow="visible"/></clipPath><linearGradient id="l" gradientUnits="userSpaceOnUse" x1="600.015" y1="472.572" x2="607.505" y2="472.572" gradientTransform="rotate(90 103529.513 -12334.682) scale(192.3085)"><stop offset="0" stop-color="#D42D28"/><stop offset=".308" stop-color="#D12C28"/><stop offset=".509" stop-color="#C92A26"/><stop offset=".681" stop-color="#BA2723"/><stop offset=".835" stop-color="#A42220"/><stop offset=".976" stop-color="#891C1B"/><stop offset="1" stop-color="#841B1A"/></linearGradient><path clip-path="url(#k)" fill="url(#l)" d="M213.8 35.1h203.1V618H213.8z"/></g><g><defs><path id="m" d="M309.2 35.1c-18.5.5-36.9 5.2-53.8 13-8.2 3.8-16 8.3-23.3 13.4-1.6 1.1-3.2 2.1-4.7 3.3-31.2 23.4-54.6 56.1-72.3 90.6-21.5 42.1-35.2 88.9-42.3 134.8-4.6 29.9-6.7 59.9-6.7 89.3-.1 29.5 2.1 59.4 6.7 89.3 7.1 45.9 20.8 92.7 42.3 134.8 16.2 31.8 37.6 62.1 65.3 85 8.9-9.6 17.2-19.7 24.8-30.1-2.6-3.7-5.2-7.3-7.7-11.1-44.4-65.9-65.6-144.8-71.1-223.5-1-14.7-1.5-29.6-1.5-44.5s.5-29.7 1.5-44.5c5.4-78.6 26.7-157.6 71.1-223.5 5.6-8.2 11.5-16.4 17.9-24.2 7.3-9 15-17.6 23.3-25.8 8.8-8.6 18.2-16.6 28.2-23.7.8-.5 1.6-1.2 2.4-1.8l-.1-.8z"/></defs><clipPath id="n"><use xlink:href="#m" overflow="visible"/></clipPath><linearGradient id="o" gradientUnits="userSpaceOnUse" x1="600.429" y1="474.2" x2="607.92" y2="474.2" gradientTransform="rotate(90 66549.96 -7745.656) scale(123.5693)"><stop offset="0" stop-color="#D42D28"/><stop offset=".308" stop-color="#D12C28"/><stop offset=".509" stop-color="#C92A26"/><stop offset=".681" stop-color="#BA2723"/><stop offset=".835" stop-color="#A42220"/><stop offset=".976" stop-color="#891C1B"/><stop offset="1" stop-color="#841B1A"/></linearGradient><path clip-path="url(#n)" fill="url(#o)" d="M106.2 35.1h203.1v653.3H106.2z"/></g><g><defs><path id="p" d="M201.6 35.1c-29.3.7-58.5 12.2-81.8 29.7-31.2 23.4-54.6 56.1-72.3 90.6-21.5 42-35.2 88.8-42.3 134.7-3.9 25.3-6 50.6-6.6 75.8v27.5c.5 24.9 2.6 50.2 6.6 75.3 7.1 45.9 20.8 92.7 42.3 134.8 17.6 34.5 41.1 67.2 72.3 90.6 23.3 17.4 52.5 28.9 81.8 29.7v-1c-28.5-19.8-52.6-47-71.7-75.4-44.3-66-65.6-144.9-71.1-223.5-1-14.7-1.5-29.6-1.5-44.5s.5-29.7 1.5-44.5c5.4-78.7 26.7-157.6 71.1-223.5C149 83 173.1 55.8 201.6 35.9v-.8z"/></defs><clipPath id="q"><use xlink:href="#p" overflow="visible"/></clipPath><linearGradient id="r" gradientUnits="userSpaceOnUse" x1="600.597" y1="473.803" x2="608.088" y2="473.803" gradientTransform="rotate(90 93824.052 -11138.377) scale(174.3033)"><stop offset="0" stop-color="#D42D28"/><stop offset=".308" stop-color="#D12C28"/><stop offset=".509" stop-color="#C92A26"/><stop offset=".681" stop-color="#BA2723"/><stop offset=".835" stop-color="#A42220"/><stop offset=".976" stop-color="#891C1B"/><stop offset="1" stop-color="#841B1A"/></linearGradient><path clip-path="url(#q)" fill="url(#r)" d="M-1.3 35.1h202.9v688.6H-1.3z"/></g></svg>