<svg xmlns="http://www.w3.org/2000/svg" viewBox="216 1009 230 59.4"><path d="M247.8 1049.2v.2l.2.1h.2l.5-.2v-.1l.1-.2-.8.1M231.3 1045.4l-.1.1-.7-.1h-.6l-.5-.3-.1.1V1045.5h.1l.8.1.5.1.1.1v.4l-.1.1h-.1l-1.4-.2h-.4l-.1.1-.1.1v.1l.2.1.9.1.8-.1v.1h.2l.7-1v-.1M247.3 1050l-.5.1-.2.1-.1.1v.1l.9-.1v-.2M228.6 1045.1h-.1l-.2.1-.6.6v.2l.7-.4.2-.3M246.6 1048.1l.1-.1.1-.1v-.2h-.1v-.1h-.1l-.1.1h-.1l-.1.1v.1l.1.1M247.1 1049.5v-.2l-.1-.1H246.4l-.1.2.1.1h.5M226.9 1045.1l-.1-.2h-.2l-.1.1-.1.1v.1l.2.1h.3v-.1M225 1041.1l-.2-.3-.1.1V1041.2l.1.5.2.4h.2l.1-.1v-.1M250.4 1049.2l-.1-.1h-.3l-.1.1-.1.1v.1l.2.1h.3l.1-.1v-.2M249.7 1037.7l.1.2.2.1h.2V1037.7l-.1-.1-.3-.1-.3-.2v-.1l.1-.2h.4v-.2l-.1-.2-.4-.2-.2-1.7.1-.2-.5-4.3-.2-.6-.1-.7-.9-2.5-.4-.6-.2-.4-.5-.8-.3-.2H246l.1.1V1024.8l-.1.2H245.7l-1.8-.1-.4-.1V1024.5l1.4-.1-.1-.1-1.5-.1h-.1l-.3.7v.2H244.6l.2.1 1 .1h.6l.1.1.1.2v.1l-.1.2-.1.1h-.2l-2.9-.1-.4.1h-2.4l-.7.1-1.9.1-.2-.3v-.2l.2-.1h.8l.2-.1.7-.1h.5l1.4-.1.2-.1v-.1l-.7-.7-.2-.1-1.3-.1-1.8.3-.2.1v.1l.7-.1h2l.2-.1v.1l.3.4h-.1l-2.1.2-.4.1h-.7l-.2-.1V1024.9l.1-.1h-.4l-.2.2V1025.3l.6 1.3.4 1.2.2.3.3.3.1.2v.3l-.1.2v.3l.1.1 1.7-.1.6-.1h5.1l1.8.1.2.1h.1v.4h-.5l-4.3-.1h-1.1l-3 .2-.3.1v.1l.1.3.2 1.6.2.3v.7l.2 2.4-.1 3.4-.1.3v.5l-.6 2.8-.2.6-.3 1h-.1l-.5 1.5-.2.3-.2.3-.2.7.1.2.2.1.9.2h.2l1.3.1.6-.1h.5l1.2.1h1.9l.3-.1h.3l1.1-.2.2-.1.9-.1.3-.2.5-.7.2-.4.2-.2.1-.4.3-.6.6-2.3.3-2 .1-.1.1-1.5.1-.3v-.4l.1-.2h.2zm-5.1-11.4l.1-.1h.6l.1.1v.4h-.5l-.3-.4zm-4.5.2v-.1l.2-.1H240.6l.1.1v.2l-.4.1-.2-.1v-.1zm-1.6-.2h.5v.4l-.2.1h-.2l-.2-.1-.1-.3.2-.1zm3.1 2.4l-.6.1-.2-.2v-.2l.2-.1h.5v.3h.1v.1zm6.1-1.3v.1h-.5l-3.9-.1-2.2.1-1.9.2-.1-.1h-.4l-.2-.2.1-.2.3-.2 1.9-.2h2l.4-.1 1.5.1h.3l.7.1h1l.7.1.2.1.1.2v.1zm1.2 8.8v.2l-.1.1h-1V1036.8h1.1v.4l-.1.1h-.4l-4.1.1h-3l-.7.1-.4-.2-.2-.2v-.2l.1-.1.4-.1.7.1 1.7-.1.6.1h.6l.3-.1h.9l1.6.1h.1v-.4l-4.9-.1h-.6l-.9-.1-.2-.1v-.2l.2-.1 1.1-.1 4.9.1h2.2l.1.4zm-8.5 2.3h1.9l.6-.1h.6l.4-.1h1.1l.3-.1H248.7l.1.2v.1l-.1.1-.3.1h-3.5l-.3.1h-1.1l-.4.1-.4-.1h-2l-.4-.1-.2-.1v-.1h.3zm8.3-3.7l-.1.1-.7.1-1.2-.1H243l-.7.1h-1.9l-.2-.1-.2-.2.1-.2h.1l.1-.1h1.5l2.6-.1.9.1h.7l.4.1h1.5l.8.1v.2zm-8.8-2.5l.2-.2.3-.1h.9l.7-.1 1.9-.1.6.1h.2l2.6.1h.6l.7.1.1.2V1032.6l-.4.1h-.3l-.7-.1h-.9l-1-.1h-5.3l-.2-.2zm7.1 13.9v.1l-.4.2-1.3.2h-.9l-1.1.1H241l-.9.1-.2.1-.2-.2H239.1l-1-.1-.1-.2v-.3l1.1-.1h3.4l.5-.1h1l.4-.1.2.1 1-.1h.3l.8-.1h.2v.1l.1.3zm1.3-3.5l-.3.3-.2.1-1.9.1H245.3l-.1.1v.2H247l.2-.1.6.1v.5l-.2.1-1.7.2h-1.7l-.9.1H242.5l-.1.2v.2l.4.1h1l.4-.1h1.7l.4.1.2-.1h.9v.1l-.2.4v.1l-.4.1-3.5.2-.3.1h-2.8l-.4.1H238l-.2-.2.2-.5.1-.1H239.8l.7.1.6-.1.2-.1.1-.2v-.1h-2.1l-.7.1-.2-.1h-.1v-.5l.1-.1.1-.1.6-.2 2.8.1.5.1 1.3-.1v-.1l-1.4-.1-.5.1h-.7l-.2-.1-.8.1-.8-.2-.3.1h-.2l-.2-.1v-.4l.1-.1h1.5l.5-.1h2.4l.6-.1.2.1h.4l.7.1 1.9-.2h.9l.5-.2zm.3-2.5l-.2.2h-1.5l-.7.1H245l-.4.1h-1.5l-.4.2v.1h3.6l1.3-.1h.7l.1.1.1.1-.1.1-.2.1h-1v.1l1.2.1h.1V1041.7H247.7l-.2.1-1.9.1h-3.2l-2.3-.1-.2.1h-.1l-.1-.2v-.2l.1-.1h.5l1.4-.1.9.1.3-.1 1.1.1 1.2-.1.4.1h.7v-.2h-1l-.3-.1-4.3.1h-.7l-.5-.1V1040.8l.1-.1 1.6-.1v-.1h.4v-.1l-.7-.1-.7.1-.5-.1-.2-.1v-.2l.1-.1h2l.2-.1h2l.3.1h3.3l.5-.1h.1V1040.1h.6zm.2-.7l-.2.2-.5.2h-1.4l-1.6.1-.4-.1-.4.1h-1.2l-1.6.1-1.2-.1h-.4l-.2-.2v-.1l.1-.1.2-.1h1l.2-.1h1.5l.2-.1 1.2.1.8-.1 1.1.1 1.9-.1H248.7v.1l.1.1zm0-1.5l-.1.1-1.3.1h-1.7l-1.8.2h-2.1l-.6.1h-.9l-.1-.2v-.2l.2-.1.4-.1h1.7l.2-.1.5.1.3-.1h.6l.3-.1h.4l.4-.1.6.1H248.6v.2l.2.1zM224.5 1038.5h-.2l-.1.1-.1.1v.4l.3.6h.2v-.1l.1-.7-.1-.3M225.7 1039.7l.1.2h.1v-.1l-.1-.5v-.1h-.1l-.4.1v.2l.3.1M225.9 1043.4l-.2-.1-.2-.1-.1.1V1043.6l.2.5.3.2h.1l.1-.3v-.2"/><path d="M232.8 1046.9l.2.1h.3l1.5-.1.6-.3V1046.3l.3-.5.2-.7.2-.2.1-.2.3-1 .3-.3.2-.6.1-.2v-.4l.4-1.3.2-.4v-.5l.2-.3v-.4l.1-1.2.1-.2.1-.9-.1-.3.1-.5-.2-.4.1-.9-.1-.2v-1.8l-.1-.3v-.4l-.1-.2-.1-.9-.2-.4-.1-.8-.2-1v-.5l-.1-.1-.1-.6-.2-.4-.3-.4-.2-.5-.8-1.4-.3-.2-.1-.2-.4-.3-.8.2-.1.1.4.2-.4.2h-.3l-.2.1h-.3l-.3-.1-.3-.2-.3.1V1025.2l.1.4.2.2.1.3.2.5 1.1 3.2.4 1.3.2.4h.4l.9-.1h.9l.2.1.1.1.1.2v.1l-.1.1-1 .1H234.7v1l.1.3.3.4.2.1h2.1l.1.1v.2l-.1.1-.2.1h-.1l-2 .1h-.1l-.1.3.2 2-.1.6-.1 1.5v.1l-.3.7-.2 1.3-.1.2v.6l-.2.3-.4 1.5-.7 1.7-.1.4.1.2-.2 1zm.3-20l-.2-.3V1026.3l.9-.3h1.2v.1l.1.1v.2l-.2.1-1.8.4zm.9 1.5l-.5-.2V1027.9l.2-.1 1.1-.2h1l.1.2v.2l-.2.1-1.7.3zm2.5 1.7l-.2.1-.4.1-1.2.2-.6-.2v-.4l.2-.1 1.5-.2.4.1v.2l.3.2zm.2 11.1l-.4.2-.6.1-.6-.2-.2-.2V1040.8l1.1-.1.6.2.1.1v.2zm.1-.6l-.1.1h-.3l-1-.1h-.4l-.2-.2v-.2l.2-.1h.8l.7.2h.2l.1.3zm-1.6-4.2l.1-.1h1.1l.4.1V1036.7l-.4.1h-.9l-.2.1h-.1l-.2-.2.2-.3zm-.2.9l.1-.1h1.2l.4-.1h.3V1037.4l-.4.2h-.8l-.7-.2-.1-.1zm0 1.3l.1-.1.1-.1h.9l.7.1.2.1V1038.9h-.9l-1.1-.1v-.2zm-.2.8l.2-.2 1.2.1h.7l.2.1v.2l-.1.1-.4.1h-1.2l-.5-.2-.2-.2h.1zm-.2 2.5l.1-.1.1-.1.4-.1h1.1l.1.3V1042.2l-.2.1h-.6l-1-.1-.2-.1.2-.2zm-.2 1l.1-.1h1.6v.4l-.2.2h-.1l-1.4-.2v-.3zm-.3 1.2l.1-.2.3-.2h.3l.9.1h.1v.2l-.1.5-.3.2-.3.1h-.9l-.2-.2.1-.5zm-.6 2.2l.2-.2.1-.1.5-.1v-.1l-.2-.1-.1-.2v-.4H235.4v.2l-.1.2-.1.1-.1.1-.5.1h-.1l.2.1.1.1v.4h-1.1l-.3-.1zM239.3 1051.3l-.3.1-.6.1v.1l.3.4.2.1.1.2v.3h-.4l-.5-.3-.7-.3h-.2l.1.8-.1.1.3.3v.2h-.5l-.1.1-1 .1-.2.2.5.1h.9l.3-.1.3.1h1.3l.3-.1v-2l-.2-.7.2.2zm-.2 2.1l-.2.2h-.5l-.8-.5v-.2l.1-.1h.3l.9.4h.1l.1.2zM244.6 1049.3v.2l.2.1h.1l.9-.2v-.2l.1-.1-1.2.1M235.1 1053.1l-.5-.4h-.2l-.4.2-.4-.2h-.7v.1l.1.3h.1l.9-.1.4.1.6.3.1.2.1-.1M227.8 1035.2v-.1l-.1-.1-.3-.3-.2-.1h-.1l-.1.1v.1l.6.4"/><path d="M232.7 1039.7v-.3l.2-.5v-2.9l.4-.2v-.2l-.3-.2-.2-.3v-.6l-.1-.5v-.7l-.4-1.8-.2-.4v-.6l-.2-.3-.1-.6-.2-.2h-.2l-.1-.1-.1-.2-.1-.1-.4.2-.7-.1h-.6v-.5l.1-.1 1.4-.4v-.1l-.4-.4-.7.1-.5.2h-.4v.1l.1.4.2.3.3.5.1.6-.1.2h-.2l-.3-.5-.1-.1V1029.7l.3.6h.5l.2.1 1.1-.1.2-.1h.3l.2.1v.2l-.1.3-.2.1h-.7l-.7.2H229.4v.1l.1.3.3 1.3h.2l.1-.1h.2l1.1-.1h.3l.2.1.1.1v.4l-.1.1h-.1l-1.5.1-.3.1-.1.1v.1l.1 1.1h1.6l.5.1v.5l-.1.1h-1l-.4.2-.6-.2h-.1l-.2.1h-.2l-.2-.1-.1-.1-.2-.3v-.9l-.4-2.4-.3-.9-.2-.2-.4-.9-.4-.5-.2-.2h-.1l-.4.7h-.5v.1l.2.2.2.5v.2l-.3.8-.2.2h-.2l-.3-.1h-.2V1032l.4.3.2-.2h.1l.2.1.5.7v.1l-.1.2h-.2v.1l.2.2.6.4h.2V1034.2l1.1.9.4.4.2.4v.2h-.2l-.2-.1-.6-.5h-.2V1035.8l.4.2.8.8V1037.1H228.8l-.4-.3-.7-.6-.8-.7-.4-.4-.3-.2h-.1V1036.1h-.2l-.1-.1-.3-.4h-.1v.2l.2.3v.1l-.2.2V1036.7l.3.2h.1l.1-.1.2-.6h.2l.1.1 1.2 1.3.3.2.6.6h.2l.6.5v.1l.1.5v.1h-.5l-.4-.3-.2-.2-.7-.6-.6-.4-.2-.2-.4-.3h-.2l-.1.1-.4.1-.3.2v.1h.2l.2-.1h.6l.1.4.1 1.6v.1H226.3l-.4-.2h-.2l-.1.1-.1.4v.1l.3.2.2.4.2.1h.2v-.1l-.1-.3v-.2h.4l.4 1.3v.3l-.1.1-.2.1h-.3l-.1-.1v-.2H226.1v.3l.1.1v.1l.5.4v.4h.2l.1-.1v-.4l.1-.2v-.1h.1l.2.1.3.3h.1v-.1l.4-.9.6-1.9h.1l.6.1.3.1.2.4v.1h-.1l-.5.1h-.1v.1l-.1.2-.3.9-.7 1.5v.1H228.5v-.1l.5-.8h.2l.1.2v.6h.1l1.1.2.4.2v-.1l.2-.4v-.4h-.2l-.4.2h-.6l-.4-.3V1042.7l.3-.3H230.6l.2.1.2.3h.1v-.1l.3-.6.2-1 .1-.2.4-1.7.6.5zm-3.9-6.9l-.2.2v.1H228.3l-.2-.4v-.4l.1-.2H228.5l.3.2v.5zm-1.4 7.3H226.8l-.1-.2-.1-.4v-.2H226.9l.5.4v.4zm3 3.2l-.1.1-.4.2h-.2v-.7l.1-.2.1-.1.1-.1H230.3l.1.3v.5zm1.1-7l.1-.2.2-.1h.3l.2.1.1.1v.2l-.1.1h-.4l-.4-.2zm-1.9-.2l.1-.1h.4l.1.2.1.5.5.1.1.1v.2l-.1.3h-.4l-.1.3h-.4l-.2-1.5-.1-.1zm.7 3.8l-.3.6H229.7l-.2-.2.1-.2v-.6l-.1-.2v-.1l.3-.4h.4v.7l.4.1.1.1V1040l-.1.1-.3-.2zm1.5 3.1l-.6.2-.4-.2V1042.7l.2-.1h.4l.3.1.1.1v.2zm.2-1.1l-.3.2-.1.1-.4.1h-.3l-.2-.3.1-.2.2-.2h.7v.1l.3.2zm0-.7l-.4.2h-.2l-.3-.2v-.1l.2-.1h.4l.2.1v.2l.1-.1zm.2-.7l-.2.1-.6-.1-.1-.1v-.1l.3-.1h.4l.1.1v.2h.1zm.2-.8l-.7.2-.3-.1-.2-.2v-.2l.1-.1h.8l.2.1.1.1v.2zm0-.9l-.7.2-.4-.2v-.2l.1-.1.6-.1h.2l.2.2v.2zm.1-1.5l-.2.2-.6.1-.4-.1v-.3l.1-.1.7-.1h.1l.1.1.2.2zM235.8 1052.9h.1v-1.1l-.1-.2h-.1l-1.1-.7v-.1l-.1-.1-.1-.2h-.2v.1h-.1v.1l.2.1h.2v.1l.1.1.2.2.2.2.2.2.1.1v.2l-.1.1h-.2l-.4-.2-.1.1.1.1.1.2.7.5.4.2M245.4 1050.1H244.5l-.2.1v.1l-.1.1.1.1h.9l.1-.1h.1v-.2M244.1 1049.3h-.1l-.1-.1-.4.2-.1.1-.3-.1v.2l.5.1.5-.2v-.1M242.2 1049.3h-.4l-.7.1h-1l-.1.1.2.1 1.9-.1h.1v-.1M243.5 1050.1l-1.1.2h-.1v.1l.3.1h.8l.2-.1v-.2M241.7 1052.6l-.1-.1h-.1l-.2-.4-.2-.1-.3-.1-.2-.1V1051.2l-.2-.2h-.1l-.1.2v.2l.2 2.4.1-.1.1-.2.2-.2.3-.2h.4l.2-.2v-.2M239.3 1049.9l-.3-.1v-.1l-.1-.1-.2-.2-.4-.2-.1-.2-.4-.3h-.1v.2h.1v.1l.5.3.3.4h.1l.1.1v.2l-.1.1h-.2l-.1-.1-.2-.1-.8-.7-.5-.4-.7-.7H235.9v.2h.1l.8.7.6.7.3.1.1.3v.1h-.2l-.7-.5-.4-.5-.3-.1-.7-.7-.2-.1h-.2v.1l.1.2.2.1.5.6.2.1.1.2h.1l.3.3v.2h-.2l-.5-.4-.1-.1-1.3-1h-.1l.2.4.9.7V1050H235.2l-.8-.7-.7-.6v-.1h-.2l-.3-.4-.4-.1h-.1v.2l.2.3.8.6.2.3h.2l1.3 1 .1.3.2.1h1.2l2.1-.1.1-.1v-.5l.1-.1h.1l.1.1.7.6h.1l-.1-.1M254.7 1027.8l.1.5.2.2v.3l.1.4.4.4.6.1v.3h.1l.2-.2h.1l.2.2-.2.1v.2h-1.1v.2l.2.5V1031.6l.2.2v.3h.9l.3.3v.2l-1.2.1V1033l.2.2v1h1l.3.1v.5h-1.1l-.1 1.2.1.4h1.3l.1.1v.4h-.9l-.4.1V1038.2l.1.4h1.5v.4l-.5.2h-1.1l-.1.3-.1.9h.2l.1-.1 1 .1.3-.1v-.1l.2-.8.1-.7v-.2l.1-.3v-.3l.2-.8v-1.5l.1-.2-.1-1.6-.1-.1-.2-1-.2-.5v-.3l-.2-.5v-.5l-.2-.8-.2-.3-.1-.8h-.2l-.6-1.5-.7-.8-.5-.3-.5-.2h-.6v.1l.4.9.3.6zm.4-.2l.1-.2.4.1h.1V1027.8h-.3l-.3-.2zM227.4 1027.7v-.1h-.3v.1M246 1024.3h-.4l.3.1M228.7 1027.4l.3-.2.4-.1.4-.2-.1-.1-.8.2-.5.3-.1.1h.2"/><path d="M228.4 1028.5h.1l.1-.1-.1-.1-.2-.2H228v.2l.3.2M224.3 1037.6h.2v-.1l.1-.2v-.7l-.2-.4H224.1l-.1.1-.1.5.1.5.1.3"/><path d="M244.8 1012.1c-14.8 0-26.8 12-26.8 26.8s12 26.8 26.8 26.8 26.8-12 26.8-26.8-12-26.8-26.8-26.8zm20.3 37.3v.2l-.6.2-1.7.2-.2.1h-.3l-.4-.1-.2-.2.1-.2.2-.2 1.3-.2 1.8.2zm-1.3-.9h.1l.1.1V1048.9l-1.9.1-.4-.1-.3-.2v-.1l.2-.1 1.2-.2 1 .2zm-1.2-.8l.2.1V1048.1l-2 .2h-.1l-.2-.1-.1-.2v-.1l1.6-.2h.6zm-1.3-.8l.1.1.1.1v.2h-1.8l-.5-.2v-.1l.1-.1 1.9-.1.1.1zm-1.8-.7l.1.2V1046.7l-.9.1-.4-.2v-.2l.1-.1.9-.1h.2zm2 7.1l-.3.3h-.1l-1.4.2-.6-.1-.6.1-1.8-.1-.2-.2-.6-.2-.2-.1-.4-.5-.2-.2-.6-.6-.4-.3-.8-1-.5-.4-.2-.2h-.1l-.3-.1h-2.4l-.6.1H248v.1l1 .1.2-.1h2.2l.1.2v.2h-1.1l-1.7.1h-.9l-1.5.1h-.1l-.6.1-1.9.1-.7.2h-.9v.1h1l5.3-.2.3-.1 1.7.1h.4l.2.1v.2l-.4.2-2.2.1h-.1l-3.4.2-.5.1H243.1h2.6l.9-.1.3.1v.1l.1.1h.2V1051.8H249.5l-.2.2-.2.1-1.5.1H243.7l-.7.1-.2.1h-.4l-.3-.1h-.2l-.1.1V1052.7h.7l1.2-.2h.1l.3.1 2.2-.2.4.1.3-.1h.2V1052.7l-.2.1-3.5.3h-1.4l-1.4.2v.2H241.9l.2.1h.2V1053.9l-.3.1-.1.1h-3.1l-.8.1h-2l-.6.1-.8-.2-.4-.6-.4-.4h-.8l-.6.1h-1.8l-.3-.1-.1-.1.3-.1.7-.1h1v-.2h-.1l-.6.1-.3-.1h-.2l-1.1-.1-.4.1-.7.1-.2.1h-.3l-.4-.2-.4-.1-.1-.1v-.2h.1l3.6-.2h.7l.8-.1h1.1v-.2h-1.1l-1.2.1-.3-.1-.6.1h-1.9l-2 .2-.5-.2h-.1v-.2l.8-.3 4.1-.1h1.1v-.1l-.2-.2-1 .1h-6.2V1050.7l.2-.2.4-.1 5-.1h.7l-.1-.2v-.1h-4.5l-.2-.1h-1.4l-.3-.1h-.1v-.2l.1-.1 1.5-.2h2.6l1-.2h.4v-.1l-.4-.1-1.1.1-.4-.1-.7.1-.6-.1h-1.3l-.2-.2v-.1l.1-.1.8-.1h1.5l1.3-.1-.4-.2-.1-.1h-.3l-.2.1h-.1l-1-.1h-1l.2-.2.1-.1.1-.1 1.6-.1v-.2l-.3-.3-.2-.1-.2-.2-.7-.2-.6-.6-.8-1-.9-1.8-1-3.5-.2-2.3v-2.2l.4-2.8.6-1.8.4-.7.4-1 .3-.4.1-.2v-.1l.4-.3.2-.2.5-.3v-.1l.8-.4 1.8-.6h.5l.2-.2.6-.4.6-.2h.8l.2-.2 1.7-.5 1.1-.2.3-.1h.5l.1.1 1.1-.5 1.3-.3 2.4-.2h2.5l4.1.3 1.4.2h.6l.9.2.1.2.2.2h.2l.4-.1.2-.2h.5l.9.2.9.4h.1v.2l.2.1 1.1.2.8.2.7.6.1.2v.2h.1l.1.4.6 1.1v.1l.2.2v.2l.2.6.1.2.3.9.2.5h.1l.2.9v.3l.3.8v1.3l.2.8-.1.3v2.1l-.2.1h-.1v.2l.2.2v.3l-.1.5v.7l-.2.4-.1.7-.7 2-.6 1.2-.4.6-.1.1-.1.1v.2l-.1.3.2.2.5.4.2.2.3.1.7.7.7.5.6.5.6.4.3.3.7.9.1.4-.1.2-.1.1-.3.1-.2.3v.3l.2.3.1.1.1.1v.2h-.2l-.7-.3-.2-.2-.7-.2.4.3 1 .4.4.3.4.2.3.2.1.4v1zm-3.3-7.5l-.1.2H257.8l-.4-.3v-.2l.2-.1h.2l.2.1h.1l.1.1v.2zm5.3 5.1l.2.1H265.5V1051.3l-.1.1-.1.1-1.3.2v.1l.6.1.1.4v.1l-.2.2-.9.5-.2.1-.4.1-.1.1h-.6l-.2-.1-.2-.2v-.2l.2-.2.2-.1.3-.1.1-.2v-.2l-.4-.2V1051.6h.1v-.3l-.1-.2v-.1l.1-.1H262.7v-.1h-.5l-.1-.2v-.2l.1-.1.8-.2h.7l.4-.1 1.6-.1.2.1v.1l-.1.2-.2.1h-.9l-1.2.5z"/><path d="M260.7 1052.9h-.1l-.2-.1-.7-.4-1.3-.5h-.3l-.1.1h.1l1.4.8.1.1h-.1v.1l-.1.1-.5-.1-.7-.3h-.2l-.3.3-.4.1-.1.1.3.1h2.6l.7-.1-.1-.1M258.1 1049.9h1l.2.1h.1l.6-.2.3-.2v-.1l-.7-.6-.7-.7h-.2l-.5-.4-.2-.3-1.2-1-.3-.2-.6-.6h-.2v.1l.2.2.9.7.7.6.1.4-.1.1-.3-.1-.2-.2-.8-.6-1.2-1.1h-.2V1046.1l.4.3.1.2h.2l.6.5.4.3.4.3.2.1.4.3.3.5h.2l.5.4.1.2V1049.5h-.4l-.1-.1-1.3-1.1-1.4-1.1-.4-.4-.3-.3h-.1l-.5.2v.2l.3.2.6.6.7.7.3.2.2.2.3.2.1.2.5.5.2.1.2.2h.2l.4-.1zm-.1-1.7v-.1l.1-.1h.1l.7.4.5.5.2.3v.2h-.2l-.3-.2-1.1-1zM257.1 1050.9v-.2l-.2-.2-.6-.5-.2-.3-.3-.2-.6-.5-.1-.1-.2.1v.1l.1.1.5.4.3.3.2.1.1.1.2.4v.1l-.1.1h-.4v-.1l-.4-.5-.8-.5h-.1v.2l.1.1.2.3 1.6 1.5.2.3v.2l-.1.1h-.2l-.2-.1-.8-.7-.2-.2-.2-.2-.7-.8-.3-.2-.5-.7-.2-.2-.4-.4-.4-.3-1-1.1-.2-.1-.1.1-.1.1v.1l1.3 1.3.6.4.1.2.4.6h.2l.3.2.2.3.1.1.5.6.3.2.5.7.3.1.2.3.2.1.2.2h.2l.5-.4v-.2l-.1-.8M251.9 1046.3l.6-.6.7-.1 1-.3.8-.1.3-.1.3-.2.2-.3v-.2H255.5l-.4-.1v-.4l.1-.1H255.5l.7-.1v-.2l-.6.1h-.2l-.1-.2V1043.1l1.3-.1v-.2l-.9-.1-.1-.1v-.5l.3-.2h.5l.2-.1h-.2l-.5-.1V1041.4l.1-.1 1.1-.1v-.2h-1l-.1-.1v-.4h-.1l-.2.5-.2.6v.1l-.1.1-.2.9-.1.2-.2.9-.4.9-.2.1h-.5l-.2.2-.6.2h-.3l-.3-.1V1044.8l.5-.7.2-.5.2-.2.1-.5.3-1v-.4l.3-1.1v-.4l.3-1.6v-.8l.1-.4v-.4l.1-1-.1-.7v-1.2l-.1-.4v-.7l-.2-.7v-.3l-.1-.3-.2-.3-.2-1.1-.2-.5-.2-.8-.2-.4v-.4l-.1-.2-.2-.6-.5-1-.2-.2-.1-.5-.3-.4-2.2-.2-.1.1V1025.3l.2.4.6 1.6h.1v-.1l.2-.1h1l.5.1.3.2V1027.7h-.1l-1.9-.1.2 1.1.3 1.1.2 1.4-.2.3-.3.1v.1h.5l.1.2v.6l.1.4.1 1v.1l-.2.4-.1.1-.2.1-.2.2h.1l.2-.1h.2l.3.3v.1l.1.8-.1.3v1.1l-.2.6v.8l-.2.9v.7l-.1.1-.1.8-.1.2-.5 2.4-.2.5-.1.1-.3 1-.1.2v.2l.4.2h.6l.9-.1.6.4zm-.7-19.6l-.2.2h-.4l-.2-.1V1026.5l.2-.1h.1l.4.1v.2h.1zm.3-.5l-.2.1-1.3-.2-.3-.2V1025.6l.2-.1h.9l.5.1.1.1.1.5zm1.9 13.7v.1l-.2.1-1.2.1h-.2l-.3-.3v-.1l1.6-.1h.1l.1.1.1.1zm-.2.7v.2H251.8l-.2-.2v-.1l.2-.1h1.3l.1.2zm.4-1.5l-.3.2h-.5l-.3.1h-.6l-.2-.2.1-.2.2-.1h.8l.5-.1h.2l.1.1v.2zm-1.9-2.2v-.2h.7l1.1.1.1.1v.2h-.8l-.5-.1h-.5l-.2-.1h.1zm0 1.4l.3-.2.7-.1.8.2v.2l-.2.1-1.3.1-.4-.1.1-.2zm2.1-.5h-.2l-1.5-.1-.2-.1V1037.3l.4-.1h1.6v.2l-.1.4zm.1-1.6l-.2.2h-.7l-.3-.1h-.4l-.4-.1V1035.9l.2-.1h.9l.7.1v.1l.2.2zm-.1-1.9v.1l-.1.4-.1.1h-1.3l-.2-.1-.2-.2v-.2l.6-.1h1.3zm-2.5-4.4h-.1l-.2-.2v-.1l.1-.1h.9l.7.2h.1l-.2.1-.8.1h-.5zm.1 2.5V1032.1l.2-.1h1.5l.3.1.1.1-.1.2h-2zm-.1 9.1l.3-.2h1.3l.3.3-.1.1-.3.1-1.2.1-.3-.1-.1-.1v-.2zm-.1.9l.3-.2h1.1l.2.2v.2l-.2.1h-.9l-.6-.1h-.1l.2-.2zm-.3.9l.2-.2 1.1-.2h.4v.5l-.2.2-.4.1h-.9l-.2-.2v-.2zm-.4 1.1l.1-.2.1-.1.6-.1v-.1h.8l.1.1.1.2-.1.3-.1.2-.3.1-.1.1H250.5l-.1-.3.1-.2zm-.2 1.5l-.2-.2.1-.2.2-.2h.5l.3-.1h.7v.2l-.1.2-.5.1-1 .2zM237.2 1025.7h-.1l-.1.1-.1.1h.3M226.4 1028.4l.1-.1v-.2l-.1-.1-.1.1h-.1V1028.4l.1.1M225.5 1030.3l.1-.1.2-.2v-.8h-.2v.1h-.1l-.2.5-.2.5.3.1M225.1 1034.6v.1l.4.3v-.1h.1v-.2l-.1-.2h-.4M224.7 1032.4l.1-.3.1-.1.1-.1.1-.1v-.6l-.1-.1h-.2v.1h-.1v.1l-.1.2-.1 1h.1M227 1029.2v-.1h-.2v.1h.1M225.3 1033.6v.2l.1.1.5.2v-.1l.1-.1v-.7l-.2-.2-.1-.1-.1.1M224.3 1035.1l.2-.5v-.9l-.1-.2H224.1v.2l-.1.4v1l.2.1"/><g><path d="M274.7 1021.7v-1.2H288v1.2h-3.2l6.8 20.3 4.3-12.9-2.4-7.4h-2.6v-1.2h12.8v1.2h-2.8l6.6 19.8 5.6-19.8h-4.3v-1.2h8.6v1.2h-2.8l-8.2 28.7h-3.2l-6.5-19-6.2 19h-3.1l-10.4-28.7h-2.3z"/><path d="M317.2 1050.1v-1.1h2.6v-29.6h-2.6v-1.1h9.5v15.3c1.1-2.8 3.3-4.1 6.6-4.1 4.4 0 6.5 2.4 6.5 7.1v12.4h2.6v1.1h-11.6v-1.1h2.1v-13.2c0-3.4-.6-4.3-1.9-4.3-1.2 0-2.2.6-3.1 1.9-.9 1.2-1.3 2.7-1.3 4.5v11.2h2.2v1.1h-11.6zM343.2 1031.1v-1.1h9.6v19.1h2.6v1.1h-12.1v-1.1h2.6v-18h-2.7zm5.8-11.6c2.4 0 3.8 1.2 3.8 3.5 0 2.2-1.3 3.6-3.9 3.6-2.8 0-3.8-1.6-3.8-3.6s1.3-3.5 3.9-3.5zM356.6 1050.6v-7.5h.9c1.2 4.5 3.5 6.1 7.2 6.1 3 0 4.4-1.1 4.4-2.8 0-.6-.2-1.2-.7-1.6s-.9-.7-1.4-.9c-.5-.2-1.3-.4-2.7-.7l-.4-.1c-2.2-.5-3.2-.9-4.8-1.9-1.6-.9-2.4-2.6-2.4-4.8 0-4.1 3-7 7.4-7 1.4 0 2.8.4 4.3 1 .6.2 1 .4 1.2.4.5 0 .9-.5 1-1.4h.9v6.5h-.9c-1.3-3.4-3.4-5.2-6.2-5.2-2.7 0-4 .8-4 2.4 0 .7.4 1.4.9 1.8.2.2.6.4 1.1.6 1 .4 1.5.5 2.8.8l.5.1c2.1.5 3.2.9 4.8 2 1.6 1 2.3 2.7 2.3 5.1 0 4.5-2.9 7.1-7.8 7.1-1.8 0-3.5-.4-5.2-1.3-.4-.2-.6-.4-.7-.4-.5 0-.9.6-1.3 1.6l-1.2.1zM372.8 1019.4v-1.1h9.6v20.4l.9-.2 8.7-7.4h-3.4v-1.1h8.4v1.1h-3.1l-5.2 4.5 7.4 13.4h1.8v1.1h-11.3v-1.1h2.1l-5-9.4-1.2.2v9.1h2.2v1.1H373v-1.1h2.6v-29.6h-2.8v.1z"/><path d="M400 1032.2c2-1.8 4.6-2.7 7.8-2.7 5.8 0 8.8 3 8.8 8.9v.7h-12.3v1.4c0 5.6 1.3 8.4 5.2 8.4 3 0 5-1.7 6-5l1.1.2c-1 4-3.5 6.5-9 6.5-7 0-10.5-4-10.5-10.4-.1-3.6.9-6.2 2.9-8zm9.8 5.9c0-3-.2-5-.5-6s-1-1.5-2-1.5c-2.2 0-3.1 1.8-3.1 7.5h5.6z"/><path d="M416.3 1031.1v-1.1H428v1.1h-2.5l4.7 13.7 4.8-13.7h-2.7v-1.1h6.3v1.1h-2.1l-8.1 22.5c-1 2.8-2 4.7-2.9 5.7-.9 1-2.2 1.5-3.9 1.5-3.1 0-4.9-1.6-4.9-4.1 0-2.1 1.3-3.4 3.2-3.4 2.1 0 3.2.9 3.2 2.7 0 .4-.1.9-.2 1.5h-1.5c-.2.4-.3.7-.3 1 0 .6.5 1 1.5 1 2 0 3.1-1.8 4.8-6.7l.9-2.6h-2.6l-7.3-19.1h-2.1zM440.3 1043.5c2.2 0 3.6 1.1 3.6 3.4 0 2.2-1.3 3.6-3.5 3.6-2.5 0-3.6-1.6-3.6-3.5.1-2 1.3-3.5 3.5-3.5z"/></g><g><path d="M288 1059.8l-.4 1.1h-1.8l2.5-6.5h1.9l2.4 6.5h-1.8l-.4-1.1H288zm1.2-3.4l-.7 2.1h1.4l-.7-2.1zM294.9 1054.4h1.7l1.3 3.5 1.4-3.5h1.7l1 6.5h-1.7l-.5-3.7-1.6 3.7h-.7l-1.5-3.7-.6 3.7h-1.7l1.2-6.5zM310.4 1057.6c0 2.1-1.5 3.6-3.6 3.6s-3.6-1.5-3.6-3.6c0-2 1.7-3.4 3.6-3.4 1.9 0 3.6 1.4 3.6 3.4zm-5.4 0c0 1.1.8 2 1.9 2 1 0 1.9-.8 1.9-2 0-.9-.8-1.7-1.9-1.7-1.1 0-1.9.8-1.9 1.7zM312.2 1054.4h1.7l3.1 4v-4h1.7v6.5H317l-3.1-4v4h-1.7v-6.5zM327.3 1057.3c0 .9-.1 1.8-.7 2.6-.6.9-1.6 1.3-2.7 1.3-2 0-3.5-1.4-3.5-3.5s1.5-3.5 3.5-3.5c1.3 0 2.4.6 3 1.8l-1.6.7c-.2-.6-.7-1-1.4-1-1.1 0-1.7 1.1-1.7 2 0 1 .6 2 1.7 2 .7 0 1.3-.4 1.4-1.1H324v-1.3h3.3zM339.8 1057.6c0 2.1-1.5 3.6-3.6 3.6s-3.6-1.5-3.6-3.6c0-2 1.7-3.4 3.6-3.4 1.9 0 3.6 1.4 3.6 3.4zm-5.4 0c0 1.1.8 2 1.9 2 1 0 1.9-.8 1.9-2 0-.9-.8-1.7-1.9-1.7-1.1 0-1.9.8-1.9 1.7zM344 1061h-1.7v-5.1h-1.4v-1.5h4.5v1.5H344v5.1zM351 1057v-2.5h1.7v6.5H351v-2.7h-2.4v2.7h-1.7v-6.5h1.7v2.5h2.4zM356.5 1055.9v1.1h1.9v1.5h-1.9v1.1h2v1.5h-3.7v-6.5h3.7v1.5l-2-.2zM365.9 1061h-2.1l-1.6-2.5v2.5h-1.7v-6.5h2.5c1.3 0 2.3.6 2.3 2 0 .9-.5 1.7-1.4 1.9l2 2.6zm-3.7-3.6h.2c.6 0 1.2-.1 1.2-.8s-.6-.8-1.2-.8h-.2v1.6zM373.9 1061h-1.7v-5.1h-1.4v-1.5h4.5v1.5h-1.4v5.1zM380.9 1057v-2.5h1.7v6.5h-1.7v-2.7h-2.4v2.7h-1.7v-6.5h1.7v2.5h2.4zM386.3 1061h-1.7v-6.5h1.7v6.5zM388.4 1054.4h1.7l3.1 4v-4h1.7v6.5h-1.7l-3.1-4v4h-1.7v-6.5zM403.5 1057.3c0 .9-.1 1.8-.7 2.6-.6.9-1.6 1.3-2.7 1.3-2 0-3.5-1.4-3.5-3.5s1.5-3.5 3.5-3.5c1.3 0 2.4.6 3 1.8l-1.6.7c-.2-.6-.7-1-1.4-1-1.1 0-1.7 1.1-1.7 2 0 1 .6 2 1.7 2 .7 0 1.3-.4 1.4-1.1h-1.4v-1.3h3.4zM408.6 1056.1c-.3-.3-.7-.4-1.1-.4-.3 0-.7.2-.7.6 0 .4.5.5.7.6l.4.1c.9.3 1.6.7 1.6 1.8 0 .7-.2 1.3-.7 1.8-.5.4-1.2.6-1.9.6-.8 0-1.6-.3-2.3-.7l.7-1.4c.4.4.9.7 1.5.7.4 0 .8-.2.8-.7 0-.5-.7-.6-1-.7-1.1-.3-1.8-.6-1.8-1.9 0-1.3.9-2.2 2.2-2.2.7 0 1.5.2 2 .6l-.4 1.2z"/></g></svg>