<svg xmlns="http://www.w3.org/2000/svg" viewBox="0 792 580 140"><path d="M76.7 889v.2l-.1.5.4.2h.5l1.5-.6v-.2l.1-.4-2 .1M34.7 879.6l-.3.1-1.6-.2-1.5-.1-1.4-.6-.2.1v.1l-.1.1v.7h.3l2.1.1 1.2.3.3.2v1l-.3.3-.2.1-3.7-.5h-.8l-.3.2-.2.2-.1.3.5.3 2.2.2 2-.2v.1l.1.1h.6l1.6-2.6v-.2M75.4 891.2l-1.4.1-.5.3-.1.3-.1.2 2.3-.2.1-.2v-.4M28 878.8H27.7l-.5.1-1.6 1.6-.1.4.2.1 1.6-1 .6-.7M73.5 886.2l.3-.2.2-.3v-.4h-.1v-.1l-.1-.1h-.1l-.2-.1-.3.2-.2.2-.1.2v.3l.2.2M74.7 889.8v-.5l-.1-.2-.3-.1h-.4l-.9.2-.2.4v.1l.2.2h1.4M23.6 878.7l-.2-.4H22.8l-.3.2-.1.2v.2l.3.2 1 .2v-.4M18.7 868.5l-.5-.6-.2.1-.1.3v.5l.4 1.2.5 1.2h.5l.1-.4v-.2M83.2 889l-.3-.1h-.7l-.4.2-.2.2v.3l.5.2h.8l.4-.2v-.4M81.4 860h.2l.1.4.4.2h.6v-.1h.1v-.5l-.1-.3-.2-.2-.7-.2-.7-.5v-.4l.1-.1.3-.4H81.8l.7.1v-.6l-.3-.5-1-.5-.6-4.3.2-.6-1.3-10.9-.6-1.6-.2-1.9-2.2-6.4-.9-1.4-.6-1.1-1.3-2-.7-.4h-.3l-.4.1.3.2h.1v.7l-.2.4-.4.1h-.2l-4.6-.2-1-.3v-.8h.1l.1-.1 3.6-.2v-.1l-.2-.2-3.8-.2-.3.1h-.1l-.8 1.8v.6l.3.1 3.4-.1.1-.1.7-.1.6.3 2.6.2H74v.1l.2.2.2.4v.2l-.2.5-.3.2-.6.1-7.3-.3-1.1.3h-6.2l-1.7.3-4.7.3-.6-.8V829.2l.1-.2.6-.2h.5l1.4-.1.4-.2 1.9-.3 1.3.1 3.6-.2.4-.2-.1-.2-1.8-1.9-.4-.2-3.4-.2-4.5.7-.4.2.1.2 1.7-.3h1.8l1-.1 2.3-.1.6-.2.1.2.7 1-.2.1-5.3.5-1.1.3-1.7-.1-.5-.3v-.7l.2-.2-.1-.1h-.2l-.7.1-.5.4V827.3l.1.5 1.5 3.3 1 3.1.4.7.7.7.2.5-.1.7-.3.5v.7h.1l.3.3 4.4-.2 1.5-.2h13l4.5.3.4.2.2.1.1.3v.7h-.1l-.1.1-.7.1-.6-.1-11-.2-2.8-.1-7.5.4-.8.2V840.2l.3.8.4 4.1.4.7.1 1.3-.1.4.5 6.1-.2 8.7-.3.7v1.2l-1.4 7-.5 1.5-.8 2.6-.2.1-1.3 3.7-.5.7-.4.8-.4 1.9.3.5.5.2 2.4.5.4-.1 3.2.2 1.5-.2.7.1.2-.1.3-.1 3.1.3 4.9-.1.7-.2.8.1 2.7-.4.4-.2 2.3-.3.8-.4 1.2-1.7.4-1 .4-.5.3-1 .7-1.5 1.6-5.8.7-5.1.2-.3.2-3.9.3-.7v-1.1l.2-.4h.5v.7zm-12.9-29l.3-.3.3-.1.3-.1h.7l.3.1.2.2h.1l.1.4v.3l-.1.1v.2l-1.3-.1-.8-.6-.1-.1zm-11.5.5v-.3l.4-.3h.7l.3.2v.1h.1v.5l-.1.1v.1l-.9.2-.6-.2.1-.4zm-3.9-.4l.3-.1 1 .1.1.1h.1l.1.2.1.3v.5l-.6.3h-.6l-.4-.2-.3-.7.2-.5zm7.8 6.1l-1.4.3h-.1l-.4-.6v-.4l.4-.3.7-.1h.4l.1.7h.3v.4zm15.5-3.5l-.1.1v.2l-.1.1-.1.1-1.2.1-9.8-.3-5.5.2-4.9.5-.3-.2-.9.1-.4-.5.2-.5.7-.5 4.7-.5 5.1-.1 1.1-.3 3.9.3.8-.1 1.7.3 2.5-.1 1.8.2.5.2.3.4.1.1v.2h-.1zm2.9 22.4v.2l-.1.3-.3.2h-2.4l-.3.1V857.5l1.5.1 1-.1.3.1.1.1.1.4v.5l-.1.1-.2.2-.9.1-10.4.2-2.6.1-2-.1-.4.1-2.5-.1-1.8.3-1.1-.4-.4-.5.1-.3.1-.2.3-.2 1-.2 1.8.2 4.3-.3 1.5.3h1.4l.7-.2 1 .1 1.2-.1 4.1.2.3-.1.1-.4v-.4l-12.5-.2-1.5.1-2.4-.2-.6-.2-.1-.1-.1-.1v-.5l.5-.3 2.9-.3 12.5.3 2.3.1 1-.1h.3l.1.1 2 .1.2.4zm-21.4 5.8l4.7.1 1.5-.2 1.5.1 1.1-.2 2.9.1.7-.2 4.5.1 1.9-.1 1.2.1.4-.1H78.6l.2.1.2.4V862.4l-.1.1-.2.2-.8.2-6 .1-2.8-.1-.8.2-2.8-.1-1 .2-.9-.2-1.2.1-.3-.1-3.5.1-1.1-.2-.4-.3V862.3l.8-.4zm21.1-9.4l-.2.3-1.8.2-3-.2h-9.7l-1.7.2H60l-.4-.1h-1.7l-.5-.2-.4-.5.3-.5.2-.1.3-.2 3.4-.1.4.1 6.6-.3 2.2.2 1.7-.1 1 .2 3.7.1 2 .3h.1v.1h.1v.6zm-22.4-6.3v-.2l.6-.4.7-.2h2.2l1.7-.3 4.9-.2 1.5.3.6-.1 6.6.2h1.5l1.9.3.2.4v.7l-1 .3-.8-.1-1.8-.2-2.3.1-2.5-.2-4 .1h-3.9l-1.2.1h-4.2l-.7-.4v-.2zm17.9 35.4l-.1.3-.9.5-3.4.5h-2.3l-2.9.2h-4.5l-1.2-.1-2.2.3-.5.2-.6-.4-.4.1-.1.1-1.1.1-2.6-.3-.3-.4.1-.7.1-.1v-.1l.1-.1.1-.1 2.9-.2 8.6.1 1.2-.2.9.1.3-.1.1-.1 1.3.1 1-.3.5.3 2.5-.3.7.1 2-.3.5.1.1.1.1.1v.5zm3.3-8.9l-.7.8-.6.3-4.9.3-.4-.1h-.4l-.4.1-.3.2v.2l-.1.1v.2l.3.1 4-.1h.3l.5-.3 1.4.2.1.1h.1l.1.9-.1.3-.4.2-4.2.6-4.4-.1-2.2.3-1.7-.1-.3.1-.2.4v.4l1 .3 2.5.1 1.1-.3h3.8l.6-.1 1.1.3.4-.2h2l.3.1.1.1.1.1v.3l-.5.9-.1.2-.9.3-.1.1-8.8.6-.7.2-5.2-.1-.7.1-1.2-.1-1 .3-.3-.1-.1-.1-4.3-.1-.4-.6.5-1.3.2-.3h.1l.3-.1h4.1l1.9.2 1.5-.2.6-.3h.1l.3-.6v-.3h-5.2l-.3-.1-.1-.1-1.7.2-.5-.2-.2-.1-.1-.2v-.4l.1-.4.2-.2.2-.2 1.5-.6 7 .2 1.3.2 3.2-.3.1-.1h.1v-.1l.1-.1v-.2l-3.6-.3-1.2.3-1.7-.1-.4-.2-2.1.2-2-.4-.8.2h-.4l-.6-.3-.1-.2h-.1v-.7l.2-.3 2-.1 1.8.1 1.3-.2 6 .1 1.4-.3h.1l.5.3.9-.1 1.9.2 4.7-.5 2.4-.1.1.4.2.2zm.8-6.3v.2l-.6.4-.3.1-3.6-.1-1.7.2-3-.1-.9.2h-3.8l-1.1.4v.2l3.2.1 1.3-.1 4.5.1 3.3-.3 1.8.1.3.3.2.2v.1l-.3.3-.6.3-2.3-.1-.3.1v.4l3.1.2.1.1.2.1v.5l-.1.2h-.1l-.3.1-1.9.1-.6.2-4.9.2-1.2.1-3.6-.1-3.3.1-5.9-.2-.4.2h-.3l-.2-.5v-.3l.1-.2.3-.3.4-.1.8.1 3.6-.3 2.4.2.7-.3.1-.1 2.8.2 3.1-.2 1.1.3 1.3-.1.2-.1h.2v-.5l-2.3-.1-.3.1-.8-.2-10.9.3h-1.3l-1.2-.2-.1-.1V868.2l.3-.2 4.1-.2.1-.2h.2l.1.1v.1l.2.1.6-.1v-.1h.1v-.4l-1.7-.2-1.7.3-1.3-.3-.4-.3H56v-.1l.1-.4.3-.3.3-.1 3.4-.1 1.4.1.6-.2h5.1l.8.2 3.9-.1h4.6l1.2-.2.3.1.1.2h.1v.5h.4zm.5-2l-.5.4-1.2.4-3.6-.1-4 .3-1.1-.2-.9.2-3.1-.1-4.1.2-3-.2-.7.1h-.3l-.5-.5.1-.3.3-.2.4-.2 1.3-.1h1.3l.6-.2 3.7-.1.4-.2 3.1.3 2.1-.2 2.7.2 4.7-.2 1.3.1.3-.1h.3l.1.1h.2l.1.3V864.4zm.1-3.8l-.3.2-3.4.2-4.3-.1-4.5.4-4-.1-.3.1-.9-.1-1.6.2h-2.4l-.3-.4v-.5l.6-.3 1-.2 4.4.1.6-.2v-.1l1.2.2.8-.2h1.4l.7-.2 1.1.1 1-.2 1.5.2 5.2-.1.4-.1 1.2.1.3.1.1.2h.1l.1.3.3.4zM17.4 862h-.5l-.1.1h-.1v.2l-.1.1v1.2l.6 1.3h.2l.4.1v-.2l.1-1.9-.2-.7M20.5 864.9l.3.6h.2l.1-.3-.2-1.3-.2-.1h-.2l-1 .3v.2l-.1.3 1 .1M21 874.5l-.4-.4-.6-.1-.2.1-.1.3v.6l.7 1.3.7.5h.2l.1-.2.2-.6-.1-.5"/><path d="M38.5 883.4l.4.3.7.1 3.7-.2 1.6-.7v-.2l.1-.2v-.3l.8-1.3.5-1.7.4-.4.3-.6.7-2.5.7-.7.4-1.5.2-.4.1-1 .9-3.2.4-.9v-1.2l.4-.7-.1-1 .3-3.1.2-.4.2-2.3-.2-.7.3-1.2-.4-.9.2-2.2-.2-.4v-4.5l-.2-.7v-1l-.2-.5-.3-2.3-.4-.9-.3-2-.6-2.6.1-1.1-.1-.3-.2-.3-.2-1.4-.4-1.1-.7-1-.4-1.3-2-3.6-.7-.4-.3-.4-1-.7-2.1.5-.2.2 1.1.5V829.3h-.1v.1h-.1l-.1.1-1 .4h-.8l-.6.3h-.2l-.8-.3-.8-.5-.7.2V830.2l.2.9.5.6.3.8.5 1.2 2.7 8 .9 3.4.4.9 1 .1 2.4-.2 2.2.1.4.2.2.2.2.4v.3l-.1.1-.1.1h-.1l-.3.2-2.5.2h-1.3l-1.5.1-.3.1-.1.3.1 2.2.3.7.8.9.6.2 5.3.1.1.1.2.2v.5l-.2.3-.5.3h-.3l-5.2.3-.3.1h-.1l-.2.8.4 5.1-.2 1.4-.2 3.9-.1.3-.7 1.9-.4 3.3-.2.4-.1 1.6-.4.7-1.1 3.9-1.7 4.2-.2 1.1.2.4.2.3zm.8-50.9h-.2l-.3-.7V831.2l2.2-.7.7-.1 2.4.1h.1l.1.2.2.3v.3l-.1.3-.5.2-4.5.7h-.1zm2.2 3.8l-1.2-.4v-.7l.5-.3 2.8-.5h2.2l.3.1.3.4v.1l-.1.4-.6.3-4.2.6zm6.5 4.4l-.4.3-1.1.3-3 .4-1.4-.4.1-.7.1-.3.6-.3 3.7-.4 1.1.2.1.1.1.1v.4l.1.3zm.4 28.1l-.1.2-.8.3-1.6.3-1.6-.4-.6-.5V868.1l2.8-.3 1.4.4.3.2v.1l.2.3zm.2-1.5l-.2.3-.8.1-2.5-.2-.4.1h-.4l-.6-.4.1-.4.1-.1v-.1l.5-.2 2.1-.1 1.8.4h.2l.2.1.1.4-.2.1zm-3.9-10.7l.2-.2.1-.1 2.9-.1.9.2.1.1h.1l.1.1v.4l-.1.2-1 .2h-2.2l-.6.2h-.3l-.5-.4.3-.6zm-.5 2.2v-.1l.3-.2 2.6-.1.4.1 1-.2.8.1.1.1h.1l.1.1V859.2l-1.1.4-2 .1-1.9-.4-.4-.4v-.1zm0 3.5l.2-.2v-.1l.2-.2 2.2-.1 1.8.2.4.2.1.1.1.1v.7l-.3.1-.1.1-2.1.1-2.8-.3.3-.7zm-.7 2l.1-.1v-.1l.5-.2 3 .2.9-.1.7.1.5.3h.1l.1.1.1.1v.5l-.2.3-1.1.3-3.1.1-1.3-.5-.4-.6.1-.4zm-.4 6.4l.2-.3.2-.2 1.1-.2 2.9.1.3.7V871.7l-.5.2-1.5.1-2.5-.2-.4-.3.2-.8zm-.4 2.4l.3-.2h3.7l.3.1.1.5v.4l-.6.5-.3.1-3.5-.4v-1zm-.9 3.2l.2-.5.8-.6.8-.1 2.2.2.1.1h.2l.1.4-.2 1.2-.7.6-.8.3h-.2l-.1-.1-2-.1-.6-.5.2-.9zm-1.4 5.5l.4-.5.2-.2 1.2-.3v-.2l-.6-.2-.3-.4-.1-.7.1-.3h.1l.3-.1 3.1.1.3.1.1.2.1.1v.3l-.2.5-.2.2-.3.2-1.2.2-.1.1-.2.1.6.3.2.3.1.7-.1.3-.2.1-.3.1-2.3-.1-.7-.3v-.6zM55 894.5l-.7.3-1.4.3V895.4l.8 1.1.5.2.3.5v.7l-.3.1-.7-.1-1.2-.8-1.8-.8H50v.1h-.1v.1l-.1.1.2 2.1h-.1l-.2.2.7.8v.5h-.1l-.1.1h-.9l-.3.2-2.6.2-.5.5 1.3.2 1.3-.1 1.1.1.7-.3.8.3 3.3-.1.8-.2.1-.1.1-.4.1-4.5-.4-1.9-.1.3zm-.5 5.2v.2l-.4.3-.4.1-.8-.1-2.1-1.2.1-.5.2-.2v-.1h.7l2.4 1 .1.1h.2l.1.1V899.7h-.1zM68.6 889.4h-.1v.4l.4.3h.3l2.2-.4.2-.2v-.3l.1-.3-3 .3M44.3 899.1l-1.1-1.1-.7-.1-.9.6h-.1l-.9-.4h-1.7l-.2.2.4.6.3.1 2.2-.2 1.1.3 1.5.6.3.5.2-.1v-.2M25.8 853.7v-.3l-.2-.2-.1-.2-.7-.7-.5-.1h-.2l-.3.2v.1l1.6 1.1"/><path d="M38.3 864.9l.1-.7.5-1.3-.1-1.5.1-1.3-.1-4.2.1-.3 1-.6v-.5h-.1l-.8-.5-.4-.7.1-1.4-.3-1.3-.1-.9.1-.3v-.1l.1-.1v-.5l-1.1-4.5-.5-.9v-1.5l-.5-.8-.2-1.6-.4-.4-.5-.1-.2-.3-.2-.6-.3-.3-1 .4-1.8-.2-1.2.1-.3-.1-.1-1.2.2-.2 3.6-1V835.2l-.9-.9H33l-1.8.3-1.3.5-1-.1v.1l-.1.1v.4l.3.9.5.8.7 1.2.3 1.4-.2.4h-.5l-.1-.1-.7-1.2-.3-.2h-.1v.7l.8 1.6.2.1h.2l.8-.1.6.2 2.7-.3.6-.3h.8l.5.3v.5l-.3.8-.5.2-1.8.1-1.7.6-1.1-.1-.4.1v.2l.3.7.7 3.2.3.1.2-.1.3-.2h.3l.3.1 2.8-.3.7.1.6.3.2.3v.7l-.1.2-.3.2h-.2l-3.7.2-.7.2-.2.3-.1.3.2 2.9h.2l3.9.1 1.3.3.1.2v.2l-.1.7-.2.2-.4.1h-2l-.9.5-1.5-.5h-.2l-.4.3h-.6l-.4-.2-.2-.2-.4-.8v-2.2l-1-6.2-.7-2.3-.4-.6-.9-2.3-.9-1.2-.6-.5-.2.1-1 1.9H22.8V840.5l.4.5.4 1.3-.1.6-.8 2-.5.4h-.4l-.8-.3h-.5l-.1.2-.1.1v.5l1.1.7h.1l.1-.1.5-.4H22.4l.5.3 1.3 1.9v.3l-.3.5h-.2l-.4-.1-.1.2.4.5 1.4 1h.5V851.2l.1.1.1.1 2.8 2.2 1 1.1.4 1-.1.4-.2.1h-.4l-.4-.2-1.4-1.3-.5-.1v.4l.1.2.9.5 2 2.1v.7h-.1l-.1.1h-.5l-.3-.1-1.1-.7-1.8-1.5-2.1-1.7-1-.9-.8-.5-.2.1v.2l-.1.1-.1.3.1 2.3-.1.3v.1H21l-.3-.2-.8-.9h-.1l-.2.1v.1h-.1l-.1.3v.3l.4.8-.1.3-.4.4v.7l.7.4h.2l.3-.2.6-1.6h.2l.2.1.2.2 3 3.3.8.5 1.6 1.6.4.1h.1l1.6 1.3v.2l.2 1.2-.1.3v.1l-.3.1h-.4l-.4-.1-1-.8-.4-.5-1.7-1.5-1.6-1.1-.4-.5-.9-.7h-.4l-.3.3-1.1.3-.7.4-.1.3.3.1h.3l.4-.2h1.5v.1l.1.1.3.9.3 4.1-.1.3-.2.1h-.4l-.9-.4-.4.1-.2.3-.2 1.1.1.3.8.5.4 1.1.4.2h.2l.3-.1V870.5l-.2-.8.1-.6.1-.1.1-.1h.7v.1l.2.1 1.1 3.4v.8l-.2.3-.4.2h-.7l-.1-.1-.2-.2-.1-.5H22.4v.8l.2.3.1.2 1.3 1v.9h.5v-.1h.1l.3-.3.1-1 .2-.4.1-.2H25.6l.6.3.7.7h.2l.1-.2 1.1-2.2 1.6-4.7h.2l1.5.3.8.3.5.9-.1.3-.2.1-1.2.2-.3.1-.1.2-.3.5-.8 2.3-1.9 3.8v.3h.8l.1-.2 1.2-2.1h.5v.1h.1l.2.4v1.6h.3l2.9.4.9.6.1-.2.1-.1.4-.9v-.7l-.1-.2-.2-.1H35l-1 .4-1.4-.1-.9-.8v-.5l.1-.3.8-.8 1.8-.1.2.1.4.3.5.7h.3l.1-.1v-.2l.1-.1.7-1.5.5-2.6.2-.4.9-4.2v-.9zm-10-17.3l-.5.4-.1.2H27.1l-.4-.9.1-1 .2-.5h.1v-.1l.3-.1.4.1.7.5.1.1v.7l-.3.6zM24.9 866l-.2.1H24l-.4-.1-.3-.5-.2-.9.1-.3.1-.2.3-.1.3-.1h.3l1.2 1.1v.1l.1.1v.1l-.6.7zm7.5 8.1l-.2.3-.9.4h-.5l.1-1.8.2-.4.2-.3.3-.2H32.2l.3.8-.1 1.2zm2.8-17.6l.2-.4.6-.2.8.1.4.2.2.3v.5l-.2.3-1.1.1-.9-.6v-.3zm-4.7-.5l.3-.2h.5l.4.1.3.4.3 1.3 1.3.3.3.3.1.6-.3.7-.1.1-.1.1-.9.1-.1.1h-.1l-.3.8v.1l-1 .1-.5-3.9-.1-1zm1.6 9.4l-.7 1.4-.3.1h-.4l-.6-.6.3-.6.1-.1.1-1.5-.2-.6v-.3l.7-1.1.5-.1h.5l.1.3.1 1.5 1 .2.3.3.1.3v.5l-.3.2-1.3.1zm3.8 8l-.2.2-1.2.2-1.1-.5v-.6l.1-.2.5-.3 1-.1.7.2.2.2h.1l.1.6-.2.3zm.5-2.8v.2l-.7.4-.3.3-.9.2-.7-.1-.4-.7.2-.5.6-.4 1.5-.1.3.1.1.1h.1l.1.2.1.3zm.2-1.7l-1 .4-.5-.1-.8-.6V868.3l.6-.3.8-.1.3.1.4.2.1.2v.2l.1.3zm.3-1.8l-.6.2-1.4-.2-.3-.3v-.1l.1-.2.7-.3.8.1h.3l.3.2v.1l.1.1v.4zm.6-2l-.1.1-.1.1-1.7.2-.7-.2-.5-.4v-.4l.2-.2.1-.1 2.1-.1.5.2.2.2V865.1zm.1-2.4v.2l-1.9.3-.9-.5.1-.6.2-.3 1.5-.2.4.1.6.6v.4zm.2-3.7v.2l-.4.2-1.4.2-1-.3.1-.7.2-.3 1.7-.2.3.1.2.3.1.1v.4h.2zM46.2 898.5l.2-.1v-.1l.1-.1v-.4l-.2-2.2-.1-.4-.2-.1-2.8-1.7-.1-.2-.2-.4-.4-.4H42v.2l-.1.1v.1l.4.3h.6v.4l.1.2.7.6.3.4.7.5.1.3v.4l-.2.2-.2.1-.2-.1-1.1-.4H43l-.1.3.1.2.3.4 1.8 1.4 1 .6M70.4 891.4h-2.1l-.5.2-.2.3-.1.3.3.2 2.2-.1.3-.1.2-.1v-.4M67.1 889.4l-.1-.1-.3-.1h-.1l-.9.3-.3.3-.7-.1-.1.2v.3l1.3.1 1.2-.3v-.4M62.3 889.4l-.2-.1h-.8l-1.6.4-1.7-.2-.9.2-.3.3.5.2 4.8-.2.3-.2.1-.2-.1-.1M65.7 891.5l-2.9.4-.1.1-.1.2.7.3 2.1-.1.6-.3v-.5M61.1 897.8l-.2-.2h-.1l-.3-.2-.5-.9-.4-.3-.7-.2-.5-.3-.1-.4.1-.7v-.3h-.1l-.6-.6-.2.1-.1.3-.1.6.4 6 .1.1.2-.2.3-.7.6-.5.6-.3 1.1-.2.6-.4v-.5M55 890.8l-.8-.2v-.2l-.2-.3-.6-.6-.8-.4-.4-.5-1-.7h-.1v.4h.1l.1.2 1.2.9.7.9.4.1.2.3v.4l-.2.3v.1H53l-.3-.3-.4-.2-2-1.8-1.3-1-1.9-1.8-.4-.2-.1.1-.1.1h-.1v.4l.2.1 2 1.8 1.6 1.6.8.3.3.8-.1.3h-.5v-.1l-1.7-1.2v-.1l-1.1-1.2-.7-.2-1.8-1.7-.5-.4h-.4v.3l.2.4.4.3 1.4 1.6.4.2.3.5.3.1.6.7v.5h-.4l-1.3-.9-.2-.3-3.3-2.7h-.4v.1l.6.9 2.3 2 .1.1v.2l-.1.2-.1.1-.1.1h-.3l-.2-.1-2-1.7-1.9-1.5-.1-.3-.4-.1-.8-.8-.9-.5-.3.1-.1.2v.3l.7.7 1.9 1.7.6.6.5.2 3.2 2.5.4.6.5.2 2.5.1.4-.1 5.3-.1.3-.2v-1.4l.4-.1h.1l.3.1 1.7 1.6.2-.1-.2-.3M94 834.7l.3 1.2.5.6.1.7.3.9.9.9 1.5.3v.7l.1.1.2-.1.4-.6h.2l.3.1.1.1.4.4-.6.3v.5h-.2l-2.5-.1v.4l.6 1.3-.1 1.1.1.4.4.6.1.7 2.4.1.7.7V846.3h-.1l-.1.2-3.1.2-.1.3.1.6.4.5.1.6-.1.8-.1 1.2 2.6-.1.7.2v.4l-.1.7-.3.1h-2.5l-.2 3.1.2 1.1H97.9l.7-.1 2.2.1.3.2V857l-.1.2h-.1l-.1.1-.3.1-2-.1-1.1.3-.1.3-.1 2.9.2 1 .3.1h.3l.4-.1h2.5l.3.1V862.5l-.1.2-1.3.5-1.3-.1-1.5.1v.1l-.3.7-.2 2.2.1.1h.1l.1.1h.5l.3-.2 2.6.2.7-.2.1-.2.6-2 .2-1.9-.1-.4.3-.7v-.8l.4-2.1v-1.5l-.1-1.2.1-.9.2-.4-.2-4.1-.2-.3-.4-2.6-.5-1.2v-.8l-.4-1.3.1-1.2-.5-2-.6-.7-.2-2h-.2l-.1-.1-.2-.1-1.5-3.7-1.8-2-1.3-.8-1.3-.4h-1l-.1.2v.1l1 2.2.8 1.4zm1.1-.4l.3-.4.1-.1.9.3.2.1.1.2v.6l-.1.1v.1l-.1.1h-.7l-.7-.4v-.6zM24.9 834.6v-.3h-.7v.3M72 826l-.3-.1-.8.1.9.1M28.1 833.8l.8-.5.9-.2 1.1-.5-.1-.2-.2-.1-2 .5-1.3.7v.1l-.1.3h.4"/><path d="M27.4 836.7l.2-.1.1-.1.1-.2-.2-.3-.4-.4-.3-.1-.5.1V836.2l.7.4M16.9 859.6h.6v-.2h.1l.2-.5-.1-1.8-.5-1H16.6l-.2.1-.1.1v.1l-.3 1.2.3 1.4.3.6"/><path d="M69 795c-37.6 0-68 30.4-68 68s30.4 68 68 68 68-30.4 68-68-30.4-68-68-68zm51.5 94.5l.1.1v.5l-1.5.4-4.3.5-.4.2-.7.1-1-.2-.6-.6.2-.4.5-.4 3.2-.6 4.3.2.2.2zm-3.2-2.2l.3.1v.1l.2.3v.5l-.1.3-4.7.3-1-.3-.7-.5.1-.3.5-.3 3.1-.4 2.3.2zm-3.1-2l.5.3h.1v.1h.1V886.3l-.1.1-.1.1-5 .5h-.3l-.4-.3-.3-.6V885.8l4.1-.6 1.4.1zm-3.3-1.9l.3.3.2.3v.5h-.1v.1l-.8.1-3.8.1-1.3-.6.1-.3.2-.3 4.8-.3.4.1zm-4.5-2l.2.4v.7l-2.2.2-1-.4v-.2l.1-.3.3-.2 2.3-.2h.3zm4.9 18.2l-.7.8-.3.1-3.5.5-1.5-.2-1.5.3-.1-.1-4.5-.2-.6-.5-1.4-.5-.4-.2-.9-1.2-.5-.4-1.4-1.5-.9-.7-2.1-2.5-1.2-1.1-.4-.5-.2-.1-.8-.3h-.8l-.3.1h-4.8l-1.5.2-1.5-.1-.4.1-.8-.1h-.2V891.8l2.6.2.6-.2 5.5.1.2.5v.5l-.1.1v.1l-1.7.1-1-.1-4.2.3h-2.2l-3.9.2-.3-.1-1.6.3-4.9.2-1.8.4h-2.4V894.7l2.6.1 13.4-.6.7-.2 4.2.2 1-.1.4.3.1.2h.1v.4l-.9.4-5.6.2-.3-.1-8.7.4-1.2.3-2.1.1h-1l-.1.1-.2.1.1.1 6.7-.1 2.3-.3.8.2V896.7l.3.2.4.1v-.7h.1l.1-.1 5.4.1.6.1.1.1v.1l-.4.5-.1.1v.1l-.4.2-3.7.3-2.9-.1-1.7.1-5.4.1-1.7.2-.4.3h-.9l-.8-.3h-.5l-.3.2V898.9l1.9.1 3.1-.4.3-.1.8.3 5.6-.5 1 .2.7-.2.5.1.1.1h.1l.1.3v.3l-.1.2-.5.2-8.9.7-1.9-.1-1.3.1-.4-.1-3.5.4v.1h-.1l-.1.2v.1l.1.2.3.1 2.8-.1.4.2.4.1.1.5v.3l-.8.2h-.1l-.3.2-4.6-.1-.1-.1-3.3-.1-2.1.3-.6-.1-1.8.1-.4-.1h-2.3l-1.4.3-2-.4-1.1-1.4-1-.9-.6-.1h-3l-1.5.2-.3-.1-4.2-.1-.7-.3-.2-.2H32V899.2l.7-.3 1.9-.2 2.2.1.3-.1.1-.2V898.2l-.3-.1-1.5.2-.7-.2-.4.1-2.8-.2-.9.3-1.8.2-.4.2-.8-.1-.9-.5-1-.2-.2-.2-.1-.2v-.2h.1l.3-.1 9.1-.5 1.9.1 2-.3h2.8v-.4l-2.7-.1-3.1.2-.7-.2-1.5.2-2.5.1-2.4-.1-5.1.4-1.3-.4-.1-.1H22l-.1-.2v-.1l.1-.2 2.1-.7 10.3-.3H37l.3-.1v-.2l-.4-.4-.1-.1v-.1l-2.6.2-9.2.1-.7.1-5-.1-.4-.1-.1-.1h-.2v-.3l.1-.4.6-.4 1.1-.3 12.7-.2 1.5.1.3-.1v-.1l-.3-.6v-.2l-.2-.1-6.5.1-3.3-.1-1.3.1-.6-.2-3.6.1-.7-.2h-.2v-.3l.1-.2.3-.3 3.9-.5 5.4-.1.4-.1.7.1 2.6-.4H32.5V888.9h-.1l-1-.2-2.8.2-1.1-.3-1.9.2-1.4-.2h-3.3l-.4-.4-.1-.3v-.2l.1-.1.3-.2 2.1-.2 3.9.1 3.4-.3-.9-.5-.3-.3-.8-.1-.6.2-.3-.1-2.6-.2-2.2.1-.3-.1-.1-.1H22v-.2l.4-.5.3-.2.3-.2 4-.3-.1-.4-.7-.8-.4-.2-.5-.5-1.7-.6-1.6-1.5-2.1-2.6-2.2-4.6-2.5-9-.6-5.9-.1-.1.1-5.7 1.1-7 1.5-4.6.9-1.9 1-2.5.8-1 .2-.5v-.2l1-.7.4-.4 1.3-.7.1-.2 2-1.1 4.5-1.4 1-.1.3-.1.4-.5 1.5-.9 1.5-.4h1.4l.5-.1.6-.4 4.2-1.2 2.8-.4.7-.3 1-.1.3.1.2.3h.1v.1h.1l2.8-1.2 3.3-.7 6.2-.6 6.4-.1 10.3.8 3.6.5 1.4.1 2.3.6.2.4.4.4.5.1 1-.2.6-.4 1.2-.1 2.4.5 2.2.9.2.1.1.5.4.2 2.9.5 2 .6 1.9 1.5.3.5.1.4h.3l.2 1 1.5 2.8v.2l.1.1.4.4v.5l.4 1.4.3.4.7 2.4.1.1.4 1.2.3.1.4 2.3-.1.8.8 2.1.1 3.3.4 2-.3.7-.1 5.1-.1.3-.5.3-.3.1v.5l.6.4.1.7-.3 1.2-.1 1.8-.4 1.1-.2 1.9-1.7 5-1.4 3.1-.9 1.6-.2.2-.2.2.1.6-.3.7v.1l.5.5 1.3.9.5.5.7.3 1.9 1.8 1.8 1.3 1.4 1.3 1.5 1 .8.8 1.8 2.4v.1l.2 1-.2.5-.2.3-.7.3-.4.8-.1.8.4.8.2.3.2.3v.3l-.1.3h-.6l-1.7-.7-.6-.4-1.7-.4-.1.1.9.8 2.5 1 .9.7.9.4.7.6h.1l.3 1.1-.6 1.4zm-8.3-19l-.2.4-.2.1h-.6l-1.1-.7v-.2l.1-.3.5-.3h.5l.4.2h.2l.3.3.1.5zm13.3 12.9l.4.2 2.6-.1.3-.1.1-.1 1.4-.1.3.1.1.1V894.1l-.3.3-.3.2-3.4.5-.1.1h-.1l-.1.2v.1l1.5.3.1.1h.1l.2 1-.1.3-.4.4-2.2 1.3-.5.3-.9.2-.3.3h-.1l-.1.1-1.6.1-.5-.2-.4-.4v-.4l.4-.5.4-.3.8-.2h.1l.2-.4v-.3l-.1-.3-1-.4h-.1V895.9l.3-.1.1-.1v-.7l-.3-.6v-.3l.2-.2.1-.1.3-.1h.4v-.2h-1l-.3-.1-.3-.4v-.5l.3-.3 2-.4h1.7l.9-.2 4.1-.3.4.2h.1v.1h.1V891.9l-.3.4-.4.3-.1.1-2.3.1-2.4.5v.2z"/><path d="M109.3 898.6l-.3-.2-.5-.2-1.8-1-3.2-1.3h-.7l-.2.1-.1.2.1.1 3.7 1.9.2.2v.1l-.1.1-.2.2-.3.1-1.1-.1-1.9-.7h-.5l-.8.7-1 .3-.1.2.6.2h2.3l.5-.1 4 .2 1.6-.4-.1-.3M102.8 891l2.6-.1.6.3h.2l1.5-.5.8-.5V889.9h-.1l-.1-.2-1.9-1.6-1.8-1.8-.4-.1-1.3-1-.6-.8-3-2.5-.7-.4-1.4-1.4h-.5v.2l.1.1.6.6 2.3 1.7 1.9 1.5.3.9-.2.3h-.2l-.8-.3-.4-.4-2-1.5-3.1-2.8-.4-.1h-.1v.5l.1.3.9.7.3.5.4.1 1.4 1.3 1 .7.9.8.5.2.9.7.8 1.2.4.1 1.3 1.1.2.4v.4l-.1.2-.3.1-.7-.1-.3-.2-3.3-2.9-3.5-2.8-.9-1.1-.8-.7H93.6l-1.2.4v.5l.7.6 1.4 1.6 1.8 1.7.7.5.4.5.7.6.2.5 1.3 1.2.6.2.5.5.4.1 1.7.3zm-.4-4.4v-.2l.1-.1.3-.2h.2l1.7 1.1 1.3 1.3.4.7.1.1v.5h-.5l-.8-.5-2.8-2.7zM100.2 893.5l-.1-.6-.4-.6-1.6-1.1-.4-.8-.8-.4-1.5-1.5-.2-.1-.5.1v.4l.1.2.1.1 1.3.9.7.9.4.2.4.3.4.9v.2l-.1.2-.3.1-.7-.1-.1-.2-1-1.1-2.1-1.3h-.1v.4l.1.3.5.7 4.2 3.9.4.8v.4l-.2.2h-.5l-.6-.2-1.9-1.7-.5-.6-.5-.5-1.8-2.1-.8-.5-1.4-1.7-.5-.4-.9-1.1-1-.7-2.6-2.8-.4-.2-.4.1-.1.2v.4l3.3 3.2 1.5 1.1.1.5 1.2 1.4.5.2.6.4.5.7.3.3 1.2 1.5.9.6 1.3 1.6.6.5.6.7.4.2.6.5h.4l.1-.1 1.2-1 .1-.3-.3-2.2M87 881.7l1.4-1.5 1.7-.3 2.5-.8 2.1-.2.7-.2.8-.5.5-.7.1-.5h-.7l-.9-.3v-.4l.1-.6.3-.2h.2l.5.1 1.7-.3v-.1l.1-.1v-.4l-1.5.2-.5-.1-.2-.4-.1-.3.1-.6 3.2-.3.1-.2.1-.3-2.4-.2-.2-.3-.1-.4v-.2l.1-.3.1-.2.7-.5 1.2.1.5-.2-.1-.1h-.6l-1.2-.3h-.1V869.8l.1-.4.3-.2 2.7-.3-.1-.3-.1-.2h-.2l-.1-.1h-2.1l-.3-.1-.3-.3v-.9l-.2.1v.1l-.1.1-.4 1.2-.4 1.5-.1.3-.2.3-.5 2.4-.2.4-.5 2.2-1 2.3-.5.3h-.4l-.2-.1v-.1H92l-.4.6h-.1l-1.5.6-.7-.1-.7-.3-.1-.3.1-.6 1.2-1.7.4-1.2.4-.6.2-1.3.8-2.5.1-1 .7-2.8-.1-.9.8-4.1v-2l.3-1.1-.1-1.1.3-2.6-.2-1.7v-.7l.1-2.2-.3-.9v-1.8l-.5-1.8.1-.7-.2-.8-.4-.8-.5-2.9-.6-1.2-.6-2.1-.5-.9v-.7l-.1-.3v-.1l-.3-.4-.4-1.5L88 831l-.5-.5-.3-1.2v-.1l-.8-.9-5.6-.6-.3.2V828.5l.6 1.1 1.6 4 .2.1.1-.2h.1v-.1l.6-.2h.5l1-.1 1.1.1 1.2.3.8.4V834.2l-.1.4-.2.1-4.9-.3.5 2.9.8 2.7.6 3.5-.4.8-.7.3v.3l.3.1.9.1v.1l.1.1.3.6v1.6l.3.9.2 2.6-.1.3-.5 1h-.1l-.2.2-.5.2-.6.4V853.4l.1.1.1.1h.2l.6-.3h.2l.2.1.7.7v.3l.3 2.1-.2.8.1 2.7-.4 1.5-.1 2.1-.4 2.3v1.7l-.2.3-.2 2-.3.5-1.2 6.2-.5 1.3-.3.3-.7 2.6-.2.5v.5l.9.4 1.5.1 2.2-.3.6-.3zm-1.9-49.6v.2l-.4.3-1 .1-.5-.3V831.8l.4-.3.3-.1.9.2.1.1h.1v.1h.1V832.1zm.9-1.4l-.5.2-3.3-.4-.8-.4v-.7l.5-.2 2.4.1 1.3.2.3.3.1.7v.2zm4.7 34.8l-.1.3-.5.3-3 .2-.4-.1-.7-.7.1-.2.1-.1 4-.2h.3l.2.2h.1V865.5h-.1zm-.4 1.9l-.1.5-.1.1v.1l-.7.1-2.9-.1-.5-.4V867.4l.6-.2 1.3-.1 2.1.1.1.1h.1l.1.1zm.9-3.8v.2l-.8.4-1.1.1-.3-.1-.7.3-1.2-.1-.3-.1-.5-.5.3-.4.5-.3 1.1-.1 1 .1 1.2-.2h.4l.3.2v.1h.1v.4zm-4.8-5.8v-.5l.3-.1 1.6-.1 2.8.3.3.2h.1l.1.2V858.1l-.4.1-.1.1-1.4.1-1.2-.2-1.3.1-.5-.2-.3-.3zm.1 3.7l.7-.4 1.8-.3 2 .4v.1h.1v.5l-.4.2-3.2.2-1.1-.3v-.2l.1-.2zm5.2-1.4l-.5.1-3.9-.2-.5-.2V859.2l.9-.3 3.5.1.2.1.2.1v.5l.1.4zm.3-4v.2l-.6.2-1.7.1-.7-.2-.9.1-1-.3.1-.4.1-.2.5-.2 2.2-.1 1.8.2.1.3.1.3zm-.2-4.7l.1.1v.2l-.3.9-.3.2-3.2.1-.6-.2-.6-.6v-.5l1.5-.3 3.4.1zm-6.3-11.2l-.3-.1-.5-.5V839.3l.3-.2 2.4-.1 1.8.4.1.1h.2v.1l.1.1V840l-.5.3-2 .2-1.6-.3zm.2 6.3V845.9l.4-.3.1-.1 2.1-.1.4.1 1.3-.1.8.3.3.3h.1v.1l-.2.4-.2.1-.3.1-3.8-.1-1-.1zm-.2 23.2l.7-.5.3-.1 3.1-.1.8.7.1.1-.2.3-.8.3-3 .3-.7-.2-.3-.3v-.5zm-.4 2.1l.1-.1v-.1l.7-.2 1.1-.1 1.8.1.5.4.1.3V872.4l-.5.3-2.4.1-1.4-.3-.2-.1.2-.6zm-.6 2.3l.5-.4 2.9-.4.7.1.2.1.1.2v.4l-.1.4-.6.6-1.1.3H85l-.3-.1-.5-.6.3-.6zm-1 2.9l.3-.4.3-.2 1.4-.2.1-.2h2l.3.3.2.4-.2.7-.2.4-.7.2-.3.2-.3.1-2.5.1h-.3l-.3-.8.2-.6zm-.5 3.7l-.5-.5.2-.5.4-.4.3-.1 1-.1.7-.2 1.8-.1v.1h.1v.5l-.2.4v.1l-1.3.3-2.5.5zM49.8 829.6l-.1-.1-.2.1-.4.2-.1.2.8-.1M22.4 836.3l.1-.2.1-.2-.1-.4-.1-.1h-.2l-.2.1v.1l-.2.1v.2l-.1.4.4.2M20.1 841.2l.2-.2.4-.6.2-1.3-.1-.8h-.4l-.1.1-.1.2-.1.1-.7 1.2-.3 1.2.6.2M19 852l-.1.4 1 .6h.1l.1-.1.1-.1v-.4l-.1-.5-.3-.2H19M17.9 846.6h.1l.3-.8.3-.2.2-.3.1-.3.1-1.2-.1-.3-.2-.2-.2-.1h-.1l-.2.1v.1l-.1.1v.1l-.3.7-.4 2.4.3.1M23.8 838.5v-.1h.1v-.4H23.3l-.1.3.4.2M19.5 849.6v.5l.3.3 1.2.3.1-.2.1-.1.2-2h-.1l-.5-.5-.3-.1-.3.1v.1M17 853.4v-.1h.1l.3-1.2.1-2.4-.2-.3h-.7l-.1.3-.2 1.2-.1 2.4.5.2"/><g><path d="M144.9 819.3v-3.1h33.8v3.1h-8.1l17.2 51.5 10.8-32.6-6.2-18.8h-6.6v-3.1h32.5v3.1h-7.2l16.8 50.2 14.1-50.2h-10.8v-3.1H253v3.1h-7l-20.8 72.8h-8.1L200.7 844 185 892.1h-7.8l-26.4-72.8h-5.9z"/><path d="M252.7 891.5v-2.8h6.5v-75.1h-6.5v-2.8h24v38.9c2.9-7 8.4-10.4 16.7-10.4 11.1 0 16.6 6 16.6 18v31.5h6.6v2.8h-29.5v-2.8h5.4v-33.4c0-8.6-1.4-11-4.7-11-3 0-5.6 1.6-7.8 4.7s-3.2 6.9-3.2 11.3v28.3h5.5v2.8h-29.6zM318.6 843.1v-2.8h24.3v48.4h6.6v2.8h-30.6v-2.8h6.5v-45.6h-6.8zm14.8-29.4c6 0 9.6 3.1 9.6 9 0 5.5-3.2 9.2-9.8 9.2-7 0-9.7-4.1-9.7-9.2s3.3-9 9.9-9zM352.7 892.6v-18.9h2.4c3.1 11.3 9 15.6 18.2 15.6 7.6 0 11.1-2.8 11.1-7 0-1.6-.6-3-1.8-4.1s-2.4-1.8-3.6-2.2c-1.2-.4-3.4-1.1-6.8-1.9l-1.1-.3c-5.5-1.3-8.2-2.3-12.2-4.7s-6-6.6-6-12.2c0-10.4 7.5-17.7 18.7-17.7 3.6 0 7.2.9 10.8 2.5 1.4.5 2.5.9 3 .9 1.3 0 2.2-1.2 2.5-3.6h2.2v16.4h-2.3c-3.2-8.7-8.5-13.1-15.8-13.1-6.8 0-10.1 2-10.1 6.2 0 1.8 1.1 3.6 2.3 4.5.5.4 1.5.9 2.7 1.4 2.5.9 3.7 1.2 7.1 2l1.3.3c5.3 1.3 8.1 2.4 12.1 5s5.9 6.9 5.9 12.9c0 11.5-7.4 18-19.8 18-4.6 0-9-1.1-13.2-3.2-.9-.5-1.5-.9-1.9-.9-1.2 0-2.3 1.4-3.2 4.1h-2.5zM393.7 813.6v-2.8H418v51.7l2.2-.5 22-18.8h-8.6v-2.8h21.3v2.8h-7.8l-13.2 11.5 18.8 34.1h4.5v2.8h-28.7v-2.8h5.4L421.1 865l-3 .6v23.1h5.5v2.8h-29.5v-2.8h6.5v-75.1h-6.9z"/><path d="M462.6 846c5.1-4.5 11.7-6.8 19.8-6.8 14.7 0 22.2 7.5 22.2 22.6v1.9h-31.1v3.6c0 14.3 3.2 21.3 13.2 21.3 7.6 0 12.6-4.3 15.1-12.8l2.8.4c-2.6 10.2-8.9 16.4-22.8 16.4-17.7 0-26.7-10.2-26.7-26.5-.1-8.9 2.4-15.6 7.5-20.1zm25 14.9c0-7.5-.4-12.6-1.3-15.2-.8-2.6-2.5-3.9-5.2-3.9-5.5 0-7.8 4.5-7.8 19.1h14.3z"/><path d="M504 843.1v-2.8h29.6v2.8h-6.4l11.9 34.8 12.3-34.8h-6.9v-2.8h15.9v2.8h-5.3l-20.6 57.2c-2.5 7.1-5 11.9-7.3 14.4-2.4 2.5-5.7 3.8-10 3.8-7.9 0-12.5-4-12.5-10.3 0-5.3 3.3-8.7 8.1-8.7 5.4 0 8.1 2.3 8.1 6.9 0 1.1-.2 2.4-.6 3.9h-3.8c-.5 1-.8 1.8-.8 2.6 0 1.6 1.2 2.5 3.7 2.5 5.2 0 7.8-4.6 12.1-17l2.3-6.7h-6.5l-18.6-48.4H504v-.2zM565 874.7c5.6 0 9.2 2.8 9.2 8.7 0 5.6-3.2 9.2-8.8 9.2-6.4 0-9.2-4.1-9.2-8.8 0-5.3 3.2-9.1 8.8-9.1z"/></g><g><path d="M178.5 916.1l-1.1 2.9h-4.6l6.4-16.6h4.7l6.2 16.6h-4.6l-1.1-2.9h-5.9zm3-8.6l-1.8 5.3h3.6l-1.8-5.3zM196 902.4h4.2l3.4 8.9 3.6-8.9h4.3L214 919h-4.3l-1.2-9.5-4 9.5h-1.7l-3.8-9.5-1.4 9.5h-4.3l2.7-16.6zM235.5 910.4c0 5.4-3.9 9.2-9.2 9.2s-9.2-3.8-9.2-9.2c0-5 4.4-8.5 9.2-8.5 4.8-.1 9.2 3.5 9.2 8.5zm-13.9 0c0 2.9 2.1 5 4.7 5s4.7-2.1 4.7-5c0-2.3-2.1-4.4-4.7-4.4-2.5 0-4.7 2.1-4.7 4.4zM239.9 902.4h4.3l7.9 10.1v-10.1h4.3V919h-4.3l-7.9-10.2V919h-4.3v-16.6zM278.2 909.7c0 2.4-.2 4.5-1.7 6.6-1.6 2.3-4.1 3.3-6.8 3.3-5.2 0-8.8-3.5-8.8-8.8 0-5.4 3.7-8.9 9-8.9 3.4 0 6.1 1.5 7.5 4.6l-4.1 1.7c-.6-1.6-1.8-2.6-3.6-2.6-2.8 0-4.3 2.7-4.3 5.2 0 2.6 1.5 5.2 4.4 5.2 1.9 0 3.3-1 3.5-2.9h-3.5v-3.4h8.4zM310.1 910.4c0 5.4-3.9 9.2-9.2 9.2s-9.2-3.8-9.2-9.2c0-5 4.4-8.5 9.2-8.5 4.8-.1 9.2 3.5 9.2 8.5zm-13.9 0c0 2.9 2.1 5 4.7 5s4.7-2.1 4.7-5c0-2.3-2.1-4.4-4.7-4.4s-4.7 2.1-4.7 4.4zM320.7 919h-4.3v-13h-3.6v-3.7h11.4v3.7h-3.6l.1 13zM338.5 908.8v-6.4h4.3V919h-4.3v-6.8h-6.2v6.8H328v-16.6h4.3v6.4h6.2zM352.3 906v2.8h4.9v3.7h-4.9v2.9h5.1v3.7H348v-16.6h9.4v3.7h-5.1v-.2zM376.3 919h-5.4l-4.1-6.4v6.4h-4.3v-16.6h6.4c3.3 0 5.8 1.6 5.8 5.1 0 2.3-1.3 4.3-3.6 4.7l5.2 6.8zm-9.5-9.2h.4c1.4 0 3-.3 3-2.1s-1.6-2.1-3-2.1h-.4v4.2zM396.4 919h-4.3v-13h-3.6v-3.7H400v3.7h-3.6v13zM414.2 908.8v-6.4h4.3V919h-4.3v-6.8H408v6.8h-4.3v-16.6h4.3v6.4h6.2zM428 919h-4.3v-16.6h4.3V919zM433.2 902.4h4.3l7.9 10.1v-10.1h4.3V919h-4.3l-7.9-10.2V919h-4.3v-16.6zM471.5 909.7c0 2.4-.2 4.5-1.7 6.6-1.6 2.3-4.1 3.3-6.8 3.3-5.2 0-8.8-3.5-8.8-8.8 0-5.4 3.7-8.9 9-8.9 3.4 0 6.1 1.5 7.5 4.6l-4.1 1.7c-.6-1.6-1.8-2.6-3.6-2.6-2.8 0-4.3 2.7-4.3 5.2 0 2.6 1.5 5.2 4.4 5.2 1.9 0 3.3-1 3.5-2.9H463v-3.4h8.5zM484.6 906.7c-.8-.7-1.8-1.1-2.9-1.1-.8 0-1.8.5-1.8 1.4 0 1 1.2 1.3 1.9 1.6l1.1.3c2.3.7 4.1 1.8 4.1 4.5 0 1.7-.4 3.3-1.7 4.5-1.3 1.1-3 1.6-4.7 1.6-2.1 0-4.1-.7-5.8-1.9l1.8-3.5c1.1.9 2.4 1.7 3.8 1.7 1 0 2.1-.5 2.1-1.7s-1.7-1.6-2.6-1.9c-2.7-.8-4.5-1.5-4.5-4.7 0-3.4 2.4-5.6 5.7-5.6 1.7 0 3.7.5 5.2 1.4l-1.7 3.4z"/></g></svg>