<svg id="Layer_1" xmlns="http://www.w3.org/2000/svg" viewBox="0 0 1031 727"><style>.st0{fill:#FFFFFF;}</style><path class="st0" d="M915 28c-49.1 0-89 39.9-89 89 0 22.9 8.7 43.8 23 59.6L645.8 417.3c-14.2-9.6-31.4-15.3-49.8-15.3-24.9 0-47.4 10.3-63.6 26.8l-99.8-79.2c4.8-10.9 7.4-22.9 7.4-35.6 0-49.1-39.9-89-89-89s-89 39.9-89 89c0 19.3 6.2 37.3 16.7 51.9L133.2 544.2c-10.8-4.7-22.7-7.2-35.2-7.2-49.1 0-89 39.9-89 89s39.9 89 89 89 89-39.9 89-89c0-23.6-9.2-45.1-24.3-61l142.5-174.7c13.4 8.1 29 12.7 45.8 12.7 23.5 0 44.8-9.1 60.7-24l101.1 80.2c-3.8 9.9-5.9 20.6-5.9 31.8 0 49.1 39.9 89 89 89s89-39.9 89-89c0-17.6-5.1-34-14-47.8l207-245.2c11.3 5.2 23.8 8.1 37 8.1 49.1 0 89-39.9 89-89S964.1 28 915 28zM98 679c-29.2 0-53-23.8-53-53s23.8-53 53-53 53 23.8 53 53-23.8 53-53 53zm253-312c-29.2 0-53-23.8-53-53s23.8-53 53-53 53 23.8 53 53-23.8 53-53 53zm245 177c-29.2 0-53-23.8-53-53s23.8-53 53-53 53 23.8 53 53-23.8 53-53 53zm319-374c-29.2 0-53-23.8-53-53s23.8-53 53-53 53 23.8 53 53-23.8 53-53 53z"/></svg>