<?xml version="1.0" encoding="utf-8"?>
<!-- Generator: Adobe Illustrator 19.1.0, SVG Export Plug-In . SVG Version: 6.00 Build 0)  -->
<svg version="1.1" id="Layer_1" xmlns="http://www.w3.org/2000/svg" xmlns:xlink="http://www.w3.org/1999/xlink" x="0px" y="0px"
	 viewBox="-461 444 277.2 69.2" style="enable-background:new -461 444 277.2 69.2;" xml:space="preserve">
<style type="text/css">
	.st0{fill:#FFFFFF;}
</style>
<g>
	<g>
		<path class="st0" d="M-187.4,503c-0.4,0-0.7-0.1-1-0.2c-0.3-0.1-0.6-0.3-0.8-0.6c-0.2-0.2-0.4-0.5-0.6-0.8c-0.1-0.3-0.2-0.7-0.2-1
			c0-0.4,0.1-0.7,0.2-1c0.1-0.3,0.3-0.6,0.6-0.8c0.2-0.2,0.5-0.4,0.8-0.6c0.3-0.1,0.7-0.2,1-0.2c0.4,0,0.7,0.1,1,0.2
			s0.6,0.3,0.8,0.6c0.2,0.2,0.4,0.5,0.6,0.8c0.1,0.3,0.2,0.7,0.2,1c0,0.4-0.1,0.7-0.2,1c-0.1,0.3-0.3,0.6-0.6,0.8
			c-0.2,0.2-0.5,0.4-0.8,0.6C-186.7,502.9-187.1,503-187.4,503 M-187.4,502.6c0.3,0,0.6-0.1,0.9-0.2s0.5-0.3,0.7-0.5
			c0.2-0.2,0.3-0.4,0.5-0.7c0.1-0.3,0.2-0.6,0.2-0.9c0-0.3-0.1-0.6-0.2-0.9c-0.1-0.3-0.3-0.5-0.5-0.7c-0.2-0.2-0.4-0.4-0.7-0.5
			c-0.3-0.1-0.6-0.2-0.9-0.2s-0.6,0.1-0.9,0.2c-0.3,0.1-0.5,0.3-0.7,0.5c-0.2,0.2-0.3,0.4-0.5,0.7c-0.1,0.3-0.2,0.6-0.2,0.9
			c0,0.3,0.1,0.6,0.2,0.9c0.1,0.3,0.3,0.5,0.5,0.7c0.2,0.2,0.4,0.4,0.7,0.5C-188,502.6-187.7,502.6-187.4,502.6 M-186.1,501.8h-0.4
			l-0.8-1.3h-0.7v1.3h-0.4v-2.9h1.3c0.4,0,0.7,0.1,0.8,0.2c0.2,0.1,0.2,0.3,0.2,0.6c0,0.1,0,0.3-0.1,0.4c0,0.1-0.1,0.2-0.2,0.2
			c-0.1,0.1-0.2,0.1-0.3,0.1c-0.1,0-0.2,0-0.4,0.1L-186.1,501.8z M-187.5,500.2h0.3c0.1,0,0.2,0,0.3,0c0.1,0,0.2-0.1,0.3-0.2
			c0.1-0.1,0.1-0.2,0.1-0.3c0-0.1,0-0.2-0.1-0.3c0-0.1-0.1-0.1-0.2-0.2c-0.1,0-0.1-0.1-0.2-0.1s-0.2,0-0.3,0h-0.7v1h0.5V500.2z"/>
		<rect x="-387.4" y="502.6" class="st0" width="1.2" height="9.1"/>
		<polygon class="st0" points="-382.9,502.6 -381.7,502.6 -376.9,509.7 -376.8,509.7 -376.8,502.6 -375.7,502.6 -375.7,511.6 
			-376.9,511.6 -381.7,504.5 -381.7,504.5 -381.7,511.6 -382.9,511.6 		"/>
		<polygon class="st0" points="-373.3,502.6 -372,502.6 -369.6,510 -369.6,510 -367.1,502.6 -365.8,502.6 -369,511.6 -370.3,511.6 
					"/>
		<polygon class="st0" points="-363.4,502.6 -357.1,502.6 -357.1,503.6 -362.2,503.6 -362.2,506.4 -357.7,506.4 -357.7,507.4 
			-362.2,507.4 -362.2,510.6 -356.9,510.6 -356.9,511.6 -363.4,511.6 		"/>
		<path class="st0" d="M-348.6,505.2c-0.1-1.3-1.1-1.9-2.3-1.9c-0.9,0-2,0.3-2,1.4c0,2.4,5.7,0.6,5.7,4.4c0,1.9-1.8,2.8-3.5,2.8
			c-2.1,0-3.9-0.9-4-3.2l1.3-0.1c0.1,1.6,1.1,2.3,2.7,2.3c1.1,0,2.2-0.5,2.2-1.8c0-2.5-5.7-0.8-5.7-4.2c0-1.8,1.7-2.6,3.2-2.6
			c1.9,0,3.4,0.9,3.6,2.8L-348.6,505.2z"/>
		<polygon class="st0" points="-342.4,503.6 -345.1,503.6 -345.1,502.6 -338.5,502.6 -338.5,503.6 -341.2,503.6 -341.2,511.6 
			-342.4,511.6 		"/>
		<polygon class="st0" points="-335.9,502.6 -334.4,502.6 -331.6,509.9 -328.8,502.6 -327.2,502.6 -327.2,511.6 -328.4,511.6 
			-328.4,504.3 -328.5,504.3 -331.1,511.6 -332.1,511.6 -334.7,504.3 -334.7,504.3 -334.7,511.6 -335.9,511.6 		"/>
		<polygon class="st0" points="-324,502.6 -317.7,502.6 -317.7,503.6 -322.8,503.6 -322.8,506.4 -318.3,506.4 -318.3,507.4 
			-322.8,507.4 -322.8,510.6 -317.5,510.6 -317.5,511.6 -324,511.6 		"/>
		<polygon class="st0" points="-314.9,502.6 -313.7,502.6 -308.9,509.7 -308.9,509.7 -308.9,502.6 -307.7,502.6 -307.7,511.6 
			-308.9,511.6 -313.7,504.5 -313.8,504.5 -313.8,511.6 -314.9,511.6 		"/>
		<polygon class="st0" points="-302.5,503.6 -305.2,503.6 -305.2,502.6 -298.6,502.6 -298.6,503.6 -301.3,503.6 -301.3,511.6 
			-302.5,511.6 		"/>
		<polygon class="st0" points="-291.2,502.6 -289.6,502.6 -286.8,509.9 -284.1,502.6 -282.5,502.6 -282.5,511.6 -283.7,511.6 
			-283.7,504.3 -283.7,504.3 -286.3,511.6 -287.3,511.6 -290,504.3 -290,504.3 -290,511.6 -291.2,511.6 		"/>
		<path class="st0" d="M-276.6,502.6h1.3l3.3,9.1h-1.3l-1-2.8h-3.4l-1,2.8h-1.3L-276.6,502.6z M-276,504.1L-276,504.1l-1.4,3.8h2.7
			L-276,504.1z"/>
		<polygon class="st0" points="-269.6,502.6 -268.4,502.6 -263.6,509.7 -263.6,509.7 -263.6,502.6 -262.5,502.6 -262.5,511.6 
			-263.7,511.6 -268.5,504.5 -268.5,504.5 -268.5,511.6 -269.6,511.6 		"/>
		<path class="st0" d="M-256.7,502.6h1.3l3.3,9.1h-1.3l-1-2.8h-3.4l-1,2.8h-1.3L-256.7,502.6z M-256,504.1L-256,504.1l-1.4,3.8h2.7
			L-256,504.1z"/>
		<path class="st0" d="M-242.2,510.4L-242.2,510.4c-0.8,1.1-2,1.5-3.2,1.5c-2.8,0-4.6-1.9-4.6-4.8c0-2.3,1.6-4.8,4.6-4.8
			c1.9,0,3.6,0.9,4.2,2.7l-1.2,0.3c-0.4-1.1-1.3-1.9-3.1-1.9c-2,0-3.3,1.7-3.3,3.6c0,2,1,3.8,3.3,3.8c1.9,0,3.2-1,3.2-2.9h-3.1v-1
			h4.2v4.8h-1L-242.2,510.4L-242.2,510.4z"/>
		<polygon class="st0" points="-238,502.6 -231.6,502.6 -231.6,503.6 -236.8,503.6 -236.8,506.4 -232.3,506.4 -232.3,507.4 
			-236.8,507.4 -236.8,510.6 -231.5,510.6 -231.5,511.6 -238,511.6 		"/>
		<polygon class="st0" points="-228.8,502.6 -227.2,502.6 -224.4,509.9 -221.7,502.6 -220.1,502.6 -220.1,511.6 -221.3,511.6 
			-221.3,504.3 -221.3,504.3 -224,511.6 -224.9,511.6 -227.6,504.3 -227.6,504.3 -227.6,511.6 -228.8,511.6 		"/>
		<polygon class="st0" points="-216.9,502.6 -210.5,502.6 -210.5,503.6 -215.7,503.6 -215.7,506.4 -211.2,506.4 -211.2,507.4 
			-215.7,507.4 -215.7,510.6 -210.4,510.6 -210.4,511.6 -216.9,511.6 		"/>
		<polygon class="st0" points="-207.7,502.6 -206.5,502.6 -201.7,509.7 -201.7,509.7 -201.7,502.6 -200.6,502.6 -200.6,511.6 
			-201.8,511.6 -206.6,504.5 -206.6,504.5 -206.6,511.6 -207.7,511.6 		"/>
		<polygon class="st0" points="-195.4,503.6 -198.1,503.6 -198.1,502.6 -191.5,502.6 -191.5,503.6 -194.2,503.6 -194.2,511.6 
			-195.4,511.6 		"/>
		<path class="st0" d="M-375.5,482.3c0,3.2,0.3,4.3,1.6,4.9c1.4,0.5,3.7,0.6,7,0.6c6.8,0,10.4-0.8,11.7-9.4h2l-0.8,11.7h-33.7v-1.9
			c5.7-0.4,5.8-0.5,5.8-4.2v-32.9c0-3.6-0.1-3.8-5.8-4.2v-1.8h18.5v1.9c-6,0.4-6.2,0.5-6.2,4.2v31.1H-375.5z"/>
		<path class="st0" d="M-325.8,481.8c0,4.1,1.1,5.3,2.3,5.6c1,0.3,2.4,0.1,3.3-0.1l0.4,1.6c-2.5,1.2-5.3,2-7.7,2
			c-2.3,0-3.3-1.5-4.2-3.9c-2.1,1.4-5.7,3.8-9.7,3.9c-6.1,0-9.4-4.4-9.4-9.2c0-3.1,1.4-6.3,6-7.7c5.1-1.6,11.4-3.2,13.1-4.9v-2.7
			c0-5.2-3-6.5-5.5-6.5c-2.6,0-5.3,1.6-6.7,6.4c-0.3,1.1-0.7,1.8-2.1,1.8c-1.2,0-3.6-1-3.6-3.1c0-3.6,5.8-7.4,13.1-7.4
			c9.8,0,10.7,4.9,10.7,8.6V481.8L-325.8,481.8z M-331.7,471.6c-1.4,0.9-4.9,2.1-7.5,3.1c-3.6,1.4-5.1,2.9-5.1,6
			c0,3.8,1.9,6.7,6,6.7c2.5,0,6.6-1.4,6.6-6.6V471.6z"/>
		<path class="st0" d="M-318.1,476.7h2.1c1.6,7.3,5.7,12,11.8,12c5.8,0,9.4-3.4,9.4-9c0-5.8-6.2-8.8-9-9.9l-1.2-0.5
			c-6.8-2.4-12.3-6-12.3-12.8c0-8.6,7-12.5,14.9-12.5c4.4,0,8.8,1.1,11,2.9v9.2h-2c-1-6.6-4.2-9.7-9.7-9.7s-8.3,3.5-8.3,8.3
			c0,3.9,3.6,6.7,8,8.3l2.1,0.8c7.6,2.8,12.8,6.4,12.8,14.1c0,6.6-4.5,13.2-16.1,13.2c-4.5,0-9.9-1.2-12.8-3.9L-318.1,476.7z"/>
		<path class="st0" d="M-260.5,481.8c0,4.1,1.1,5.3,2.3,5.6c1,0.3,2.4,0.1,3.3-0.1l0.4,1.6c-2.5,1.2-5.3,2-7.7,2
			c-2.3,0-3.3-1.5-4.2-3.9c-2.1,1.4-5.7,3.8-9.7,3.9c-6.1,0-9.4-4.4-9.4-9.2c0-3.1,1.4-6.3,6-7.7c5.1-1.6,11.4-3.2,13.1-4.9v-2.7
			c0-5.2-3-6.5-5.5-6.5c-2.6,0-5.3,1.6-6.7,6.4c-0.3,1.1-0.7,1.8-2.1,1.8c-1.2,0-3.6-1-3.6-3.1c0-3.6,5.8-7.4,13.1-7.4
			c9.8,0,10.7,4.9,10.7,8.6V481.8L-260.5,481.8z M-266.4,471.6c-1.4,0.9-4.9,2.1-7.5,3.1c-3.6,1.4-5.1,2.9-5.1,6c0,3.8,2,6.7,6,6.7
			c2.5,0,6.6-1.4,6.6-6.6V471.6z"/>
		<path class="st0" d="M-242,484.4c0,3.3,0.3,3.4,4.9,3.8v1.9H-253v-1.9c4.7-0.3,4.9-0.5,4.9-3.8v-33.5c0-2.5-0.4-2.8-2.1-3
			l-2.5-0.3v-1.5l10.2-1.6l0.5,0.4L-242,484.4L-242,484.4z"/>
		<path class="st0" d="M-223.9,484.4c0,3.3,0.3,3.4,4.9,3.8v1.9h-15.9v-1.9c4.7-0.3,4.9-0.5,4.9-3.8v-33.5c0-2.5-0.4-2.8-2.1-3
			l-2.5-0.3v-1.5l10.2-1.6l0.5,0.4L-223.9,484.4L-223.9,484.4z"/>
		<path class="st0" d="M-211.2,473c-0.1,6.8,1.5,14.6,9.6,14.6c5.1,0,7.6-3.1,9.4-6.9l2,1c-1.8,5.1-5.5,9.1-12.7,9.2
			c-10.6,0.1-15-6.2-15-16.4c0-9.8,4.8-17,14.9-17c11.9,0,13.1,9.2,13.1,13.1c0,2.1-1.2,2.5-2.6,2.5h-18.7V473z M-198.8,470.5
			c1.8,0,2.2-0.8,2.2-2.1c0-2.5-0.7-8.7-6.8-8.7c-6.8,0-7.7,8.1-7.7,10.8C-211.1,470.5-198.8,470.5-198.8,470.5z"/>
	</g>
	<g>
		<g>
			<path class="st0" d="M-435.7,510.8c0.8-0.4,1.6-0.8,2.3-1.3c0.2-0.1,0.3-0.2,0.5-0.3c0.9-0.7,1.8-1.5,2.5-2.3
				c1-1.1,2-2.3,2.8-3.5c0.7-1,1.3-2,1.8-3.1c2.1-4.2,3.5-8.8,4.2-13.3c0.5-2.9,0.7-5.9,0.7-8.8l0,0c0-2.9-0.2-5.9-0.7-8.8
				c-0.7-4.5-2.1-9.1-4.2-13.3c-0.2-0.5-0.5-1-0.8-1.4c-1.1,2.1-2.1,4.2-2.8,6.5c1.4,4.1,2.2,8.4,2.5,12.7c0.1,1.5,0.1,2.9,0.1,4.4
				l0,0c0,1.5,0,2.9-0.1,4.4c-0.4,5.2-1.5,10.5-3.5,15.3c-0.8,1.9-1.7,3.7-2.8,5.5c-0.3,0.4-0.5,0.8-0.8,1.2
				c-0.5,0.8-1.1,1.6-1.8,2.4c-0.7,0.9-1.5,1.7-2.3,2.5c-0.9,0.9-1.8,1.6-2.8,2.3c-0.1,0.1-0.2,0.1-0.2,0.2l0,0l0,0
				C-439.1,512.1-437.3,511.6-435.7,510.8z M-435.7,507L-435.7,507L-435.7,507z"/>
		</g>
		<g>
			<path class="st0" d="M-425,510.8c0.8-0.4,1.6-0.8,2.3-1.3c0.2-0.1,0.3-0.2,0.5-0.3c3.1-2.3,5.4-5.5,7.1-8.9
				c2.1-4.2,3.4-8.8,4.1-13.4c0.5-2.9,0.7-5.9,0.7-8.8l0,0c0-2.9-0.2-5.9-0.7-8.8c-0.7-4.5-2.1-9.1-4.2-13.3
				c-1.6-3.1-3.7-6.1-6.4-8.4c-0.9,0.9-1.7,1.9-2.4,3c0.3,0.4,0.5,0.7,0.8,1.1c4.4,6.5,6.5,14.3,7,22c0.1,1.5,0.1,2.9,0.1,4.4
				s0,2.9-0.1,4.4c-0.5,7.8-2.6,15.5-7,22c-0.5,0.8-1.1,1.6-1.8,2.4c-0.7,0.9-1.5,1.7-2.3,2.5c-0.9,0.9-1.8,1.6-2.8,2.3
				c-0.1,0.1-0.2,0.1-0.2,0.2v0.2l0,0C-428.5,512.1-426.7,511.6-425,510.8z"/>
		</g>
		<g>
			<path class="st0" d="M-411.7,509.2c3.1-2.3,5.4-5.5,7.1-8.9c2.1-4.2,3.5-8.8,4.2-13.3c0.5-2.9,0.7-5.9,0.7-8.8l0,0
				c0-2.9-0.2-5.9-0.7-8.8c-0.7-4.5-2.1-9.1-4.2-13.3c-1.7-3.4-4-6.6-7.1-8.9c-2.3-1.7-5.2-2.9-8.1-2.9l0,0v0.1
				c2.8,2,5.2,4.6,7.1,7.4c4.4,6.5,6.5,14.3,7,22c0.1,1.5,0.1,2.9,0.1,4.4s0,2.9-0.1,4.4c-0.5,7.8-2.6,15.5-7,22
				c-1.9,2.8-4.3,5.5-7.1,7.4v0.1l0,0C-416.9,512-414,510.9-411.7,509.2z"/>
		</g>
		<g>
			<path class="st0" d="M-425,445.5c-0.8,0.4-1.6,0.8-2.3,1.3c-0.2,0.1-0.3,0.2-0.5,0.3c-0.9,0.7-1.8,1.5-2.5,2.3
				c-1,1.1-2,2.3-2.8,3.5c-0.7,1-1.3,2-1.8,3.1c-2.1,4.2-3.5,8.8-4.2,13.3c-0.5,2.9-0.7,5.9-0.7,8.8l0,0c0,2.9,0.2,5.9,0.7,8.8
				c0.7,4.5,2.1,9.1,4.2,13.3c0.2,0.5,0.5,1,0.8,1.4c1.1-2.1,2.1-4.2,2.8-6.5c-1.4-4.1-2.2-8.4-2.5-12.7c-0.1-1.3-0.2-2.8-0.2-4.3
				l0,0c0-1.5,0-2.9,0.1-4.4c0.4-5.2,1.5-10.5,3.5-15.3c0.8-1.9,1.7-3.7,2.8-5.5c0.3-0.4,0.5-0.8,0.8-1.2c0.5-0.8,1.1-1.6,1.8-2.4
				c0.7-0.9,1.5-1.7,2.3-2.5c0.8-0.9,1.7-1.7,2.7-2.4c0.1-0.1,0.2-0.1,0.2-0.2l0,0l0,0C-421.6,444.2-423.4,444.7-425,445.5z
				 M-425.1,449.3L-425.1,449.3L-425.1,449.3z"/>
		</g>
		<g>
			<path class="st0" d="M-435.7,445.5c-0.8,0.4-1.6,0.8-2.3,1.3c-0.2,0.1-0.3,0.2-0.5,0.3c-3.1,2.3-5.4,5.5-7.1,8.9
				c-2.1,4.2-3.5,8.8-4.2,13.3c-0.5,2.9-0.7,5.9-0.7,8.8l0,0c0,2.9,0.2,5.9,0.7,8.8c0.7,4.5,2.1,9.1,4.2,13.3
				c1.6,3.1,3.7,6.1,6.4,8.4c0.9-0.9,1.7-1.9,2.4-3c-0.3-0.4-0.5-0.7-0.8-1.1c-4.4-6.5-6.5-14.3-7-22c-0.1-1.5-0.1-2.9-0.1-4.4
				s0-2.9,0.1-4.4c0.5-7.8,2.6-15.5,7-22c0.5-0.8,1.1-1.6,1.8-2.4c0.7-0.9,1.5-1.7,2.3-2.5c0.9-0.9,1.8-1.6,2.8-2.3
				c0.1-0.1,0.2-0.1,0.2-0.2v-0.1l0,0C-432.2,444.2-434,444.7-435.7,445.5z"/>
		</g>
		<g>
			<path class="st0" d="M-449,447.1c-3.1,2.3-5.4,5.5-7.1,8.9c-2.1,4.2-3.5,8.8-4.2,13.3c-0.5,3-0.7,5.9-0.7,8.8l0,0
				c0,2.9,0.2,5.9,0.7,8.8c0.7,4.5,2.1,9.1,4.2,13.3c1.7,3.4,4,6.6,7.1,8.9c2.3,1.7,5.2,2.9,8.1,2.9l0,0v-0.1
				c-2.8-2-5.2-4.6-7.1-7.4c-4.4-6.5-6.5-14.3-7-22c-0.2-1.4-0.2-2.9-0.2-4.4s0-2.9,0.1-4.4c0.5-7.8,2.6-15.5,7-22
				c1.9-2.8,4.3-5.5,7.1-7.4v-0.1l0,0C-443.9,444.2-446.7,445.4-449,447.1z"/>
		</g>
		<g>
			<path class="st0" d="M-428.5,508.6c0.9-0.9,1.7-1.9,2.4-3c-0.3-0.4-0.5-0.7-0.8-1.1c-0.3-0.4-0.5-0.8-0.8-1.2
				c-0.8,1.3-1.8,2.5-2.8,3.5C-429.8,507.5-429.2,508.1-428.5,508.6"/>
			<path class="st0" d="M-422.8,509.5c-0.7,0.5-1.5,1-2.3,1.3c1.7,0.8,3.5,1.2,5.3,1.3l0,0V512
				C-420.8,511.3-421.8,510.4-422.8,509.5"/>
			<path class="st0" d="M-431.4,512c0.3,0,0.6-0.1,0.9-0.1c-0.3-0.2-0.6-0.4-0.9-0.6c-0.7-0.5-1.4-1.1-2-1.8c-0.7,0.5-1.5,1-2.3,1.3
				c1.1,0.5,2.3,0.9,3.4,1.1C-431.9,512-431.6,512-431.4,512 M-430.4,512.1L-430.4,512.1c0-0.1-0.1-0.2-0.1-0.2
				c-0.3,0.1-0.6,0.1-0.9,0.1C-431,512.1-430.7,512.1-430.4,512.1L-430.4,512.1z"/>
		</g>
		<path class="st0" d="M-432.2,447.7c-0.9,0.9-1.7,1.9-2.4,3c0.3,0.4,0.5,0.7,0.8,1.1c0.3,0.4,0.5,0.8,0.8,1.2
			c0.8-1.3,1.8-2.5,2.8-3.5C-430.9,448.8-431.6,448.2-432.2,447.7"/>
		<path class="st0" d="M-438,446.8c0.7-0.5,1.5-0.9,2.3-1.3c-1.7-0.8-3.5-1.2-5.3-1.3l0,0v0.1C-439.9,445-438.9,445.9-438,446.8"/>
		<path class="st0" d="M-425,445.5c-1.1-0.5-2.3-0.9-3.4-1.1c-0.3-0.1-0.6-0.1-0.9-0.1l0,0c-0.3,0-0.7-0.1-1-0.1l0,0v0.1l0.1,0.1
			l0,0c0.3,0.2,0.6,0.4,0.9,0.6c0.7,0.5,1.4,1.1,2,1.8C-426.6,446.3-425.9,445.8-425,445.5"/>
	</g>
</g>
</svg>
