<?xml version="1.0" encoding="utf-8"?>
<!-- Generator: Adobe Illustrator 18.0.0, SVG Export Plug-In . SVG Version: 6.00 Build 0)  -->
<!DOCTYPE svg PUBLIC "-//W3C//DTD SVG 1.1//EN" "http://www.w3.org/Graphics/SVG/1.1/DTD/svg11.dtd">
<svg version="1.1" id="Layer_1" xmlns="http://www.w3.org/2000/svg" xmlns:xlink="http://www.w3.org/1999/xlink" x="0px" y="0px"
	 viewBox="0 0 1560.3 723.8" enable-background="new 0 0 1560.3 723.8" xml:space="preserve">
<g>
	<g>
		<g>
			<path fill="#FFFFFF" d="M936.7,172.9H803.4h-41.7v16.1c8.4,0.8,15.3,1.7,20.8,3c6.6,1.5,11.5,3.5,15.1,6.6
				c10.5,8.9,10.2,25.6,10.2,55.8V457c-0.1,41.3,3.7,99.6-54.7,98.9c-25-0.3-50.8-18.2-58.8-50.8h-20.1
				c8.5,54.6,37.6,91.7,108.1,91.7h0.1h0.1c59.9,0,113.4-27.5,113.3-121.1V318.1v-63.7c0-30.2-0.2-46.2,10.2-55.1
				c6.7-5.7,12.2-8.5,30.5-10.3L936.7,172.9L936.7,172.9z"/>
		</g>
		<g>
			<path fill="#FFFFFF" d="M1137.3,172.9h-175l0,0v15.3v0.8c18.3,1.8,23.8,4.6,30.5,10.3c8.3,7.1,9.9,18.9,10.2,38.8
				c0,6-0.1,12.8,0.1,20.3v242.4c-0.1,7.5-0.1,14.3-0.1,20.3c-0.3,19.9-1.8,31.6-10.2,38.8c-6.7,5.7-12.2,8.5-30.5,10.3v0.8v15.3
				l0,0h175l0,0h0.7h88.7l27.9-80.9h-20.5c-20.3,44.5-51.7,49.7-80.4,49.7c-23.4,0-39-1.3-50.1-8.5c-9-5.7-12.3-20.8-12.4-46.3
				V258.9v-4.6c0-30.2-0.2-46.8,10.2-55.8c6.7-5.7,17.6-7.8,35.9-9.6L1137.3,172.9L1137.3,172.9z"/>
		</g>
		<g>
			<path fill="#FFFFFF" d="M1429,172.9h-175l0,0v15.3v0.8c18.3,1.8,23.8,4.6,30.5,10.3c8.3,7.1,9.9,18.9,10.2,38.8
				c0,6-0.1,12.8,0.1,20.3v242.4c-0.1,7.5-0.1,14.3-0.1,20.3c-0.3,19.9-1.8,31.6-10.2,38.8c-6.7,5.7-12.2,8.5-30.5,10.3v0.8v15.3
				l0,0h175l0,0h0.7h88.7l27.9-80.9h-20.5c-20.3,44.5-51.7,49.7-80.4,49.7c-23.4,0-39-1.3-50.1-8.5c-8.9-5.7-12.3-20.8-12.4-46.3
				V258.9v-4.6c0-30.2-0.2-46.8,10.2-55.8c6.7-5.7,17.6-7.8,35.9-9.6V172.9L1429,172.9z"/>
		</g>
	</g>
	<g>
		<g>
			<defs>
				<path id="SVGID_1_" d="M319.4,206.5c13.9,41.4,22,85,25,128.4c1,14.7,1.4,29.6,1.4,44.5h-0.1c0,14.9-0.3,29.7-1.4,44.5
					c-3.7,53.2-14.8,106.3-35.2,155.6c-7.9,19.1-17.3,37.7-28.2,55.4c-2.6,4.1-5,8.4-7.7,12.5c-5.6,8.2-11.5,16.4-17.9,24.2
					c-7.3,9-15,17.7-23.3,25.8c-8.8,8.6-18.2,16.6-28.2,23.7c-0.8,0.5-1.6,1.2-2.4,1.8v1c18.5-0.5,36.9-5.2,53.8-13
					c8.2-3.8,16-8.3,23.3-13.4c1.6-1.1,3.2-2.1,4.7-3.3c9.3-7,17.9-14.8,25.8-23.3c10.5-11.1,19.8-23.1,28.2-36
					c6.7-10.2,12.8-20.6,18.3-31.4c21.5-42.1,35.2-88.9,42.3-134.8c4.6-29.9,6.7-59.9,6.7-89.3l0,0c0-29.5-2.1-59.4-6.7-89.3
					c-7.1-45.9-20.8-92.7-42.3-134.8c-2.5-4.9-5.2-9.7-7.9-14.5C336.4,161.7,327.1,183.8,319.4,206.5"/>
			</defs>
			<clipPath id="SVGID_2_">
				<use xlink:href="#SVGID_1_"  overflow="visible"/>
			</clipPath>
			
				<linearGradient id="SVGID_3_" gradientUnits="userSpaceOnUse" x1="600.2742" y1="469.3738" x2="607.7651" y2="469.3738" gradientTransform="matrix(8.417182e-06 -192.3085 192.3085 8.417182e-06 -89961.3984 116672.8516)">
				<stop  offset="0" style="stop-color:#D42D28"/>
				<stop  offset="0.3079" style="stop-color:#D12C28"/>
				<stop  offset="0.5095" style="stop-color:#C92A26"/>
				<stop  offset="0.6806" style="stop-color:#BA2723"/>
				<stop  offset="0.8347" style="stop-color:#A42220"/>
				<stop  offset="0.9761" style="stop-color:#891C1B"/>
				<stop  offset="1" style="stop-color:#841B1A"/>
			</linearGradient>
			<rect x="201.6" y="140.7" clip-path="url(#SVGID_2_)" fill="url(#SVGID_3_)" width="203.1" height="582.9"/>
		</g>
	</g>
	<g>
		<g>
			<defs>
				<path id="SVGID_4_" d="M373.2,100.4c2.6,3.7,5.2,7.3,7.7,11.1c44.3,65.9,65.6,144.8,71.1,223.5c1,14.7,1.5,29.6,1.5,44.5
					s-0.5,29.7-1.5,44.5c-5.4,78.6-26.7,157.6-71.1,223.5c-5.6,8.2-11.5,16.4-17.9,24.2c-7.3,9-15,17.6-23.3,25.8
					c-8.8,8.6-18.3,16.6-28.2,23.7c-0.8,0.5-1.6,1.2-2.4,1.8v1l0,0c18.5-0.5,36.9-5.2,53.8-13c8.2-3.8,16-8.3,23.3-13.4
					c1.6-1.1,3.2-2.1,4.7-3.3c31.2-23.4,54.6-56.1,72.3-90.6c21.5-42.1,35.2-88.9,42.3-134.8c4.6-29.9,6.7-59.9,6.7-89.3l0,0
					c0-29.5-2.1-59.4-6.7-89.3c-7.1-45.9-20.8-92.7-42.3-134.8c-16.3-31.8-37.6-62.1-65.3-85C389,79.9,380.8,90,373.2,100.4"/>
			</defs>
			<clipPath id="SVGID_5_">
				<use xlink:href="#SVGID_4_"  overflow="visible"/>
			</clipPath>
			
				<linearGradient id="SVGID_6_" gradientUnits="userSpaceOnUse" x1="600.833" y1="469.2233" x2="608.3239" y2="469.2233" gradientTransform="matrix(5.430440e-06 -123.5682 123.5682 5.430440e-06 -57570.3477 75103.6953)">
				<stop  offset="0" style="stop-color:#D42D28"/>
				<stop  offset="0.3079" style="stop-color:#D12C28"/>
				<stop  offset="0.5095" style="stop-color:#C92A26"/>
				<stop  offset="0.6806" style="stop-color:#BA2723"/>
				<stop  offset="0.8347" style="stop-color:#A42220"/>
				<stop  offset="0.9761" style="stop-color:#891C1B"/>
				<stop  offset="1" style="stop-color:#841B1A"/>
			</linearGradient>
			<rect x="309.2" y="70.3" clip-path="url(#SVGID_5_)" fill="url(#SVGID_6_)" width="203.1" height="653.3"/>
		</g>
	</g>
	<g>
		<g>
			<defs>
				<path id="SVGID_7_" d="M416.9,35.1v1c28.5,19.9,52.6,47,71.7,75.4c44.3,65.9,65.6,144.9,71.1,223.5c1,14.7,1.5,29.6,1.5,44.5
					s-0.5,29.7-1.5,44.5c-5.4,78.6-26.7,157.6-71.1,223.5c-19.1,28.4-43.2,55.6-71.7,75.5v1l0,0c29.3-0.7,58.5-12.2,81.8-29.7
					c31.2-23.4,54.6-56.1,72.3-90.6c21.5-42.1,35.2-88.9,42.3-134.8c4.6-29.9,6.7-59.9,6.7-89.3l0,0c0-29.5-2.1-59.4-6.7-89.3
					c-7.1-45.9-20.8-92.7-42.3-134.8c-17.6-34.5-41.1-67.2-72.3-90.6C475.3,47.3,446.1,35.8,416.9,35.1L416.9,35.1z"/>
			</defs>
			<clipPath id="SVGID_8_">
				<use xlink:href="#SVGID_7_"  overflow="visible"/>
			</clipPath>
			
				<linearGradient id="SVGID_9_" gradientUnits="userSpaceOnUse" x1="600.8834" y1="470.2754" x2="608.3743" y2="470.2754" gradientTransform="matrix(7.602616e-06 -174.3027 174.3027 7.602616e-06 -81451.9062 105770.6797)">
				<stop  offset="0" style="stop-color:#D42D28"/>
				<stop  offset="0.3079" style="stop-color:#D12C28"/>
				<stop  offset="0.5095" style="stop-color:#C92A26"/>
				<stop  offset="0.6806" style="stop-color:#BA2723"/>
				<stop  offset="0.8347" style="stop-color:#A42220"/>
				<stop  offset="0.9761" style="stop-color:#891C1B"/>
				<stop  offset="1" style="stop-color:#841B1A"/>
			</linearGradient>
			<rect x="416.8" y="35.1" clip-path="url(#SVGID_8_)" fill="url(#SVGID_9_)" width="203.1" height="688.6"/>
		</g>
	</g>
	<g>
		<g>
			<defs>
				<path id="SVGID_10_" d="M416.8,35.1c-18.5,0.5-36.9,5.2-53.8,13c-8.2,3.7-16,8.3-23.3,13.4c-1.6,1.1-3.2,2.1-4.7,3.3
					c-9.3,6.9-17.9,14.9-25.8,23.3c-10.5,11.1-19.8,23.1-28.2,36c-6.7,10.2-12.8,20.6-18.3,31.4c-21.5,42.1-35.2,88.9-42.3,134.8
					c-4.6,29.9-6.7,59.9-6.7,89.3c-0.1,29.5,2.1,59.4,6.7,89.3c7.1,45.9,20.8,92.7,42.3,134.8c2.5,4.9,5.2,9.7,7.9,14.5
					c11.5-21,20.8-43,28.4-65.7c-13.9-41.5-22-84.9-25-128.4c-1-14.7-1.4-29.6-1.4-44.5h0.1c0-14.9,0.3-29.7,1.4-44.5
					c3.7-53.2,14.8-106.3,35.2-155.6c7.9-19.1,17.3-37.7,28.2-55.4c2.6-4.1,5-8.4,7.7-12.5c5.6-8.2,11.5-16.4,17.9-24.2
					c7.3-9,15-17.6,23.3-25.8c8.8-8.6,18.2-16.6,28.2-23.7c0.8-0.5,1.6-1.2,2.4-1.8L416.8,35.1L416.8,35.1z"/>
			</defs>
			<clipPath id="SVGID_11_">
				<use xlink:href="#SVGID_10_"  overflow="visible"/>
			</clipPath>
			
				<linearGradient id="SVGID_12_" gradientUnits="userSpaceOnUse" x1="600.0146" y1="472.5716" x2="607.5054" y2="472.5716" gradientTransform="matrix(-8.417182e-06 192.3085 -192.3085 -8.417182e-06 91194.8359 -115864.1953)">
				<stop  offset="0" style="stop-color:#D42D28"/>
				<stop  offset="0.3079" style="stop-color:#D12C28"/>
				<stop  offset="0.5095" style="stop-color:#C92A26"/>
				<stop  offset="0.6806" style="stop-color:#BA2723"/>
				<stop  offset="0.8347" style="stop-color:#A42220"/>
				<stop  offset="0.9761" style="stop-color:#891C1B"/>
				<stop  offset="1" style="stop-color:#841B1A"/>
			</linearGradient>
			<rect x="213.8" y="35.1" clip-path="url(#SVGID_11_)" fill="url(#SVGID_12_)" width="203.1" height="582.9"/>
		</g>
	</g>
	<g>
		<g>
			<defs>
				<path id="SVGID_13_" d="M309.2,35.1c-18.5,0.5-36.9,5.2-53.8,13c-8.2,3.8-16,8.3-23.3,13.4c-1.6,1.1-3.2,2.1-4.7,3.3
					c-31.2,23.4-54.6,56.1-72.3,90.6c-21.5,42.1-35.2,88.9-42.3,134.8c-4.6,29.9-6.7,59.9-6.7,89.3l0,0c-0.1,29.5,2.1,59.4,6.7,89.3
					c7.1,45.9,20.8,92.7,42.3,134.8c16.2,31.8,37.6,62.1,65.3,85c8.9-9.6,17.2-19.7,24.8-30.1c-2.6-3.7-5.2-7.3-7.7-11.1
					c-44.4-65.9-65.6-144.8-71.1-223.5c-1-14.7-1.5-29.6-1.5-44.5s0.5-29.7,1.5-44.5c5.4-78.6,26.7-157.6,71.1-223.5
					c5.6-8.2,11.5-16.4,17.9-24.2c7.3-9,15-17.6,23.3-25.8c8.8-8.6,18.2-16.6,28.2-23.7c0.8-0.5,1.6-1.2,2.4-1.8L309.2,35.1
					L309.2,35.1z"/>
			</defs>
			<clipPath id="SVGID_14_">
				<use xlink:href="#SVGID_13_"  overflow="visible"/>
			</clipPath>
			
				<linearGradient id="SVGID_15_" gradientUnits="userSpaceOnUse" x1="600.4288" y1="474.2003" x2="607.9197" y2="474.2003" gradientTransform="matrix(-5.430440e-06 123.5693 -123.5693 -5.430440e-06 58804.3086 -74295.6172)">
				<stop  offset="0" style="stop-color:#D42D28"/>
				<stop  offset="0.3079" style="stop-color:#D12C28"/>
				<stop  offset="0.5095" style="stop-color:#C92A26"/>
				<stop  offset="0.6806" style="stop-color:#BA2723"/>
				<stop  offset="0.8347" style="stop-color:#A42220"/>
				<stop  offset="0.9761" style="stop-color:#891C1B"/>
				<stop  offset="1" style="stop-color:#841B1A"/>
			</linearGradient>
			<rect x="106.2" y="35.1" clip-path="url(#SVGID_14_)" fill="url(#SVGID_15_)" width="203.1" height="653.3"/>
		</g>
	</g>
	<g>
		<g>
			<defs>
				<path id="SVGID_16_" d="M201.6,35.1c-29.3,0.7-58.5,12.2-81.8,29.7c-31.2,23.4-54.6,56.1-72.3,90.6
					C26,197.4,12.3,244.2,5.2,290.1c-3.9,25.3-6,50.6-6.6,75.8v27.5c0.5,24.9,2.6,50.2,6.6,75.3c7.1,45.9,20.8,92.7,42.3,134.8
					c17.6,34.5,41.1,67.2,72.3,90.6c23.3,17.4,52.5,28.9,81.8,29.7v-1c-28.5-19.8-52.6-47-71.7-75.4c-44.3-66-65.6-144.9-71.1-223.5
					c-1-14.7-1.5-29.6-1.5-44.5s0.5-29.7,1.5-44.5c5.4-78.7,26.7-157.6,71.1-223.5c19.1-28.4,43.2-55.6,71.7-75.5V35.1L201.6,35.1z"
					/>
			</defs>
			<clipPath id="SVGID_17_">
				<use xlink:href="#SVGID_16_"  overflow="visible"/>
			</clipPath>
			
				<linearGradient id="SVGID_18_" gradientUnits="userSpaceOnUse" x1="600.5969" y1="473.8033" x2="608.0878" y2="473.8033" gradientTransform="matrix(-7.602616e-06 174.3033 -174.3033 -7.602616e-06 82685.6797 -104962.4297)">
				<stop  offset="0" style="stop-color:#D42D28"/>
				<stop  offset="0.3079" style="stop-color:#D12C28"/>
				<stop  offset="0.5095" style="stop-color:#C92A26"/>
				<stop  offset="0.6806" style="stop-color:#BA2723"/>
				<stop  offset="0.8347" style="stop-color:#A42220"/>
				<stop  offset="0.9761" style="stop-color:#891C1B"/>
				<stop  offset="1" style="stop-color:#841B1A"/>
			</linearGradient>
			<rect x="-1.3" y="35.1" clip-path="url(#SVGID_17_)" fill="url(#SVGID_18_)" width="202.9" height="688.6"/>
		</g>
	</g>
</g>
</svg>
