<?xml version="1.0" encoding="utf-8"?>
<!-- Generator: Adobe Illustrator 19.1.0, SVG Export Plug-In . SVG Version: 6.00 Build 0)  -->
<svg version="1.1" id="Layer_1" xmlns="http://www.w3.org/2000/svg" xmlns:xlink="http://www.w3.org/1999/xlink" x="0px" y="0px"
	 viewBox="0 0 111.3 49.5" style="enable-background:new 0 0 111.3 49.5;" xml:space="preserve">
<style type="text/css">
	.st0{fill:#FFFFFF;}
	.st1{clip-path:url(#SVGID_2_);fill:url(#SVGID_3_);}
	.st2{clip-path:url(#SVGID_5_);fill:url(#SVGID_6_);}
	.st3{clip-path:url(#SVGID_8_);fill:url(#SVGID_9_);}
	.st4{clip-path:url(#SVGID_11_);fill:url(#SVGID_12_);}
	.st5{clip-path:url(#SVGID_14_);fill:url(#SVGID_15_);}
	.st6{clip-path:url(#SVGID_17_);fill:url(#SVGID_18_);}
	.st7{fill:#8B1409;}
	.st8{fill:none;}
</style>
<g>
	<path class="st0" d="M67.5,9.9h-9.6h-3v1.2c0.6,0.1,1.1,0.1,1.5,0.2c0.5,0.1,0.8,0.3,1.1,0.5c0.8,0.6,0.7,1.8,0.7,4v14.6
		c0,3,0.3,7.2-3.9,7.1c-1.8,0-3.7-1.3-4.2-3.7h-1.4c0.6,3.9,2.7,6.6,7.8,6.6h0h0c4.3,0,8.2-2,8.1-8.7V20.4v-4.6c0-2.2,0-3.3,0.7-4
		c0.5-0.4,0.9-0.6,2.2-0.7V9.9z"/>
	<path class="st0" d="M81.9,9.9H69.3V11v0.1c1.3,0.1,1.7,0.3,2.2,0.7c0.6,0.5,0.7,1.4,0.7,2.8c0,0.4,0,0.9,0,1.5v17.4
		c0,0.5,0,1,0,1.5c0,1.4-0.1,2.3-0.7,2.8c-0.5,0.4-0.9,0.6-2.2,0.7v0.1v1.1v0h12.6v0h0.1h6.4l2-5.8h-1.5c-1.5,3.2-3.7,3.6-5.8,3.6
		c-1.7,0-2.8-0.1-3.6-0.6c-0.6-0.4-0.9-1.5-0.9-3.3V16.1v-0.3c0-2.2,0-3.4,0.7-4c0.5-0.4,1.3-0.6,2.6-0.7V9.9z"/>
	<path class="st0" d="M102.9,9.9H90.3V11v0.1c1.3,0.1,1.7,0.3,2.2,0.7c0.6,0.5,0.7,1.4,0.7,2.8c0,0.4,0,0.9,0,1.5v17.4
		c0,0.5,0,1,0,1.5c0,1.4-0.1,2.3-0.7,2.8c-0.5,0.4-0.9,0.6-2.2,0.7v0.1v1.1v0h12.6v0h0.1h6.4l2-5.8h-1.5c-1.5,3.2-3.7,3.6-5.8,3.6
		c-1.7,0-2.8-0.1-3.6-0.6c-0.6-0.4-0.9-1.5-0.9-3.3V16.1v-0.3c0-2.2,0-3.4,0.7-4c0.5-0.4,1.3-0.6,2.6-0.7V9.9z"/>
</g>
<g>
	<defs>
		<path id="SVGID_1_" d="M18.5,45.8C18.5,45.8,18.5,45.8,18.5,45.8C18.5,45.8,18.5,45.8,18.5,45.8 M23.1,12.3c1,3,1.6,6.1,1.8,9.2
			c0.1,1.1,0.1,2.1,0.1,3.2h0c0,1.1,0,2.1-0.1,3.2c-0.3,3.8-1.1,7.6-2.5,11.2c-0.6,1.4-1.2,2.7-2,4c-0.2,0.3-0.4,0.6-0.6,0.9
			c-0.4,0.6-0.8,1.2-1.3,1.7c-0.5,0.6-1.1,1.3-1.7,1.9c-0.6,0.6-1.3,1.2-2,1.7c-0.1,0-0.1,0.1-0.2,0.1v0.1c1.3,0,2.7-0.4,3.9-0.9
			c0.6-0.3,1.1-0.6,1.7-1c0.1-0.1,0.2-0.2,0.3-0.2c0.7-0.5,1.3-1.1,1.9-1.7c0.8-0.8,1.4-1.7,2-2.6c0.5-0.7,0.9-1.5,1.3-2.3
			c1.5-3,2.5-6.4,3-9.7c0.3-2.1,0.5-4.3,0.5-6.4c0-2.1-0.1-4.3-0.5-6.4c-0.5-3.3-1.5-6.7-3-9.7c-0.2-0.4-0.4-0.7-0.6-1
			C24.3,9.1,23.6,10.7,23.1,12.3"/>
	</defs>
	<clipPath id="SVGID_2_">
		<use xlink:href="#SVGID_1_"  style="overflow:visible;"/>
	</clipPath>
	
		<linearGradient id="SVGID_3_" gradientUnits="userSpaceOnUse" x1="316.9999" y1="791.2601" x2="317.9999" y2="791.2601" gradientTransform="matrix(4.500000e-06 -103.6083 -103.6083 -4.500000e-06 82002.9844 32930.1211)">
		<stop  offset="0" style="stop-color:#D82C25"/>
		<stop  offset="0.2544" style="stop-color:#D62C24"/>
		<stop  offset="0.443" style="stop-color:#CF2A23"/>
		<stop  offset="0.6103" style="stop-color:#C32720"/>
		<stop  offset="0.7653" style="stop-color:#B1221A"/>
		<stop  offset="0.9105" style="stop-color:#9B1B12"/>
		<stop  offset="1" style="stop-color:#8B1409"/>
	</linearGradient>
	<rect x="14.6" y="7.6" class="st1" width="14.6" height="41.9"/>
</g>
<g>
	<defs>
		<path id="SVGID_4_" d="M26.9,4.7c0.2,0.3,0.4,0.5,0.6,0.8c3.2,4.7,4.7,10.4,5.1,16.1c0.1,1.1,0.1,2.1,0.1,3.2c0,1.1,0,2.1-0.1,3.2
			c-0.4,5.7-1.9,11.3-5.1,16.1c-0.4,0.6-0.8,1.2-1.3,1.7c-0.5,0.6-1.1,1.3-1.7,1.9c-0.6,0.6-1.3,1.2-2,1.7c-0.1,0-0.1,0.1-0.2,0.1
			v0.1c1.3,0,2.7-0.4,3.9-0.9c0.6-0.3,1.1-0.6,1.7-1c0.1-0.1,0.2-0.2,0.3-0.2c2.2-1.7,3.9-4,5.2-6.5c1.5-3,2.5-6.4,3-9.7
			c0.3-2.1,0.5-4.3,0.5-6.4h0c0-2.1-0.2-4.3-0.5-6.4c-0.5-3.3-1.5-6.7-3-9.7c-1.2-2.3-2.7-4.5-4.7-6.1C28.1,3.2,27.5,4,26.9,4.7"/>
	</defs>
	<clipPath id="SVGID_5_">
		<use xlink:href="#SVGID_4_"  style="overflow:visible;"/>
	</clipPath>
	
		<linearGradient id="SVGID_6_" gradientUnits="userSpaceOnUse" x1="317.5562" y1="795.2989" x2="318.5562" y2="795.2989" gradientTransform="matrix(2.900000e-06 -66.5737 -66.5737 -2.900000e-06 52975.6562 21200.2227)">
		<stop  offset="0" style="stop-color:#D82C25"/>
		<stop  offset="0.2544" style="stop-color:#D62C24"/>
		<stop  offset="0.443" style="stop-color:#CF2A23"/>
		<stop  offset="0.6103" style="stop-color:#C32720"/>
		<stop  offset="0.7653" style="stop-color:#B1221A"/>
		<stop  offset="0.9105" style="stop-color:#9B1B12"/>
		<stop  offset="1" style="stop-color:#8B1409"/>
	</linearGradient>
	<rect x="22.3" y="2.5" class="st2" width="14.6" height="47"/>
</g>
<g>
	<defs>
		<path id="SVGID_7_" d="M30.1,0.1c2,1.4,3.8,3.4,5.2,5.4c3.2,4.7,4.7,10.4,5.1,16.1c0.1,1.1,0.1,2.1,0.1,3.2c0,1.1,0,2.1-0.1,3.2
			c-0.4,5.7-1.9,11.3-5.1,16.1c-1.4,2-3.1,4-5.2,5.4v0.1h0c2.1-0.1,4.2-0.9,5.9-2.1c2.2-1.7,3.9-4,5.2-6.5c1.5-3,2.5-6.4,3-9.7
			c0.3-2.1,0.5-4.3,0.5-6.4h0c0-2.1-0.1-4.3-0.5-6.4c-0.5-3.3-1.5-6.7-3-9.7c-1.3-2.5-3-4.8-5.2-6.5C34.3,0.9,32.2,0.1,30.1,0.1
			L30.1,0.1z"/>
	</defs>
	<clipPath id="SVGID_8_">
		<use xlink:href="#SVGID_7_"  style="overflow:visible;"/>
	</clipPath>
	
		<linearGradient id="SVGID_9_" gradientUnits="userSpaceOnUse" x1="317.1032" y1="792.0101" x2="318.1032" y2="792.0101" gradientTransform="matrix(4.100000e-06 -93.9075 -93.9075 -4.100000e-06 74413.0312 29850.2871)">
		<stop  offset="0" style="stop-color:#D82C25"/>
		<stop  offset="0.2544" style="stop-color:#D62C24"/>
		<stop  offset="0.443" style="stop-color:#CF2A23"/>
		<stop  offset="0.6103" style="stop-color:#C32720"/>
		<stop  offset="0.7653" style="stop-color:#B1221A"/>
		<stop  offset="0.9105" style="stop-color:#9B1B12"/>
		<stop  offset="1" style="stop-color:#8B1409"/>
	</linearGradient>
	<rect x="30.1" y="0" class="st3" width="14.6" height="49.5"/>
</g>
<g>
	<defs>
		<path id="SVGID_10_" d="M30.1,0c-1.3,0-2.7,0.4-3.9,0.9c-0.6,0.3-1.1,0.6-1.7,1c-0.1,0.1-0.2,0.2-0.3,0.2
			c-0.7,0.5-1.3,1.1-1.9,1.7c-0.8,0.8-1.4,1.7-2,2.6c-0.5,0.7-0.9,1.5-1.3,2.3c-1.5,3-2.5,6.4-3,9.7c-0.3,2.1-0.5,4.3-0.5,6.4
			c0,2.1,0.1,4.3,0.5,6.4c0.5,3.3,1.5,6.7,3,9.7c0.2,0.4,0.4,0.7,0.6,1c0.8-1.5,1.5-3.1,2-4.7c-1-3-1.6-6.1-1.8-9.2
			c-0.1-1.1-0.1-2.1-0.1-3.2h0c0-1.1,0-2.1,0.1-3.2c0.3-3.8,1.1-7.6,2.5-11.2c0.6-1.4,1.2-2.7,2-4c0.2-0.3,0.4-0.6,0.6-0.9
			c0.4-0.6,0.8-1.2,1.3-1.7c0.5-0.6,1.1-1.3,1.7-1.9c0.6-0.6,1.3-1.2,2-1.7C30,0.2,30,0.1,30.1,0L30.1,0L30.1,0z"/>
	</defs>
	<clipPath id="SVGID_11_">
		<use xlink:href="#SVGID_10_"  style="overflow:visible;"/>
	</clipPath>
	
		<linearGradient id="SVGID_12_" gradientUnits="userSpaceOnUse" x1="315.0001" y1="776.7399" x2="316.0001" y2="776.7399" gradientTransform="matrix(-4.500000e-06 103.6083 103.6083 4.500000e-06 -80453.8984 -32673.3945)">
		<stop  offset="0" style="stop-color:#D82C25"/>
		<stop  offset="0.2544" style="stop-color:#D62C24"/>
		<stop  offset="0.443" style="stop-color:#CF2A23"/>
		<stop  offset="0.6103" style="stop-color:#C32720"/>
		<stop  offset="0.7653" style="stop-color:#B1221A"/>
		<stop  offset="0.9105" style="stop-color:#9B1B12"/>
		<stop  offset="1" style="stop-color:#8B1409"/>
	</linearGradient>
	<rect x="15.5" y="0" class="st4" width="14.6" height="41.9"/>
</g>
<g>
	<defs>
		<path id="SVGID_13_" d="M22.3,0c-1.3,0-2.7,0.4-3.9,0.9c-0.6,0.3-1.1,0.6-1.7,1c-0.1,0.1-0.2,0.2-0.3,0.2c-2.2,1.7-3.9,4-5.2,6.5
			c-1.5,3-2.5,6.4-3,9.7c-0.3,2.1-0.5,4.3-0.5,6.4c0,2.1,0.1,4.3,0.5,6.4c0.5,3.3,1.5,6.7,3,9.7c1.2,2.3,2.7,4.5,4.7,6.1
			c0.6-0.7,1.2-1.4,1.8-2.2c-0.2-0.3-0.4-0.5-0.6-0.8C14,39.3,12.5,33.6,12.1,28C12,26.9,12,25.8,12,24.8c0-1.1,0-2.1,0.1-3.2
			c0.4-5.7,1.9-11.3,5.1-16.1c0.4-0.6,0.8-1.2,1.3-1.7c0.5-0.6,1.1-1.3,1.7-1.9c0.6-0.6,1.3-1.2,2-1.7C22.2,0.2,22.3,0.1,22.3,0
			L22.3,0L22.3,0z"/>
	</defs>
	<clipPath id="SVGID_14_">
		<use xlink:href="#SVGID_13_"  style="overflow:visible;"/>
	</clipPath>
	
		<linearGradient id="SVGID_15_" gradientUnits="userSpaceOnUse" x1="314.4438" y1="772.7012" x2="315.4438" y2="772.7012" gradientTransform="matrix(-2.900000e-06 66.5743 66.5743 2.900000e-06 -51426.9805 -20943.6621)">
		<stop  offset="0" style="stop-color:#D82C25"/>
		<stop  offset="0.2544" style="stop-color:#D62C24"/>
		<stop  offset="0.443" style="stop-color:#CF2A23"/>
		<stop  offset="0.6103" style="stop-color:#C32720"/>
		<stop  offset="0.7653" style="stop-color:#B1221A"/>
		<stop  offset="0.9105" style="stop-color:#9B1B12"/>
		<stop  offset="1" style="stop-color:#8B1409"/>
	</linearGradient>
	<rect x="7.7" y="0" class="st5" width="14.6" height="47"/>
</g>
<g>
	<defs>
		<path id="SVGID_16_" d="M14.6,0c-2.1,0.1-4.2,0.9-5.9,2.1c-2.2,1.7-3.9,4-5.2,6.5c-1.5,3-2.5,6.4-3,9.7C0.2,20.2,0,22,0,23.8v1.9
			c0,1.8,0.2,3.6,0.5,5.4c0.5,3.3,1.5,6.7,3,9.7c1.3,2.5,3,4.8,5.2,6.5c1.7,1.3,3.8,2.1,5.9,2.1v-0.1c-2-1.4-3.8-3.4-5.2-5.4
			C6.2,39.3,4.7,33.6,4.3,28c-0.1-1.1-0.1-2.1-0.1-3.2c0-1.1,0-2.1,0.1-3.2c0.4-5.7,1.9-11.3,5.1-16.1C10.8,3.5,12.5,1.5,14.6,0
			L14.6,0z"/>
	</defs>
	<clipPath id="SVGID_17_">
		<use xlink:href="#SVGID_16_"  style="overflow:visible;"/>
	</clipPath>
	
		<linearGradient id="SVGID_18_" gradientUnits="userSpaceOnUse" x1="314.8968" y1="775.99" x2="315.8968" y2="775.99" gradientTransform="matrix(-4.100000e-06 93.9078 93.9078 4.100000e-06 -72864.2188 -29593.6719)">
		<stop  offset="0" style="stop-color:#D82C25"/>
		<stop  offset="0.2544" style="stop-color:#D62C24"/>
		<stop  offset="0.443" style="stop-color:#CF2A23"/>
		<stop  offset="0.6103" style="stop-color:#C32720"/>
		<stop  offset="0.7653" style="stop-color:#B1221A"/>
		<stop  offset="0.9105" style="stop-color:#9B1B12"/>
		<stop  offset="1" style="stop-color:#8B1409"/>
	</linearGradient>
	<rect y="0" class="st6" width="14.6" height="49.5"/>
</g>
<g>
	<path class="st7" d="M23.7,47c0.6-0.7,1.2-1.4,1.8-2.2c-0.2-0.3-0.4-0.5-0.6-0.8c-0.2-0.3-0.4-0.6-0.6-0.9c-0.6,0.9-1.3,1.8-2,2.6
		C22.8,46.2,23.2,46.6,23.7,47"/>
	<path class="st7" d="M27.9,47.6c-0.5,0.4-1.1,0.7-1.7,1c1.2,0.6,2.5,0.9,3.9,0.9h0v-0.1C29.3,48.9,28.6,48.3,27.9,47.6"/>
	<path class="st7" d="M21.6,49.5c0.2,0,0.4-0.1,0.6-0.1c-0.2-0.2-0.4-0.3-0.6-0.5c-0.5-0.4-1-0.8-1.5-1.3c-0.5,0.4-1.1,0.7-1.7,1
		c0.8,0.4,1.6,0.6,2.5,0.8C21.2,49.4,21.4,49.5,21.6,49.5 M22.3,49.5L22.3,49.5c0-0.1-0.1-0.1-0.1-0.1c-0.2,0-0.4,0.1-0.6,0.1
		C21.8,49.5,22.1,49.5,22.3,49.5z"/>
	<path class="st7" d="M21,2.5c-0.6,0.7-1.2,1.4-1.8,2.2c0.2,0.3,0.4,0.5,0.6,0.8c0.2,0.3,0.4,0.6,0.6,0.9c0.6-0.9,1.3-1.8,2-2.6
		C21.9,3.4,21.5,2.9,21,2.5"/>
	<path class="st7" d="M16.8,1.9c0.5-0.4,1.1-0.7,1.7-1C17.2,0.4,15.9,0,14.6,0h0v0.1C15.4,0.6,16.1,1.2,16.8,1.9"/>
	<path class="st7" d="M26.2,0.9c-0.8-0.4-1.6-0.6-2.5-0.8c-0.2,0-0.4-0.1-0.6-0.1l0,0c-0.2,0-0.5,0-0.7-0.1v0.1c0,0,0.1,0.1,0.1,0.1
		h0c0.2,0.2,0.4,0.3,0.6,0.5c0.5,0.4,1,0.8,1.5,1.3C25.1,1.5,25.6,1.2,26.2,0.9"/>
</g>
<rect x="0" y="0" class="st8" width="111.3" height="49.5"/>
</svg>
