<svg width="876" height="816" viewBox="0 0 876 816" fill="none" xmlns="http://www.w3.org/2000/svg">
<g clip-path="url(#clip0_2649_10311)">
<rect width="876" height="816" fill="black"/>
<circle cx="582.394" cy="292.18" r="217.364" transform="rotate(60 582.394 292.18)" stroke="white" stroke-width="2" stroke-linecap="round" stroke-dasharray="4 10"/>
<circle cx="439.58" cy="533.042" r="217.364" transform="rotate(60 439.58 533.042)" stroke="white" stroke-width="2" stroke-linecap="round" stroke-dasharray="4 10"/>
<circle cx="288.512" cy="292.18" r="217.364" transform="rotate(60 288.512 292.18)" stroke="white" stroke-width="2" stroke-linecap="round" stroke-dasharray="4 10"/>
<path d="M401.332 564.696C404.164 564.144 405.1 562.488 405.1 560.544C405.1 557.952 403.492 556.2 399.844 556.2H395.284H393.148V573H395.284H399.292C402.82 573 404.356 571.248 404.356 568.584C404.356 566.832 403.54 565.344 401.332 564.696ZM399.82 558.048C402.028 558.048 403.012 559.08 403.012 560.664C403.012 562.536 401.692 563.664 399.676 563.664H395.284V558.048H399.82ZM399.028 571.128H395.284V565.464H398.644C400.804 565.464 402.172 566.592 402.172 568.368C402.172 570.072 401.164 571.128 399.028 571.128ZM416.166 561V564.696C416.166 569.088 414.174 571.56 412.11 571.56C410.502 571.56 409.854 570.408 409.854 567.936V561H407.814V568.632C407.814 571.776 409.23 573.24 411.558 573.24C414.15 573.24 415.47 571.416 416.166 569.328V573H418.158V561H416.166ZM423.344 569.352H421.448C421.616 571.872 423.416 573.24 426.08 573.24C428.456 573.24 430.448 572.232 430.448 570C430.448 567.696 428.216 566.928 426.128 566.424C424.016 565.896 423.056 565.488 423.056 564.216C423.056 563.232 423.848 562.392 425.696 562.392C427.424 562.392 428.912 563.184 429.032 565.152H430.928C430.568 561.96 428.384 560.784 425.72 560.784C422.936 560.784 421.112 562.08 421.112 564.216C421.112 566.256 422.624 567.216 424.976 567.816C426.68 568.272 428.432 568.488 428.432 570.024C428.432 571.176 427.568 571.656 426.176 571.656C424.472 571.656 423.488 570.864 423.344 569.352ZM433.499 558.888H435.851V556.68H433.499V558.888ZM435.683 573V561H433.643V573H435.683ZM445.798 560.76C443.23 560.76 441.91 562.584 441.214 564.672V561H439.198V573H441.214V569.304C441.214 564.912 443.206 562.44 445.246 562.44C446.878 562.44 447.502 563.592 447.502 566.064V573H449.542V565.368C449.542 562.224 448.15 560.76 445.798 560.76ZM461.593 569.136C461.281 570.648 460.105 571.608 458.353 571.608C456.145 571.608 454.681 570.024 454.513 567.528H463.441V567.096C463.441 563.208 461.497 560.784 458.089 560.784C454.465 560.784 452.473 563.568 452.473 567C452.473 570.408 454.489 573.24 458.305 573.24C461.521 573.24 463.225 571.344 463.489 569.136H461.593ZM458.137 562.392C460.297 562.392 461.257 563.952 461.425 566.04H454.561C454.825 563.904 456.001 562.392 458.137 562.392ZM468.157 569.352H466.261C466.429 571.872 468.229 573.24 470.893 573.24C473.269 573.24 475.261 572.232 475.261 570C475.261 567.696 473.029 566.928 470.941 566.424C468.829 565.896 467.869 565.488 467.869 564.216C467.869 563.232 468.661 562.392 470.509 562.392C472.237 562.392 473.725 563.184 473.845 565.152H475.741C475.381 561.96 473.197 560.784 470.533 560.784C467.749 560.784 465.925 562.08 465.925 564.216C465.925 566.256 467.437 567.216 469.789 567.816C471.493 568.272 473.245 568.488 473.245 570.024C473.245 571.176 472.381 571.656 470.989 571.656C469.285 571.656 468.301 570.864 468.157 569.352ZM480.18 569.352H478.284C478.452 571.872 480.252 573.24 482.916 573.24C485.292 573.24 487.284 572.232 487.284 570C487.284 567.696 485.052 566.928 482.964 566.424C480.852 565.896 479.892 565.488 479.892 564.216C479.892 563.232 480.684 562.392 482.532 562.392C484.26 562.392 485.748 563.184 485.868 565.152H487.764C487.404 561.96 485.22 560.784 482.556 560.784C479.772 560.784 477.948 562.08 477.948 564.216C477.948 566.256 479.46 567.216 481.812 567.816C483.516 568.272 485.268 568.488 485.268 570.024C485.268 571.176 484.404 571.656 483.012 571.656C481.308 571.656 480.324 570.864 480.18 569.352ZM424.188 585.2V599.504L415.548 585.2H412.812V602H414.948V587.72L423.612 602H426.3V585.2H424.188ZM438.671 598.136C438.359 599.648 437.183 600.608 435.431 600.608C433.223 600.608 431.759 599.024 431.591 596.528H440.519V596.096C440.519 592.208 438.575 589.784 435.167 589.784C431.543 589.784 429.551 592.568 429.551 596C429.551 599.408 431.567 602.24 435.383 602.24C438.599 602.24 440.303 600.344 440.567 598.136H438.671ZM435.215 591.392C437.375 591.392 438.335 592.952 438.503 595.04H431.639C431.903 592.904 433.079 591.392 435.215 591.392ZM452.148 598.136C451.836 599.648 450.66 600.608 448.908 600.608C446.7 600.608 445.236 599.024 445.068 596.528H453.996V596.096C453.996 592.208 452.052 589.784 448.644 589.784C445.02 589.784 443.028 592.568 443.028 596C443.028 599.408 445.044 602.24 448.86 602.24C452.076 602.24 453.78 600.344 454.044 598.136H452.148ZM448.692 591.392C450.852 591.392 451.812 592.952 451.98 595.04H445.116C445.38 592.904 446.556 591.392 448.692 591.392ZM465.408 584.96V591.824C464.832 590.576 463.464 589.76 461.76 589.76C458.784 589.76 456.504 592.184 456.504 596.096C456.504 599.768 458.472 602.24 461.616 602.24C463.968 602.24 465.072 600.848 465.408 600.176V602H467.4V584.96H465.408ZM461.952 600.584C459.672 600.584 458.52 598.832 458.52 596.216C458.52 593.6 459.648 591.464 462.048 591.464C464.256 591.464 465.408 593.168 465.408 595.952C465.408 598.904 464.136 600.584 461.952 600.584Z" fill="white"/>
<path d="M212.603 265.12V263.2H202.211V280H212.603V278.08H204.395V272.392H212.051V270.568H204.395V265.12H212.603ZM229.361 267.784C227.393 267.784 225.977 269.056 225.257 271.096C224.873 268.96 223.673 267.784 221.681 267.784C219.377 267.784 218.177 269.584 217.745 270.976V268H215.729V280H217.745V275.368C217.745 271.624 219.185 269.536 221.153 269.536C222.737 269.536 223.433 270.664 223.433 272.944V280H225.401V275.368C225.401 271.792 226.865 269.536 228.833 269.536C230.417 269.536 231.089 270.664 231.089 272.944V280H233.081V271.912C233.081 269.488 231.785 267.784 229.361 267.784ZM242.253 267.76C240.549 267.76 239.205 268.576 238.605 269.824V268H236.589V285.28H238.605V278.176C238.941 278.848 240.069 280.24 242.373 280.24C245.541 280.24 247.509 277.768 247.509 274.096C247.509 270.184 245.229 267.76 242.253 267.76ZM242.061 278.584C239.877 278.584 238.605 276.904 238.605 273.952C238.605 271.168 239.781 269.464 241.965 269.464C244.365 269.464 245.469 271.6 245.469 274.216C245.469 276.832 244.341 278.584 242.061 278.584ZM255.151 267.784C251.767 267.784 250.303 269.824 250.231 272.152H252.175C252.295 270.4 253.231 269.416 255.151 269.416C256.687 269.416 257.791 270.232 257.791 271.432C257.791 272.632 256.735 272.872 254.479 273.208C251.191 273.712 249.655 274.648 249.655 276.832C249.655 279.064 251.431 280.24 253.639 280.24C256.063 280.24 257.335 278.752 257.791 277.84V280H259.735V271.672C259.735 269.056 257.743 267.784 255.151 267.784ZM254.023 278.68C252.751 278.68 251.647 278.104 251.647 276.832C251.647 275.512 252.775 275.008 254.839 274.624C256.015 274.408 257.071 274.168 257.791 273.736V274.72C257.791 277.24 256.015 278.68 254.023 278.68ZM267.953 278.32C266.585 278.32 265.913 277.552 265.913 275.944V269.584H268.865V268H265.913V264.832L263.897 265.168V268H261.617V269.584H263.897V276.208C263.897 278.608 265.313 280 267.521 280H269.321V278.32H267.953ZM278.439 267.76C275.871 267.76 274.551 269.584 273.855 271.672V268H273.879V262.96H271.863V268H271.839V280H273.855V276.304C273.855 271.912 275.847 269.44 277.887 269.44C279.519 269.44 280.143 270.592 280.143 273.064V280H282.182V272.368C282.182 269.224 280.791 267.76 278.439 267.76ZM294.124 268L290.428 277.864L286.252 268H284.02L289.42 280.384L288.844 281.896C288.34 283.216 287.668 283.624 286.156 283.624H284.5V285.28H286.54C288.964 285.28 289.924 284.344 290.788 282.136L296.212 268H294.124Z" fill="white"/>
<path d="M603.516 274.192H601.332C600.828 276.928 599.292 278.368 596.604 278.368C592.836 278.368 590.772 275.608 590.772 271.72C590.772 267.832 592.812 264.856 596.46 264.856C599.244 264.856 600.78 266.536 601.14 268.696H603.372C602.868 265.312 600.444 262.96 596.508 262.96C591.612 262.96 588.588 266.632 588.588 271.744C588.588 276.712 591.468 280.24 596.484 280.24C600.348 280.24 603.036 278.176 603.516 274.192ZM612.691 268C610.435 268 609.355 269.224 608.707 270.976V268H606.667V280H608.707V275.08C608.707 270.856 610.675 269.728 612.739 269.728H614.227V268H612.691ZM624.726 276.136C624.414 277.648 623.238 278.608 621.486 278.608C619.278 278.608 617.814 277.024 617.646 274.528H626.574V274.096C626.574 270.208 624.63 267.784 621.222 267.784C617.598 267.784 615.606 270.568 615.606 274C615.606 277.408 617.622 280.24 621.438 280.24C624.654 280.24 626.358 278.344 626.622 276.136H624.726ZM621.27 269.392C623.43 269.392 624.39 270.952 624.558 273.04H617.694C617.958 270.904 619.134 269.392 621.27 269.392ZM634.628 267.784C631.244 267.784 629.78 269.824 629.708 272.152H631.652C631.772 270.4 632.708 269.416 634.628 269.416C636.164 269.416 637.268 270.232 637.268 271.432C637.268 272.632 636.212 272.872 633.956 273.208C630.668 273.712 629.132 274.648 629.132 276.832C629.132 279.064 630.908 280.24 633.116 280.24C635.54 280.24 636.812 278.752 637.268 277.84V280H639.212V271.672C639.212 269.056 637.22 267.784 634.628 267.784ZM633.5 278.68C632.228 278.68 631.124 278.104 631.124 276.832C631.124 275.512 632.252 275.008 634.316 274.624C635.492 274.408 636.548 274.168 637.268 273.736V274.72C637.268 277.24 635.492 278.68 633.5 278.68ZM647.43 278.32C646.062 278.32 645.39 277.552 645.39 275.944V269.584H648.342V268H645.39V264.832L643.374 265.168V268H641.094V269.584H643.374V276.208C643.374 278.608 644.79 280 646.998 280H648.798V278.32H647.43ZM650.89 265.888H653.242V263.68H650.89V265.888ZM653.074 280V268H651.034V280H653.074ZM665.107 267.976L661.387 277.888L657.643 267.976H655.387L660.187 280H662.563L667.363 267.976H665.107ZM669.546 265.888H671.898V263.68H669.546V265.888ZM671.73 280V268H669.69V280H671.73ZM680.43 278.32C679.062 278.32 678.39 277.552 678.39 275.944V269.584H681.342V268H678.39V264.832L676.374 265.168V268H674.094V269.584H676.374V276.208C676.374 278.608 677.79 280 679.998 280H681.798V278.32H680.43ZM693.194 268L689.498 277.864L685.322 268H683.09L688.49 280.384L687.914 281.896C687.41 283.216 686.738 283.624 685.226 283.624H683.57V285.28H685.61C688.034 285.28 688.994 284.344 689.858 282.136L695.282 268H693.194Z" fill="white"/>
<path fill-rule="evenodd" clip-rule="evenodd" d="M503.359 325.237C495.938 373.253 472.546 418.466 435.449 452.417C419.528 437.809 405.533 420.56 394.157 400.856C380.713 377.571 372.068 352.833 367.913 327.786C412.503 312.16 459.958 311.928 503.359 325.237Z" stroke="white" stroke-width="3"/>
<path d="M422.548 362.434V369.754H413.62V362.434H411.412V379.234H413.62V371.65H422.548V379.234H424.78V362.434H422.548ZM443.249 373.426H441.065C440.561 376.162 439.025 377.602 436.337 377.602C432.569 377.602 430.505 374.842 430.505 370.954C430.505 367.066 432.545 364.09 436.193 364.09C438.977 364.09 440.513 365.77 440.873 367.93H443.105C442.601 364.546 440.177 362.194 436.241 362.194C431.345 362.194 428.321 365.866 428.321 370.978C428.321 375.946 431.201 379.474 436.217 379.474C440.081 379.474 442.769 377.41 443.249 373.426ZM451.869 362.434H446.709V379.234H451.869C457.485 379.234 460.077 375.826 460.077 370.834C460.077 365.842 457.461 362.434 451.869 362.434ZM451.605 377.362H448.869V364.306H451.605C456.693 364.306 457.821 367.522 457.821 370.786C457.821 374.218 456.573 377.362 451.605 377.362Z" fill="white"/>
</g>
<defs>
<clipPath id="clip0_2649_10311">
<rect width="876" height="816" fill="white"/>
</clipPath>
</defs>
</svg>
